<?xml version="1.0" encoding="UTF-8" standalone="no"?>
<!DOCTYPE svg PUBLIC "-//W3C//DTD SVG 1.1//EN"
 "http://www.w3.org/Graphics/SVG/1.1/DTD/svg11.dtd">
<!-- Generated by graphviz version 2.43.0 (0)
 -->
<!-- Title: %3 Pages: 1 -->
<svg width="590pt" height="1078pt"
 viewBox="0.00 0.00 590.00 1078.00" xmlns="http://www.w3.org/2000/svg" xmlns:xlink="http://www.w3.org/1999/xlink">
<g id="graph0" class="graph" transform="scale(1 1) rotate(0) translate(4 1074)">
<title>%3</title>
<g id="clust1" class="cluster">
<title>cluster_0</title>
<polygon fill="BurlyWood" stroke="black" points="8,-235 8,-1062 574,-1062 574,-235 8,-235"/>
<text text-anchor="middle" x="291" y="-1046.8" font-family="Times,serif" font-size="14.00">Bartlett\Sarif\Definition</text>
</g>
<g id="clust2" class="cluster">
<title>cluster_1</title>
<polygon fill="Bisque" stroke="black" points="165,-102 165,-227 417,-227 417,-102 165,-102"/>
<text text-anchor="middle" x="291" y="-211.8" font-family="Times,serif" font-size="14.00">Bartlett\Sarif\Internal</text>
</g>
<g id="clust3" class="cluster">
<title>cluster_2</title>
<polygon fill="transparent" stroke="black" points="220,-8 220,-94 362,-94 362,-8 220,-8"/>
<text text-anchor="middle" x="291" y="-78.8" font-family="Times,serif" font-size="14.00">0</text>
</g>
<!-- Bartlett\\Sarif\\Definition\\Run -->
<g id="node1" class="node">
<title>Bartlett\\Sarif\\Definition\\Run</title>
<polygon fill="#fefece" stroke="transparent" points="566,-1031 16,-1031 16,-243 566,-243 566,-1031"/>
<polygon fill="#eeeeee" stroke="transparent" points="16,-1009 16,-1031 566,-1031 566,-1009 16,-1009"/>
<polygon fill="none" stroke="black" points="16,-1009 16,-1031 566,-1031 566,-1009 16,-1009"/>
<text text-anchor="start" x="281.5" y="-1014.6" font-family="Verdana" font-weight="bold" font-size="8.00">Run</text>
<polygon fill="none" stroke="black" points="16,-639 16,-1009 566,-1009 566,-639 16,-639"/>
<text text-anchor="start" x="21" y="-997.6" font-family="Verdana" font-size="8.00"># tool</text>
<text text-anchor="start" x="21" y="-984.6" font-family="Verdana" font-size="8.00"># invocations : mixed</text>
<text text-anchor="start" x="21" y="-971.6" font-family="Verdana" font-size="8.00"># conversion</text>
<text text-anchor="start" x="21" y="-958.6" font-family="Verdana" font-size="8.00"># language</text>
<text text-anchor="start" x="21" y="-945.6" font-family="Verdana" font-size="8.00"># versionControlProvenance : mixed</text>
<text text-anchor="start" x="21" y="-932.6" font-family="Verdana" font-size="8.00"># originalUriBaseIds : mixed</text>
<text text-anchor="start" x="21" y="-919.6" font-family="Verdana" font-size="8.00"># artifacts : mixed</text>
<text text-anchor="start" x="21" y="-906.6" font-family="Verdana" font-size="8.00"># logicalLocations : mixed</text>
<text text-anchor="start" x="21" y="-893.6" font-family="Verdana" font-size="8.00"># graphs : mixed</text>
<text text-anchor="start" x="21" y="-880.6" font-family="Verdana" font-size="8.00"># results : mixed</text>
<text text-anchor="start" x="21" y="-867.6" font-family="Verdana" font-size="8.00"># automationDetails</text>
<text text-anchor="start" x="21" y="-854.6" font-family="Verdana" font-size="8.00"># runAggregates</text>
<text text-anchor="start" x="21" y="-841.6" font-family="Verdana" font-size="8.00"># baselineGuid</text>
<text text-anchor="start" x="21" y="-828.6" font-family="Verdana" font-size="8.00"># redactionTokens : mixed</text>
<text text-anchor="start" x="21" y="-815.6" font-family="Verdana" font-size="8.00"># defaultEncoding</text>
<text text-anchor="start" x="21" y="-802.6" font-family="Verdana" font-size="8.00"># defaultSourceLanguage</text>
<text text-anchor="start" x="21" y="-789.6" font-family="Verdana" font-size="8.00"># newlineSequences : mixed</text>
<text text-anchor="start" x="21" y="-776.6" font-family="Verdana" font-size="8.00"># columnKind</text>
<text text-anchor="start" x="21" y="-763.6" font-family="Verdana" font-size="8.00"># externalPropertyFileReferences</text>
<text text-anchor="start" x="21" y="-750.6" font-family="Verdana" font-size="8.00"># locations : mixed</text>
<text text-anchor="start" x="21" y="-737.6" font-family="Verdana" font-size="8.00"># taxonomies : mixed</text>
<text text-anchor="start" x="21" y="-724.6" font-family="Verdana" font-size="8.00"># addresses : mixed</text>
<text text-anchor="start" x="21" y="-711.6" font-family="Verdana" font-size="8.00"># translations : mixed</text>
<text text-anchor="start" x="21" y="-698.6" font-family="Verdana" font-size="8.00"># policies : mixed</text>
<text text-anchor="start" x="21" y="-685.6" font-family="Verdana" font-size="8.00"># webRequests : mixed</text>
<text text-anchor="start" x="21" y="-672.6" font-family="Verdana" font-size="8.00"># webResponses : mixed</text>
<text text-anchor="start" x="21" y="-659.6" font-family="Verdana" font-size="8.00"># specialLocations</text>
<text text-anchor="start" x="21" y="-646.6" font-family="Verdana" font-size="8.00"># properties</text>
<polygon fill="none" stroke="black" points="16,-243 16,-639 566,-639 566,-243 16,-243"/>
<text text-anchor="start" x="21" y="-627.6" font-family="Verdana" font-size="8.00">+ __construct(tool : Bartlett\Sarif\Definition\Tool)</text>
<text text-anchor="start" x="21" y="-614.6" font-family="Verdana" font-size="8.00">+ jsonSerialize() : array</text>
<text text-anchor="start" x="21" y="-601.6" font-family="Verdana" font-size="8.00">+ setTool(tool : Bartlett\Sarif\Definition\Tool) : void</text>
<text text-anchor="start" x="21" y="-588.6" font-family="Verdana" font-size="8.00">+ addInvocations(invocations : array) : void</text>
<text text-anchor="start" x="21" y="-575.6" font-family="Verdana" font-size="8.00">+ setConversion(conversion : Bartlett\Sarif\Definition\Conversion) : void</text>
<text text-anchor="start" x="21" y="-562.6" font-family="Verdana" font-size="8.00">+ setLanguage(language : string) : void</text>
<text text-anchor="start" x="21" y="-549.6" font-family="Verdana" font-size="8.00">+ addVersionControlDetails(versionControlDetails : array) : void</text>
<text text-anchor="start" x="21" y="-536.6" font-family="Verdana" font-size="8.00">+ addAdditionalProperties(additionalProperties : array) : void</text>
<text text-anchor="start" x="21" y="-523.6" font-family="Verdana" font-size="8.00">+ addArtifacts(artifacts : array) : void</text>
<text text-anchor="start" x="21" y="-510.6" font-family="Verdana" font-size="8.00">+ addLogicalLocations(logicalLocations : array) : void</text>
<text text-anchor="start" x="21" y="-497.6" font-family="Verdana" font-size="8.00">+ addGraphs(graphs : array) : void</text>
<text text-anchor="start" x="21" y="-484.6" font-family="Verdana" font-size="8.00">+ addResults(results : array) : void</text>
<text text-anchor="start" x="21" y="-471.6" font-family="Verdana" font-size="8.00">+ setAutomationDetails(automationDetails : Bartlett\Sarif\Definition\RunAutomationDetails) : void</text>
<text text-anchor="start" x="21" y="-458.6" font-family="Verdana" font-size="8.00">+ setRunAggregates(runAggregates : Bartlett\Sarif\Definition\RunAutomationDetails) : void</text>
<text text-anchor="start" x="21" y="-445.6" font-family="Verdana" font-size="8.00">+ setBaselineGuid(baselineGuid : string) : void</text>
<text text-anchor="start" x="21" y="-432.6" font-family="Verdana" font-size="8.00">+ addRedactionTokens(redactionTokens : array) : void</text>
<text text-anchor="start" x="21" y="-419.6" font-family="Verdana" font-size="8.00">+ setDefaultEncoding(defaultEncoding : string) : void</text>
<text text-anchor="start" x="21" y="-406.6" font-family="Verdana" font-size="8.00">+ setDefaultSourceLanguage(defaultSourceLanguage : string) : void</text>
<text text-anchor="start" x="21" y="-393.6" font-family="Verdana" font-size="8.00">+ addNewlineSequences(newlineSequences : array = […]) : void</text>
<text text-anchor="start" x="21" y="-380.6" font-family="Verdana" font-size="8.00">+ setColumnKind(columnKind : string) : void</text>
<text text-anchor="start" x="21" y="-367.6" font-family="Verdana" font-size="8.00">+ setExternalPropertyFileReferences(externalPropertyFileReferences : Bartlett\Sarif\Definition\ExternalPropertyFileReferences) : void</text>
<text text-anchor="start" x="21" y="-354.6" font-family="Verdana" font-size="8.00">+ addLocations(locations : array) : void</text>
<text text-anchor="start" x="21" y="-341.6" font-family="Verdana" font-size="8.00">+ addTaxonomies(taxonomies : array) : void</text>
<text text-anchor="start" x="21" y="-328.6" font-family="Verdana" font-size="8.00">+ addAddresses(addresses : array) : void</text>
<text text-anchor="start" x="21" y="-315.6" font-family="Verdana" font-size="8.00">+ addTranslations(translations : array) : void</text>
<text text-anchor="start" x="21" y="-302.6" font-family="Verdana" font-size="8.00">+ setPolicies(policies : array) : void</text>
<text text-anchor="start" x="21" y="-289.6" font-family="Verdana" font-size="8.00">+ addWebRequests(webRequests : array) : void</text>
<text text-anchor="start" x="21" y="-276.6" font-family="Verdana" font-size="8.00">+ addWebResponses(webResponses : array) : void</text>
<text text-anchor="start" x="21" y="-263.6" font-family="Verdana" font-size="8.00">+ setSpecialLocations(specialLocations : Bartlett\Sarif\Definition\SpecialLocations) : void</text>
<text text-anchor="start" x="21" y="-250.6" font-family="Verdana" font-size="8.00">+ setProperties(propertyBag : Bartlett\Sarif\Definition\PropertyBag) : void</text>
</g>
<!-- Bartlett\\Sarif\\Internal\\JsonSerializable -->
<g id="node2" class="node">
<title>Bartlett\\Sarif\\Internal\\JsonSerializable</title>
<polygon fill="#fefece" stroke="transparent" points="409,-196 173,-196 173,-110 409,-110 409,-196"/>
<polygon fill="#eeeeee" stroke="transparent" points="173,-174 173,-196 409,-196 409,-174 173,-174"/>
<polygon fill="none" stroke="black" points="173,-174 173,-196 409,-196 409,-174 173,-174"/>
<text text-anchor="start" x="267" y="-187.6" font-family="Verdana" font-weight="bold" font-size="8.00">«abstract»</text>
<text text-anchor="start" x="254.5" y="-179.6" font-family="Verdana" font-weight="bold" font-size="8.00">JsonSerializable</text>
<polygon fill="none" stroke="black" points="173,-142 173,-174 409,-174 409,-142 173,-142"/>
<text text-anchor="start" x="178" y="-162.6" font-family="Verdana" font-size="8.00">– required : mixed</text>
<text text-anchor="start" x="178" y="-149.6" font-family="Verdana" font-size="8.00">– optional : mixed</text>
<polygon fill="none" stroke="black" points="173,-110 173,-142 409,-142 409,-110 173,-110"/>
<text text-anchor="start" x="178" y="-130.6" font-family="Verdana" font-size="8.00">+ __construct(required : array = [], optional : array = [])</text>
<text text-anchor="start" x="178" y="-117.6" font-family="Verdana" font-size="8.00">+ jsonSerialize() : array</text>
</g>
<!-- Bartlett\\Sarif\\Definition\\Run&#45;&gt;Bartlett\\Sarif\\Internal\\JsonSerializable -->
<g id="edge2" class="edge">
<title>Bartlett\\Sarif\\Definition\\Run&#45;&gt;Bartlett\\Sarif\\Internal\\JsonSerializable</title>
<path fill="none" stroke="black" d="M291,-242.97C291,-229.56 291,-217.21 291,-206.25"/>
<polygon fill="none" stroke="black" points="294.5,-206.18 291,-196.18 287.5,-206.18 294.5,-206.18"/>
</g>
<!-- JsonSerializable -->
<g id="node3" class="node">
<title>JsonSerializable</title>
<polygon fill="#fefece" stroke="transparent" points="353.5,-63 228.5,-63 228.5,-16 353.5,-16 353.5,-63"/>
<polygon fill="#eeeeee" stroke="transparent" points="229,-40.5 229,-62.5 354,-62.5 354,-40.5 229,-40.5"/>
<polygon fill="none" stroke="black" points="229,-40.5 229,-62.5 354,-62.5 354,-40.5 229,-40.5"/>
<text text-anchor="start" x="265.5" y="-54.1" font-family="Verdana" font-weight="bold" font-size="8.00">«interface»</text>
<text text-anchor="start" x="255" y="-46.1" font-family="Verdana" font-weight="bold" font-size="8.00">JsonSerializable</text>
<polygon fill="none" stroke="black" points="229,-34.5 229,-40.5 354,-40.5 354,-34.5 229,-34.5"/>
<polygon fill="none" stroke="black" points="229,-15.5 229,-34.5 354,-34.5 354,-15.5 229,-15.5"/>
<text text-anchor="start" x="234" y="-23.1" font-family="Verdana" font-size="8.00">+ «abstract» jsonSerialize()</text>
</g>
<!-- Bartlett\\Sarif\\Internal\\JsonSerializable&#45;&gt;JsonSerializable -->
<g id="edge1" class="edge">
<title>Bartlett\\Sarif\\Internal\\JsonSerializable&#45;&gt;JsonSerializable</title>
<path fill="none" stroke="black" stroke-dasharray="5,2" d="M291,-109.85C291,-97.66 291,-84.56 291,-73.06"/>
<polygon fill="none" stroke="black" points="294.5,-73.02 291,-63.02 287.5,-73.02 294.5,-73.02"/>
</g>
</g>
</svg>
