<?xml version="1.0" encoding="UTF-8" standalone="no"?>
<!DOCTYPE svg PUBLIC "-//W3C//DTD SVG 1.1//EN"
 "http://www.w3.org/Graphics/SVG/1.1/DTD/svg11.dtd">
<!-- Generated by graphviz version 2.43.0 (0)
 -->
<!-- Title: %3 Pages: 1 -->
<svg width="442pt" height="467pt"
 viewBox="0.00 0.00 442.00 467.00" xmlns="http://www.w3.org/2000/svg" xmlns:xlink="http://www.w3.org/1999/xlink">
<g id="graph0" class="graph" transform="scale(1 1) rotate(0) translate(4 463)">
<title>%3</title>
<g id="clust1" class="cluster">
<title>cluster_0</title>
<polygon fill="BurlyWood" stroke="black" points="8,-235 8,-451 426,-451 426,-235 8,-235"/>
<text text-anchor="middle" x="217" y="-435.8" font-family="Times,serif" font-size="14.00">Bartlett\Sarif\Definition</text>
</g>
<g id="clust2" class="cluster">
<title>cluster_1</title>
<polygon fill="Bisque" stroke="black" points="91,-102 91,-227 343,-227 343,-102 91,-102"/>
<text text-anchor="middle" x="217" y="-211.8" font-family="Times,serif" font-size="14.00">Bartlett\Sarif\Internal</text>
</g>
<g id="clust3" class="cluster">
<title>cluster_2</title>
<polygon fill="transparent" stroke="black" points="146,-8 146,-94 288,-94 288,-8 146,-8"/>
<text text-anchor="middle" x="217" y="-78.8" font-family="Times,serif" font-size="14.00">0</text>
</g>
<!-- Bartlett\\Sarif\\Definition\\ExternalPropertyFileReference -->
<g id="node1" class="node">
<title>Bartlett\\Sarif\\Definition\\ExternalPropertyFileReference</title>
<polygon fill="#fefece" stroke="transparent" points="418,-420 16,-420 16,-243 418,-243 418,-420"/>
<polygon fill="#eeeeee" stroke="transparent" points="16,-397.5 16,-419.5 418,-419.5 418,-397.5 16,-397.5"/>
<polygon fill="none" stroke="black" points="16,-397.5 16,-419.5 418,-419.5 418,-397.5 16,-397.5"/>
<text text-anchor="start" x="147.5" y="-403.1" font-family="Verdana" font-weight="bold" font-size="8.00">ExternalPropertyFileReference</text>
<polygon fill="none" stroke="black" points="16,-326.5 16,-397.5 418,-397.5 418,-326.5 16,-326.5"/>
<text text-anchor="start" x="21" y="-386.1" font-family="Verdana" font-size="8.00"># location</text>
<text text-anchor="start" x="21" y="-373.1" font-family="Verdana" font-size="8.00"># artifactLocation</text>
<text text-anchor="start" x="21" y="-360.1" font-family="Verdana" font-size="8.00"># guid</text>
<text text-anchor="start" x="21" y="-347.1" font-family="Verdana" font-size="8.00"># itemCount</text>
<text text-anchor="start" x="21" y="-334.1" font-family="Verdana" font-size="8.00"># properties</text>
<polygon fill="none" stroke="black" points="16,-242.5 16,-326.5 418,-326.5 418,-242.5 16,-242.5"/>
<text text-anchor="start" x="21" y="-315.1" font-family="Verdana" font-size="8.00">+ __construct(location : Bartlett\Sarif\Definition\ArtifactLocation = «unknown», guid : string = &#39;&#39;)</text>
<text text-anchor="start" x="21" y="-302.1" font-family="Verdana" font-size="8.00">+ setLocation(location : Bartlett\Sarif\Definition\ArtifactLocation) : void</text>
<text text-anchor="start" x="21" y="-289.1" font-family="Verdana" font-size="8.00">+ setArtifactLocation(artifactLocation : Bartlett\Sarif\Definition\ArtifactLocation) : void</text>
<text text-anchor="start" x="21" y="-276.1" font-family="Verdana" font-size="8.00">+ setGuid(guid : string) : void</text>
<text text-anchor="start" x="21" y="-263.1" font-family="Verdana" font-size="8.00">+ setItemCount(itemCount : int = &#45;1) : void</text>
<text text-anchor="start" x="21" y="-250.1" font-family="Verdana" font-size="8.00">+ setProperties(propertyBag : Bartlett\Sarif\Definition\PropertyBag) : void</text>
</g>
<!-- Bartlett\\Sarif\\Internal\\JsonSerializable -->
<g id="node2" class="node">
<title>Bartlett\\Sarif\\Internal\\JsonSerializable</title>
<polygon fill="#fefece" stroke="transparent" points="335,-196 99,-196 99,-110 335,-110 335,-196"/>
<polygon fill="#eeeeee" stroke="transparent" points="99,-174 99,-196 335,-196 335,-174 99,-174"/>
<polygon fill="none" stroke="black" points="99,-174 99,-196 335,-196 335,-174 99,-174"/>
<text text-anchor="start" x="193" y="-187.6" font-family="Verdana" font-weight="bold" font-size="8.00">«abstract»</text>
<text text-anchor="start" x="180.5" y="-179.6" font-family="Verdana" font-weight="bold" font-size="8.00">JsonSerializable</text>
<polygon fill="none" stroke="black" points="99,-142 99,-174 335,-174 335,-142 99,-142"/>
<text text-anchor="start" x="104" y="-162.6" font-family="Verdana" font-size="8.00">– required : mixed</text>
<text text-anchor="start" x="104" y="-149.6" font-family="Verdana" font-size="8.00">– optional : mixed</text>
<polygon fill="none" stroke="black" points="99,-110 99,-142 335,-142 335,-110 99,-110"/>
<text text-anchor="start" x="104" y="-130.6" font-family="Verdana" font-size="8.00">+ __construct(required : array = [], optional : array = [])</text>
<text text-anchor="start" x="104" y="-117.6" font-family="Verdana" font-size="8.00">+ jsonSerialize() : array</text>
</g>
<!-- Bartlett\\Sarif\\Definition\\ExternalPropertyFileReference&#45;&gt;Bartlett\\Sarif\\Internal\\JsonSerializable -->
<g id="edge2" class="edge">
<title>Bartlett\\Sarif\\Definition\\ExternalPropertyFileReference&#45;&gt;Bartlett\\Sarif\\Internal\\JsonSerializable</title>
<path fill="none" stroke="black" d="M217,-242.77C217,-230.31 217,-217.85 217,-206.36"/>
<polygon fill="none" stroke="black" points="220.5,-206.11 217,-196.11 213.5,-206.11 220.5,-206.11"/>
</g>
<!-- JsonSerializable -->
<g id="node3" class="node">
<title>JsonSerializable</title>
<polygon fill="#fefece" stroke="transparent" points="279.5,-63 154.5,-63 154.5,-16 279.5,-16 279.5,-63"/>
<polygon fill="#eeeeee" stroke="transparent" points="155,-40.5 155,-62.5 280,-62.5 280,-40.5 155,-40.5"/>
<polygon fill="none" stroke="black" points="155,-40.5 155,-62.5 280,-62.5 280,-40.5 155,-40.5"/>
<text text-anchor="start" x="191.5" y="-54.1" font-family="Verdana" font-weight="bold" font-size="8.00">«interface»</text>
<text text-anchor="start" x="181" y="-46.1" font-family="Verdana" font-weight="bold" font-size="8.00">JsonSerializable</text>
<polygon fill="none" stroke="black" points="155,-34.5 155,-40.5 280,-40.5 280,-34.5 155,-34.5"/>
<polygon fill="none" stroke="black" points="155,-15.5 155,-34.5 280,-34.5 280,-15.5 155,-15.5"/>
<text text-anchor="start" x="160" y="-23.1" font-family="Verdana" font-size="8.00">+ «abstract» jsonSerialize()</text>
</g>
<!-- Bartlett\\Sarif\\Internal\\JsonSerializable&#45;&gt;JsonSerializable -->
<g id="edge1" class="edge">
<title>Bartlett\\Sarif\\Internal\\JsonSerializable&#45;&gt;JsonSerializable</title>
<path fill="none" stroke="black" stroke-dasharray="5,2" d="M217,-109.85C217,-97.66 217,-84.56 217,-73.06"/>
<polygon fill="none" stroke="black" points="220.5,-73.02 217,-63.02 213.5,-73.02 220.5,-73.02"/>
</g>
</g>
</svg>
