<?xml version="1.0" encoding="UTF-8" standalone="no"?>
<!DOCTYPE svg PUBLIC "-//W3C//DTD SVG 1.1//EN"
 "http://www.w3.org/Graphics/SVG/1.1/DTD/svg11.dtd">
<!-- Generated by graphviz version 2.43.0 (0)
 -->
<!-- Title: %3 Pages: 1 -->
<svg width="458pt" height="571pt"
 viewBox="0.00 0.00 458.00 571.00" xmlns="http://www.w3.org/2000/svg" xmlns:xlink="http://www.w3.org/1999/xlink">
<g id="graph0" class="graph" transform="scale(1 1) rotate(0) translate(4 567)">
<title>%3</title>
<g id="clust1" class="cluster">
<title>cluster_0</title>
<polygon fill="BurlyWood" stroke="black" points="8,-235 8,-555 442,-555 442,-235 8,-235"/>
<text text-anchor="middle" x="225" y="-539.8" font-family="Times,serif" font-size="14.00">Bartlett\Sarif\Definition</text>
</g>
<g id="clust2" class="cluster">
<title>cluster_1</title>
<polygon fill="Bisque" stroke="black" points="99,-102 99,-227 351,-227 351,-102 99,-102"/>
<text text-anchor="middle" x="225" y="-211.8" font-family="Times,serif" font-size="14.00">Bartlett\Sarif\Internal</text>
</g>
<g id="clust3" class="cluster">
<title>cluster_2</title>
<polygon fill="transparent" stroke="black" points="154,-8 154,-94 296,-94 296,-8 154,-8"/>
<text text-anchor="middle" x="225" y="-78.8" font-family="Times,serif" font-size="14.00">0</text>
</g>
<!-- Bartlett\\Sarif\\Definition\\Notification -->
<g id="node1" class="node">
<title>Bartlett\\Sarif\\Definition\\Notification</title>
<polygon fill="#fefece" stroke="transparent" points="434,-524 16,-524 16,-243 434,-243 434,-524"/>
<polygon fill="#eeeeee" stroke="transparent" points="16,-501.5 16,-523.5 434,-523.5 434,-501.5 16,-501.5"/>
<polygon fill="none" stroke="black" points="16,-501.5 16,-523.5 434,-523.5 434,-501.5 16,-501.5"/>
<text text-anchor="start" x="198.5" y="-507.1" font-family="Verdana" font-weight="bold" font-size="8.00">Notification</text>
<polygon fill="none" stroke="black" points="16,-378.5 16,-501.5 434,-501.5 434,-378.5 16,-378.5"/>
<text text-anchor="start" x="21" y="-490.1" font-family="Verdana" font-size="8.00"># locations : mixed</text>
<text text-anchor="start" x="21" y="-477.1" font-family="Verdana" font-size="8.00"># message</text>
<text text-anchor="start" x="21" y="-464.1" font-family="Verdana" font-size="8.00"># level</text>
<text text-anchor="start" x="21" y="-451.1" font-family="Verdana" font-size="8.00"># threadId</text>
<text text-anchor="start" x="21" y="-438.1" font-family="Verdana" font-size="8.00"># timeUtc</text>
<text text-anchor="start" x="21" y="-425.1" font-family="Verdana" font-size="8.00"># exception</text>
<text text-anchor="start" x="21" y="-412.1" font-family="Verdana" font-size="8.00"># descriptor</text>
<text text-anchor="start" x="21" y="-399.1" font-family="Verdana" font-size="8.00"># associatedRule</text>
<text text-anchor="start" x="21" y="-386.1" font-family="Verdana" font-size="8.00"># properties</text>
<polygon fill="none" stroke="black" points="16,-242.5 16,-378.5 434,-378.5 434,-242.5 16,-242.5"/>
<text text-anchor="start" x="21" y="-367.1" font-family="Verdana" font-size="8.00">+ __construct(message : Bartlett\Sarif\Definition\Message)</text>
<text text-anchor="start" x="21" y="-354.1" font-family="Verdana" font-size="8.00">+ addLocations(locations : array) : void</text>
<text text-anchor="start" x="21" y="-341.1" font-family="Verdana" font-size="8.00">+ setMessage(message : Bartlett\Sarif\Definition\Message) : void</text>
<text text-anchor="start" x="21" y="-328.1" font-family="Verdana" font-size="8.00">+ setLevel(level : string = &#39;warning&#39;) : void</text>
<text text-anchor="start" x="21" y="-315.1" font-family="Verdana" font-size="8.00">+ setThreadId(threadId : int) : void</text>
<text text-anchor="start" x="21" y="-302.1" font-family="Verdana" font-size="8.00">+ setTimeUtc(timeUtc : string) : void</text>
<text text-anchor="start" x="21" y="-289.1" font-family="Verdana" font-size="8.00">+ setException(exception : Bartlett\Sarif\Definition\Exception) : void</text>
<text text-anchor="start" x="21" y="-276.1" font-family="Verdana" font-size="8.00">+ setDescriptor(descriptor : Bartlett\Sarif\Definition\ReportingDescriptorReference) : void</text>
<text text-anchor="start" x="21" y="-263.1" font-family="Verdana" font-size="8.00">+ setAssociatedRule(associatedRule : Bartlett\Sarif\Definition\ReportingDescriptorReference) : void</text>
<text text-anchor="start" x="21" y="-250.1" font-family="Verdana" font-size="8.00">+ setProperties(propertyBag : Bartlett\Sarif\Definition\PropertyBag) : void</text>
</g>
<!-- Bartlett\\Sarif\\Internal\\JsonSerializable -->
<g id="node2" class="node">
<title>Bartlett\\Sarif\\Internal\\JsonSerializable</title>
<polygon fill="#fefece" stroke="transparent" points="343,-196 107,-196 107,-110 343,-110 343,-196"/>
<polygon fill="#eeeeee" stroke="transparent" points="107,-174 107,-196 343,-196 343,-174 107,-174"/>
<polygon fill="none" stroke="black" points="107,-174 107,-196 343,-196 343,-174 107,-174"/>
<text text-anchor="start" x="201" y="-187.6" font-family="Verdana" font-weight="bold" font-size="8.00">«abstract»</text>
<text text-anchor="start" x="188.5" y="-179.6" font-family="Verdana" font-weight="bold" font-size="8.00">JsonSerializable</text>
<polygon fill="none" stroke="black" points="107,-142 107,-174 343,-174 343,-142 107,-142"/>
<text text-anchor="start" x="112" y="-162.6" font-family="Verdana" font-size="8.00">– required : mixed</text>
<text text-anchor="start" x="112" y="-149.6" font-family="Verdana" font-size="8.00">– optional : mixed</text>
<polygon fill="none" stroke="black" points="107,-110 107,-142 343,-142 343,-110 107,-110"/>
<text text-anchor="start" x="112" y="-130.6" font-family="Verdana" font-size="8.00">+ __construct(required : array = [], optional : array = [])</text>
<text text-anchor="start" x="112" y="-117.6" font-family="Verdana" font-size="8.00">+ jsonSerialize() : array</text>
</g>
<!-- Bartlett\\Sarif\\Definition\\Notification&#45;&gt;Bartlett\\Sarif\\Internal\\JsonSerializable -->
<g id="edge2" class="edge">
<title>Bartlett\\Sarif\\Definition\\Notification&#45;&gt;Bartlett\\Sarif\\Internal\\JsonSerializable</title>
<path fill="none" stroke="black" d="M225,-243C225,-230.05 225,-217.56 225,-206.23"/>
<polygon fill="none" stroke="black" points="228.5,-206.18 225,-196.18 221.5,-206.18 228.5,-206.18"/>
</g>
<!-- JsonSerializable -->
<g id="node3" class="node">
<title>JsonSerializable</title>
<polygon fill="#fefece" stroke="transparent" points="287.5,-63 162.5,-63 162.5,-16 287.5,-16 287.5,-63"/>
<polygon fill="#eeeeee" stroke="transparent" points="163,-40.5 163,-62.5 288,-62.5 288,-40.5 163,-40.5"/>
<polygon fill="none" stroke="black" points="163,-40.5 163,-62.5 288,-62.5 288,-40.5 163,-40.5"/>
<text text-anchor="start" x="199.5" y="-54.1" font-family="Verdana" font-weight="bold" font-size="8.00">«interface»</text>
<text text-anchor="start" x="189" y="-46.1" font-family="Verdana" font-weight="bold" font-size="8.00">JsonSerializable</text>
<polygon fill="none" stroke="black" points="163,-34.5 163,-40.5 288,-40.5 288,-34.5 163,-34.5"/>
<polygon fill="none" stroke="black" points="163,-15.5 163,-34.5 288,-34.5 288,-15.5 163,-15.5"/>
<text text-anchor="start" x="168" y="-23.1" font-family="Verdana" font-size="8.00">+ «abstract» jsonSerialize()</text>
</g>
<!-- Bartlett\\Sarif\\Internal\\JsonSerializable&#45;&gt;JsonSerializable -->
<g id="edge1" class="edge">
<title>Bartlett\\Sarif\\Internal\\JsonSerializable&#45;&gt;JsonSerializable</title>
<path fill="none" stroke="black" stroke-dasharray="5,2" d="M225,-109.85C225,-97.66 225,-84.56 225,-73.06"/>
<polygon fill="none" stroke="black" points="228.5,-73.02 225,-63.02 221.5,-73.02 228.5,-73.02"/>
</g>
</g>
</svg>
