<?xml version="1.0" encoding="UTF-8" standalone="no"?>
<!DOCTYPE svg PUBLIC "-//W3C//DTD SVG 1.1//EN"
 "http://www.w3.org/Graphics/SVG/1.1/DTD/svg11.dtd">
<!-- Generated by graphviz version 2.43.0 (0)
 -->
<!-- Title: %3 Pages: 1 -->
<svg width="372pt" height="376pt"
 viewBox="0.00 0.00 372.00 376.00" xmlns="http://www.w3.org/2000/svg" xmlns:xlink="http://www.w3.org/1999/xlink">
<g id="graph0" class="graph" transform="scale(1 1) rotate(0) translate(4 372)">
<title>%3</title>
<g id="clust1" class="cluster">
<title>cluster_0</title>
<polygon fill="BurlyWood" stroke="black" points="8,-222 8,-360 356,-360 356,-222 8,-222"/>
<text text-anchor="middle" x="182" y="-344.8" font-family="Times,serif" font-size="14.00">Bartlett\Sarif\Definition</text>
</g>
<g id="clust2" class="cluster">
<title>cluster_1</title>
<polygon fill="Bisque" stroke="black" points="96,-102 96,-214 269,-214 269,-102 96,-102"/>
<text text-anchor="middle" x="182.5" y="-198.8" font-family="Times,serif" font-size="14.00">Bartlett\Sarif\Internal</text>
</g>
<g id="clust3" class="cluster">
<title>cluster_2</title>
<polygon fill="transparent" stroke="black" points="111,-8 111,-94 253,-94 253,-8 111,-8"/>
<text text-anchor="middle" x="182" y="-78.8" font-family="Times,serif" font-size="14.00">0</text>
</g>
<!-- Bartlett\\Sarif\\Definition\\SpecialLocations -->
<g id="node1" class="node">
<title>Bartlett\\Sarif\\Definition\\SpecialLocations</title>
<polygon fill="#fefece" stroke="transparent" points="348,-329 16,-329 16,-230 348,-230 348,-329"/>
<polygon fill="#eeeeee" stroke="transparent" points="16,-306.5 16,-328.5 348,-328.5 348,-306.5 16,-306.5"/>
<polygon fill="none" stroke="black" points="16,-306.5 16,-328.5 348,-328.5 348,-306.5 16,-306.5"/>
<text text-anchor="start" x="144" y="-312.1" font-family="Verdana" font-weight="bold" font-size="8.00">SpecialLocations</text>
<polygon fill="none" stroke="black" points="16,-274.5 16,-306.5 348,-306.5 348,-274.5 16,-274.5"/>
<text text-anchor="start" x="21" y="-295.1" font-family="Verdana" font-size="8.00"># displayBase</text>
<text text-anchor="start" x="21" y="-282.1" font-family="Verdana" font-size="8.00"># properties</text>
<polygon fill="none" stroke="black" points="16,-229.5 16,-274.5 348,-274.5 348,-229.5 16,-229.5"/>
<text text-anchor="start" x="21" y="-263.1" font-family="Verdana" font-size="8.00">+ __construct()</text>
<text text-anchor="start" x="21" y="-250.1" font-family="Verdana" font-size="8.00">+ setDisplayBase(displayBase : Bartlett\Sarif\Definition\ArtifactLocation) : void</text>
<text text-anchor="start" x="21" y="-237.1" font-family="Verdana" font-size="8.00">+ setProperties(propertyBag : Bartlett\Sarif\Definition\PropertyBag) : void</text>
</g>
<!-- Bartlett\\Sarif\\Internal\\JsonSerializable -->
<g id="node2" class="node">
<title>Bartlett\\Sarif\\Internal\\JsonSerializable</title>
<polygon fill="#fefece" stroke="transparent" points="235.5,-183 128.5,-183 128.5,-110 235.5,-110 235.5,-183"/>
<polygon fill="#eeeeee" stroke="transparent" points="129,-160.5 129,-182.5 236,-182.5 236,-160.5 129,-160.5"/>
<polygon fill="none" stroke="black" points="129,-160.5 129,-182.5 236,-182.5 236,-160.5 129,-160.5"/>
<text text-anchor="start" x="158.5" y="-174.1" font-family="Verdana" font-weight="bold" font-size="8.00">«abstract»</text>
<text text-anchor="start" x="146" y="-166.1" font-family="Verdana" font-weight="bold" font-size="8.00">JsonSerializable</text>
<polygon fill="none" stroke="black" points="129,-128.5 129,-160.5 236,-160.5 236,-128.5 129,-128.5"/>
<text text-anchor="start" x="134" y="-149.1" font-family="Verdana" font-size="8.00"># required : mixed</text>
<text text-anchor="start" x="134" y="-136.1" font-family="Verdana" font-size="8.00"># optional : mixed</text>
<polygon fill="none" stroke="black" points="129,-109.5 129,-128.5 236,-128.5 236,-109.5 129,-109.5"/>
<text text-anchor="start" x="134" y="-117.1" font-family="Verdana" font-size="8.00">+ jsonSerialize() : array</text>
</g>
<!-- Bartlett\\Sarif\\Definition\\SpecialLocations&#45;&gt;Bartlett\\Sarif\\Internal\\JsonSerializable -->
<g id="edge2" class="edge">
<title>Bartlett\\Sarif\\Definition\\SpecialLocations&#45;&gt;Bartlett\\Sarif\\Internal\\JsonSerializable</title>
<path fill="none" stroke="black" d="M182,-229.72C182,-217.79 182,-205.07 182,-193.29"/>
<polygon fill="none" stroke="black" points="185.5,-193.22 182,-183.22 178.5,-193.22 185.5,-193.22"/>
</g>
<!-- JsonSerializable -->
<g id="node3" class="node">
<title>JsonSerializable</title>
<polygon fill="#fefece" stroke="transparent" points="244.5,-63 119.5,-63 119.5,-16 244.5,-16 244.5,-63"/>
<polygon fill="#eeeeee" stroke="transparent" points="120,-40.5 120,-62.5 245,-62.5 245,-40.5 120,-40.5"/>
<polygon fill="none" stroke="black" points="120,-40.5 120,-62.5 245,-62.5 245,-40.5 120,-40.5"/>
<text text-anchor="start" x="156.5" y="-54.1" font-family="Verdana" font-weight="bold" font-size="8.00">«interface»</text>
<text text-anchor="start" x="146" y="-46.1" font-family="Verdana" font-weight="bold" font-size="8.00">JsonSerializable</text>
<polygon fill="none" stroke="black" points="120,-34.5 120,-40.5 245,-40.5 245,-34.5 120,-34.5"/>
<polygon fill="none" stroke="black" points="120,-15.5 120,-34.5 245,-34.5 245,-15.5 120,-15.5"/>
<text text-anchor="start" x="125" y="-23.1" font-family="Verdana" font-size="8.00">+ «abstract» jsonSerialize()</text>
</g>
<!-- Bartlett\\Sarif\\Internal\\JsonSerializable&#45;&gt;JsonSerializable -->
<g id="edge1" class="edge">
<title>Bartlett\\Sarif\\Internal\\JsonSerializable&#45;&gt;JsonSerializable</title>
<path fill="none" stroke="black" stroke-dasharray="5,2" d="M182,-109.95C182,-98.11 182,-84.98 182,-73.35"/>
<polygon fill="none" stroke="black" points="185.5,-73.17 182,-63.17 178.5,-73.17 185.5,-73.17"/>
</g>
</g>
</svg>
