<?xml version="1.0" encoding="UTF-8" standalone="no"?>
<!DOCTYPE svg PUBLIC "-//W3C//DTD SVG 1.1//EN"
 "http://www.w3.org/Graphics/SVG/1.1/DTD/svg11.dtd">
<!-- Generated by graphviz version 2.43.0 (0)
 -->
<!-- Title: %3 Pages: 1 -->
<svg width="452pt" height="506pt"
 viewBox="0.00 0.00 452.00 506.00" xmlns="http://www.w3.org/2000/svg" xmlns:xlink="http://www.w3.org/1999/xlink">
<g id="graph0" class="graph" transform="scale(1 1) rotate(0) translate(4 502)">
<title>%3</title>
<g id="clust1" class="cluster">
<title>cluster_0</title>
<polygon fill="BurlyWood" stroke="black" points="8,-222 8,-490 436,-490 436,-222 8,-222"/>
<text text-anchor="middle" x="222" y="-474.8" font-family="Times,serif" font-size="14.00">Bartlett\Sarif\Definition</text>
</g>
<g id="clust2" class="cluster">
<title>cluster_1</title>
<polygon fill="Bisque" stroke="black" points="136,-102 136,-214 309,-214 309,-102 136,-102"/>
<text text-anchor="middle" x="222.5" y="-198.8" font-family="Times,serif" font-size="14.00">Bartlett\Sarif\Internal</text>
</g>
<g id="clust3" class="cluster">
<title>cluster_2</title>
<polygon fill="transparent" stroke="black" points="151,-8 151,-94 293,-94 293,-8 151,-8"/>
<text text-anchor="middle" x="222" y="-78.8" font-family="Times,serif" font-size="14.00">0</text>
</g>
<!-- Bartlett\\Sarif\\Definition\\TranslationMetadata -->
<g id="node1" class="node">
<title>Bartlett\\Sarif\\Definition\\TranslationMetadata</title>
<polygon fill="#fefece" stroke="transparent" points="427.5,-459 16.5,-459 16.5,-230 427.5,-230 427.5,-459"/>
<polygon fill="#eeeeee" stroke="transparent" points="17,-436.5 17,-458.5 428,-458.5 428,-436.5 17,-436.5"/>
<polygon fill="none" stroke="black" points="17,-436.5 17,-458.5 428,-458.5 428,-436.5 17,-436.5"/>
<text text-anchor="start" x="175.5" y="-442.1" font-family="Verdana" font-weight="bold" font-size="8.00">TranslationMetadata</text>
<polygon fill="none" stroke="black" points="17,-339.5 17,-436.5 428,-436.5 428,-339.5 17,-339.5"/>
<text text-anchor="start" x="22" y="-425.1" font-family="Verdana" font-size="8.00"># name</text>
<text text-anchor="start" x="22" y="-412.1" font-family="Verdana" font-size="8.00"># fullName</text>
<text text-anchor="start" x="22" y="-399.1" font-family="Verdana" font-size="8.00"># shortDescription</text>
<text text-anchor="start" x="22" y="-386.1" font-family="Verdana" font-size="8.00"># fullDescription</text>
<text text-anchor="start" x="22" y="-373.1" font-family="Verdana" font-size="8.00"># downloadUri</text>
<text text-anchor="start" x="22" y="-360.1" font-family="Verdana" font-size="8.00"># informationUri</text>
<text text-anchor="start" x="22" y="-347.1" font-family="Verdana" font-size="8.00"># properties</text>
<polygon fill="none" stroke="black" points="17,-229.5 17,-339.5 428,-339.5 428,-229.5 17,-229.5"/>
<text text-anchor="start" x="22" y="-328.1" font-family="Verdana" font-size="8.00">+ __construct(name : string)</text>
<text text-anchor="start" x="22" y="-315.1" font-family="Verdana" font-size="8.00">+ setName(name : string) : void</text>
<text text-anchor="start" x="22" y="-302.1" font-family="Verdana" font-size="8.00">+ setFullName(fullName : string) : void</text>
<text text-anchor="start" x="22" y="-289.1" font-family="Verdana" font-size="8.00">+ setShortDescription(shortDescription : Bartlett\Sarif\Definition\MultiformatMessageString) : void</text>
<text text-anchor="start" x="22" y="-276.1" font-family="Verdana" font-size="8.00">+ setFullDescription(fullDescription : Bartlett\Sarif\Definition\MultiformatMessageString) : void</text>
<text text-anchor="start" x="22" y="-263.1" font-family="Verdana" font-size="8.00">+ setDownloadUri(downloadUri : string) : void</text>
<text text-anchor="start" x="22" y="-250.1" font-family="Verdana" font-size="8.00">+ setInformationUri(informationUri : string) : void</text>
<text text-anchor="start" x="22" y="-237.1" font-family="Verdana" font-size="8.00">+ setProperties(propertyBag : Bartlett\Sarif\Definition\PropertyBag) : void</text>
</g>
<!-- Bartlett\\Sarif\\Internal\\JsonSerializable -->
<g id="node2" class="node">
<title>Bartlett\\Sarif\\Internal\\JsonSerializable</title>
<polygon fill="#fefece" stroke="transparent" points="275.5,-183 168.5,-183 168.5,-110 275.5,-110 275.5,-183"/>
<polygon fill="#eeeeee" stroke="transparent" points="169,-160.5 169,-182.5 276,-182.5 276,-160.5 169,-160.5"/>
<polygon fill="none" stroke="black" points="169,-160.5 169,-182.5 276,-182.5 276,-160.5 169,-160.5"/>
<text text-anchor="start" x="198.5" y="-174.1" font-family="Verdana" font-weight="bold" font-size="8.00">«abstract»</text>
<text text-anchor="start" x="186" y="-166.1" font-family="Verdana" font-weight="bold" font-size="8.00">JsonSerializable</text>
<polygon fill="none" stroke="black" points="169,-128.5 169,-160.5 276,-160.5 276,-128.5 169,-128.5"/>
<text text-anchor="start" x="174" y="-149.1" font-family="Verdana" font-size="8.00"># required : mixed</text>
<text text-anchor="start" x="174" y="-136.1" font-family="Verdana" font-size="8.00"># optional : mixed</text>
<polygon fill="none" stroke="black" points="169,-109.5 169,-128.5 276,-128.5 276,-109.5 169,-109.5"/>
<text text-anchor="start" x="174" y="-117.1" font-family="Verdana" font-size="8.00">+ jsonSerialize() : array</text>
</g>
<!-- Bartlett\\Sarif\\Definition\\TranslationMetadata&#45;&gt;Bartlett\\Sarif\\Internal\\JsonSerializable -->
<g id="edge2" class="edge">
<title>Bartlett\\Sarif\\Definition\\TranslationMetadata&#45;&gt;Bartlett\\Sarif\\Internal\\JsonSerializable</title>
<path fill="none" stroke="black" d="M222,-229.77C222,-216.97 222,-204.54 222,-193.38"/>
<polygon fill="none" stroke="black" points="225.5,-193.1 222,-183.1 218.5,-193.1 225.5,-193.1"/>
</g>
<!-- JsonSerializable -->
<g id="node3" class="node">
<title>JsonSerializable</title>
<polygon fill="#fefece" stroke="transparent" points="284.5,-63 159.5,-63 159.5,-16 284.5,-16 284.5,-63"/>
<polygon fill="#eeeeee" stroke="transparent" points="160,-40.5 160,-62.5 285,-62.5 285,-40.5 160,-40.5"/>
<polygon fill="none" stroke="black" points="160,-40.5 160,-62.5 285,-62.5 285,-40.5 160,-40.5"/>
<text text-anchor="start" x="196.5" y="-54.1" font-family="Verdana" font-weight="bold" font-size="8.00">«interface»</text>
<text text-anchor="start" x="186" y="-46.1" font-family="Verdana" font-weight="bold" font-size="8.00">JsonSerializable</text>
<polygon fill="none" stroke="black" points="160,-34.5 160,-40.5 285,-40.5 285,-34.5 160,-34.5"/>
<polygon fill="none" stroke="black" points="160,-15.5 160,-34.5 285,-34.5 285,-15.5 160,-15.5"/>
<text text-anchor="start" x="165" y="-23.1" font-family="Verdana" font-size="8.00">+ «abstract» jsonSerialize()</text>
</g>
<!-- Bartlett\\Sarif\\Internal\\JsonSerializable&#45;&gt;JsonSerializable -->
<g id="edge1" class="edge">
<title>Bartlett\\Sarif\\Internal\\JsonSerializable&#45;&gt;JsonSerializable</title>
<path fill="none" stroke="black" stroke-dasharray="5,2" d="M222,-109.95C222,-98.11 222,-84.98 222,-73.35"/>
<polygon fill="none" stroke="black" points="225.5,-73.17 222,-63.17 218.5,-73.17 225.5,-73.17"/>
</g>
</g>
</svg>
