<?xml version="1.0" encoding="UTF-8" standalone="no"?>
<!DOCTYPE svg PUBLIC "-//W3C//DTD SVG 1.1//EN"
 "http://www.w3.org/Graphics/SVG/1.1/DTD/svg11.dtd">
<!-- Generated by graphviz version 2.43.0 (0)
 -->
<!-- Title: %3 Pages: 1 -->
<svg width="440pt" height="870pt"
 viewBox="0.00 0.00 440.00 870.00" xmlns="http://www.w3.org/2000/svg" xmlns:xlink="http://www.w3.org/1999/xlink">
<g id="graph0" class="graph" transform="scale(1 1) rotate(0) translate(4 866)">
<title>%3</title>
<g id="clust1" class="cluster">
<title>cluster_0</title>
<polygon fill="BurlyWood" stroke="black" points="8,-222 8,-854 424,-854 424,-222 8,-222"/>
<text text-anchor="middle" x="216" y="-838.8" font-family="Times,serif" font-size="14.00">Bartlett\Sarif\Definition</text>
</g>
<g id="clust2" class="cluster">
<title>cluster_1</title>
<polygon fill="Bisque" stroke="black" points="130,-102 130,-214 303,-214 303,-102 130,-102"/>
<text text-anchor="middle" x="216.5" y="-198.8" font-family="Times,serif" font-size="14.00">Bartlett\Sarif\Internal</text>
</g>
<g id="clust3" class="cluster">
<title>cluster_2</title>
<polygon fill="transparent" stroke="black" points="145,-8 145,-94 287,-94 287,-8 145,-8"/>
<text text-anchor="middle" x="216" y="-78.8" font-family="Times,serif" font-size="14.00">0</text>
</g>
<!-- Bartlett\\Sarif\\Definition\\ExternalProperties -->
<g id="node1" class="node">
<title>Bartlett\\Sarif\\Definition\\ExternalProperties</title>
<polygon fill="#fefece" stroke="transparent" points="416.5,-823 15.5,-823 15.5,-230 416.5,-230 416.5,-823"/>
<polygon fill="#eeeeee" stroke="transparent" points="16,-800.5 16,-822.5 417,-822.5 417,-800.5 16,-800.5"/>
<polygon fill="none" stroke="black" points="16,-800.5 16,-822.5 417,-822.5 417,-800.5 16,-800.5"/>
<text text-anchor="start" x="174" y="-806.1" font-family="Verdana" font-weight="bold" font-size="8.00">ExternalProperties</text>
<polygon fill="none" stroke="black" points="16,-521.5 16,-800.5 417,-800.5 417,-521.5 16,-521.5"/>
<text text-anchor="start" x="21" y="-789.1" font-family="Verdana" font-size="8.00"># schema</text>
<text text-anchor="start" x="21" y="-776.1" font-family="Verdana" font-size="8.00"># version</text>
<text text-anchor="start" x="21" y="-763.1" font-family="Verdana" font-size="8.00"># guid</text>
<text text-anchor="start" x="21" y="-750.1" font-family="Verdana" font-size="8.00"># runGuid</text>
<text text-anchor="start" x="21" y="-737.1" font-family="Verdana" font-size="8.00"># conversion</text>
<text text-anchor="start" x="21" y="-724.1" font-family="Verdana" font-size="8.00"># graphs : mixed</text>
<text text-anchor="start" x="21" y="-711.1" font-family="Verdana" font-size="8.00"># externalizedProperties</text>
<text text-anchor="start" x="21" y="-698.1" font-family="Verdana" font-size="8.00"># artifacts : mixed</text>
<text text-anchor="start" x="21" y="-685.1" font-family="Verdana" font-size="8.00"># invocations : mixed</text>
<text text-anchor="start" x="21" y="-672.1" font-family="Verdana" font-size="8.00"># logicalLocations : mixed</text>
<text text-anchor="start" x="21" y="-659.1" font-family="Verdana" font-size="8.00"># locations : mixed</text>
<text text-anchor="start" x="21" y="-646.1" font-family="Verdana" font-size="8.00"># results : mixed</text>
<text text-anchor="start" x="21" y="-633.1" font-family="Verdana" font-size="8.00"># taxonomies : mixed</text>
<text text-anchor="start" x="21" y="-620.1" font-family="Verdana" font-size="8.00"># driver</text>
<text text-anchor="start" x="21" y="-607.1" font-family="Verdana" font-size="8.00"># extensions : mixed</text>
<text text-anchor="start" x="21" y="-594.1" font-family="Verdana" font-size="8.00"># policies : mixed</text>
<text text-anchor="start" x="21" y="-581.1" font-family="Verdana" font-size="8.00"># translations : mixed</text>
<text text-anchor="start" x="21" y="-568.1" font-family="Verdana" font-size="8.00"># addresses : mixed</text>
<text text-anchor="start" x="21" y="-555.1" font-family="Verdana" font-size="8.00"># webRequests : mixed</text>
<text text-anchor="start" x="21" y="-542.1" font-family="Verdana" font-size="8.00"># webResponses : mixed</text>
<text text-anchor="start" x="21" y="-529.1" font-family="Verdana" font-size="8.00"># properties</text>
<polygon fill="none" stroke="black" points="16,-229.5 16,-521.5 417,-521.5 417,-229.5 16,-229.5"/>
<text text-anchor="start" x="21" y="-510.1" font-family="Verdana" font-size="8.00">+ __construct(version : string = &#39;2\.1\.0&#39;, schemaUri : string = &#39;&#39;)</text>
<text text-anchor="start" x="21" y="-497.1" font-family="Verdana" font-size="8.00">+ setSchema(schema : string) : void</text>
<text text-anchor="start" x="21" y="-484.1" font-family="Verdana" font-size="8.00">+ setVersion(version : string) : void</text>
<text text-anchor="start" x="21" y="-471.1" font-family="Verdana" font-size="8.00">+ setGuid(guid : string) : void</text>
<text text-anchor="start" x="21" y="-458.1" font-family="Verdana" font-size="8.00">+ setRunGuid(runGuid : string) : void</text>
<text text-anchor="start" x="21" y="-445.1" font-family="Verdana" font-size="8.00">+ setConversion(conversion : Bartlett\Sarif\Definition\Conversion) : void</text>
<text text-anchor="start" x="21" y="-432.1" font-family="Verdana" font-size="8.00">+ addGraphs(graphs : array) : void</text>
<text text-anchor="start" x="21" y="-419.1" font-family="Verdana" font-size="8.00">+ setExternalizedProperties(externalizedProperties : Bartlett\Sarif\Definition\PropertyBag) : void</text>
<text text-anchor="start" x="21" y="-406.1" font-family="Verdana" font-size="8.00">+ addArtifacts(artifacts : array) : void</text>
<text text-anchor="start" x="21" y="-393.1" font-family="Verdana" font-size="8.00">+ addInvocations(invocations : array) : void</text>
<text text-anchor="start" x="21" y="-380.1" font-family="Verdana" font-size="8.00">+ addLogicalLocations(logicalLocations : array) : void</text>
<text text-anchor="start" x="21" y="-367.1" font-family="Verdana" font-size="8.00">+ addLocations(locations : array) : void</text>
<text text-anchor="start" x="21" y="-354.1" font-family="Verdana" font-size="8.00">+ addResults(results : array) : void</text>
<text text-anchor="start" x="21" y="-341.1" font-family="Verdana" font-size="8.00">+ addTaxonomies(taxonomies : array) : void</text>
<text text-anchor="start" x="21" y="-328.1" font-family="Verdana" font-size="8.00">+ setDriver(driver : Bartlett\Sarif\Definition\ToolComponent) : void</text>
<text text-anchor="start" x="21" y="-315.1" font-family="Verdana" font-size="8.00">+ addExtensions(extensions : array) : void</text>
<text text-anchor="start" x="21" y="-302.1" font-family="Verdana" font-size="8.00">+ setPolicies(policies : array) : void</text>
<text text-anchor="start" x="21" y="-289.1" font-family="Verdana" font-size="8.00">+ addTranslations(translations : array) : void</text>
<text text-anchor="start" x="21" y="-276.1" font-family="Verdana" font-size="8.00">+ addAddresses(addresses : array) : void</text>
<text text-anchor="start" x="21" y="-263.1" font-family="Verdana" font-size="8.00">+ addWebRequests(webRequests : array) : void</text>
<text text-anchor="start" x="21" y="-250.1" font-family="Verdana" font-size="8.00">+ addWebResponses(webResponses : array) : void</text>
<text text-anchor="start" x="21" y="-237.1" font-family="Verdana" font-size="8.00">+ setProperties(propertyBag : Bartlett\Sarif\Definition\PropertyBag) : void</text>
</g>
<!-- Bartlett\\Sarif\\Internal\\JsonSerializable -->
<g id="node2" class="node">
<title>Bartlett\\Sarif\\Internal\\JsonSerializable</title>
<polygon fill="#fefece" stroke="transparent" points="269.5,-183 162.5,-183 162.5,-110 269.5,-110 269.5,-183"/>
<polygon fill="#eeeeee" stroke="transparent" points="163,-160.5 163,-182.5 270,-182.5 270,-160.5 163,-160.5"/>
<polygon fill="none" stroke="black" points="163,-160.5 163,-182.5 270,-182.5 270,-160.5 163,-160.5"/>
<text text-anchor="start" x="192.5" y="-174.1" font-family="Verdana" font-weight="bold" font-size="8.00">«abstract»</text>
<text text-anchor="start" x="180" y="-166.1" font-family="Verdana" font-weight="bold" font-size="8.00">JsonSerializable</text>
<polygon fill="none" stroke="black" points="163,-128.5 163,-160.5 270,-160.5 270,-128.5 163,-128.5"/>
<text text-anchor="start" x="168" y="-149.1" font-family="Verdana" font-size="8.00"># required : mixed</text>
<text text-anchor="start" x="168" y="-136.1" font-family="Verdana" font-size="8.00"># optional : mixed</text>
<polygon fill="none" stroke="black" points="163,-109.5 163,-128.5 270,-128.5 270,-109.5 163,-109.5"/>
<text text-anchor="start" x="168" y="-117.1" font-family="Verdana" font-size="8.00">+ jsonSerialize() : array</text>
</g>
<!-- Bartlett\\Sarif\\Definition\\ExternalProperties&#45;&gt;Bartlett\\Sarif\\Internal\\JsonSerializable -->
<g id="edge2" class="edge">
<title>Bartlett\\Sarif\\Definition\\ExternalProperties&#45;&gt;Bartlett\\Sarif\\Internal\\JsonSerializable</title>
<path fill="none" stroke="black" d="M216,-229.99C216,-216.61 216,-204.29 216,-193.47"/>
<polygon fill="none" stroke="black" points="219.5,-193.17 216,-183.17 212.5,-193.17 219.5,-193.17"/>
</g>
<!-- JsonSerializable -->
<g id="node3" class="node">
<title>JsonSerializable</title>
<polygon fill="#fefece" stroke="transparent" points="278.5,-63 153.5,-63 153.5,-16 278.5,-16 278.5,-63"/>
<polygon fill="#eeeeee" stroke="transparent" points="154,-40.5 154,-62.5 279,-62.5 279,-40.5 154,-40.5"/>
<polygon fill="none" stroke="black" points="154,-40.5 154,-62.5 279,-62.5 279,-40.5 154,-40.5"/>
<text text-anchor="start" x="190.5" y="-54.1" font-family="Verdana" font-weight="bold" font-size="8.00">«interface»</text>
<text text-anchor="start" x="180" y="-46.1" font-family="Verdana" font-weight="bold" font-size="8.00">JsonSerializable</text>
<polygon fill="none" stroke="black" points="154,-34.5 154,-40.5 279,-40.5 279,-34.5 154,-34.5"/>
<polygon fill="none" stroke="black" points="154,-15.5 154,-34.5 279,-34.5 279,-15.5 154,-15.5"/>
<text text-anchor="start" x="159" y="-23.1" font-family="Verdana" font-size="8.00">+ «abstract» jsonSerialize()</text>
</g>
<!-- Bartlett\\Sarif\\Internal\\JsonSerializable&#45;&gt;JsonSerializable -->
<g id="edge1" class="edge">
<title>Bartlett\\Sarif\\Internal\\JsonSerializable&#45;&gt;JsonSerializable</title>
<path fill="none" stroke="black" stroke-dasharray="5,2" d="M216,-109.95C216,-98.11 216,-84.98 216,-73.35"/>
<polygon fill="none" stroke="black" points="219.5,-73.17 216,-63.17 212.5,-73.17 219.5,-73.17"/>
</g>
</g>
</svg>
