<?xml version="1.0" encoding="UTF-8" standalone="no"?>
<!DOCTYPE svg PUBLIC "-//W3C//DTD SVG 1.1//EN"
 "http://www.w3.org/Graphics/SVG/1.1/DTD/svg11.dtd">
<!-- Generated by graphviz version 2.43.0 (0)
 -->
<!-- Title: %3 Pages: 1 -->
<svg width="402pt" height="662pt"
 viewBox="0.00 0.00 402.00 662.00" xmlns="http://www.w3.org/2000/svg" xmlns:xlink="http://www.w3.org/1999/xlink">
<g id="graph0" class="graph" transform="scale(1 1) rotate(0) translate(4 658)">
<title>%3</title>
<g id="clust1" class="cluster">
<title>cluster_0</title>
<polygon fill="BurlyWood" stroke="black" points="8,-222 8,-646 386,-646 386,-222 8,-222"/>
<text text-anchor="middle" x="197" y="-630.8" font-family="Times,serif" font-size="14.00">Bartlett\Sarif\Definition</text>
</g>
<g id="clust2" class="cluster">
<title>cluster_1</title>
<polygon fill="Bisque" stroke="black" points="111,-102 111,-214 284,-214 284,-102 111,-102"/>
<text text-anchor="middle" x="197.5" y="-198.8" font-family="Times,serif" font-size="14.00">Bartlett\Sarif\Internal</text>
</g>
<g id="clust3" class="cluster">
<title>cluster_2</title>
<polygon fill="transparent" stroke="black" points="126,-8 126,-94 268,-94 268,-8 126,-8"/>
<text text-anchor="middle" x="197" y="-78.8" font-family="Times,serif" font-size="14.00">0</text>
</g>
<!-- Bartlett\\Sarif\\Definition\\Artifact -->
<g id="node1" class="node">
<title>Bartlett\\Sarif\\Definition\\Artifact</title>
<polygon fill="#fefece" stroke="transparent" points="378,-615 16,-615 16,-230 378,-230 378,-615"/>
<polygon fill="#eeeeee" stroke="transparent" points="16,-592.5 16,-614.5 378,-614.5 378,-592.5 16,-592.5"/>
<polygon fill="none" stroke="black" points="16,-592.5 16,-614.5 378,-614.5 378,-592.5 16,-592.5"/>
<text text-anchor="start" x="180" y="-598.1" font-family="Verdana" font-weight="bold" font-size="8.00">Artifact</text>
<polygon fill="none" stroke="black" points="16,-417.5 16,-592.5 378,-592.5 378,-417.5 16,-417.5"/>
<text text-anchor="start" x="21" y="-581.1" font-family="Verdana" font-size="8.00"># description</text>
<text text-anchor="start" x="21" y="-568.1" font-family="Verdana" font-size="8.00"># location</text>
<text text-anchor="start" x="21" y="-555.1" font-family="Verdana" font-size="8.00"># artifactLocation</text>
<text text-anchor="start" x="21" y="-542.1" font-family="Verdana" font-size="8.00"># parentIndex</text>
<text text-anchor="start" x="21" y="-529.1" font-family="Verdana" font-size="8.00"># offset</text>
<text text-anchor="start" x="21" y="-516.1" font-family="Verdana" font-size="8.00"># length</text>
<text text-anchor="start" x="21" y="-503.1" font-family="Verdana" font-size="8.00"># roles : mixed</text>
<text text-anchor="start" x="21" y="-490.1" font-family="Verdana" font-size="8.00"># mimeType</text>
<text text-anchor="start" x="21" y="-477.1" font-family="Verdana" font-size="8.00"># contents</text>
<text text-anchor="start" x="21" y="-464.1" font-family="Verdana" font-size="8.00"># encoding</text>
<text text-anchor="start" x="21" y="-451.1" font-family="Verdana" font-size="8.00"># sourceLanguage</text>
<text text-anchor="start" x="21" y="-438.1" font-family="Verdana" font-size="8.00"># hashes : mixed</text>
<text text-anchor="start" x="21" y="-425.1" font-family="Verdana" font-size="8.00"># properties</text>
<polygon fill="none" stroke="black" points="16,-229.5 16,-417.5 378,-417.5 378,-229.5 16,-229.5"/>
<text text-anchor="start" x="21" y="-406.1" font-family="Verdana" font-size="8.00">+ __construct()</text>
<text text-anchor="start" x="21" y="-393.1" font-family="Verdana" font-size="8.00">+ setDescription(description : Bartlett\Sarif\Definition\Message) : void</text>
<text text-anchor="start" x="21" y="-380.1" font-family="Verdana" font-size="8.00">+ setLocation(location : Bartlett\Sarif\Definition\ArtifactLocation) : void</text>
<text text-anchor="start" x="21" y="-367.1" font-family="Verdana" font-size="8.00">+ setArtifactLocation(artifactLocation : Bartlett\Sarif\Definition\ArtifactLocation) : void</text>
<text text-anchor="start" x="21" y="-354.1" font-family="Verdana" font-size="8.00">+ setParentIndex(parentIndex : int = &#45;1) : void</text>
<text text-anchor="start" x="21" y="-341.1" font-family="Verdana" font-size="8.00">+ setOffset(offset : int) : void</text>
<text text-anchor="start" x="21" y="-328.1" font-family="Verdana" font-size="8.00">+ setLength(length : int = &#45;1) : void</text>
<text text-anchor="start" x="21" y="-315.1" font-family="Verdana" font-size="8.00">+ addRoles(roles : array) : void</text>
<text text-anchor="start" x="21" y="-302.1" font-family="Verdana" font-size="8.00">+ setMimeType(mimeType : string) : void</text>
<text text-anchor="start" x="21" y="-289.1" font-family="Verdana" font-size="8.00">+ setContents(contents : Bartlett\Sarif\Definition\ArtifactContent) : void</text>
<text text-anchor="start" x="21" y="-276.1" font-family="Verdana" font-size="8.00">+ setEncoding(encoding : string) : void</text>
<text text-anchor="start" x="21" y="-263.1" font-family="Verdana" font-size="8.00">+ setSourceLanguage(sourceLanguage : string) : void</text>
<text text-anchor="start" x="21" y="-250.1" font-family="Verdana" font-size="8.00">+ addHashes(hashes : array) : void</text>
<text text-anchor="start" x="21" y="-237.1" font-family="Verdana" font-size="8.00">+ setProperties(propertyBag : Bartlett\Sarif\Definition\PropertyBag) : void</text>
</g>
<!-- Bartlett\\Sarif\\Internal\\JsonSerializable -->
<g id="node2" class="node">
<title>Bartlett\\Sarif\\Internal\\JsonSerializable</title>
<polygon fill="#fefece" stroke="transparent" points="250.5,-183 143.5,-183 143.5,-110 250.5,-110 250.5,-183"/>
<polygon fill="#eeeeee" stroke="transparent" points="144,-160.5 144,-182.5 251,-182.5 251,-160.5 144,-160.5"/>
<polygon fill="none" stroke="black" points="144,-160.5 144,-182.5 251,-182.5 251,-160.5 144,-160.5"/>
<text text-anchor="start" x="173.5" y="-174.1" font-family="Verdana" font-weight="bold" font-size="8.00">«abstract»</text>
<text text-anchor="start" x="161" y="-166.1" font-family="Verdana" font-weight="bold" font-size="8.00">JsonSerializable</text>
<polygon fill="none" stroke="black" points="144,-128.5 144,-160.5 251,-160.5 251,-128.5 144,-128.5"/>
<text text-anchor="start" x="149" y="-149.1" font-family="Verdana" font-size="8.00"># required : mixed</text>
<text text-anchor="start" x="149" y="-136.1" font-family="Verdana" font-size="8.00"># optional : mixed</text>
<polygon fill="none" stroke="black" points="144,-109.5 144,-128.5 251,-128.5 251,-109.5 144,-109.5"/>
<text text-anchor="start" x="149" y="-117.1" font-family="Verdana" font-size="8.00">+ jsonSerialize() : array</text>
</g>
<!-- Bartlett\\Sarif\\Definition\\Artifact&#45;&gt;Bartlett\\Sarif\\Internal\\JsonSerializable -->
<g id="edge2" class="edge">
<title>Bartlett\\Sarif\\Definition\\Artifact&#45;&gt;Bartlett\\Sarif\\Internal\\JsonSerializable</title>
<path fill="none" stroke="black" d="M197,-229.71C197,-216.49 197,-204.08 197,-193.11"/>
<polygon fill="none" stroke="black" points="200.5,-193.05 197,-183.05 193.5,-193.05 200.5,-193.05"/>
</g>
<!-- JsonSerializable -->
<g id="node3" class="node">
<title>JsonSerializable</title>
<polygon fill="#fefece" stroke="transparent" points="259.5,-63 134.5,-63 134.5,-16 259.5,-16 259.5,-63"/>
<polygon fill="#eeeeee" stroke="transparent" points="135,-40.5 135,-62.5 260,-62.5 260,-40.5 135,-40.5"/>
<polygon fill="none" stroke="black" points="135,-40.5 135,-62.5 260,-62.5 260,-40.5 135,-40.5"/>
<text text-anchor="start" x="171.5" y="-54.1" font-family="Verdana" font-weight="bold" font-size="8.00">«interface»</text>
<text text-anchor="start" x="161" y="-46.1" font-family="Verdana" font-weight="bold" font-size="8.00">JsonSerializable</text>
<polygon fill="none" stroke="black" points="135,-34.5 135,-40.5 260,-40.5 260,-34.5 135,-34.5"/>
<polygon fill="none" stroke="black" points="135,-15.5 135,-34.5 260,-34.5 260,-15.5 135,-15.5"/>
<text text-anchor="start" x="140" y="-23.1" font-family="Verdana" font-size="8.00">+ «abstract» jsonSerialize()</text>
</g>
<!-- Bartlett\\Sarif\\Internal\\JsonSerializable&#45;&gt;JsonSerializable -->
<g id="edge1" class="edge">
<title>Bartlett\\Sarif\\Internal\\JsonSerializable&#45;&gt;JsonSerializable</title>
<path fill="none" stroke="black" stroke-dasharray="5,2" d="M197,-109.95C197,-98.11 197,-84.98 197,-73.35"/>
<polygon fill="none" stroke="black" points="200.5,-73.17 197,-63.17 193.5,-73.17 200.5,-73.17"/>
</g>
</g>
</svg>
