<?xml version="1.0" encoding="UTF-8" standalone="no"?>
<!DOCTYPE svg PUBLIC "-//W3C//DTD SVG 1.1//EN"
 "http://www.w3.org/Graphics/SVG/1.1/DTD/svg11.dtd">
<!-- Generated by graphviz version 2.43.0 (0)
 -->
<!-- Title: %3 Pages: 1 -->
<svg width="416pt" height="402pt"
 viewBox="0.00 0.00 416.00 402.00" xmlns="http://www.w3.org/2000/svg" xmlns:xlink="http://www.w3.org/1999/xlink">
<g id="graph0" class="graph" transform="scale(1 1) rotate(0) translate(4 398)">
<title>%3</title>
<g id="clust1" class="cluster">
<title>cluster_0</title>
<polygon fill="BurlyWood" stroke="black" points="8,-222 8,-386 400,-386 400,-222 8,-222"/>
<text text-anchor="middle" x="204" y="-370.8" font-family="Times,serif" font-size="14.00">Bartlett\Sarif\Definition</text>
</g>
<g id="clust2" class="cluster">
<title>cluster_1</title>
<polygon fill="Bisque" stroke="black" points="118,-102 118,-214 291,-214 291,-102 118,-102"/>
<text text-anchor="middle" x="204.5" y="-198.8" font-family="Times,serif" font-size="14.00">Bartlett\Sarif\Internal</text>
</g>
<g id="clust3" class="cluster">
<title>cluster_2</title>
<polygon fill="transparent" stroke="black" points="133,-8 133,-94 275,-94 275,-8 133,-8"/>
<text text-anchor="middle" x="204" y="-78.8" font-family="Times,serif" font-size="14.00">0</text>
</g>
<!-- Bartlett\\Sarif\\Definition\\ConfigurationOverride -->
<g id="node1" class="node">
<title>Bartlett\\Sarif\\Definition\\ConfigurationOverride</title>
<polygon fill="#fefece" stroke="transparent" points="391.5,-355 16.5,-355 16.5,-230 391.5,-230 391.5,-355"/>
<polygon fill="#eeeeee" stroke="transparent" points="17,-332.5 17,-354.5 392,-354.5 392,-332.5 17,-332.5"/>
<polygon fill="none" stroke="black" points="17,-332.5 17,-354.5 392,-354.5 392,-332.5 17,-332.5"/>
<text text-anchor="start" x="153.5" y="-338.1" font-family="Verdana" font-weight="bold" font-size="8.00">ConfigurationOverride</text>
<polygon fill="none" stroke="black" points="17,-287.5 17,-332.5 392,-332.5 392,-287.5 17,-287.5"/>
<text text-anchor="start" x="22" y="-321.1" font-family="Verdana" font-size="8.00"># configuration : ReportingConfiguration</text>
<text text-anchor="start" x="22" y="-308.1" font-family="Verdana" font-size="8.00"># descriptor : ReportingDescriptorReference</text>
<text text-anchor="start" x="22" y="-295.1" font-family="Verdana" font-size="8.00"># properties : PropertyBag</text>
<polygon fill="none" stroke="black" points="17,-229.5 17,-287.5 392,-287.5 392,-229.5 17,-229.5"/>
<text text-anchor="start" x="22" y="-276.1" font-family="Verdana" font-size="8.00">+ __construct()</text>
<text text-anchor="start" x="22" y="-263.1" font-family="Verdana" font-size="8.00">+ setConfiguration(configuration : Bartlett\Sarif\Definition\ReportingConfiguration) : void</text>
<text text-anchor="start" x="22" y="-250.1" font-family="Verdana" font-size="8.00">+ setDescriptor(descriptor : Bartlett\Sarif\Definition\ReportingDescriptorReference) : void</text>
<text text-anchor="start" x="22" y="-237.1" font-family="Verdana" font-size="8.00">+ setProperties(propertyBag : Bartlett\Sarif\Definition\PropertyBag) : void</text>
</g>
<!-- Bartlett\\Sarif\\Internal\\JsonSerializable -->
<g id="node2" class="node">
<title>Bartlett\\Sarif\\Internal\\JsonSerializable</title>
<polygon fill="#fefece" stroke="transparent" points="257.5,-183 150.5,-183 150.5,-110 257.5,-110 257.5,-183"/>
<polygon fill="#eeeeee" stroke="transparent" points="151,-160.5 151,-182.5 258,-182.5 258,-160.5 151,-160.5"/>
<polygon fill="none" stroke="black" points="151,-160.5 151,-182.5 258,-182.5 258,-160.5 151,-160.5"/>
<text text-anchor="start" x="180.5" y="-174.1" font-family="Verdana" font-weight="bold" font-size="8.00">«abstract»</text>
<text text-anchor="start" x="168" y="-166.1" font-family="Verdana" font-weight="bold" font-size="8.00">JsonSerializable</text>
<polygon fill="none" stroke="black" points="151,-128.5 151,-160.5 258,-160.5 258,-128.5 151,-128.5"/>
<text text-anchor="start" x="156" y="-149.1" font-family="Verdana" font-size="8.00"># required : mixed</text>
<text text-anchor="start" x="156" y="-136.1" font-family="Verdana" font-size="8.00"># optional : mixed</text>
<polygon fill="none" stroke="black" points="151,-109.5 151,-128.5 258,-128.5 258,-109.5 151,-109.5"/>
<text text-anchor="start" x="156" y="-117.1" font-family="Verdana" font-size="8.00">+ jsonSerialize() : array</text>
</g>
<!-- Bartlett\\Sarif\\Definition\\ConfigurationOverride&#45;&gt;Bartlett\\Sarif\\Internal\\JsonSerializable -->
<g id="edge2" class="edge">
<title>Bartlett\\Sarif\\Definition\\ConfigurationOverride&#45;&gt;Bartlett\\Sarif\\Internal\\JsonSerializable</title>
<path fill="none" stroke="black" d="M204,-229.6C204,-217.46 204,-204.93 204,-193.42"/>
<polygon fill="none" stroke="black" points="207.5,-193.19 204,-183.19 200.5,-193.19 207.5,-193.19"/>
</g>
<!-- JsonSerializable -->
<g id="node3" class="node">
<title>JsonSerializable</title>
<polygon fill="#fefece" stroke="transparent" points="266.5,-63 141.5,-63 141.5,-16 266.5,-16 266.5,-63"/>
<polygon fill="#eeeeee" stroke="transparent" points="142,-40.5 142,-62.5 267,-62.5 267,-40.5 142,-40.5"/>
<polygon fill="none" stroke="black" points="142,-40.5 142,-62.5 267,-62.5 267,-40.5 142,-40.5"/>
<text text-anchor="start" x="178.5" y="-54.1" font-family="Verdana" font-weight="bold" font-size="8.00">«interface»</text>
<text text-anchor="start" x="168" y="-46.1" font-family="Verdana" font-weight="bold" font-size="8.00">JsonSerializable</text>
<polygon fill="none" stroke="black" points="142,-34.5 142,-40.5 267,-40.5 267,-34.5 142,-34.5"/>
<polygon fill="none" stroke="black" points="142,-15.5 142,-34.5 267,-34.5 267,-15.5 142,-15.5"/>
<text text-anchor="start" x="147" y="-23.1" font-family="Verdana" font-size="8.00">+ «abstract» jsonSerialize()</text>
</g>
<!-- Bartlett\\Sarif\\Internal\\JsonSerializable&#45;&gt;JsonSerializable -->
<g id="edge1" class="edge">
<title>Bartlett\\Sarif\\Internal\\JsonSerializable&#45;&gt;JsonSerializable</title>
<path fill="none" stroke="black" stroke-dasharray="5,2" d="M204,-109.95C204,-98.11 204,-84.98 204,-73.35"/>
<polygon fill="none" stroke="black" points="207.5,-73.17 204,-63.17 200.5,-73.17 207.5,-73.17"/>
</g>
</g>
</svg>
