<?xml version="1.0" encoding="UTF-8" standalone="no"?>
<!DOCTYPE svg PUBLIC "-//W3C//DTD SVG 1.1//EN"
 "http://www.w3.org/Graphics/SVG/1.1/DTD/svg11.dtd">
<!-- Generated by graphviz version 2.43.0 (0)
 -->
<!-- Title: %3 Pages: 1 -->
<svg width="358pt" height="506pt"
 viewBox="0.00 0.00 358.00 506.00" xmlns="http://www.w3.org/2000/svg" xmlns:xlink="http://www.w3.org/1999/xlink">
<g id="graph0" class="graph" transform="scale(1 1) rotate(0) translate(4 502)">
<title>%3</title>
<g id="clust1" class="cluster">
<title>cluster_0</title>
<polygon fill="BurlyWood" stroke="black" points="8,-222 8,-490 342,-490 342,-222 8,-222"/>
<text text-anchor="middle" x="175" y="-474.8" font-family="Times,serif" font-size="14.00">Bartlett\Sarif\Definition</text>
</g>
<g id="clust2" class="cluster">
<title>cluster_1</title>
<polygon fill="Bisque" stroke="black" points="89,-102 89,-214 262,-214 262,-102 89,-102"/>
<text text-anchor="middle" x="175.5" y="-198.8" font-family="Times,serif" font-size="14.00">Bartlett\Sarif\Internal</text>
</g>
<g id="clust3" class="cluster">
<title>cluster_2</title>
<polygon fill="transparent" stroke="black" points="104,-8 104,-94 246,-94 246,-8 104,-8"/>
<text text-anchor="middle" x="175" y="-78.8" font-family="Times,serif" font-size="14.00">0</text>
</g>
<!-- Bartlett\\Sarif\\Definition\\VersionControlDetails -->
<g id="node1" class="node">
<title>Bartlett\\Sarif\\Definition\\VersionControlDetails</title>
<polygon fill="#fefece" stroke="transparent" points="333.5,-459 16.5,-459 16.5,-230 333.5,-230 333.5,-459"/>
<polygon fill="#eeeeee" stroke="transparent" points="17,-436.5 17,-458.5 334,-458.5 334,-436.5 17,-436.5"/>
<polygon fill="none" stroke="black" points="17,-436.5 17,-458.5 334,-458.5 334,-436.5 17,-436.5"/>
<text text-anchor="start" x="126" y="-442.1" font-family="Verdana" font-weight="bold" font-size="8.00">VersionControlDetails</text>
<polygon fill="none" stroke="black" points="17,-339.5 17,-436.5 334,-436.5 334,-339.5 17,-339.5"/>
<text text-anchor="start" x="22" y="-425.1" font-family="Verdana" font-size="8.00"># repositoryUri</text>
<text text-anchor="start" x="22" y="-412.1" font-family="Verdana" font-size="8.00"># revisionId</text>
<text text-anchor="start" x="22" y="-399.1" font-family="Verdana" font-size="8.00"># branch</text>
<text text-anchor="start" x="22" y="-386.1" font-family="Verdana" font-size="8.00"># revisionTag</text>
<text text-anchor="start" x="22" y="-373.1" font-family="Verdana" font-size="8.00"># asOfTimeUtc</text>
<text text-anchor="start" x="22" y="-360.1" font-family="Verdana" font-size="8.00"># mappedTo</text>
<text text-anchor="start" x="22" y="-347.1" font-family="Verdana" font-size="8.00"># properties</text>
<polygon fill="none" stroke="black" points="17,-229.5 17,-339.5 334,-339.5 334,-229.5 17,-229.5"/>
<text text-anchor="start" x="22" y="-328.1" font-family="Verdana" font-size="8.00">+ __construct(repositoryUri : string)</text>
<text text-anchor="start" x="22" y="-315.1" font-family="Verdana" font-size="8.00">+ setRepositoryUri(repositoryUri : string) : void</text>
<text text-anchor="start" x="22" y="-302.1" font-family="Verdana" font-size="8.00">+ setRevisionId(revisionId : string) : void</text>
<text text-anchor="start" x="22" y="-289.1" font-family="Verdana" font-size="8.00">+ setBranch(branch : string) : void</text>
<text text-anchor="start" x="22" y="-276.1" font-family="Verdana" font-size="8.00">+ setRevisionTag(revisionTag : string) : void</text>
<text text-anchor="start" x="22" y="-263.1" font-family="Verdana" font-size="8.00">+ setAsOfTimeUtc(asOfTimeUtc : string) : void</text>
<text text-anchor="start" x="22" y="-250.1" font-family="Verdana" font-size="8.00">+ setMappedTo(mappedTo : Bartlett\Sarif\Definition\ArtifactLocation) : void</text>
<text text-anchor="start" x="22" y="-237.1" font-family="Verdana" font-size="8.00">+ setProperties(propertyBag : Bartlett\Sarif\Definition\PropertyBag) : void</text>
</g>
<!-- Bartlett\\Sarif\\Internal\\JsonSerializable -->
<g id="node2" class="node">
<title>Bartlett\\Sarif\\Internal\\JsonSerializable</title>
<polygon fill="#fefece" stroke="transparent" points="228.5,-183 121.5,-183 121.5,-110 228.5,-110 228.5,-183"/>
<polygon fill="#eeeeee" stroke="transparent" points="122,-160.5 122,-182.5 229,-182.5 229,-160.5 122,-160.5"/>
<polygon fill="none" stroke="black" points="122,-160.5 122,-182.5 229,-182.5 229,-160.5 122,-160.5"/>
<text text-anchor="start" x="151.5" y="-174.1" font-family="Verdana" font-weight="bold" font-size="8.00">«abstract»</text>
<text text-anchor="start" x="139" y="-166.1" font-family="Verdana" font-weight="bold" font-size="8.00">JsonSerializable</text>
<polygon fill="none" stroke="black" points="122,-128.5 122,-160.5 229,-160.5 229,-128.5 122,-128.5"/>
<text text-anchor="start" x="127" y="-149.1" font-family="Verdana" font-size="8.00"># required : mixed</text>
<text text-anchor="start" x="127" y="-136.1" font-family="Verdana" font-size="8.00"># optional : mixed</text>
<polygon fill="none" stroke="black" points="122,-109.5 122,-128.5 229,-128.5 229,-109.5 122,-109.5"/>
<text text-anchor="start" x="127" y="-117.1" font-family="Verdana" font-size="8.00">+ jsonSerialize() : array</text>
</g>
<!-- Bartlett\\Sarif\\Definition\\VersionControlDetails&#45;&gt;Bartlett\\Sarif\\Internal\\JsonSerializable -->
<g id="edge2" class="edge">
<title>Bartlett\\Sarif\\Definition\\VersionControlDetails&#45;&gt;Bartlett\\Sarif\\Internal\\JsonSerializable</title>
<path fill="none" stroke="black" d="M175,-229.77C175,-216.97 175,-204.54 175,-193.38"/>
<polygon fill="none" stroke="black" points="178.5,-193.1 175,-183.1 171.5,-193.1 178.5,-193.1"/>
</g>
<!-- JsonSerializable -->
<g id="node3" class="node">
<title>JsonSerializable</title>
<polygon fill="#fefece" stroke="transparent" points="237.5,-63 112.5,-63 112.5,-16 237.5,-16 237.5,-63"/>
<polygon fill="#eeeeee" stroke="transparent" points="113,-40.5 113,-62.5 238,-62.5 238,-40.5 113,-40.5"/>
<polygon fill="none" stroke="black" points="113,-40.5 113,-62.5 238,-62.5 238,-40.5 113,-40.5"/>
<text text-anchor="start" x="149.5" y="-54.1" font-family="Verdana" font-weight="bold" font-size="8.00">«interface»</text>
<text text-anchor="start" x="139" y="-46.1" font-family="Verdana" font-weight="bold" font-size="8.00">JsonSerializable</text>
<polygon fill="none" stroke="black" points="113,-34.5 113,-40.5 238,-40.5 238,-34.5 113,-34.5"/>
<polygon fill="none" stroke="black" points="113,-15.5 113,-34.5 238,-34.5 238,-15.5 113,-15.5"/>
<text text-anchor="start" x="118" y="-23.1" font-family="Verdana" font-size="8.00">+ «abstract» jsonSerialize()</text>
</g>
<!-- Bartlett\\Sarif\\Internal\\JsonSerializable&#45;&gt;JsonSerializable -->
<g id="edge1" class="edge">
<title>Bartlett\\Sarif\\Internal\\JsonSerializable&#45;&gt;JsonSerializable</title>
<path fill="none" stroke="black" stroke-dasharray="5,2" d="M175,-109.95C175,-98.11 175,-84.98 175,-73.35"/>
<polygon fill="none" stroke="black" points="178.5,-73.17 175,-63.17 171.5,-73.17 178.5,-73.17"/>
</g>
</g>
</svg>
