<?xml version="1.0" encoding="UTF-8" standalone="no"?>
<!DOCTYPE svg PUBLIC "-//W3C//DTD SVG 1.1//EN"
 "http://www.w3.org/Graphics/SVG/1.1/DTD/svg11.dtd">
<!-- Generated by graphviz version 2.43.0 (0)
 -->
<!-- Title: %3 Pages: 1 -->
<svg width="474pt" height="688pt"
 viewBox="0.00 0.00 474.00 688.00" xmlns="http://www.w3.org/2000/svg" xmlns:xlink="http://www.w3.org/1999/xlink">
<g id="graph0" class="graph" transform="scale(1 1) rotate(0) translate(4 684)">
<title>%3</title>
<g id="clust1" class="cluster">
<title>cluster_0</title>
<polygon fill="BurlyWood" stroke="black" points="8,-222 8,-672 458,-672 458,-222 8,-222"/>
<text text-anchor="middle" x="233" y="-656.8" font-family="Times,serif" font-size="14.00">Bartlett\Sarif\Definition</text>
</g>
<g id="clust2" class="cluster">
<title>cluster_1</title>
<polygon fill="Bisque" stroke="black" points="147,-102 147,-214 320,-214 320,-102 147,-102"/>
<text text-anchor="middle" x="233.5" y="-198.8" font-family="Times,serif" font-size="14.00">Bartlett\Sarif\Internal</text>
</g>
<g id="clust3" class="cluster">
<title>cluster_2</title>
<polygon fill="transparent" stroke="black" points="162,-8 162,-94 304,-94 304,-8 162,-8"/>
<text text-anchor="middle" x="233" y="-78.8" font-family="Times,serif" font-size="14.00">0</text>
</g>
<!-- Bartlett\\Sarif\\Definition\\ReportingDescriptor -->
<g id="node1" class="node">
<title>Bartlett\\Sarif\\Definition\\ReportingDescriptor</title>
<polygon fill="#fefece" stroke="transparent" points="450,-641 16,-641 16,-230 450,-230 450,-641"/>
<polygon fill="#eeeeee" stroke="transparent" points="16,-618.5 16,-640.5 450,-640.5 450,-618.5 16,-618.5"/>
<polygon fill="none" stroke="black" points="16,-618.5 16,-640.5 450,-640.5 450,-618.5 16,-618.5"/>
<text text-anchor="start" x="187" y="-624.1" font-family="Verdana" font-weight="bold" font-size="8.00">ReportingDescriptor</text>
<polygon fill="none" stroke="black" points="16,-430.5 16,-618.5 450,-618.5 450,-430.5 16,-430.5"/>
<text text-anchor="start" x="21" y="-607.1" font-family="Verdana" font-size="8.00"># id</text>
<text text-anchor="start" x="21" y="-594.1" font-family="Verdana" font-size="8.00"># deprecatedIds : mixed</text>
<text text-anchor="start" x="21" y="-581.1" font-family="Verdana" font-size="8.00"># guid</text>
<text text-anchor="start" x="21" y="-568.1" font-family="Verdana" font-size="8.00"># deprecatedGuids : mixed</text>
<text text-anchor="start" x="21" y="-555.1" font-family="Verdana" font-size="8.00"># name</text>
<text text-anchor="start" x="21" y="-542.1" font-family="Verdana" font-size="8.00"># deprecatedNames : mixed</text>
<text text-anchor="start" x="21" y="-529.1" font-family="Verdana" font-size="8.00"># shortDescription</text>
<text text-anchor="start" x="21" y="-516.1" font-family="Verdana" font-size="8.00"># fullDescription</text>
<text text-anchor="start" x="21" y="-503.1" font-family="Verdana" font-size="8.00"># messageStrings : mixed</text>
<text text-anchor="start" x="21" y="-490.1" font-family="Verdana" font-size="8.00"># defaultConfiguration</text>
<text text-anchor="start" x="21" y="-477.1" font-family="Verdana" font-size="8.00"># helpUri</text>
<text text-anchor="start" x="21" y="-464.1" font-family="Verdana" font-size="8.00"># help</text>
<text text-anchor="start" x="21" y="-451.1" font-family="Verdana" font-size="8.00"># relationships : mixed</text>
<text text-anchor="start" x="21" y="-438.1" font-family="Verdana" font-size="8.00"># properties</text>
<polygon fill="none" stroke="black" points="16,-229.5 16,-430.5 450,-430.5 450,-229.5 16,-229.5"/>
<text text-anchor="start" x="21" y="-419.1" font-family="Verdana" font-size="8.00">+ __construct(id : string)</text>
<text text-anchor="start" x="21" y="-406.1" font-family="Verdana" font-size="8.00">+ setId(id : string) : void</text>
<text text-anchor="start" x="21" y="-393.1" font-family="Verdana" font-size="8.00">+ addDeprecatedIds(deprecatedIds : array) : void</text>
<text text-anchor="start" x="21" y="-380.1" font-family="Verdana" font-size="8.00">+ setGuid(guid : string) : void</text>
<text text-anchor="start" x="21" y="-367.1" font-family="Verdana" font-size="8.00">+ addDeprecatedGuids(deprecatedGuids : array) : void</text>
<text text-anchor="start" x="21" y="-354.1" font-family="Verdana" font-size="8.00">+ setName(name : string) : void</text>
<text text-anchor="start" x="21" y="-341.1" font-family="Verdana" font-size="8.00">+ addDeprecatedNames(deprecatedNames : array) : void</text>
<text text-anchor="start" x="21" y="-328.1" font-family="Verdana" font-size="8.00">+ setShortDescription(shortDescription : Bartlett\Sarif\Definition\MultiformatMessageString) : void</text>
<text text-anchor="start" x="21" y="-315.1" font-family="Verdana" font-size="8.00">+ setFullDescription(fullDescription : Bartlett\Sarif\Definition\MultiformatMessageString) : void</text>
<text text-anchor="start" x="21" y="-302.1" font-family="Verdana" font-size="8.00">+ addMessageStrings(messageStrings : array) : void</text>
<text text-anchor="start" x="21" y="-289.1" font-family="Verdana" font-size="8.00">+ setDefaultConfiguration(defaultConfiguration : Bartlett\Sarif\Definition\ReportingConfiguration) : void</text>
<text text-anchor="start" x="21" y="-276.1" font-family="Verdana" font-size="8.00">+ setHelpUri(helpUri : string) : void</text>
<text text-anchor="start" x="21" y="-263.1" font-family="Verdana" font-size="8.00">+ setHelp(help : Bartlett\Sarif\Definition\MultiformatMessageString) : void</text>
<text text-anchor="start" x="21" y="-250.1" font-family="Verdana" font-size="8.00">+ addRelationships(relationships : array) : void</text>
<text text-anchor="start" x="21" y="-237.1" font-family="Verdana" font-size="8.00">+ setProperties(propertyBag : Bartlett\Sarif\Definition\PropertyBag) : void</text>
</g>
<!-- Bartlett\\Sarif\\Internal\\JsonSerializable -->
<g id="node2" class="node">
<title>Bartlett\\Sarif\\Internal\\JsonSerializable</title>
<polygon fill="#fefece" stroke="transparent" points="286.5,-183 179.5,-183 179.5,-110 286.5,-110 286.5,-183"/>
<polygon fill="#eeeeee" stroke="transparent" points="180,-160.5 180,-182.5 287,-182.5 287,-160.5 180,-160.5"/>
<polygon fill="none" stroke="black" points="180,-160.5 180,-182.5 287,-182.5 287,-160.5 180,-160.5"/>
<text text-anchor="start" x="209.5" y="-174.1" font-family="Verdana" font-weight="bold" font-size="8.00">«abstract»</text>
<text text-anchor="start" x="197" y="-166.1" font-family="Verdana" font-weight="bold" font-size="8.00">JsonSerializable</text>
<polygon fill="none" stroke="black" points="180,-128.5 180,-160.5 287,-160.5 287,-128.5 180,-128.5"/>
<text text-anchor="start" x="185" y="-149.1" font-family="Verdana" font-size="8.00"># required : mixed</text>
<text text-anchor="start" x="185" y="-136.1" font-family="Verdana" font-size="8.00"># optional : mixed</text>
<polygon fill="none" stroke="black" points="180,-109.5 180,-128.5 287,-128.5 287,-109.5 180,-109.5"/>
<text text-anchor="start" x="185" y="-117.1" font-family="Verdana" font-size="8.00">+ jsonSerialize() : array</text>
</g>
<!-- Bartlett\\Sarif\\Definition\\ReportingDescriptor&#45;&gt;Bartlett\\Sarif\\Internal\\JsonSerializable -->
<g id="edge2" class="edge">
<title>Bartlett\\Sarif\\Definition\\ReportingDescriptor&#45;&gt;Bartlett\\Sarif\\Internal\\JsonSerializable</title>
<path fill="none" stroke="black" d="M233,-229.74C233,-216.7 233,-204.49 233,-193.67"/>
<polygon fill="none" stroke="black" points="236.5,-193.34 233,-183.34 229.5,-193.34 236.5,-193.34"/>
</g>
<!-- JsonSerializable -->
<g id="node3" class="node">
<title>JsonSerializable</title>
<polygon fill="#fefece" stroke="transparent" points="295.5,-63 170.5,-63 170.5,-16 295.5,-16 295.5,-63"/>
<polygon fill="#eeeeee" stroke="transparent" points="171,-40.5 171,-62.5 296,-62.5 296,-40.5 171,-40.5"/>
<polygon fill="none" stroke="black" points="171,-40.5 171,-62.5 296,-62.5 296,-40.5 171,-40.5"/>
<text text-anchor="start" x="207.5" y="-54.1" font-family="Verdana" font-weight="bold" font-size="8.00">«interface»</text>
<text text-anchor="start" x="197" y="-46.1" font-family="Verdana" font-weight="bold" font-size="8.00">JsonSerializable</text>
<polygon fill="none" stroke="black" points="171,-34.5 171,-40.5 296,-40.5 296,-34.5 171,-34.5"/>
<polygon fill="none" stroke="black" points="171,-15.5 171,-34.5 296,-34.5 296,-15.5 171,-15.5"/>
<text text-anchor="start" x="176" y="-23.1" font-family="Verdana" font-size="8.00">+ «abstract» jsonSerialize()</text>
</g>
<!-- Bartlett\\Sarif\\Internal\\JsonSerializable&#45;&gt;JsonSerializable -->
<g id="edge1" class="edge">
<title>Bartlett\\Sarif\\Internal\\JsonSerializable&#45;&gt;JsonSerializable</title>
<path fill="none" stroke="black" stroke-dasharray="5,2" d="M233,-109.95C233,-98.11 233,-84.98 233,-73.35"/>
<polygon fill="none" stroke="black" points="236.5,-73.17 233,-63.17 229.5,-73.17 236.5,-73.17"/>
</g>
</g>
</svg>
