<?xml version="1.0" encoding="UTF-8" standalone="no"?>
<!DOCTYPE svg PUBLIC "-//W3C//DTD SVG 1.1//EN"
 "http://www.w3.org/Graphics/SVG/1.1/DTD/svg11.dtd">
<!-- Generated by graphviz version 2.43.0 (0)
 -->
<!-- Title: %3 Pages: 1 -->
<svg width="352pt" height="454pt"
 viewBox="0.00 0.00 352.00 454.00" xmlns="http://www.w3.org/2000/svg" xmlns:xlink="http://www.w3.org/1999/xlink">
<g id="graph0" class="graph" transform="scale(1 1) rotate(0) translate(4 450)">
<title>%3</title>
<g id="clust1" class="cluster">
<title>cluster_0</title>
<polygon fill="BurlyWood" stroke="black" points="8,-222 8,-438 336,-438 336,-222 8,-222"/>
<text text-anchor="middle" x="172" y="-422.8" font-family="Times,serif" font-size="14.00">Bartlett\Sarif\Definition</text>
</g>
<g id="clust2" class="cluster">
<title>cluster_1</title>
<polygon fill="Bisque" stroke="black" points="86,-102 86,-214 259,-214 259,-102 86,-102"/>
<text text-anchor="middle" x="172.5" y="-198.8" font-family="Times,serif" font-size="14.00">Bartlett\Sarif\Internal</text>
</g>
<g id="clust3" class="cluster">
<title>cluster_2</title>
<polygon fill="transparent" stroke="black" points="101,-8 101,-94 243,-94 243,-8 101,-8"/>
<text text-anchor="middle" x="172" y="-78.8" font-family="Times,serif" font-size="14.00">0</text>
</g>
<!-- Bartlett\\Sarif\\Definition\\ReportingConfiguration -->
<g id="node1" class="node">
<title>Bartlett\\Sarif\\Definition\\ReportingConfiguration</title>
<polygon fill="#fefece" stroke="transparent" points="327.5,-407 16.5,-407 16.5,-230 327.5,-230 327.5,-407"/>
<polygon fill="#eeeeee" stroke="transparent" points="17,-384.5 17,-406.5 328,-406.5 328,-384.5 17,-384.5"/>
<polygon fill="none" stroke="black" points="17,-384.5 17,-406.5 328,-406.5 328,-384.5 17,-384.5"/>
<text text-anchor="start" x="118.5" y="-390.1" font-family="Verdana" font-weight="bold" font-size="8.00">ReportingConfiguration</text>
<polygon fill="none" stroke="black" points="17,-313.5 17,-384.5 328,-384.5 328,-313.5 17,-313.5"/>
<text text-anchor="start" x="22" y="-373.1" font-family="Verdana" font-size="8.00"># enabled : bool</text>
<text text-anchor="start" x="22" y="-360.1" font-family="Verdana" font-size="8.00"># level : string</text>
<text text-anchor="start" x="22" y="-347.1" font-family="Verdana" font-size="8.00"># rank : float</text>
<text text-anchor="start" x="22" y="-334.1" font-family="Verdana" font-size="8.00"># parameters : PropertyBag</text>
<text text-anchor="start" x="22" y="-321.1" font-family="Verdana" font-size="8.00"># properties : PropertyBag</text>
<polygon fill="none" stroke="black" points="17,-229.5 17,-313.5 328,-313.5 328,-229.5 17,-229.5"/>
<text text-anchor="start" x="22" y="-302.1" font-family="Verdana" font-size="8.00">+ __construct()</text>
<text text-anchor="start" x="22" y="-289.1" font-family="Verdana" font-size="8.00">+ setEnabled(enabled : bool = true) : void</text>
<text text-anchor="start" x="22" y="-276.1" font-family="Verdana" font-size="8.00">+ setLevel(level : string = &#39;warning&#39;) : void</text>
<text text-anchor="start" x="22" y="-263.1" font-family="Verdana" font-size="8.00">+ setRank(rank : float = &#45;1) : void</text>
<text text-anchor="start" x="22" y="-250.1" font-family="Verdana" font-size="8.00">+ setParameters(parameters : Bartlett\Sarif\Definition\PropertyBag) : void</text>
<text text-anchor="start" x="22" y="-237.1" font-family="Verdana" font-size="8.00">+ setProperties(propertyBag : Bartlett\Sarif\Definition\PropertyBag) : void</text>
</g>
<!-- Bartlett\\Sarif\\Internal\\JsonSerializable -->
<g id="node2" class="node">
<title>Bartlett\\Sarif\\Internal\\JsonSerializable</title>
<polygon fill="#fefece" stroke="transparent" points="225.5,-183 118.5,-183 118.5,-110 225.5,-110 225.5,-183"/>
<polygon fill="#eeeeee" stroke="transparent" points="119,-160.5 119,-182.5 226,-182.5 226,-160.5 119,-160.5"/>
<polygon fill="none" stroke="black" points="119,-160.5 119,-182.5 226,-182.5 226,-160.5 119,-160.5"/>
<text text-anchor="start" x="148.5" y="-174.1" font-family="Verdana" font-weight="bold" font-size="8.00">«abstract»</text>
<text text-anchor="start" x="136" y="-166.1" font-family="Verdana" font-weight="bold" font-size="8.00">JsonSerializable</text>
<polygon fill="none" stroke="black" points="119,-128.5 119,-160.5 226,-160.5 226,-128.5 119,-128.5"/>
<text text-anchor="start" x="124" y="-149.1" font-family="Verdana" font-size="8.00"># required : mixed</text>
<text text-anchor="start" x="124" y="-136.1" font-family="Verdana" font-size="8.00"># optional : mixed</text>
<polygon fill="none" stroke="black" points="119,-109.5 119,-128.5 226,-128.5 226,-109.5 119,-109.5"/>
<text text-anchor="start" x="124" y="-117.1" font-family="Verdana" font-size="8.00">+ jsonSerialize() : array</text>
</g>
<!-- Bartlett\\Sarif\\Definition\\ReportingConfiguration&#45;&gt;Bartlett\\Sarif\\Internal\\JsonSerializable -->
<g id="edge2" class="edge">
<title>Bartlett\\Sarif\\Definition\\ReportingConfiguration&#45;&gt;Bartlett\\Sarif\\Internal\\JsonSerializable</title>
<path fill="none" stroke="black" d="M172,-229.51C172,-217.11 172,-204.79 172,-193.62"/>
<polygon fill="none" stroke="black" points="175.5,-193.29 172,-183.29 168.5,-193.29 175.5,-193.29"/>
</g>
<!-- JsonSerializable -->
<g id="node3" class="node">
<title>JsonSerializable</title>
<polygon fill="#fefece" stroke="transparent" points="234.5,-63 109.5,-63 109.5,-16 234.5,-16 234.5,-63"/>
<polygon fill="#eeeeee" stroke="transparent" points="110,-40.5 110,-62.5 235,-62.5 235,-40.5 110,-40.5"/>
<polygon fill="none" stroke="black" points="110,-40.5 110,-62.5 235,-62.5 235,-40.5 110,-40.5"/>
<text text-anchor="start" x="146.5" y="-54.1" font-family="Verdana" font-weight="bold" font-size="8.00">«interface»</text>
<text text-anchor="start" x="136" y="-46.1" font-family="Verdana" font-weight="bold" font-size="8.00">JsonSerializable</text>
<polygon fill="none" stroke="black" points="110,-34.5 110,-40.5 235,-40.5 235,-34.5 110,-34.5"/>
<polygon fill="none" stroke="black" points="110,-15.5 110,-34.5 235,-34.5 235,-15.5 110,-15.5"/>
<text text-anchor="start" x="115" y="-23.1" font-family="Verdana" font-size="8.00">+ «abstract» jsonSerialize()</text>
</g>
<!-- Bartlett\\Sarif\\Internal\\JsonSerializable&#45;&gt;JsonSerializable -->
<g id="edge1" class="edge">
<title>Bartlett\\Sarif\\Internal\\JsonSerializable&#45;&gt;JsonSerializable</title>
<path fill="none" stroke="black" stroke-dasharray="5,2" d="M172,-109.95C172,-98.11 172,-84.98 172,-73.35"/>
<polygon fill="none" stroke="black" points="175.5,-73.17 172,-63.17 168.5,-73.17 175.5,-73.17"/>
</g>
</g>
</svg>
