<?xml version="1.0" encoding="UTF-8" standalone="no"?>
<!DOCTYPE svg PUBLIC "-//W3C//DTD SVG 1.1//EN"
 "http://www.w3.org/Graphics/SVG/1.1/DTD/svg11.dtd">
<!-- Generated by graphviz version 2.43.0 (0)
 -->
<!-- Title: %3 Pages: 1 -->
<svg width="402pt" height="402pt"
 viewBox="0.00 0.00 402.00 402.00" xmlns="http://www.w3.org/2000/svg" xmlns:xlink="http://www.w3.org/1999/xlink">
<g id="graph0" class="graph" transform="scale(1 1) rotate(0) translate(4 398)">
<title>%3</title>
<g id="clust1" class="cluster">
<title>cluster_0</title>
<polygon fill="BurlyWood" stroke="black" points="8,-222 8,-386 386,-386 386,-222 8,-222"/>
<text text-anchor="middle" x="197" y="-370.8" font-family="Times,serif" font-size="14.00">Bartlett\Sarif\Definition</text>
</g>
<g id="clust2" class="cluster">
<title>cluster_1</title>
<polygon fill="Bisque" stroke="black" points="111,-102 111,-214 284,-214 284,-102 111,-102"/>
<text text-anchor="middle" x="197.5" y="-198.8" font-family="Times,serif" font-size="14.00">Bartlett\Sarif\Internal</text>
</g>
<g id="clust3" class="cluster">
<title>cluster_2</title>
<polygon fill="transparent" stroke="black" points="126,-8 126,-94 268,-94 268,-8 126,-8"/>
<text text-anchor="middle" x="197" y="-78.8" font-family="Times,serif" font-size="14.00">0</text>
</g>
<!-- Bartlett\\Sarif\\Definition\\Replacement -->
<g id="node1" class="node">
<title>Bartlett\\Sarif\\Definition\\Replacement</title>
<polygon fill="#fefece" stroke="transparent" points="378,-355 16,-355 16,-230 378,-230 378,-355"/>
<polygon fill="#eeeeee" stroke="transparent" points="16,-332.5 16,-354.5 378,-354.5 378,-332.5 16,-332.5"/>
<polygon fill="none" stroke="black" points="16,-332.5 16,-354.5 378,-354.5 378,-332.5 16,-332.5"/>
<text text-anchor="start" x="167.5" y="-338.1" font-family="Verdana" font-weight="bold" font-size="8.00">Replacement</text>
<polygon fill="none" stroke="black" points="16,-287.5 16,-332.5 378,-332.5 378,-287.5 16,-287.5"/>
<text text-anchor="start" x="21" y="-321.1" font-family="Verdana" font-size="8.00"># deletedRegion : Region</text>
<text text-anchor="start" x="21" y="-308.1" font-family="Verdana" font-size="8.00"># insertedContent : ArtifactContent</text>
<text text-anchor="start" x="21" y="-295.1" font-family="Verdana" font-size="8.00"># properties : PropertyBag</text>
<polygon fill="none" stroke="black" points="16,-229.5 16,-287.5 378,-287.5 378,-229.5 16,-229.5"/>
<text text-anchor="start" x="21" y="-276.1" font-family="Verdana" font-size="8.00">+ __construct(deletedRegion : Bartlett\Sarif\Definition\Region)</text>
<text text-anchor="start" x="21" y="-263.1" font-family="Verdana" font-size="8.00">+ setDeletedRegion(deletedRegion : Bartlett\Sarif\Definition\Region) : void</text>
<text text-anchor="start" x="21" y="-250.1" font-family="Verdana" font-size="8.00">+ setInsertedContent(insertedContent : Bartlett\Sarif\Definition\ArtifactContent) : void</text>
<text text-anchor="start" x="21" y="-237.1" font-family="Verdana" font-size="8.00">+ setProperties(propertyBag : Bartlett\Sarif\Definition\PropertyBag) : void</text>
</g>
<!-- Bartlett\\Sarif\\Internal\\JsonSerializable -->
<g id="node2" class="node">
<title>Bartlett\\Sarif\\Internal\\JsonSerializable</title>
<polygon fill="#fefece" stroke="transparent" points="250.5,-183 143.5,-183 143.5,-110 250.5,-110 250.5,-183"/>
<polygon fill="#eeeeee" stroke="transparent" points="144,-160.5 144,-182.5 251,-182.5 251,-160.5 144,-160.5"/>
<polygon fill="none" stroke="black" points="144,-160.5 144,-182.5 251,-182.5 251,-160.5 144,-160.5"/>
<text text-anchor="start" x="173.5" y="-174.1" font-family="Verdana" font-weight="bold" font-size="8.00">«abstract»</text>
<text text-anchor="start" x="161" y="-166.1" font-family="Verdana" font-weight="bold" font-size="8.00">JsonSerializable</text>
<polygon fill="none" stroke="black" points="144,-128.5 144,-160.5 251,-160.5 251,-128.5 144,-128.5"/>
<text text-anchor="start" x="149" y="-149.1" font-family="Verdana" font-size="8.00"># required : mixed</text>
<text text-anchor="start" x="149" y="-136.1" font-family="Verdana" font-size="8.00"># optional : mixed</text>
<polygon fill="none" stroke="black" points="144,-109.5 144,-128.5 251,-128.5 251,-109.5 144,-109.5"/>
<text text-anchor="start" x="149" y="-117.1" font-family="Verdana" font-size="8.00">+ jsonSerialize() : array</text>
</g>
<!-- Bartlett\\Sarif\\Definition\\Replacement&#45;&gt;Bartlett\\Sarif\\Internal\\JsonSerializable -->
<g id="edge2" class="edge">
<title>Bartlett\\Sarif\\Definition\\Replacement&#45;&gt;Bartlett\\Sarif\\Internal\\JsonSerializable</title>
<path fill="none" stroke="black" d="M197,-229.6C197,-217.46 197,-204.93 197,-193.42"/>
<polygon fill="none" stroke="black" points="200.5,-193.19 197,-183.19 193.5,-193.19 200.5,-193.19"/>
</g>
<!-- JsonSerializable -->
<g id="node3" class="node">
<title>JsonSerializable</title>
<polygon fill="#fefece" stroke="transparent" points="259.5,-63 134.5,-63 134.5,-16 259.5,-16 259.5,-63"/>
<polygon fill="#eeeeee" stroke="transparent" points="135,-40.5 135,-62.5 260,-62.5 260,-40.5 135,-40.5"/>
<polygon fill="none" stroke="black" points="135,-40.5 135,-62.5 260,-62.5 260,-40.5 135,-40.5"/>
<text text-anchor="start" x="171.5" y="-54.1" font-family="Verdana" font-weight="bold" font-size="8.00">«interface»</text>
<text text-anchor="start" x="161" y="-46.1" font-family="Verdana" font-weight="bold" font-size="8.00">JsonSerializable</text>
<polygon fill="none" stroke="black" points="135,-34.5 135,-40.5 260,-40.5 260,-34.5 135,-34.5"/>
<polygon fill="none" stroke="black" points="135,-15.5 135,-34.5 260,-34.5 260,-15.5 135,-15.5"/>
<text text-anchor="start" x="140" y="-23.1" font-family="Verdana" font-size="8.00">+ «abstract» jsonSerialize()</text>
</g>
<!-- Bartlett\\Sarif\\Internal\\JsonSerializable&#45;&gt;JsonSerializable -->
<g id="edge1" class="edge">
<title>Bartlett\\Sarif\\Internal\\JsonSerializable&#45;&gt;JsonSerializable</title>
<path fill="none" stroke="black" stroke-dasharray="5,2" d="M197,-109.95C197,-98.11 197,-84.98 197,-73.35"/>
<polygon fill="none" stroke="black" points="200.5,-73.17 197,-63.17 193.5,-73.17 200.5,-73.17"/>
</g>
</g>
</svg>
