<?xml version="1.0" encoding="UTF-8" standalone="no"?>
<!DOCTYPE svg PUBLIC "-//W3C//DTD SVG 1.1//EN"
 "http://www.w3.org/Graphics/SVG/1.1/DTD/svg11.dtd">
<!-- Generated by graphviz version 2.43.0 (0)
 -->
<!-- Title: %3 Pages: 1 -->
<svg width="640pt" height="480pt"
 viewBox="0.00 0.00 640.00 480.00" xmlns="http://www.w3.org/2000/svg" xmlns:xlink="http://www.w3.org/1999/xlink">
<g id="graph0" class="graph" transform="scale(1 1) rotate(0) translate(4 476)">
<title>%3</title>
<g id="clust1" class="cluster">
<title>cluster_0</title>
<polygon fill="BurlyWood" stroke="black" points="8,-222 8,-464 624,-464 624,-222 8,-222"/>
<text text-anchor="middle" x="316" y="-448.8" font-family="Times,serif" font-size="14.00">Bartlett\Sarif\Definition</text>
</g>
<g id="clust2" class="cluster">
<title>cluster_1</title>
<polygon fill="Bisque" stroke="black" points="230,-102 230,-214 403,-214 403,-102 230,-102"/>
<text text-anchor="middle" x="316.5" y="-198.8" font-family="Times,serif" font-size="14.00">Bartlett\Sarif\Internal</text>
</g>
<g id="clust3" class="cluster">
<title>cluster_2</title>
<polygon fill="transparent" stroke="black" points="245,-8 245,-94 387,-94 387,-8 245,-8"/>
<text text-anchor="middle" x="316" y="-78.8" font-family="Times,serif" font-size="14.00">0</text>
</g>
<!-- Bartlett\\Sarif\\Definition\\PhysicalLocation -->
<g id="node1" class="node">
<title>Bartlett\\Sarif\\Definition\\PhysicalLocation</title>
<polygon fill="#fefece" stroke="transparent" points="615.5,-433 16.5,-433 16.5,-230 615.5,-230 615.5,-433"/>
<polygon fill="#eeeeee" stroke="transparent" points="17,-410.5 17,-432.5 616,-432.5 616,-410.5 17,-410.5"/>
<polygon fill="none" stroke="black" points="17,-410.5 17,-432.5 616,-432.5 616,-410.5 17,-410.5"/>
<text text-anchor="start" x="278.5" y="-416.1" font-family="Verdana" font-weight="bold" font-size="8.00">PhysicalLocation</text>
<polygon fill="none" stroke="black" points="17,-326.5 17,-410.5 616,-410.5 616,-326.5 17,-326.5"/>
<text text-anchor="start" x="22" y="-399.1" font-family="Verdana" font-size="8.00"># address : mixed</text>
<text text-anchor="start" x="22" y="-386.1" font-family="Verdana" font-size="8.00"># location : ArtifactLocation</text>
<text text-anchor="start" x="22" y="-373.1" font-family="Verdana" font-size="8.00"># artifactLocation : ArtifactLocation</text>
<text text-anchor="start" x="22" y="-360.1" font-family="Verdana" font-size="8.00"># region : Region</text>
<text text-anchor="start" x="22" y="-347.1" font-family="Verdana" font-size="8.00"># contextRegion : Region</text>
<text text-anchor="start" x="22" y="-334.1" font-family="Verdana" font-size="8.00"># properties : PropertyBag</text>
<polygon fill="none" stroke="black" points="17,-229.5 17,-326.5 616,-326.5 616,-229.5 17,-229.5"/>
<text text-anchor="start" x="22" y="-315.1" font-family="Verdana" font-size="8.00">+ __construct(artifactLocation : Bartlett\Sarif\Definition\ArtifactLocation = «unknown», address : Bartlett\Sarif\Definition\Address = «unknown»)</text>
<text text-anchor="start" x="22" y="-302.1" font-family="Verdana" font-size="8.00">+ setAddress(address : Bartlett\Sarif\Definition\Address) : void</text>
<text text-anchor="start" x="22" y="-289.1" font-family="Verdana" font-size="8.00">+ setLocation(location : Bartlett\Sarif\Definition\ArtifactLocation) : void</text>
<text text-anchor="start" x="22" y="-276.1" font-family="Verdana" font-size="8.00">+ setArtifactLocation(artifactLocation : Bartlett\Sarif\Definition\ArtifactLocation) : void</text>
<text text-anchor="start" x="22" y="-263.1" font-family="Verdana" font-size="8.00">+ setRegion(region : Bartlett\Sarif\Definition\Region) : void</text>
<text text-anchor="start" x="22" y="-250.1" font-family="Verdana" font-size="8.00">+ setContextRegion(contextRegion : Bartlett\Sarif\Definition\Region) : void</text>
<text text-anchor="start" x="22" y="-237.1" font-family="Verdana" font-size="8.00">+ setProperties(propertyBag : Bartlett\Sarif\Definition\PropertyBag) : void</text>
</g>
<!-- Bartlett\\Sarif\\Internal\\JsonSerializable -->
<g id="node2" class="node">
<title>Bartlett\\Sarif\\Internal\\JsonSerializable</title>
<polygon fill="#fefece" stroke="transparent" points="369.5,-183 262.5,-183 262.5,-110 369.5,-110 369.5,-183"/>
<polygon fill="#eeeeee" stroke="transparent" points="263,-160.5 263,-182.5 370,-182.5 370,-160.5 263,-160.5"/>
<polygon fill="none" stroke="black" points="263,-160.5 263,-182.5 370,-182.5 370,-160.5 263,-160.5"/>
<text text-anchor="start" x="292.5" y="-174.1" font-family="Verdana" font-weight="bold" font-size="8.00">«abstract»</text>
<text text-anchor="start" x="280" y="-166.1" font-family="Verdana" font-weight="bold" font-size="8.00">JsonSerializable</text>
<polygon fill="none" stroke="black" points="263,-128.5 263,-160.5 370,-160.5 370,-128.5 263,-128.5"/>
<text text-anchor="start" x="268" y="-149.1" font-family="Verdana" font-size="8.00"># required : mixed</text>
<text text-anchor="start" x="268" y="-136.1" font-family="Verdana" font-size="8.00"># optional : mixed</text>
<polygon fill="none" stroke="black" points="263,-109.5 263,-128.5 370,-128.5 370,-109.5 263,-109.5"/>
<text text-anchor="start" x="268" y="-117.1" font-family="Verdana" font-size="8.00">+ jsonSerialize() : array</text>
</g>
<!-- Bartlett\\Sarif\\Definition\\PhysicalLocation&#45;&gt;Bartlett\\Sarif\\Internal\\JsonSerializable -->
<g id="edge2" class="edge">
<title>Bartlett\\Sarif\\Definition\\PhysicalLocation&#45;&gt;Bartlett\\Sarif\\Internal\\JsonSerializable</title>
<path fill="none" stroke="black" d="M316,-229.9C316,-217.05 316,-204.45 316,-193.12"/>
<polygon fill="none" stroke="black" points="319.5,-193.09 316,-183.09 312.5,-193.09 319.5,-193.09"/>
</g>
<!-- JsonSerializable -->
<g id="node3" class="node">
<title>JsonSerializable</title>
<polygon fill="#fefece" stroke="transparent" points="378.5,-63 253.5,-63 253.5,-16 378.5,-16 378.5,-63"/>
<polygon fill="#eeeeee" stroke="transparent" points="254,-40.5 254,-62.5 379,-62.5 379,-40.5 254,-40.5"/>
<polygon fill="none" stroke="black" points="254,-40.5 254,-62.5 379,-62.5 379,-40.5 254,-40.5"/>
<text text-anchor="start" x="290.5" y="-54.1" font-family="Verdana" font-weight="bold" font-size="8.00">«interface»</text>
<text text-anchor="start" x="280" y="-46.1" font-family="Verdana" font-weight="bold" font-size="8.00">JsonSerializable</text>
<polygon fill="none" stroke="black" points="254,-34.5 254,-40.5 379,-40.5 379,-34.5 254,-34.5"/>
<polygon fill="none" stroke="black" points="254,-15.5 254,-34.5 379,-34.5 379,-15.5 254,-15.5"/>
<text text-anchor="start" x="259" y="-23.1" font-family="Verdana" font-size="8.00">+ «abstract» jsonSerialize()</text>
</g>
<!-- Bartlett\\Sarif\\Internal\\JsonSerializable&#45;&gt;JsonSerializable -->
<g id="edge1" class="edge">
<title>Bartlett\\Sarif\\Internal\\JsonSerializable&#45;&gt;JsonSerializable</title>
<path fill="none" stroke="black" stroke-dasharray="5,2" d="M316,-109.95C316,-98.11 316,-84.98 316,-73.35"/>
<polygon fill="none" stroke="black" points="319.5,-73.17 316,-63.17 312.5,-73.17 319.5,-73.17"/>
</g>
</g>
</svg>
