<?xml version="1.0" encoding="UTF-8" standalone="no"?>
<!DOCTYPE svg PUBLIC "-//W3C//DTD SVG 1.1//EN"
 "http://www.w3.org/Graphics/SVG/1.1/DTD/svg11.dtd">
<!-- Generated by graphviz version 2.43.0 (0)
 -->
<!-- Title: %3 Pages: 1 -->
<svg width="348pt" height="480pt"
 viewBox="0.00 0.00 348.00 480.00" xmlns="http://www.w3.org/2000/svg" xmlns:xlink="http://www.w3.org/1999/xlink">
<g id="graph0" class="graph" transform="scale(1 1) rotate(0) translate(4 476)">
<title>%3</title>
<g id="clust1" class="cluster">
<title>cluster_0</title>
<polygon fill="BurlyWood" stroke="black" points="8,-222 8,-464 332,-464 332,-222 8,-222"/>
<text text-anchor="middle" x="170" y="-448.8" font-family="Times,serif" font-size="14.00">Bartlett\Sarif</text>
</g>
<g id="clust2" class="cluster">
<title>cluster_1</title>
<polygon fill="Bisque" stroke="black" points="22,-102 22,-214 195,-214 195,-102 22,-102"/>
<text text-anchor="middle" x="108.5" y="-198.8" font-family="Times,serif" font-size="14.00">Bartlett\Sarif\Internal</text>
</g>
<g id="clust3" class="cluster">
<title>cluster_2</title>
<polygon fill="transparent" stroke="black" points="9,-8 9,-94 312,-94 312,-8 9,-8"/>
<text text-anchor="middle" x="160.5" y="-78.8" font-family="Times,serif" font-size="14.00">0</text>
</g>
<!-- Bartlett\\Sarif\\SarifLog -->
<g id="node1" class="node">
<title>Bartlett\\Sarif\\SarifLog</title>
<polygon fill="#fefece" stroke="transparent" points="324.5,-433 15.5,-433 15.5,-230 324.5,-230 324.5,-433"/>
<polygon fill="#eeeeee" stroke="transparent" points="16,-410.5 16,-432.5 325,-432.5 325,-410.5 16,-410.5"/>
<polygon fill="none" stroke="black" points="16,-410.5 16,-432.5 325,-432.5 325,-410.5 16,-410.5"/>
<text text-anchor="start" x="151" y="-416.1" font-family="Verdana" font-weight="bold" font-size="8.00">SarifLog</text>
<polygon fill="none" stroke="black" points="16,-339.5 16,-410.5 325,-410.5 325,-339.5 16,-339.5"/>
<text text-anchor="start" x="21" y="-399.1" font-family="Verdana" font-size="8.00"># schema</text>
<text text-anchor="start" x="21" y="-386.1" font-family="Verdana" font-size="8.00"># version</text>
<text text-anchor="start" x="21" y="-373.1" font-family="Verdana" font-size="8.00"># runs : mixed</text>
<text text-anchor="start" x="21" y="-360.1" font-family="Verdana" font-size="8.00"># inlineExternalProperties : mixed</text>
<text text-anchor="start" x="21" y="-347.1" font-family="Verdana" font-size="8.00"># properties</text>
<polygon fill="none" stroke="black" points="16,-229.5 16,-339.5 325,-339.5 325,-229.5 16,-229.5"/>
<text text-anchor="start" x="21" y="-328.1" font-family="Verdana" font-size="8.00">+ __construct(runs : array = [], version : string = &#39;2\.1\.0&#39;)</text>
<text text-anchor="start" x="21" y="-315.1" font-family="Verdana" font-size="8.00">+ __toString() : string</text>
<text text-anchor="start" x="21" y="-302.1" font-family="Verdana" font-size="8.00">+ jsonSerialize() : array</text>
<text text-anchor="start" x="21" y="-289.1" font-family="Verdana" font-size="8.00">+ setSchema(schema : string) : void</text>
<text text-anchor="start" x="21" y="-276.1" font-family="Verdana" font-size="8.00">+ setVersion(version : string) : void</text>
<text text-anchor="start" x="21" y="-263.1" font-family="Verdana" font-size="8.00">+ addRun(run : Bartlett\Sarif\Definition\Run) : void</text>
<text text-anchor="start" x="21" y="-250.1" font-family="Verdana" font-size="8.00">+ addInlineExternalProperties(items : array) : void</text>
<text text-anchor="start" x="21" y="-237.1" font-family="Verdana" font-size="8.00">+ setProperties(propertyBag : Bartlett\Sarif\Definition\PropertyBag) : void</text>
</g>
<!-- Bartlett\\Sarif\\Internal\\JsonSerializable -->
<g id="node2" class="node">
<title>Bartlett\\Sarif\\Internal\\JsonSerializable</title>
<polygon fill="#fefece" stroke="transparent" points="141.5,-183 34.5,-183 34.5,-110 141.5,-110 141.5,-183"/>
<polygon fill="#eeeeee" stroke="transparent" points="35,-160.5 35,-182.5 142,-182.5 142,-160.5 35,-160.5"/>
<polygon fill="none" stroke="black" points="35,-160.5 35,-182.5 142,-182.5 142,-160.5 35,-160.5"/>
<text text-anchor="start" x="64.5" y="-174.1" font-family="Verdana" font-weight="bold" font-size="8.00">«abstract»</text>
<text text-anchor="start" x="52" y="-166.1" font-family="Verdana" font-weight="bold" font-size="8.00">JsonSerializable</text>
<polygon fill="none" stroke="black" points="35,-128.5 35,-160.5 142,-160.5 142,-128.5 35,-128.5"/>
<text text-anchor="start" x="40" y="-149.1" font-family="Verdana" font-size="8.00"># required : mixed</text>
<text text-anchor="start" x="40" y="-136.1" font-family="Verdana" font-size="8.00"># optional : mixed</text>
<polygon fill="none" stroke="black" points="35,-109.5 35,-128.5 142,-128.5 142,-109.5 35,-109.5"/>
<text text-anchor="start" x="40" y="-117.1" font-family="Verdana" font-size="8.00">+ jsonSerialize() : array</text>
</g>
<!-- Bartlett\\Sarif\\SarifLog&#45;&gt;Bartlett\\Sarif\\Internal\\JsonSerializable -->
<g id="edge2" class="edge">
<title>Bartlett\\Sarif\\SarifLog&#45;&gt;Bartlett\\Sarif\\Internal\\JsonSerializable</title>
<path fill="none" stroke="black" d="M124.92,-229.9C119.05,-216.79 113.29,-203.94 108.13,-192.42"/>
<polygon fill="none" stroke="black" points="111.23,-190.79 103.95,-183.09 104.84,-193.65 111.23,-190.79"/>
</g>
<!-- Stringable -->
<g id="node4" class="node">
<title>Stringable</title>
<polygon fill="#fefece" stroke="transparent" points="303.5,-63 160.5,-63 160.5,-16 303.5,-16 303.5,-63"/>
<polygon fill="#eeeeee" stroke="transparent" points="161,-40.5 161,-62.5 304,-62.5 304,-40.5 161,-40.5"/>
<polygon fill="none" stroke="black" points="161,-40.5 161,-62.5 304,-62.5 304,-40.5 161,-40.5"/>
<text text-anchor="start" x="206.5" y="-54.1" font-family="Verdana" font-weight="bold" font-size="8.00">«interface»</text>
<text text-anchor="start" x="208" y="-46.1" font-family="Verdana" font-weight="bold" font-size="8.00">Stringable</text>
<polygon fill="none" stroke="black" points="161,-34.5 161,-40.5 304,-40.5 304,-34.5 161,-34.5"/>
<polygon fill="none" stroke="black" points="161,-15.5 161,-34.5 304,-34.5 304,-15.5 161,-15.5"/>
<text text-anchor="start" x="166" y="-23.1" font-family="Verdana" font-size="8.00">+ «abstract» __toString() : string</text>
</g>
<!-- Bartlett\\Sarif\\SarifLog&#45;&gt;Stringable -->
<g id="edge3" class="edge">
<title>Bartlett\\Sarif\\SarifLog&#45;&gt;Stringable</title>
<path fill="none" stroke="black" stroke-dasharray="5,2" d="M195.42,-229.86C196.66,-224.5 197.86,-219.19 199,-214 209.72,-165.15 220.18,-108.1 226.35,-73.15"/>
<polygon fill="none" stroke="black" points="229.85,-73.5 228.13,-63.04 222.95,-72.28 229.85,-73.5"/>
</g>
<!-- JsonSerializable -->
<g id="node3" class="node">
<title>JsonSerializable</title>
<polygon fill="#fefece" stroke="transparent" points="142.5,-63 17.5,-63 17.5,-16 142.5,-16 142.5,-63"/>
<polygon fill="#eeeeee" stroke="transparent" points="18,-40.5 18,-62.5 143,-62.5 143,-40.5 18,-40.5"/>
<polygon fill="none" stroke="black" points="18,-40.5 18,-62.5 143,-62.5 143,-40.5 18,-40.5"/>
<text text-anchor="start" x="54.5" y="-54.1" font-family="Verdana" font-weight="bold" font-size="8.00">«interface»</text>
<text text-anchor="start" x="44" y="-46.1" font-family="Verdana" font-weight="bold" font-size="8.00">JsonSerializable</text>
<polygon fill="none" stroke="black" points="18,-34.5 18,-40.5 143,-40.5 143,-34.5 18,-34.5"/>
<polygon fill="none" stroke="black" points="18,-15.5 18,-34.5 143,-34.5 143,-15.5 18,-15.5"/>
<text text-anchor="start" x="23" y="-23.1" font-family="Verdana" font-size="8.00">+ «abstract» jsonSerialize()</text>
</g>
<!-- Bartlett\\Sarif\\Internal\\JsonSerializable&#45;&gt;JsonSerializable -->
<g id="edge1" class="edge">
<title>Bartlett\\Sarif\\Internal\\JsonSerializable&#45;&gt;JsonSerializable</title>
<path fill="none" stroke="black" stroke-dasharray="5,2" d="M85.29,-109.95C84.39,-98.11 83.39,-84.98 82.5,-73.35"/>
<polygon fill="none" stroke="black" points="85.98,-72.88 81.73,-63.17 79,-73.41 85.98,-72.88"/>
</g>
</g>
</svg>
