<?xml version="1.0" encoding="UTF-8" standalone="no"?>
<!DOCTYPE svg PUBLIC "-//W3C//DTD SVG 1.1//EN"
 "http://www.w3.org/Graphics/SVG/1.1/DTD/svg11.dtd">
<!-- Generated by graphviz version 2.43.0 (0)
 -->
<!-- Title: %3 Pages: 1 -->
<svg width="458pt" height="558pt"
 viewBox="0.00 0.00 458.00 558.00" xmlns="http://www.w3.org/2000/svg" xmlns:xlink="http://www.w3.org/1999/xlink">
<g id="graph0" class="graph" transform="scale(1 1) rotate(0) translate(4 554)">
<title>%3</title>
<g id="clust1" class="cluster">
<title>cluster_0</title>
<polygon fill="BurlyWood" stroke="black" points="8,-222 8,-542 442,-542 442,-222 8,-222"/>
<text text-anchor="middle" x="225" y="-526.8" font-family="Times,serif" font-size="14.00">Bartlett\Sarif\Definition</text>
</g>
<g id="clust2" class="cluster">
<title>cluster_1</title>
<polygon fill="Bisque" stroke="black" points="139,-102 139,-214 312,-214 312,-102 139,-102"/>
<text text-anchor="middle" x="225.5" y="-198.8" font-family="Times,serif" font-size="14.00">Bartlett\Sarif\Internal</text>
</g>
<g id="clust3" class="cluster">
<title>cluster_2</title>
<polygon fill="transparent" stroke="black" points="154,-8 154,-94 296,-94 296,-8 154,-8"/>
<text text-anchor="middle" x="225" y="-78.8" font-family="Times,serif" font-size="14.00">0</text>
</g>
<!-- Bartlett\\Sarif\\Definition\\Notification -->
<g id="node1" class="node">
<title>Bartlett\\Sarif\\Definition\\Notification</title>
<polygon fill="#fefece" stroke="transparent" points="434,-511 16,-511 16,-230 434,-230 434,-511"/>
<polygon fill="#eeeeee" stroke="transparent" points="16,-488.5 16,-510.5 434,-510.5 434,-488.5 16,-488.5"/>
<polygon fill="none" stroke="black" points="16,-488.5 16,-510.5 434,-510.5 434,-488.5 16,-488.5"/>
<text text-anchor="start" x="198.5" y="-494.1" font-family="Verdana" font-weight="bold" font-size="8.00">Notification</text>
<polygon fill="none" stroke="black" points="16,-365.5 16,-488.5 434,-488.5 434,-365.5 16,-365.5"/>
<text text-anchor="start" x="21" y="-477.1" font-family="Verdana" font-size="8.00"># locations : mixed</text>
<text text-anchor="start" x="21" y="-464.1" font-family="Verdana" font-size="8.00"># message : Message</text>
<text text-anchor="start" x="21" y="-451.1" font-family="Verdana" font-size="8.00"># level : string</text>
<text text-anchor="start" x="21" y="-438.1" font-family="Verdana" font-size="8.00"># threadId : int</text>
<text text-anchor="start" x="21" y="-425.1" font-family="Verdana" font-size="8.00"># timeUtc : string</text>
<text text-anchor="start" x="21" y="-412.1" font-family="Verdana" font-size="8.00"># exception : Exception</text>
<text text-anchor="start" x="21" y="-399.1" font-family="Verdana" font-size="8.00"># descriptor : ReportingDescriptorReference</text>
<text text-anchor="start" x="21" y="-386.1" font-family="Verdana" font-size="8.00"># associatedRule : ReportingDescriptorReference</text>
<text text-anchor="start" x="21" y="-373.1" font-family="Verdana" font-size="8.00"># properties : PropertyBag</text>
<polygon fill="none" stroke="black" points="16,-229.5 16,-365.5 434,-365.5 434,-229.5 16,-229.5"/>
<text text-anchor="start" x="21" y="-354.1" font-family="Verdana" font-size="8.00">+ __construct(message : Bartlett\Sarif\Definition\Message)</text>
<text text-anchor="start" x="21" y="-341.1" font-family="Verdana" font-size="8.00">+ addLocations(locations : array) : void</text>
<text text-anchor="start" x="21" y="-328.1" font-family="Verdana" font-size="8.00">+ setMessage(message : Bartlett\Sarif\Definition\Message) : void</text>
<text text-anchor="start" x="21" y="-315.1" font-family="Verdana" font-size="8.00">+ setLevel(level : string = &#39;warning&#39;) : void</text>
<text text-anchor="start" x="21" y="-302.1" font-family="Verdana" font-size="8.00">+ setThreadId(threadId : int) : void</text>
<text text-anchor="start" x="21" y="-289.1" font-family="Verdana" font-size="8.00">+ setTimeUtc(timeUtc : string) : void</text>
<text text-anchor="start" x="21" y="-276.1" font-family="Verdana" font-size="8.00">+ setRuntimeException(exception : Bartlett\Sarif\Definition\Exception) : void</text>
<text text-anchor="start" x="21" y="-263.1" font-family="Verdana" font-size="8.00">+ setDescriptor(descriptor : Bartlett\Sarif\Definition\ReportingDescriptorReference) : void</text>
<text text-anchor="start" x="21" y="-250.1" font-family="Verdana" font-size="8.00">+ setAssociatedRule(associatedRule : Bartlett\Sarif\Definition\ReportingDescriptorReference) : void</text>
<text text-anchor="start" x="21" y="-237.1" font-family="Verdana" font-size="8.00">+ setProperties(propertyBag : Bartlett\Sarif\Definition\PropertyBag) : void</text>
</g>
<!-- Bartlett\\Sarif\\Internal\\JsonSerializable -->
<g id="node2" class="node">
<title>Bartlett\\Sarif\\Internal\\JsonSerializable</title>
<polygon fill="#fefece" stroke="transparent" points="278.5,-183 171.5,-183 171.5,-110 278.5,-110 278.5,-183"/>
<polygon fill="#eeeeee" stroke="transparent" points="172,-160.5 172,-182.5 279,-182.5 279,-160.5 172,-160.5"/>
<polygon fill="none" stroke="black" points="172,-160.5 172,-182.5 279,-182.5 279,-160.5 172,-160.5"/>
<text text-anchor="start" x="201.5" y="-174.1" font-family="Verdana" font-weight="bold" font-size="8.00">«abstract»</text>
<text text-anchor="start" x="189" y="-166.1" font-family="Verdana" font-weight="bold" font-size="8.00">JsonSerializable</text>
<polygon fill="none" stroke="black" points="172,-128.5 172,-160.5 279,-160.5 279,-128.5 172,-128.5"/>
<text text-anchor="start" x="177" y="-149.1" font-family="Verdana" font-size="8.00"># required : mixed</text>
<text text-anchor="start" x="177" y="-136.1" font-family="Verdana" font-size="8.00"># optional : mixed</text>
<polygon fill="none" stroke="black" points="172,-109.5 172,-128.5 279,-128.5 279,-109.5 172,-109.5"/>
<text text-anchor="start" x="177" y="-117.1" font-family="Verdana" font-size="8.00">+ jsonSerialize() : array</text>
</g>
<!-- Bartlett\\Sarif\\Definition\\Notification&#45;&gt;Bartlett\\Sarif\\Internal\\JsonSerializable -->
<g id="edge2" class="edge">
<title>Bartlett\\Sarif\\Definition\\Notification&#45;&gt;Bartlett\\Sarif\\Internal\\JsonSerializable</title>
<path fill="none" stroke="black" d="M225,-229.85C225,-216.82 225,-204.35 225,-193.24"/>
<polygon fill="none" stroke="black" points="228.5,-193.02 225,-183.02 221.5,-193.02 228.5,-193.02"/>
</g>
<!-- JsonSerializable -->
<g id="node3" class="node">
<title>JsonSerializable</title>
<polygon fill="#fefece" stroke="transparent" points="287.5,-63 162.5,-63 162.5,-16 287.5,-16 287.5,-63"/>
<polygon fill="#eeeeee" stroke="transparent" points="163,-40.5 163,-62.5 288,-62.5 288,-40.5 163,-40.5"/>
<polygon fill="none" stroke="black" points="163,-40.5 163,-62.5 288,-62.5 288,-40.5 163,-40.5"/>
<text text-anchor="start" x="199.5" y="-54.1" font-family="Verdana" font-weight="bold" font-size="8.00">«interface»</text>
<text text-anchor="start" x="189" y="-46.1" font-family="Verdana" font-weight="bold" font-size="8.00">JsonSerializable</text>
<polygon fill="none" stroke="black" points="163,-34.5 163,-40.5 288,-40.5 288,-34.5 163,-34.5"/>
<polygon fill="none" stroke="black" points="163,-15.5 163,-34.5 288,-34.5 288,-15.5 163,-15.5"/>
<text text-anchor="start" x="168" y="-23.1" font-family="Verdana" font-size="8.00">+ «abstract» jsonSerialize()</text>
</g>
<!-- Bartlett\\Sarif\\Internal\\JsonSerializable&#45;&gt;JsonSerializable -->
<g id="edge1" class="edge">
<title>Bartlett\\Sarif\\Internal\\JsonSerializable&#45;&gt;JsonSerializable</title>
<path fill="none" stroke="black" stroke-dasharray="5,2" d="M225,-109.95C225,-98.11 225,-84.98 225,-73.35"/>
<polygon fill="none" stroke="black" points="228.5,-73.17 225,-63.17 221.5,-73.17 228.5,-73.17"/>
</g>
</g>
</svg>
