<?xml version="1.0" encoding="UTF-8" standalone="no"?>
<!DOCTYPE svg PUBLIC "-//W3C//DTD SVG 1.1//EN"
 "http://www.w3.org/Graphics/SVG/1.1/DTD/svg11.dtd">
<!-- Generated by graphviz version 2.43.0 (0)
 -->
<!-- Title: %3 Pages: 1 -->
<svg width="442pt" height="454pt"
 viewBox="0.00 0.00 442.00 454.00" xmlns="http://www.w3.org/2000/svg" xmlns:xlink="http://www.w3.org/1999/xlink">
<g id="graph0" class="graph" transform="scale(1 1) rotate(0) translate(4 450)">
<title>%3</title>
<g id="clust1" class="cluster">
<title>cluster_0</title>
<polygon fill="BurlyWood" stroke="black" points="8,-222 8,-438 426,-438 426,-222 8,-222"/>
<text text-anchor="middle" x="217" y="-422.8" font-family="Times,serif" font-size="14.00">Bartlett\Sarif\Definition</text>
</g>
<g id="clust2" class="cluster">
<title>cluster_1</title>
<polygon fill="Bisque" stroke="black" points="131,-102 131,-214 304,-214 304,-102 131,-102"/>
<text text-anchor="middle" x="217.5" y="-198.8" font-family="Times,serif" font-size="14.00">Bartlett\Sarif\Internal</text>
</g>
<g id="clust3" class="cluster">
<title>cluster_2</title>
<polygon fill="transparent" stroke="black" points="146,-8 146,-94 288,-94 288,-8 146,-8"/>
<text text-anchor="middle" x="217" y="-78.8" font-family="Times,serif" font-size="14.00">0</text>
</g>
<!-- Bartlett\\Sarif\\Definition\\ExternalPropertyFileReference -->
<g id="node1" class="node">
<title>Bartlett\\Sarif\\Definition\\ExternalPropertyFileReference</title>
<polygon fill="#fefece" stroke="transparent" points="418,-407 16,-407 16,-230 418,-230 418,-407"/>
<polygon fill="#eeeeee" stroke="transparent" points="16,-384.5 16,-406.5 418,-406.5 418,-384.5 16,-384.5"/>
<polygon fill="none" stroke="black" points="16,-384.5 16,-406.5 418,-406.5 418,-384.5 16,-384.5"/>
<text text-anchor="start" x="147.5" y="-390.1" font-family="Verdana" font-weight="bold" font-size="8.00">ExternalPropertyFileReference</text>
<polygon fill="none" stroke="black" points="16,-313.5 16,-384.5 418,-384.5 418,-313.5 16,-313.5"/>
<text text-anchor="start" x="21" y="-373.1" font-family="Verdana" font-size="8.00"># location : ArtifactLocation</text>
<text text-anchor="start" x="21" y="-360.1" font-family="Verdana" font-size="8.00"># artifactLocation : ArtifactLocation</text>
<text text-anchor="start" x="21" y="-347.1" font-family="Verdana" font-size="8.00"># guid : string</text>
<text text-anchor="start" x="21" y="-334.1" font-family="Verdana" font-size="8.00"># itemCount : int</text>
<text text-anchor="start" x="21" y="-321.1" font-family="Verdana" font-size="8.00"># properties : PropertyBag</text>
<polygon fill="none" stroke="black" points="16,-229.5 16,-313.5 418,-313.5 418,-229.5 16,-229.5"/>
<text text-anchor="start" x="21" y="-302.1" font-family="Verdana" font-size="8.00">+ __construct(location : Bartlett\Sarif\Definition\ArtifactLocation = «unknown», guid : string = &#39;&#39;)</text>
<text text-anchor="start" x="21" y="-289.1" font-family="Verdana" font-size="8.00">+ setLocation(location : Bartlett\Sarif\Definition\ArtifactLocation) : void</text>
<text text-anchor="start" x="21" y="-276.1" font-family="Verdana" font-size="8.00">+ setArtifactLocation(artifactLocation : Bartlett\Sarif\Definition\ArtifactLocation) : void</text>
<text text-anchor="start" x="21" y="-263.1" font-family="Verdana" font-size="8.00">+ setGuid(guid : string) : void</text>
<text text-anchor="start" x="21" y="-250.1" font-family="Verdana" font-size="8.00">+ setItemCount(itemCount : int = &#45;1) : void</text>
<text text-anchor="start" x="21" y="-237.1" font-family="Verdana" font-size="8.00">+ setProperties(propertyBag : Bartlett\Sarif\Definition\PropertyBag) : void</text>
</g>
<!-- Bartlett\\Sarif\\Internal\\JsonSerializable -->
<g id="node2" class="node">
<title>Bartlett\\Sarif\\Internal\\JsonSerializable</title>
<polygon fill="#fefece" stroke="transparent" points="270.5,-183 163.5,-183 163.5,-110 270.5,-110 270.5,-183"/>
<polygon fill="#eeeeee" stroke="transparent" points="164,-160.5 164,-182.5 271,-182.5 271,-160.5 164,-160.5"/>
<polygon fill="none" stroke="black" points="164,-160.5 164,-182.5 271,-182.5 271,-160.5 164,-160.5"/>
<text text-anchor="start" x="193.5" y="-174.1" font-family="Verdana" font-weight="bold" font-size="8.00">«abstract»</text>
<text text-anchor="start" x="181" y="-166.1" font-family="Verdana" font-weight="bold" font-size="8.00">JsonSerializable</text>
<polygon fill="none" stroke="black" points="164,-128.5 164,-160.5 271,-160.5 271,-128.5 164,-128.5"/>
<text text-anchor="start" x="169" y="-149.1" font-family="Verdana" font-size="8.00"># required : mixed</text>
<text text-anchor="start" x="169" y="-136.1" font-family="Verdana" font-size="8.00"># optional : mixed</text>
<polygon fill="none" stroke="black" points="164,-109.5 164,-128.5 271,-128.5 271,-109.5 164,-109.5"/>
<text text-anchor="start" x="169" y="-117.1" font-family="Verdana" font-size="8.00">+ jsonSerialize() : array</text>
</g>
<!-- Bartlett\\Sarif\\Definition\\ExternalPropertyFileReference&#45;&gt;Bartlett\\Sarif\\Internal\\JsonSerializable -->
<g id="edge2" class="edge">
<title>Bartlett\\Sarif\\Definition\\ExternalPropertyFileReference&#45;&gt;Bartlett\\Sarif\\Internal\\JsonSerializable</title>
<path fill="none" stroke="black" d="M217,-229.51C217,-217.11 217,-204.79 217,-193.62"/>
<polygon fill="none" stroke="black" points="220.5,-193.29 217,-183.29 213.5,-193.29 220.5,-193.29"/>
</g>
<!-- JsonSerializable -->
<g id="node3" class="node">
<title>JsonSerializable</title>
<polygon fill="#fefece" stroke="transparent" points="279.5,-63 154.5,-63 154.5,-16 279.5,-16 279.5,-63"/>
<polygon fill="#eeeeee" stroke="transparent" points="155,-40.5 155,-62.5 280,-62.5 280,-40.5 155,-40.5"/>
<polygon fill="none" stroke="black" points="155,-40.5 155,-62.5 280,-62.5 280,-40.5 155,-40.5"/>
<text text-anchor="start" x="191.5" y="-54.1" font-family="Verdana" font-weight="bold" font-size="8.00">«interface»</text>
<text text-anchor="start" x="181" y="-46.1" font-family="Verdana" font-weight="bold" font-size="8.00">JsonSerializable</text>
<polygon fill="none" stroke="black" points="155,-34.5 155,-40.5 280,-40.5 280,-34.5 155,-34.5"/>
<polygon fill="none" stroke="black" points="155,-15.5 155,-34.5 280,-34.5 280,-15.5 155,-15.5"/>
<text text-anchor="start" x="160" y="-23.1" font-family="Verdana" font-size="8.00">+ «abstract» jsonSerialize()</text>
</g>
<!-- Bartlett\\Sarif\\Internal\\JsonSerializable&#45;&gt;JsonSerializable -->
<g id="edge1" class="edge">
<title>Bartlett\\Sarif\\Internal\\JsonSerializable&#45;&gt;JsonSerializable</title>
<path fill="none" stroke="black" stroke-dasharray="5,2" d="M217,-109.95C217,-98.11 217,-84.98 217,-73.35"/>
<polygon fill="none" stroke="black" points="220.5,-73.17 217,-63.17 213.5,-73.17 220.5,-73.17"/>
</g>
</g>
</svg>
