<?xml version="1.0" encoding="UTF-8" standalone="no"?>
<!DOCTYPE svg PUBLIC "-//W3C//DTD SVG 1.1//EN"
 "http://www.w3.org/Graphics/SVG/1.1/DTD/svg11.dtd">
<!-- Generated by graphviz version 2.43.0 (0)
 -->
<!-- Title: %3 Pages: 1 -->
<svg width="590pt" height="1065pt"
 viewBox="0.00 0.00 590.00 1065.00" xmlns="http://www.w3.org/2000/svg" xmlns:xlink="http://www.w3.org/1999/xlink">
<g id="graph0" class="graph" transform="scale(1 1) rotate(0) translate(4 1061)">
<title>%3</title>
<g id="clust1" class="cluster">
<title>cluster_0</title>
<polygon fill="BurlyWood" stroke="black" points="8,-222 8,-1049 574,-1049 574,-222 8,-222"/>
<text text-anchor="middle" x="291" y="-1033.8" font-family="Times,serif" font-size="14.00">Bartlett\Sarif\Definition</text>
</g>
<g id="clust2" class="cluster">
<title>cluster_1</title>
<polygon fill="Bisque" stroke="black" points="205,-102 205,-214 378,-214 378,-102 205,-102"/>
<text text-anchor="middle" x="291.5" y="-198.8" font-family="Times,serif" font-size="14.00">Bartlett\Sarif\Internal</text>
</g>
<g id="clust3" class="cluster">
<title>cluster_2</title>
<polygon fill="transparent" stroke="black" points="220,-8 220,-94 362,-94 362,-8 220,-8"/>
<text text-anchor="middle" x="291" y="-78.8" font-family="Times,serif" font-size="14.00">0</text>
</g>
<!-- Bartlett\\Sarif\\Definition\\Run -->
<g id="node1" class="node">
<title>Bartlett\\Sarif\\Definition\\Run</title>
<polygon fill="#fefece" stroke="transparent" points="566,-1018 16,-1018 16,-230 566,-230 566,-1018"/>
<polygon fill="#eeeeee" stroke="transparent" points="16,-996 16,-1018 566,-1018 566,-996 16,-996"/>
<polygon fill="none" stroke="black" points="16,-996 16,-1018 566,-1018 566,-996 16,-996"/>
<text text-anchor="start" x="281.5" y="-1001.6" font-family="Verdana" font-weight="bold" font-size="8.00">Run</text>
<polygon fill="none" stroke="black" points="16,-626 16,-996 566,-996 566,-626 16,-626"/>
<text text-anchor="start" x="21" y="-984.6" font-family="Verdana" font-size="8.00"># tool : Tool</text>
<text text-anchor="start" x="21" y="-971.6" font-family="Verdana" font-size="8.00"># invocations : mixed</text>
<text text-anchor="start" x="21" y="-958.6" font-family="Verdana" font-size="8.00"># conversion : Conversion</text>
<text text-anchor="start" x="21" y="-945.6" font-family="Verdana" font-size="8.00"># language : string</text>
<text text-anchor="start" x="21" y="-932.6" font-family="Verdana" font-size="8.00"># versionControlProvenance : mixed</text>
<text text-anchor="start" x="21" y="-919.6" font-family="Verdana" font-size="8.00"># originalUriBaseIds : mixed</text>
<text text-anchor="start" x="21" y="-906.6" font-family="Verdana" font-size="8.00"># artifacts : mixed</text>
<text text-anchor="start" x="21" y="-893.6" font-family="Verdana" font-size="8.00"># logicalLocations : mixed</text>
<text text-anchor="start" x="21" y="-880.6" font-family="Verdana" font-size="8.00"># graphs : mixed</text>
<text text-anchor="start" x="21" y="-867.6" font-family="Verdana" font-size="8.00"># results : mixed</text>
<text text-anchor="start" x="21" y="-854.6" font-family="Verdana" font-size="8.00"># automationDetails : RunAutomationDetails</text>
<text text-anchor="start" x="21" y="-841.6" font-family="Verdana" font-size="8.00"># runAggregates : RunAutomationDetails</text>
<text text-anchor="start" x="21" y="-828.6" font-family="Verdana" font-size="8.00"># baselineGuid : string</text>
<text text-anchor="start" x="21" y="-815.6" font-family="Verdana" font-size="8.00"># redactionTokens : mixed</text>
<text text-anchor="start" x="21" y="-802.6" font-family="Verdana" font-size="8.00"># defaultEncoding : string</text>
<text text-anchor="start" x="21" y="-789.6" font-family="Verdana" font-size="8.00"># defaultSourceLanguage : string</text>
<text text-anchor="start" x="21" y="-776.6" font-family="Verdana" font-size="8.00"># newlineSequences : mixed</text>
<text text-anchor="start" x="21" y="-763.6" font-family="Verdana" font-size="8.00"># columnKind : string</text>
<text text-anchor="start" x="21" y="-750.6" font-family="Verdana" font-size="8.00"># externalPropertyFileReferences : ExternalPropertyFileReferences</text>
<text text-anchor="start" x="21" y="-737.6" font-family="Verdana" font-size="8.00"># locations : mixed</text>
<text text-anchor="start" x="21" y="-724.6" font-family="Verdana" font-size="8.00"># taxonomies : mixed</text>
<text text-anchor="start" x="21" y="-711.6" font-family="Verdana" font-size="8.00"># addresses : mixed</text>
<text text-anchor="start" x="21" y="-698.6" font-family="Verdana" font-size="8.00"># translations : mixed</text>
<text text-anchor="start" x="21" y="-685.6" font-family="Verdana" font-size="8.00"># policies : mixed</text>
<text text-anchor="start" x="21" y="-672.6" font-family="Verdana" font-size="8.00"># webRequests : mixed</text>
<text text-anchor="start" x="21" y="-659.6" font-family="Verdana" font-size="8.00"># webResponses : mixed</text>
<text text-anchor="start" x="21" y="-646.6" font-family="Verdana" font-size="8.00"># specialLocations : SpecialLocations</text>
<text text-anchor="start" x="21" y="-633.6" font-family="Verdana" font-size="8.00"># properties : PropertyBag</text>
<polygon fill="none" stroke="black" points="16,-230 16,-626 566,-626 566,-230 16,-230"/>
<text text-anchor="start" x="21" y="-614.6" font-family="Verdana" font-size="8.00">+ __construct(tool : Bartlett\Sarif\Definition\Tool)</text>
<text text-anchor="start" x="21" y="-601.6" font-family="Verdana" font-size="8.00">+ jsonSerialize() : array</text>
<text text-anchor="start" x="21" y="-588.6" font-family="Verdana" font-size="8.00">+ setTool(tool : Bartlett\Sarif\Definition\Tool) : void</text>
<text text-anchor="start" x="21" y="-575.6" font-family="Verdana" font-size="8.00">+ addInvocations(invocations : array) : void</text>
<text text-anchor="start" x="21" y="-562.6" font-family="Verdana" font-size="8.00">+ setConversion(conversion : Bartlett\Sarif\Definition\Conversion) : void</text>
<text text-anchor="start" x="21" y="-549.6" font-family="Verdana" font-size="8.00">+ setLanguage(language : string) : void</text>
<text text-anchor="start" x="21" y="-536.6" font-family="Verdana" font-size="8.00">+ addVersionControlDetails(versionControlDetails : array) : void</text>
<text text-anchor="start" x="21" y="-523.6" font-family="Verdana" font-size="8.00">+ addAdditionalProperties(additionalProperties : array) : void</text>
<text text-anchor="start" x="21" y="-510.6" font-family="Verdana" font-size="8.00">+ addArtifacts(artifacts : array) : void</text>
<text text-anchor="start" x="21" y="-497.6" font-family="Verdana" font-size="8.00">+ addLogicalLocations(logicalLocations : array) : void</text>
<text text-anchor="start" x="21" y="-484.6" font-family="Verdana" font-size="8.00">+ addGraphs(graphs : array) : void</text>
<text text-anchor="start" x="21" y="-471.6" font-family="Verdana" font-size="8.00">+ addResults(results : array) : void</text>
<text text-anchor="start" x="21" y="-458.6" font-family="Verdana" font-size="8.00">+ setAutomationDetails(automationDetails : Bartlett\Sarif\Definition\RunAutomationDetails) : void</text>
<text text-anchor="start" x="21" y="-445.6" font-family="Verdana" font-size="8.00">+ setRunAggregates(runAggregates : Bartlett\Sarif\Definition\RunAutomationDetails) : void</text>
<text text-anchor="start" x="21" y="-432.6" font-family="Verdana" font-size="8.00">+ setBaselineGuid(baselineGuid : string) : void</text>
<text text-anchor="start" x="21" y="-419.6" font-family="Verdana" font-size="8.00">+ addRedactionTokens(redactionTokens : array) : void</text>
<text text-anchor="start" x="21" y="-406.6" font-family="Verdana" font-size="8.00">+ setDefaultEncoding(defaultEncoding : string) : void</text>
<text text-anchor="start" x="21" y="-393.6" font-family="Verdana" font-size="8.00">+ setDefaultSourceLanguage(defaultSourceLanguage : string) : void</text>
<text text-anchor="start" x="21" y="-380.6" font-family="Verdana" font-size="8.00">+ addNewlineSequences(newlineSequences : array = […]) : void</text>
<text text-anchor="start" x="21" y="-367.6" font-family="Verdana" font-size="8.00">+ setColumnKind(columnKind : string) : void</text>
<text text-anchor="start" x="21" y="-354.6" font-family="Verdana" font-size="8.00">+ setExternalPropertyFileReferences(externalPropertyFileReferences : Bartlett\Sarif\Definition\ExternalPropertyFileReferences) : void</text>
<text text-anchor="start" x="21" y="-341.6" font-family="Verdana" font-size="8.00">+ addLocations(locations : array) : void</text>
<text text-anchor="start" x="21" y="-328.6" font-family="Verdana" font-size="8.00">+ addTaxonomies(taxonomies : array) : void</text>
<text text-anchor="start" x="21" y="-315.6" font-family="Verdana" font-size="8.00">+ addAddresses(addresses : array) : void</text>
<text text-anchor="start" x="21" y="-302.6" font-family="Verdana" font-size="8.00">+ addTranslations(translations : array) : void</text>
<text text-anchor="start" x="21" y="-289.6" font-family="Verdana" font-size="8.00">+ setPolicies(policies : array) : void</text>
<text text-anchor="start" x="21" y="-276.6" font-family="Verdana" font-size="8.00">+ addWebRequests(webRequests : array) : void</text>
<text text-anchor="start" x="21" y="-263.6" font-family="Verdana" font-size="8.00">+ addWebResponses(webResponses : array) : void</text>
<text text-anchor="start" x="21" y="-250.6" font-family="Verdana" font-size="8.00">+ setSpecialLocations(specialLocations : Bartlett\Sarif\Definition\SpecialLocations) : void</text>
<text text-anchor="start" x="21" y="-237.6" font-family="Verdana" font-size="8.00">+ setProperties(propertyBag : Bartlett\Sarif\Definition\PropertyBag) : void</text>
</g>
<!-- Bartlett\\Sarif\\Internal\\JsonSerializable -->
<g id="node2" class="node">
<title>Bartlett\\Sarif\\Internal\\JsonSerializable</title>
<polygon fill="#fefece" stroke="transparent" points="344.5,-183 237.5,-183 237.5,-110 344.5,-110 344.5,-183"/>
<polygon fill="#eeeeee" stroke="transparent" points="238,-160.5 238,-182.5 345,-182.5 345,-160.5 238,-160.5"/>
<polygon fill="none" stroke="black" points="238,-160.5 238,-182.5 345,-182.5 345,-160.5 238,-160.5"/>
<text text-anchor="start" x="267.5" y="-174.1" font-family="Verdana" font-weight="bold" font-size="8.00">«abstract»</text>
<text text-anchor="start" x="255" y="-166.1" font-family="Verdana" font-weight="bold" font-size="8.00">JsonSerializable</text>
<polygon fill="none" stroke="black" points="238,-128.5 238,-160.5 345,-160.5 345,-128.5 238,-128.5"/>
<text text-anchor="start" x="243" y="-149.1" font-family="Verdana" font-size="8.00"># required : mixed</text>
<text text-anchor="start" x="243" y="-136.1" font-family="Verdana" font-size="8.00"># optional : mixed</text>
<polygon fill="none" stroke="black" points="238,-109.5 238,-128.5 345,-128.5 345,-109.5 238,-109.5"/>
<text text-anchor="start" x="243" y="-117.1" font-family="Verdana" font-size="8.00">+ jsonSerialize() : array</text>
</g>
<!-- Bartlett\\Sarif\\Definition\\Run&#45;&gt;Bartlett\\Sarif\\Internal\\JsonSerializable -->
<g id="edge2" class="edge">
<title>Bartlett\\Sarif\\Definition\\Run&#45;&gt;Bartlett\\Sarif\\Internal\\JsonSerializable</title>
<path fill="none" stroke="black" d="M291,-229.78C291,-216.29 291,-203.99 291,-193.25"/>
<polygon fill="none" stroke="black" points="294.5,-193.04 291,-183.04 287.5,-193.04 294.5,-193.04"/>
</g>
<!-- JsonSerializable -->
<g id="node3" class="node">
<title>JsonSerializable</title>
<polygon fill="#fefece" stroke="transparent" points="353.5,-63 228.5,-63 228.5,-16 353.5,-16 353.5,-63"/>
<polygon fill="#eeeeee" stroke="transparent" points="229,-40.5 229,-62.5 354,-62.5 354,-40.5 229,-40.5"/>
<polygon fill="none" stroke="black" points="229,-40.5 229,-62.5 354,-62.5 354,-40.5 229,-40.5"/>
<text text-anchor="start" x="265.5" y="-54.1" font-family="Verdana" font-weight="bold" font-size="8.00">«interface»</text>
<text text-anchor="start" x="255" y="-46.1" font-family="Verdana" font-weight="bold" font-size="8.00">JsonSerializable</text>
<polygon fill="none" stroke="black" points="229,-34.5 229,-40.5 354,-40.5 354,-34.5 229,-34.5"/>
<polygon fill="none" stroke="black" points="229,-15.5 229,-34.5 354,-34.5 354,-15.5 229,-15.5"/>
<text text-anchor="start" x="234" y="-23.1" font-family="Verdana" font-size="8.00">+ «abstract» jsonSerialize()</text>
</g>
<!-- Bartlett\\Sarif\\Internal\\JsonSerializable&#45;&gt;JsonSerializable -->
<g id="edge1" class="edge">
<title>Bartlett\\Sarif\\Internal\\JsonSerializable&#45;&gt;JsonSerializable</title>
<path fill="none" stroke="black" stroke-dasharray="5,2" d="M291,-109.95C291,-98.11 291,-84.98 291,-73.35"/>
<polygon fill="none" stroke="black" points="294.5,-73.17 291,-63.17 287.5,-73.17 294.5,-73.17"/>
</g>
</g>
</svg>
