<?xml version="1.0" encoding="UTF-8" standalone="no"?>
<!DOCTYPE svg PUBLIC "-//W3C//DTD SVG 1.1//EN"
 "http://www.w3.org/Graphics/SVG/1.1/DTD/svg11.dtd">
<!-- Generated by graphviz version 2.43.0 (0)
 -->
<!-- Title: %3 Pages: 1 -->
<svg width="394pt" height="428pt"
 viewBox="0.00 0.00 394.00 428.00" xmlns="http://www.w3.org/2000/svg" xmlns:xlink="http://www.w3.org/1999/xlink">
<g id="graph0" class="graph" transform="scale(1 1) rotate(0) translate(4 424)">
<title>%3</title>
<g id="clust1" class="cluster">
<title>cluster_0</title>
<polygon fill="BurlyWood" stroke="black" points="8,-222 8,-412 378,-412 378,-222 8,-222"/>
<text text-anchor="middle" x="193" y="-396.8" font-family="Times,serif" font-size="14.00">Bartlett\Sarif\Definition</text>
</g>
<g id="clust2" class="cluster">
<title>cluster_1</title>
<polygon fill="Bisque" stroke="black" points="107,-102 107,-214 280,-214 280,-102 107,-102"/>
<text text-anchor="middle" x="193.5" y="-198.8" font-family="Times,serif" font-size="14.00">Bartlett\Sarif\Internal</text>
</g>
<g id="clust3" class="cluster">
<title>cluster_2</title>
<polygon fill="transparent" stroke="black" points="122,-8 122,-94 264,-94 264,-8 122,-8"/>
<text text-anchor="middle" x="193" y="-78.8" font-family="Times,serif" font-size="14.00">0</text>
</g>
<!-- Bartlett\\Sarif\\Definition\\ArtifactContent -->
<g id="node1" class="node">
<title>Bartlett\\Sarif\\Definition\\ArtifactContent</title>
<polygon fill="#fefece" stroke="transparent" points="369.5,-381 16.5,-381 16.5,-230 369.5,-230 369.5,-381"/>
<polygon fill="#eeeeee" stroke="transparent" points="17,-358.5 17,-380.5 370,-380.5 370,-358.5 17,-358.5"/>
<polygon fill="none" stroke="black" points="17,-358.5 17,-380.5 370,-380.5 370,-358.5 17,-358.5"/>
<text text-anchor="start" x="158.5" y="-364.1" font-family="Verdana" font-weight="bold" font-size="8.00">ArtifactContent</text>
<polygon fill="none" stroke="black" points="17,-300.5 17,-358.5 370,-358.5 370,-300.5 17,-300.5"/>
<text text-anchor="start" x="22" y="-347.1" font-family="Verdana" font-size="8.00"># text</text>
<text text-anchor="start" x="22" y="-334.1" font-family="Verdana" font-size="8.00"># binary</text>
<text text-anchor="start" x="22" y="-321.1" font-family="Verdana" font-size="8.00"># rendered</text>
<text text-anchor="start" x="22" y="-308.1" font-family="Verdana" font-size="8.00"># properties</text>
<polygon fill="none" stroke="black" points="17,-229.5 17,-300.5 370,-300.5 370,-229.5 17,-229.5"/>
<text text-anchor="start" x="22" y="-289.1" font-family="Verdana" font-size="8.00">+ __construct()</text>
<text text-anchor="start" x="22" y="-276.1" font-family="Verdana" font-size="8.00">+ setText(text : string) : void</text>
<text text-anchor="start" x="22" y="-263.1" font-family="Verdana" font-size="8.00">+ setBinary(binary : string) : void</text>
<text text-anchor="start" x="22" y="-250.1" font-family="Verdana" font-size="8.00">+ setRendered(rendered : Bartlett\Sarif\Definition\MultiformatMessageString) : void</text>
<text text-anchor="start" x="22" y="-237.1" font-family="Verdana" font-size="8.00">+ setProperties(propertyBag : Bartlett\Sarif\Definition\PropertyBag) : void</text>
</g>
<!-- Bartlett\\Sarif\\Internal\\JsonSerializable -->
<g id="node2" class="node">
<title>Bartlett\\Sarif\\Internal\\JsonSerializable</title>
<polygon fill="#fefece" stroke="transparent" points="246.5,-183 139.5,-183 139.5,-110 246.5,-110 246.5,-183"/>
<polygon fill="#eeeeee" stroke="transparent" points="140,-160.5 140,-182.5 247,-182.5 247,-160.5 140,-160.5"/>
<polygon fill="none" stroke="black" points="140,-160.5 140,-182.5 247,-182.5 247,-160.5 140,-160.5"/>
<text text-anchor="start" x="169.5" y="-174.1" font-family="Verdana" font-weight="bold" font-size="8.00">«abstract»</text>
<text text-anchor="start" x="157" y="-166.1" font-family="Verdana" font-weight="bold" font-size="8.00">JsonSerializable</text>
<polygon fill="none" stroke="black" points="140,-128.5 140,-160.5 247,-160.5 247,-128.5 140,-128.5"/>
<text text-anchor="start" x="145" y="-149.1" font-family="Verdana" font-size="8.00"># required : mixed</text>
<text text-anchor="start" x="145" y="-136.1" font-family="Verdana" font-size="8.00"># optional : mixed</text>
<polygon fill="none" stroke="black" points="140,-109.5 140,-128.5 247,-128.5 247,-109.5 140,-109.5"/>
<text text-anchor="start" x="145" y="-117.1" font-family="Verdana" font-size="8.00">+ jsonSerialize() : array</text>
</g>
<!-- Bartlett\\Sarif\\Definition\\ArtifactContent&#45;&gt;Bartlett\\Sarif\\Internal\\JsonSerializable -->
<g id="edge2" class="edge">
<title>Bartlett\\Sarif\\Definition\\ArtifactContent&#45;&gt;Bartlett\\Sarif\\Internal\\JsonSerializable</title>
<path fill="none" stroke="black" d="M193,-229.68C193,-217.22 193,-204.64 193,-193.2"/>
<polygon fill="none" stroke="black" points="196.5,-193.04 193,-183.04 189.5,-193.04 196.5,-193.04"/>
</g>
<!-- JsonSerializable -->
<g id="node3" class="node">
<title>JsonSerializable</title>
<polygon fill="#fefece" stroke="transparent" points="255.5,-63 130.5,-63 130.5,-16 255.5,-16 255.5,-63"/>
<polygon fill="#eeeeee" stroke="transparent" points="131,-40.5 131,-62.5 256,-62.5 256,-40.5 131,-40.5"/>
<polygon fill="none" stroke="black" points="131,-40.5 131,-62.5 256,-62.5 256,-40.5 131,-40.5"/>
<text text-anchor="start" x="167.5" y="-54.1" font-family="Verdana" font-weight="bold" font-size="8.00">«interface»</text>
<text text-anchor="start" x="157" y="-46.1" font-family="Verdana" font-weight="bold" font-size="8.00">JsonSerializable</text>
<polygon fill="none" stroke="black" points="131,-34.5 131,-40.5 256,-40.5 256,-34.5 131,-34.5"/>
<polygon fill="none" stroke="black" points="131,-15.5 131,-34.5 256,-34.5 256,-15.5 131,-15.5"/>
<text text-anchor="start" x="136" y="-23.1" font-family="Verdana" font-size="8.00">+ «abstract» jsonSerialize()</text>
</g>
<!-- Bartlett\\Sarif\\Internal\\JsonSerializable&#45;&gt;JsonSerializable -->
<g id="edge1" class="edge">
<title>Bartlett\\Sarif\\Internal\\JsonSerializable&#45;&gt;JsonSerializable</title>
<path fill="none" stroke="black" stroke-dasharray="5,2" d="M193,-109.95C193,-98.11 193,-84.98 193,-73.35"/>
<polygon fill="none" stroke="black" points="196.5,-73.17 193,-63.17 189.5,-73.17 196.5,-73.17"/>
</g>
</g>
</svg>
