<?xml version="1.0" encoding="UTF-8" standalone="no"?>
<!DOCTYPE svg PUBLIC "-//W3C//DTD SVG 1.1//EN"
 "http://www.w3.org/Graphics/SVG/1.1/DTD/svg11.dtd">
<!-- Generated by graphviz version 2.43.0 (0)
 -->
<!-- Title: %3 Pages: 1 -->
<svg width="400pt" height="506pt"
 viewBox="0.00 0.00 400.00 506.00" xmlns="http://www.w3.org/2000/svg" xmlns:xlink="http://www.w3.org/1999/xlink">
<g id="graph0" class="graph" transform="scale(1 1) rotate(0) translate(4 502)">
<title>%3</title>
<g id="clust1" class="cluster">
<title>cluster_0</title>
<polygon fill="BurlyWood" stroke="black" points="8,-222 8,-490 384,-490 384,-222 8,-222"/>
<text text-anchor="middle" x="196" y="-474.8" font-family="Times,serif" font-size="14.00">Bartlett\Sarif\Definition</text>
</g>
<g id="clust2" class="cluster">
<title>cluster_1</title>
<polygon fill="Bisque" stroke="black" points="110,-102 110,-214 283,-214 283,-102 110,-102"/>
<text text-anchor="middle" x="196.5" y="-198.8" font-family="Times,serif" font-size="14.00">Bartlett\Sarif\Internal</text>
</g>
<g id="clust3" class="cluster">
<title>cluster_2</title>
<polygon fill="transparent" stroke="black" points="125,-8 125,-94 267,-94 267,-8 125,-8"/>
<text text-anchor="middle" x="196" y="-78.8" font-family="Times,serif" font-size="14.00">0</text>
</g>
<!-- Bartlett\\Sarif\\Definition\\GraphTraversal -->
<g id="node1" class="node">
<title>Bartlett\\Sarif\\Definition\\GraphTraversal</title>
<polygon fill="#fefece" stroke="transparent" points="376,-459 16,-459 16,-230 376,-230 376,-459"/>
<polygon fill="#eeeeee" stroke="transparent" points="16,-436.5 16,-458.5 376,-458.5 376,-436.5 16,-436.5"/>
<polygon fill="none" stroke="black" points="16,-436.5 16,-458.5 376,-458.5 376,-436.5 16,-436.5"/>
<text text-anchor="start" x="161.5" y="-442.1" font-family="Verdana" font-weight="bold" font-size="8.00">GraphTraversal</text>
<polygon fill="none" stroke="black" points="16,-339.5 16,-436.5 376,-436.5 376,-339.5 16,-339.5"/>
<text text-anchor="start" x="21" y="-425.1" font-family="Verdana" font-size="8.00"># runGraphIndex</text>
<text text-anchor="start" x="21" y="-412.1" font-family="Verdana" font-size="8.00"># resultGraphIndex</text>
<text text-anchor="start" x="21" y="-399.1" font-family="Verdana" font-size="8.00"># description</text>
<text text-anchor="start" x="21" y="-386.1" font-family="Verdana" font-size="8.00"># initialState : mixed</text>
<text text-anchor="start" x="21" y="-373.1" font-family="Verdana" font-size="8.00"># immutableState : mixed</text>
<text text-anchor="start" x="21" y="-360.1" font-family="Verdana" font-size="8.00"># edgeTraversals : mixed</text>
<text text-anchor="start" x="21" y="-347.1" font-family="Verdana" font-size="8.00"># properties</text>
<polygon fill="none" stroke="black" points="16,-229.5 16,-339.5 376,-339.5 376,-229.5 16,-229.5"/>
<text text-anchor="start" x="21" y="-328.1" font-family="Verdana" font-size="8.00">+ __construct(runGraphIndex : int = «unknown», resultGraphIndex : int = «unknown»)</text>
<text text-anchor="start" x="21" y="-315.1" font-family="Verdana" font-size="8.00">+ setRunGraphIndex(runGraphIndex : int = &#45;1) : void</text>
<text text-anchor="start" x="21" y="-302.1" font-family="Verdana" font-size="8.00">+ setResultGraphIndex(resultGraphIndex : int = &#45;1) : void</text>
<text text-anchor="start" x="21" y="-289.1" font-family="Verdana" font-size="8.00">+ setDescription(description : Bartlett\Sarif\Definition\Message) : void</text>
<text text-anchor="start" x="21" y="-276.1" font-family="Verdana" font-size="8.00">+ addAdditionalPropertiesInitialState(additionalProperties : array) : void</text>
<text text-anchor="start" x="21" y="-263.1" font-family="Verdana" font-size="8.00">+ addAdditionalProperties(additionalProperties : array) : void</text>
<text text-anchor="start" x="21" y="-250.1" font-family="Verdana" font-size="8.00">+ addEdgeTraversals(edgeTraversals : array) : void</text>
<text text-anchor="start" x="21" y="-237.1" font-family="Verdana" font-size="8.00">+ setProperties(propertyBag : Bartlett\Sarif\Definition\PropertyBag) : void</text>
</g>
<!-- Bartlett\\Sarif\\Internal\\JsonSerializable -->
<g id="node2" class="node">
<title>Bartlett\\Sarif\\Internal\\JsonSerializable</title>
<polygon fill="#fefece" stroke="transparent" points="249.5,-183 142.5,-183 142.5,-110 249.5,-110 249.5,-183"/>
<polygon fill="#eeeeee" stroke="transparent" points="143,-160.5 143,-182.5 250,-182.5 250,-160.5 143,-160.5"/>
<polygon fill="none" stroke="black" points="143,-160.5 143,-182.5 250,-182.5 250,-160.5 143,-160.5"/>
<text text-anchor="start" x="172.5" y="-174.1" font-family="Verdana" font-weight="bold" font-size="8.00">«abstract»</text>
<text text-anchor="start" x="160" y="-166.1" font-family="Verdana" font-weight="bold" font-size="8.00">JsonSerializable</text>
<polygon fill="none" stroke="black" points="143,-128.5 143,-160.5 250,-160.5 250,-128.5 143,-128.5"/>
<text text-anchor="start" x="148" y="-149.1" font-family="Verdana" font-size="8.00"># required : mixed</text>
<text text-anchor="start" x="148" y="-136.1" font-family="Verdana" font-size="8.00"># optional : mixed</text>
<polygon fill="none" stroke="black" points="143,-109.5 143,-128.5 250,-128.5 250,-109.5 143,-109.5"/>
<text text-anchor="start" x="148" y="-117.1" font-family="Verdana" font-size="8.00">+ jsonSerialize() : array</text>
</g>
<!-- Bartlett\\Sarif\\Definition\\GraphTraversal&#45;&gt;Bartlett\\Sarif\\Internal\\JsonSerializable -->
<g id="edge2" class="edge">
<title>Bartlett\\Sarif\\Definition\\GraphTraversal&#45;&gt;Bartlett\\Sarif\\Internal\\JsonSerializable</title>
<path fill="none" stroke="black" d="M196,-229.77C196,-216.97 196,-204.54 196,-193.38"/>
<polygon fill="none" stroke="black" points="199.5,-193.1 196,-183.1 192.5,-193.1 199.5,-193.1"/>
</g>
<!-- JsonSerializable -->
<g id="node3" class="node">
<title>JsonSerializable</title>
<polygon fill="#fefece" stroke="transparent" points="258.5,-63 133.5,-63 133.5,-16 258.5,-16 258.5,-63"/>
<polygon fill="#eeeeee" stroke="transparent" points="134,-40.5 134,-62.5 259,-62.5 259,-40.5 134,-40.5"/>
<polygon fill="none" stroke="black" points="134,-40.5 134,-62.5 259,-62.5 259,-40.5 134,-40.5"/>
<text text-anchor="start" x="170.5" y="-54.1" font-family="Verdana" font-weight="bold" font-size="8.00">«interface»</text>
<text text-anchor="start" x="160" y="-46.1" font-family="Verdana" font-weight="bold" font-size="8.00">JsonSerializable</text>
<polygon fill="none" stroke="black" points="134,-34.5 134,-40.5 259,-40.5 259,-34.5 134,-34.5"/>
<polygon fill="none" stroke="black" points="134,-15.5 134,-34.5 259,-34.5 259,-15.5 134,-15.5"/>
<text text-anchor="start" x="139" y="-23.1" font-family="Verdana" font-size="8.00">+ «abstract» jsonSerialize()</text>
</g>
<!-- Bartlett\\Sarif\\Internal\\JsonSerializable&#45;&gt;JsonSerializable -->
<g id="edge1" class="edge">
<title>Bartlett\\Sarif\\Internal\\JsonSerializable&#45;&gt;JsonSerializable</title>
<path fill="none" stroke="black" stroke-dasharray="5,2" d="M196,-109.95C196,-98.11 196,-84.98 196,-73.35"/>
<polygon fill="none" stroke="black" points="199.5,-73.17 196,-63.17 192.5,-73.17 199.5,-73.17"/>
</g>
</g>
</svg>
