<?xml version="1.0" encoding="UTF-8" standalone="no"?>
<!DOCTYPE svg PUBLIC "-//W3C//DTD SVG 1.1//EN"
 "http://www.w3.org/Graphics/SVG/1.1/DTD/svg11.dtd">
<!-- Generated by graphviz version 2.43.0 (0)
 -->
<!-- Title: %3 Pages: 1 -->
<svg width="434pt" height="974pt"
 viewBox="0.00 0.00 434.00 974.00" xmlns="http://www.w3.org/2000/svg" xmlns:xlink="http://www.w3.org/1999/xlink">
<g id="graph0" class="graph" transform="scale(1 1) rotate(0) translate(4 970)">
<title>%3</title>
<g id="clust1" class="cluster">
<title>cluster_0</title>
<polygon fill="BurlyWood" stroke="black" points="8,-222 8,-958 418,-958 418,-222 8,-222"/>
<text text-anchor="middle" x="213" y="-942.8" font-family="Times,serif" font-size="14.00">Bartlett\Sarif\Definition</text>
</g>
<g id="clust2" class="cluster">
<title>cluster_1</title>
<polygon fill="Bisque" stroke="black" points="127,-102 127,-214 300,-214 300,-102 127,-102"/>
<text text-anchor="middle" x="213.5" y="-198.8" font-family="Times,serif" font-size="14.00">Bartlett\Sarif\Internal</text>
</g>
<g id="clust3" class="cluster">
<title>cluster_2</title>
<polygon fill="transparent" stroke="black" points="142,-8 142,-94 284,-94 284,-8 142,-8"/>
<text text-anchor="middle" x="213" y="-78.8" font-family="Times,serif" font-size="14.00">0</text>
</g>
<!-- Bartlett\\Sarif\\Definition\\Invocation -->
<g id="node1" class="node">
<title>Bartlett\\Sarif\\Definition\\Invocation</title>
<polygon fill="#fefece" stroke="transparent" points="410,-927 16,-927 16,-230 410,-230 410,-927"/>
<polygon fill="#eeeeee" stroke="transparent" points="16,-904.5 16,-926.5 410,-926.5 410,-904.5 16,-904.5"/>
<polygon fill="none" stroke="black" points="16,-904.5 16,-926.5 410,-926.5 410,-904.5 16,-904.5"/>
<text text-anchor="start" x="189" y="-910.1" font-family="Verdana" font-weight="bold" font-size="8.00">Invocation</text>
<polygon fill="none" stroke="black" points="16,-573.5 16,-904.5 410,-904.5 410,-573.5 16,-573.5"/>
<text text-anchor="start" x="21" y="-893.1" font-family="Verdana" font-size="8.00"># commandLine : string</text>
<text text-anchor="start" x="21" y="-880.1" font-family="Verdana" font-size="8.00"># arguments : mixed</text>
<text text-anchor="start" x="21" y="-867.1" font-family="Verdana" font-size="8.00"># responseFiles : mixed</text>
<text text-anchor="start" x="21" y="-854.1" font-family="Verdana" font-size="8.00"># startTimeUtc : string</text>
<text text-anchor="start" x="21" y="-841.1" font-family="Verdana" font-size="8.00"># endTimeUtc : string</text>
<text text-anchor="start" x="21" y="-828.1" font-family="Verdana" font-size="8.00"># exitCode : int</text>
<text text-anchor="start" x="21" y="-815.1" font-family="Verdana" font-size="8.00"># ruleConfigurationOverrides : mixed</text>
<text text-anchor="start" x="21" y="-802.1" font-family="Verdana" font-size="8.00"># notificationConfigurationOverrides : mixed</text>
<text text-anchor="start" x="21" y="-789.1" font-family="Verdana" font-size="8.00"># toolExecutionNotifications : mixed</text>
<text text-anchor="start" x="21" y="-776.1" font-family="Verdana" font-size="8.00"># exitCodeDescription : string</text>
<text text-anchor="start" x="21" y="-763.1" font-family="Verdana" font-size="8.00"># exitSignalName : string</text>
<text text-anchor="start" x="21" y="-750.1" font-family="Verdana" font-size="8.00"># exitSignalNumber : int</text>
<text text-anchor="start" x="21" y="-737.1" font-family="Verdana" font-size="8.00"># processStartFailureMessage : string</text>
<text text-anchor="start" x="21" y="-724.1" font-family="Verdana" font-size="8.00"># executionSuccessful : bool</text>
<text text-anchor="start" x="21" y="-711.1" font-family="Verdana" font-size="8.00"># machine : string</text>
<text text-anchor="start" x="21" y="-698.1" font-family="Verdana" font-size="8.00"># account : string</text>
<text text-anchor="start" x="21" y="-685.1" font-family="Verdana" font-size="8.00"># processId : int</text>
<text text-anchor="start" x="21" y="-672.1" font-family="Verdana" font-size="8.00"># executableLocation : ArtifactLocation</text>
<text text-anchor="start" x="21" y="-659.1" font-family="Verdana" font-size="8.00"># workingDirectory : ArtifactLocation</text>
<text text-anchor="start" x="21" y="-646.1" font-family="Verdana" font-size="8.00"># environmentVariables : mixed</text>
<text text-anchor="start" x="21" y="-633.1" font-family="Verdana" font-size="8.00"># stdin : ArtifactLocation</text>
<text text-anchor="start" x="21" y="-620.1" font-family="Verdana" font-size="8.00"># stdout : ArtifactLocation</text>
<text text-anchor="start" x="21" y="-607.1" font-family="Verdana" font-size="8.00"># stderr : ArtifactLocation</text>
<text text-anchor="start" x="21" y="-594.1" font-family="Verdana" font-size="8.00"># stdoutStderr : ArtifactLocation</text>
<text text-anchor="start" x="21" y="-581.1" font-family="Verdana" font-size="8.00"># properties : PropertyBag</text>
<polygon fill="none" stroke="black" points="16,-229.5 16,-573.5 410,-573.5 410,-229.5 16,-229.5"/>
<text text-anchor="start" x="21" y="-562.1" font-family="Verdana" font-size="8.00">+ __construct(executionSuccessful : bool)</text>
<text text-anchor="start" x="21" y="-549.1" font-family="Verdana" font-size="8.00">+ setCommandLine(commandLine : string) : void</text>
<text text-anchor="start" x="21" y="-536.1" font-family="Verdana" font-size="8.00">+ addArguments(arguments : array) : void</text>
<text text-anchor="start" x="21" y="-523.1" font-family="Verdana" font-size="8.00">+ addResponseFiles(responseFiles : array) : void</text>
<text text-anchor="start" x="21" y="-510.1" font-family="Verdana" font-size="8.00">+ setStartTimeUtc(startTimeUtc : string) : void</text>
<text text-anchor="start" x="21" y="-497.1" font-family="Verdana" font-size="8.00">+ setEndTimeUtc(endTimeUtc : string) : void</text>
<text text-anchor="start" x="21" y="-484.1" font-family="Verdana" font-size="8.00">+ setExitCode(exitCode : int) : void</text>
<text text-anchor="start" x="21" y="-471.1" font-family="Verdana" font-size="8.00">+ addRuleConfigurationOverrides(ruleConfigurationOverrides : array) : void</text>
<text text-anchor="start" x="21" y="-458.1" font-family="Verdana" font-size="8.00">+ addNotificationConfigurationOverrides(notificationConfigurationOverrides : array) : void</text>
<text text-anchor="start" x="21" y="-445.1" font-family="Verdana" font-size="8.00">+ addToolExecutionNotifications(toolExecutionNotifications : array) : void</text>
<text text-anchor="start" x="21" y="-432.1" font-family="Verdana" font-size="8.00">+ setExitCodeDescription(exitCodeDescription : string) : void</text>
<text text-anchor="start" x="21" y="-419.1" font-family="Verdana" font-size="8.00">+ setExitSignalName(exitSignalName : string) : void</text>
<text text-anchor="start" x="21" y="-406.1" font-family="Verdana" font-size="8.00">+ setExitSignalNumber(exitSignalNumber : int) : void</text>
<text text-anchor="start" x="21" y="-393.1" font-family="Verdana" font-size="8.00">+ setProcessStartFailureMessage(processStartFailureMessage : string) : void</text>
<text text-anchor="start" x="21" y="-380.1" font-family="Verdana" font-size="8.00">+ setExecutionSuccessful(executionSuccessful : bool) : void</text>
<text text-anchor="start" x="21" y="-367.1" font-family="Verdana" font-size="8.00">+ setMachine(machine : string) : void</text>
<text text-anchor="start" x="21" y="-354.1" font-family="Verdana" font-size="8.00">+ setAccount(account : string) : void</text>
<text text-anchor="start" x="21" y="-341.1" font-family="Verdana" font-size="8.00">+ setProcessId(processId : int) : void</text>
<text text-anchor="start" x="21" y="-328.1" font-family="Verdana" font-size="8.00">+ setExecutableLocation(executableLocation : Bartlett\Sarif\Definition\ArtifactLocation) : void</text>
<text text-anchor="start" x="21" y="-315.1" font-family="Verdana" font-size="8.00">+ setWorkingDirectory(workingDirectory : Bartlett\Sarif\Definition\ArtifactLocation) : void</text>
<text text-anchor="start" x="21" y="-302.1" font-family="Verdana" font-size="8.00">+ addAdditionalProperties(additionalProperties : array) : void</text>
<text text-anchor="start" x="21" y="-289.1" font-family="Verdana" font-size="8.00">+ setStdin(stdin : Bartlett\Sarif\Definition\ArtifactLocation) : void</text>
<text text-anchor="start" x="21" y="-276.1" font-family="Verdana" font-size="8.00">+ setStdout(stdout : Bartlett\Sarif\Definition\ArtifactLocation) : void</text>
<text text-anchor="start" x="21" y="-263.1" font-family="Verdana" font-size="8.00">+ setStderr(stderr : Bartlett\Sarif\Definition\ArtifactLocation) : void</text>
<text text-anchor="start" x="21" y="-250.1" font-family="Verdana" font-size="8.00">+ setStdoutStderr(stdoutStderr : Bartlett\Sarif\Definition\ArtifactLocation) : void</text>
<text text-anchor="start" x="21" y="-237.1" font-family="Verdana" font-size="8.00">+ setProperties(propertyBag : Bartlett\Sarif\Definition\PropertyBag) : void</text>
</g>
<!-- Bartlett\\Sarif\\Internal\\JsonSerializable -->
<g id="node2" class="node">
<title>Bartlett\\Sarif\\Internal\\JsonSerializable</title>
<polygon fill="#fefece" stroke="transparent" points="266.5,-183 159.5,-183 159.5,-110 266.5,-110 266.5,-183"/>
<polygon fill="#eeeeee" stroke="transparent" points="160,-160.5 160,-182.5 267,-182.5 267,-160.5 160,-160.5"/>
<polygon fill="none" stroke="black" points="160,-160.5 160,-182.5 267,-182.5 267,-160.5 160,-160.5"/>
<text text-anchor="start" x="189.5" y="-174.1" font-family="Verdana" font-weight="bold" font-size="8.00">«abstract»</text>
<text text-anchor="start" x="177" y="-166.1" font-family="Verdana" font-weight="bold" font-size="8.00">JsonSerializable</text>
<polygon fill="none" stroke="black" points="160,-128.5 160,-160.5 267,-160.5 267,-128.5 160,-128.5"/>
<text text-anchor="start" x="165" y="-149.1" font-family="Verdana" font-size="8.00"># required : mixed</text>
<text text-anchor="start" x="165" y="-136.1" font-family="Verdana" font-size="8.00"># optional : mixed</text>
<polygon fill="none" stroke="black" points="160,-109.5 160,-128.5 267,-128.5 267,-109.5 160,-109.5"/>
<text text-anchor="start" x="165" y="-117.1" font-family="Verdana" font-size="8.00">+ jsonSerialize() : array</text>
</g>
<!-- Bartlett\\Sarif\\Definition\\Invocation&#45;&gt;Bartlett\\Sarif\\Internal\\JsonSerializable -->
<g id="edge2" class="edge">
<title>Bartlett\\Sarif\\Definition\\Invocation&#45;&gt;Bartlett\\Sarif\\Internal\\JsonSerializable</title>
<path fill="none" stroke="black" d="M213,-229.9C213,-216.51 213,-204.25 213,-193.5"/>
<polygon fill="none" stroke="black" points="216.5,-193.28 213,-183.28 209.5,-193.28 216.5,-193.28"/>
</g>
<!-- JsonSerializable -->
<g id="node3" class="node">
<title>JsonSerializable</title>
<polygon fill="#fefece" stroke="transparent" points="275.5,-63 150.5,-63 150.5,-16 275.5,-16 275.5,-63"/>
<polygon fill="#eeeeee" stroke="transparent" points="151,-40.5 151,-62.5 276,-62.5 276,-40.5 151,-40.5"/>
<polygon fill="none" stroke="black" points="151,-40.5 151,-62.5 276,-62.5 276,-40.5 151,-40.5"/>
<text text-anchor="start" x="187.5" y="-54.1" font-family="Verdana" font-weight="bold" font-size="8.00">«interface»</text>
<text text-anchor="start" x="177" y="-46.1" font-family="Verdana" font-weight="bold" font-size="8.00">JsonSerializable</text>
<polygon fill="none" stroke="black" points="151,-34.5 151,-40.5 276,-40.5 276,-34.5 151,-34.5"/>
<polygon fill="none" stroke="black" points="151,-15.5 151,-34.5 276,-34.5 276,-15.5 151,-15.5"/>
<text text-anchor="start" x="156" y="-23.1" font-family="Verdana" font-size="8.00">+ «abstract» jsonSerialize()</text>
</g>
<!-- Bartlett\\Sarif\\Internal\\JsonSerializable&#45;&gt;JsonSerializable -->
<g id="edge1" class="edge">
<title>Bartlett\\Sarif\\Internal\\JsonSerializable&#45;&gt;JsonSerializable</title>
<path fill="none" stroke="black" stroke-dasharray="5,2" d="M213,-109.95C213,-98.11 213,-84.98 213,-73.35"/>
<polygon fill="none" stroke="black" points="216.5,-73.17 213,-63.17 209.5,-73.17 216.5,-73.17"/>
</g>
</g>
</svg>
