<?xml version="1.0" encoding="UTF-8" standalone="no"?>
<!DOCTYPE svg PUBLIC "-//W3C//DTD SVG 1.1//EN"
 "http://www.w3.org/Graphics/SVG/1.1/DTD/svg11.dtd">
<!-- Generated by graphviz version 2.43.0 (0)
 -->
<!-- Title: %3 Pages: 1 -->
<svg width="382pt" height="428pt"
 viewBox="0.00 0.00 382.00 428.00" xmlns="http://www.w3.org/2000/svg" xmlns:xlink="http://www.w3.org/1999/xlink">
<g id="graph0" class="graph" transform="scale(1 1) rotate(0) translate(4 424)">
<title>%3</title>
<g id="clust1" class="cluster">
<title>cluster_0</title>
<polygon fill="BurlyWood" stroke="black" points="8,-222 8,-412 366,-412 366,-222 8,-222"/>
<text text-anchor="middle" x="187" y="-396.8" font-family="Times,serif" font-size="14.00">Bartlett\Sarif\Definition</text>
</g>
<g id="clust2" class="cluster">
<title>cluster_1</title>
<polygon fill="Bisque" stroke="black" points="101,-102 101,-214 274,-214 274,-102 101,-102"/>
<text text-anchor="middle" x="187.5" y="-198.8" font-family="Times,serif" font-size="14.00">Bartlett\Sarif\Internal</text>
</g>
<g id="clust3" class="cluster">
<title>cluster_2</title>
<polygon fill="transparent" stroke="black" points="116,-8 116,-94 258,-94 258,-8 116,-8"/>
<text text-anchor="middle" x="187" y="-78.8" font-family="Times,serif" font-size="14.00">0</text>
</g>
<!-- Bartlett\\Sarif\\Definition\\ReportingDescriptorRelationship -->
<g id="node1" class="node">
<title>Bartlett\\Sarif\\Definition\\ReportingDescriptorRelationship</title>
<polygon fill="#fefece" stroke="transparent" points="358,-381 16,-381 16,-230 358,-230 358,-381"/>
<polygon fill="#eeeeee" stroke="transparent" points="16,-358.5 16,-380.5 358,-380.5 358,-358.5 16,-358.5"/>
<polygon fill="none" stroke="black" points="16,-358.5 16,-380.5 358,-380.5 358,-358.5 16,-358.5"/>
<text text-anchor="start" x="112.5" y="-364.1" font-family="Verdana" font-weight="bold" font-size="8.00">ReportingDescriptorRelationship</text>
<polygon fill="none" stroke="black" points="16,-300.5 16,-358.5 358,-358.5 358,-300.5 16,-300.5"/>
<text text-anchor="start" x="21" y="-347.1" font-family="Verdana" font-size="8.00"># target</text>
<text text-anchor="start" x="21" y="-334.1" font-family="Verdana" font-size="8.00"># kinds : mixed</text>
<text text-anchor="start" x="21" y="-321.1" font-family="Verdana" font-size="8.00"># description</text>
<text text-anchor="start" x="21" y="-308.1" font-family="Verdana" font-size="8.00"># properties</text>
<polygon fill="none" stroke="black" points="16,-229.5 16,-300.5 358,-300.5 358,-229.5 16,-229.5"/>
<text text-anchor="start" x="21" y="-289.1" font-family="Verdana" font-size="8.00">+ __construct(target : Bartlett\Sarif\Definition\ReportingDescriptorReference)</text>
<text text-anchor="start" x="21" y="-276.1" font-family="Verdana" font-size="8.00">+ setTarget(target : Bartlett\Sarif\Definition\ReportingDescriptorReference) : void</text>
<text text-anchor="start" x="21" y="-263.1" font-family="Verdana" font-size="8.00">+ addKinds(kinds : array = […]) : void</text>
<text text-anchor="start" x="21" y="-250.1" font-family="Verdana" font-size="8.00">+ setDescription(description : Bartlett\Sarif\Definition\Message) : void</text>
<text text-anchor="start" x="21" y="-237.1" font-family="Verdana" font-size="8.00">+ setProperties(propertyBag : Bartlett\Sarif\Definition\PropertyBag) : void</text>
</g>
<!-- Bartlett\\Sarif\\Internal\\JsonSerializable -->
<g id="node2" class="node">
<title>Bartlett\\Sarif\\Internal\\JsonSerializable</title>
<polygon fill="#fefece" stroke="transparent" points="240.5,-183 133.5,-183 133.5,-110 240.5,-110 240.5,-183"/>
<polygon fill="#eeeeee" stroke="transparent" points="134,-160.5 134,-182.5 241,-182.5 241,-160.5 134,-160.5"/>
<polygon fill="none" stroke="black" points="134,-160.5 134,-182.5 241,-182.5 241,-160.5 134,-160.5"/>
<text text-anchor="start" x="163.5" y="-174.1" font-family="Verdana" font-weight="bold" font-size="8.00">«abstract»</text>
<text text-anchor="start" x="151" y="-166.1" font-family="Verdana" font-weight="bold" font-size="8.00">JsonSerializable</text>
<polygon fill="none" stroke="black" points="134,-128.5 134,-160.5 241,-160.5 241,-128.5 134,-128.5"/>
<text text-anchor="start" x="139" y="-149.1" font-family="Verdana" font-size="8.00"># required : mixed</text>
<text text-anchor="start" x="139" y="-136.1" font-family="Verdana" font-size="8.00"># optional : mixed</text>
<polygon fill="none" stroke="black" points="134,-109.5 134,-128.5 241,-128.5 241,-109.5 134,-109.5"/>
<text text-anchor="start" x="139" y="-117.1" font-family="Verdana" font-size="8.00">+ jsonSerialize() : array</text>
</g>
<!-- Bartlett\\Sarif\\Definition\\ReportingDescriptorRelationship&#45;&gt;Bartlett\\Sarif\\Internal\\JsonSerializable -->
<g id="edge2" class="edge">
<title>Bartlett\\Sarif\\Definition\\ReportingDescriptorRelationship&#45;&gt;Bartlett\\Sarif\\Internal\\JsonSerializable</title>
<path fill="none" stroke="black" d="M187,-229.68C187,-217.22 187,-204.64 187,-193.2"/>
<polygon fill="none" stroke="black" points="190.5,-193.04 187,-183.04 183.5,-193.04 190.5,-193.04"/>
</g>
<!-- JsonSerializable -->
<g id="node3" class="node">
<title>JsonSerializable</title>
<polygon fill="#fefece" stroke="transparent" points="249.5,-63 124.5,-63 124.5,-16 249.5,-16 249.5,-63"/>
<polygon fill="#eeeeee" stroke="transparent" points="125,-40.5 125,-62.5 250,-62.5 250,-40.5 125,-40.5"/>
<polygon fill="none" stroke="black" points="125,-40.5 125,-62.5 250,-62.5 250,-40.5 125,-40.5"/>
<text text-anchor="start" x="161.5" y="-54.1" font-family="Verdana" font-weight="bold" font-size="8.00">«interface»</text>
<text text-anchor="start" x="151" y="-46.1" font-family="Verdana" font-weight="bold" font-size="8.00">JsonSerializable</text>
<polygon fill="none" stroke="black" points="125,-34.5 125,-40.5 250,-40.5 250,-34.5 125,-34.5"/>
<polygon fill="none" stroke="black" points="125,-15.5 125,-34.5 250,-34.5 250,-15.5 125,-15.5"/>
<text text-anchor="start" x="130" y="-23.1" font-family="Verdana" font-size="8.00">+ «abstract» jsonSerialize()</text>
</g>
<!-- Bartlett\\Sarif\\Internal\\JsonSerializable&#45;&gt;JsonSerializable -->
<g id="edge1" class="edge">
<title>Bartlett\\Sarif\\Internal\\JsonSerializable&#45;&gt;JsonSerializable</title>
<path fill="none" stroke="black" stroke-dasharray="5,2" d="M187,-109.95C187,-98.11 187,-84.98 187,-73.35"/>
<polygon fill="none" stroke="black" points="190.5,-73.17 187,-63.17 183.5,-73.17 190.5,-73.17"/>
</g>
</g>
</svg>
