<?xml version="1.0" encoding="UTF-8" standalone="no"?>
<!DOCTYPE svg PUBLIC "-//W3C//DTD SVG 1.1//EN"
 "http://www.w3.org/Graphics/SVG/1.1/DTD/svg11.dtd">
<!-- Generated by graphviz version 2.43.0 (0)
 -->
<!-- Title: %3 Pages: 1 -->
<svg width="440pt" height="454pt"
 viewBox="0.00 0.00 440.00 454.00" xmlns="http://www.w3.org/2000/svg" xmlns:xlink="http://www.w3.org/1999/xlink">
<g id="graph0" class="graph" transform="scale(1 1) rotate(0) translate(4 450)">
<title>%3</title>
<g id="clust1" class="cluster">
<title>cluster_0</title>
<polygon fill="BurlyWood" stroke="black" points="8,-222 8,-438 424,-438 424,-222 8,-222"/>
<text text-anchor="middle" x="216" y="-422.8" font-family="Times,serif" font-size="14.00">Bartlett\Sarif\Definition</text>
</g>
<g id="clust2" class="cluster">
<title>cluster_1</title>
<polygon fill="Bisque" stroke="black" points="130,-102 130,-214 303,-214 303,-102 130,-102"/>
<text text-anchor="middle" x="216.5" y="-198.8" font-family="Times,serif" font-size="14.00">Bartlett\Sarif\Internal</text>
</g>
<g id="clust3" class="cluster">
<title>cluster_2</title>
<polygon fill="transparent" stroke="black" points="145,-8 145,-94 287,-94 287,-8 145,-8"/>
<text text-anchor="middle" x="216" y="-78.8" font-family="Times,serif" font-size="14.00">0</text>
</g>
<!-- Bartlett\\Sarif\\Definition\\ReportingDescriptorReference -->
<g id="node1" class="node">
<title>Bartlett\\Sarif\\Definition\\ReportingDescriptorReference</title>
<polygon fill="#fefece" stroke="transparent" points="416.5,-407 15.5,-407 15.5,-230 416.5,-230 416.5,-407"/>
<polygon fill="#eeeeee" stroke="transparent" points="16,-384.5 16,-406.5 417,-406.5 417,-384.5 16,-384.5"/>
<polygon fill="none" stroke="black" points="16,-384.5 16,-406.5 417,-406.5 417,-384.5 16,-384.5"/>
<text text-anchor="start" x="148" y="-390.1" font-family="Verdana" font-weight="bold" font-size="8.00">ReportingDescriptorReference</text>
<polygon fill="none" stroke="black" points="16,-313.5 16,-384.5 417,-384.5 417,-313.5 16,-313.5"/>
<text text-anchor="start" x="21" y="-373.1" font-family="Verdana" font-size="8.00"># id</text>
<text text-anchor="start" x="21" y="-360.1" font-family="Verdana" font-size="8.00"># index</text>
<text text-anchor="start" x="21" y="-347.1" font-family="Verdana" font-size="8.00"># guid</text>
<text text-anchor="start" x="21" y="-334.1" font-family="Verdana" font-size="8.00"># toolComponent</text>
<text text-anchor="start" x="21" y="-321.1" font-family="Verdana" font-size="8.00"># properties</text>
<polygon fill="none" stroke="black" points="16,-229.5 16,-313.5 417,-313.5 417,-229.5 16,-229.5"/>
<text text-anchor="start" x="21" y="-302.1" font-family="Verdana" font-size="8.00">+ __construct(index : int = &#45;1, id : string = &#39;&#39;, guid : string = &#39;&#39;)</text>
<text text-anchor="start" x="21" y="-289.1" font-family="Verdana" font-size="8.00">+ setId(id : string) : void</text>
<text text-anchor="start" x="21" y="-276.1" font-family="Verdana" font-size="8.00">+ setIndex(index : int = &#45;1) : void</text>
<text text-anchor="start" x="21" y="-263.1" font-family="Verdana" font-size="8.00">+ setGuid(guid : string) : void</text>
<text text-anchor="start" x="21" y="-250.1" font-family="Verdana" font-size="8.00">+ setToolComponent(toolComponent : Bartlett\Sarif\Definition\ToolComponentReference) : void</text>
<text text-anchor="start" x="21" y="-237.1" font-family="Verdana" font-size="8.00">+ setProperties(propertyBag : Bartlett\Sarif\Definition\PropertyBag) : void</text>
</g>
<!-- Bartlett\\Sarif\\Internal\\JsonSerializable -->
<g id="node2" class="node">
<title>Bartlett\\Sarif\\Internal\\JsonSerializable</title>
<polygon fill="#fefece" stroke="transparent" points="269.5,-183 162.5,-183 162.5,-110 269.5,-110 269.5,-183"/>
<polygon fill="#eeeeee" stroke="transparent" points="163,-160.5 163,-182.5 270,-182.5 270,-160.5 163,-160.5"/>
<polygon fill="none" stroke="black" points="163,-160.5 163,-182.5 270,-182.5 270,-160.5 163,-160.5"/>
<text text-anchor="start" x="192.5" y="-174.1" font-family="Verdana" font-weight="bold" font-size="8.00">«abstract»</text>
<text text-anchor="start" x="180" y="-166.1" font-family="Verdana" font-weight="bold" font-size="8.00">JsonSerializable</text>
<polygon fill="none" stroke="black" points="163,-128.5 163,-160.5 270,-160.5 270,-128.5 163,-128.5"/>
<text text-anchor="start" x="168" y="-149.1" font-family="Verdana" font-size="8.00"># required : mixed</text>
<text text-anchor="start" x="168" y="-136.1" font-family="Verdana" font-size="8.00"># optional : mixed</text>
<polygon fill="none" stroke="black" points="163,-109.5 163,-128.5 270,-128.5 270,-109.5 163,-109.5"/>
<text text-anchor="start" x="168" y="-117.1" font-family="Verdana" font-size="8.00">+ jsonSerialize() : array</text>
</g>
<!-- Bartlett\\Sarif\\Definition\\ReportingDescriptorReference&#45;&gt;Bartlett\\Sarif\\Internal\\JsonSerializable -->
<g id="edge2" class="edge">
<title>Bartlett\\Sarif\\Definition\\ReportingDescriptorReference&#45;&gt;Bartlett\\Sarif\\Internal\\JsonSerializable</title>
<path fill="none" stroke="black" d="M216,-229.51C216,-217.11 216,-204.79 216,-193.62"/>
<polygon fill="none" stroke="black" points="219.5,-193.29 216,-183.29 212.5,-193.29 219.5,-193.29"/>
</g>
<!-- JsonSerializable -->
<g id="node3" class="node">
<title>JsonSerializable</title>
<polygon fill="#fefece" stroke="transparent" points="278.5,-63 153.5,-63 153.5,-16 278.5,-16 278.5,-63"/>
<polygon fill="#eeeeee" stroke="transparent" points="154,-40.5 154,-62.5 279,-62.5 279,-40.5 154,-40.5"/>
<polygon fill="none" stroke="black" points="154,-40.5 154,-62.5 279,-62.5 279,-40.5 154,-40.5"/>
<text text-anchor="start" x="190.5" y="-54.1" font-family="Verdana" font-weight="bold" font-size="8.00">«interface»</text>
<text text-anchor="start" x="180" y="-46.1" font-family="Verdana" font-weight="bold" font-size="8.00">JsonSerializable</text>
<polygon fill="none" stroke="black" points="154,-34.5 154,-40.5 279,-40.5 279,-34.5 154,-34.5"/>
<polygon fill="none" stroke="black" points="154,-15.5 154,-34.5 279,-34.5 279,-15.5 154,-15.5"/>
<text text-anchor="start" x="159" y="-23.1" font-family="Verdana" font-size="8.00">+ «abstract» jsonSerialize()</text>
</g>
<!-- Bartlett\\Sarif\\Internal\\JsonSerializable&#45;&gt;JsonSerializable -->
<g id="edge1" class="edge">
<title>Bartlett\\Sarif\\Internal\\JsonSerializable&#45;&gt;JsonSerializable</title>
<path fill="none" stroke="black" stroke-dasharray="5,2" d="M216,-109.95C216,-98.11 216,-84.98 216,-73.35"/>
<polygon fill="none" stroke="black" points="219.5,-73.17 216,-63.17 212.5,-73.17 219.5,-73.17"/>
</g>
</g>
</svg>
