<?xml version="1.0" encoding="UTF-8" standalone="no"?>
<!DOCTYPE svg PUBLIC "-//W3C//DTD SVG 1.1//EN"
 "http://www.w3.org/Graphics/SVG/1.1/DTD/svg11.dtd">
<!-- Generated by graphviz version 2.43.0 (0)
 -->
<!-- Title: %3 Pages: 1 -->
<svg width="382pt" height="688pt"
 viewBox="0.00 0.00 382.00 688.00" xmlns="http://www.w3.org/2000/svg" xmlns:xlink="http://www.w3.org/1999/xlink">
<g id="graph0" class="graph" transform="scale(1 1) rotate(0) translate(4 684)">
<title>%3</title>
<g id="clust1" class="cluster">
<title>cluster_0</title>
<polygon fill="BurlyWood" stroke="black" points="8,-222 8,-672 366,-672 366,-222 8,-222"/>
<text text-anchor="middle" x="187" y="-656.8" font-family="Times,serif" font-size="14.00">Bartlett\Sarif\Definition</text>
</g>
<g id="clust2" class="cluster">
<title>cluster_1</title>
<polygon fill="Bisque" stroke="black" points="101,-102 101,-214 274,-214 274,-102 101,-102"/>
<text text-anchor="middle" x="187.5" y="-198.8" font-family="Times,serif" font-size="14.00">Bartlett\Sarif\Internal</text>
</g>
<g id="clust3" class="cluster">
<title>cluster_2</title>
<polygon fill="transparent" stroke="black" points="116,-8 116,-94 258,-94 258,-8 116,-8"/>
<text text-anchor="middle" x="187" y="-78.8" font-family="Times,serif" font-size="14.00">0</text>
</g>
<!-- Bartlett\\Sarif\\Definition\\ThreadFlowLocation -->
<g id="node1" class="node">
<title>Bartlett\\Sarif\\Definition\\ThreadFlowLocation</title>
<polygon fill="#fefece" stroke="transparent" points="358.5,-641 15.5,-641 15.5,-230 358.5,-230 358.5,-641"/>
<polygon fill="#eeeeee" stroke="transparent" points="16,-618.5 16,-640.5 359,-640.5 359,-618.5 16,-618.5"/>
<polygon fill="none" stroke="black" points="16,-618.5 16,-640.5 359,-640.5 359,-618.5 16,-618.5"/>
<text text-anchor="start" x="142" y="-624.1" font-family="Verdana" font-weight="bold" font-size="8.00">ThreadFlowLocation</text>
<polygon fill="none" stroke="black" points="16,-430.5 16,-618.5 359,-618.5 359,-430.5 16,-430.5"/>
<text text-anchor="start" x="21" y="-607.1" font-family="Verdana" font-size="8.00"># index : int</text>
<text text-anchor="start" x="21" y="-594.1" font-family="Verdana" font-size="8.00"># location : Location</text>
<text text-anchor="start" x="21" y="-581.1" font-family="Verdana" font-size="8.00"># stack : Stack</text>
<text text-anchor="start" x="21" y="-568.1" font-family="Verdana" font-size="8.00"># kinds : mixed</text>
<text text-anchor="start" x="21" y="-555.1" font-family="Verdana" font-size="8.00"># taxa : mixed</text>
<text text-anchor="start" x="21" y="-542.1" font-family="Verdana" font-size="8.00"># module : string</text>
<text text-anchor="start" x="21" y="-529.1" font-family="Verdana" font-size="8.00"># state : mixed</text>
<text text-anchor="start" x="21" y="-516.1" font-family="Verdana" font-size="8.00"># nestingLevel : int</text>
<text text-anchor="start" x="21" y="-503.1" font-family="Verdana" font-size="8.00"># executionOrder : int</text>
<text text-anchor="start" x="21" y="-490.1" font-family="Verdana" font-size="8.00"># executionTimeUtc : string</text>
<text text-anchor="start" x="21" y="-477.1" font-family="Verdana" font-size="8.00"># importance : string</text>
<text text-anchor="start" x="21" y="-464.1" font-family="Verdana" font-size="8.00"># webRequest : WebRequest</text>
<text text-anchor="start" x="21" y="-451.1" font-family="Verdana" font-size="8.00"># webResponse : WebResponse</text>
<text text-anchor="start" x="21" y="-438.1" font-family="Verdana" font-size="8.00"># properties : PropertyBag</text>
<polygon fill="none" stroke="black" points="16,-229.5 16,-430.5 359,-430.5 359,-229.5 16,-229.5"/>
<text text-anchor="start" x="21" y="-419.1" font-family="Verdana" font-size="8.00">+ __construct()</text>
<text text-anchor="start" x="21" y="-406.1" font-family="Verdana" font-size="8.00">+ setIndex(index : int = &#45;1) : void</text>
<text text-anchor="start" x="21" y="-393.1" font-family="Verdana" font-size="8.00">+ setLocation(location : Bartlett\Sarif\Definition\Location) : void</text>
<text text-anchor="start" x="21" y="-380.1" font-family="Verdana" font-size="8.00">+ setStack(stack : Bartlett\Sarif\Definition\Stack) : void</text>
<text text-anchor="start" x="21" y="-367.1" font-family="Verdana" font-size="8.00">+ addKinds(kinds : array) : void</text>
<text text-anchor="start" x="21" y="-354.1" font-family="Verdana" font-size="8.00">+ addTaxa(taxa : array) : void</text>
<text text-anchor="start" x="21" y="-341.1" font-family="Verdana" font-size="8.00">+ setModule(module : string) : void</text>
<text text-anchor="start" x="21" y="-328.1" font-family="Verdana" font-size="8.00">+ addAdditionalProperties(additionalProperties : array) : void</text>
<text text-anchor="start" x="21" y="-315.1" font-family="Verdana" font-size="8.00">+ setNestingLevel(nestingLevel : int) : void</text>
<text text-anchor="start" x="21" y="-302.1" font-family="Verdana" font-size="8.00">+ setExecutionOrder(executionOrder : int = &#45;1) : void</text>
<text text-anchor="start" x="21" y="-289.1" font-family="Verdana" font-size="8.00">+ setExecutionTimeUtc(executionTimeUtc : string) : void</text>
<text text-anchor="start" x="21" y="-276.1" font-family="Verdana" font-size="8.00">+ setImportance(importance : string = &#39;important&#39;) : void</text>
<text text-anchor="start" x="21" y="-263.1" font-family="Verdana" font-size="8.00">+ setWebRequest(webRequest : Bartlett\Sarif\Definition\WebRequest) : void</text>
<text text-anchor="start" x="21" y="-250.1" font-family="Verdana" font-size="8.00">+ setWebResponse(webResponse : Bartlett\Sarif\Definition\WebResponse) : void</text>
<text text-anchor="start" x="21" y="-237.1" font-family="Verdana" font-size="8.00">+ setProperties(propertyBag : Bartlett\Sarif\Definition\PropertyBag) : void</text>
</g>
<!-- Bartlett\\Sarif\\Internal\\JsonSerializable -->
<g id="node2" class="node">
<title>Bartlett\\Sarif\\Internal\\JsonSerializable</title>
<polygon fill="#fefece" stroke="transparent" points="240.5,-183 133.5,-183 133.5,-110 240.5,-110 240.5,-183"/>
<polygon fill="#eeeeee" stroke="transparent" points="134,-160.5 134,-182.5 241,-182.5 241,-160.5 134,-160.5"/>
<polygon fill="none" stroke="black" points="134,-160.5 134,-182.5 241,-182.5 241,-160.5 134,-160.5"/>
<text text-anchor="start" x="163.5" y="-174.1" font-family="Verdana" font-weight="bold" font-size="8.00">«abstract»</text>
<text text-anchor="start" x="151" y="-166.1" font-family="Verdana" font-weight="bold" font-size="8.00">JsonSerializable</text>
<polygon fill="none" stroke="black" points="134,-128.5 134,-160.5 241,-160.5 241,-128.5 134,-128.5"/>
<text text-anchor="start" x="139" y="-149.1" font-family="Verdana" font-size="8.00"># required : mixed</text>
<text text-anchor="start" x="139" y="-136.1" font-family="Verdana" font-size="8.00"># optional : mixed</text>
<polygon fill="none" stroke="black" points="134,-109.5 134,-128.5 241,-128.5 241,-109.5 134,-109.5"/>
<text text-anchor="start" x="139" y="-117.1" font-family="Verdana" font-size="8.00">+ jsonSerialize() : array</text>
</g>
<!-- Bartlett\\Sarif\\Definition\\ThreadFlowLocation&#45;&gt;Bartlett\\Sarif\\Internal\\JsonSerializable -->
<g id="edge2" class="edge">
<title>Bartlett\\Sarif\\Definition\\ThreadFlowLocation&#45;&gt;Bartlett\\Sarif\\Internal\\JsonSerializable</title>
<path fill="none" stroke="black" d="M187,-229.74C187,-216.7 187,-204.49 187,-193.67"/>
<polygon fill="none" stroke="black" points="190.5,-193.34 187,-183.34 183.5,-193.34 190.5,-193.34"/>
</g>
<!-- JsonSerializable -->
<g id="node3" class="node">
<title>JsonSerializable</title>
<polygon fill="#fefece" stroke="transparent" points="249.5,-63 124.5,-63 124.5,-16 249.5,-16 249.5,-63"/>
<polygon fill="#eeeeee" stroke="transparent" points="125,-40.5 125,-62.5 250,-62.5 250,-40.5 125,-40.5"/>
<polygon fill="none" stroke="black" points="125,-40.5 125,-62.5 250,-62.5 250,-40.5 125,-40.5"/>
<text text-anchor="start" x="161.5" y="-54.1" font-family="Verdana" font-weight="bold" font-size="8.00">«interface»</text>
<text text-anchor="start" x="151" y="-46.1" font-family="Verdana" font-weight="bold" font-size="8.00">JsonSerializable</text>
<polygon fill="none" stroke="black" points="125,-34.5 125,-40.5 250,-40.5 250,-34.5 125,-34.5"/>
<polygon fill="none" stroke="black" points="125,-15.5 125,-34.5 250,-34.5 250,-15.5 125,-15.5"/>
<text text-anchor="start" x="130" y="-23.1" font-family="Verdana" font-size="8.00">+ «abstract» jsonSerialize()</text>
</g>
<!-- Bartlett\\Sarif\\Internal\\JsonSerializable&#45;&gt;JsonSerializable -->
<g id="edge1" class="edge">
<title>Bartlett\\Sarif\\Internal\\JsonSerializable&#45;&gt;JsonSerializable</title>
<path fill="none" stroke="black" stroke-dasharray="5,2" d="M187,-109.95C187,-98.11 187,-84.98 187,-73.35"/>
<polygon fill="none" stroke="black" points="190.5,-73.17 187,-63.17 183.5,-73.17 190.5,-73.17"/>
</g>
</g>
</svg>
