<?xml version="1.0" encoding="UTF-8" standalone="no"?>
<!DOCTYPE svg PUBLIC "-//W3C//DTD SVG 1.1//EN"
 "http://www.w3.org/Graphics/SVG/1.1/DTD/svg11.dtd">
<!-- Generated by graphviz version 2.43.0 (0)
 -->
<!-- Title: %3 Pages: 1 -->
<svg width="348pt" height="558pt"
 viewBox="0.00 0.00 348.00 558.00" xmlns="http://www.w3.org/2000/svg" xmlns:xlink="http://www.w3.org/1999/xlink">
<g id="graph0" class="graph" transform="scale(1 1) rotate(0) translate(4 554)">
<title>%3</title>
<g id="clust1" class="cluster">
<title>cluster_0</title>
<polygon fill="BurlyWood" stroke="black" points="8,-222 8,-542 332,-542 332,-222 8,-222"/>
<text text-anchor="middle" x="170" y="-526.8" font-family="Times,serif" font-size="14.00">Bartlett\Sarif\Definition</text>
</g>
<g id="clust2" class="cluster">
<title>cluster_1</title>
<polygon fill="Bisque" stroke="black" points="84,-102 84,-214 257,-214 257,-102 84,-102"/>
<text text-anchor="middle" x="170.5" y="-198.8" font-family="Times,serif" font-size="14.00">Bartlett\Sarif\Internal</text>
</g>
<g id="clust3" class="cluster">
<title>cluster_2</title>
<polygon fill="transparent" stroke="black" points="99,-8 99,-94 241,-94 241,-8 99,-8"/>
<text text-anchor="middle" x="170" y="-78.8" font-family="Times,serif" font-size="14.00">0</text>
</g>
<!-- Bartlett\\Sarif\\Definition\\WebRequest -->
<g id="node1" class="node">
<title>Bartlett\\Sarif\\Definition\\WebRequest</title>
<polygon fill="#fefece" stroke="transparent" points="324.5,-511 15.5,-511 15.5,-230 324.5,-230 324.5,-511"/>
<polygon fill="#eeeeee" stroke="transparent" points="16,-488.5 16,-510.5 325,-510.5 325,-488.5 16,-488.5"/>
<polygon fill="none" stroke="black" points="16,-488.5 16,-510.5 325,-510.5 325,-488.5 16,-488.5"/>
<text text-anchor="start" x="142" y="-494.1" font-family="Verdana" font-weight="bold" font-size="8.00">WebRequest</text>
<polygon fill="none" stroke="black" points="16,-365.5 16,-488.5 325,-488.5 325,-365.5 16,-365.5"/>
<text text-anchor="start" x="21" y="-477.1" font-family="Verdana" font-size="8.00"># index : int</text>
<text text-anchor="start" x="21" y="-464.1" font-family="Verdana" font-size="8.00"># protocol : string</text>
<text text-anchor="start" x="21" y="-451.1" font-family="Verdana" font-size="8.00"># version : string</text>
<text text-anchor="start" x="21" y="-438.1" font-family="Verdana" font-size="8.00"># target : string</text>
<text text-anchor="start" x="21" y="-425.1" font-family="Verdana" font-size="8.00"># method : string</text>
<text text-anchor="start" x="21" y="-412.1" font-family="Verdana" font-size="8.00"># headers : mixed</text>
<text text-anchor="start" x="21" y="-399.1" font-family="Verdana" font-size="8.00"># parameters : mixed</text>
<text text-anchor="start" x="21" y="-386.1" font-family="Verdana" font-size="8.00"># body : ArtifactContent</text>
<text text-anchor="start" x="21" y="-373.1" font-family="Verdana" font-size="8.00"># properties : PropertyBag</text>
<polygon fill="none" stroke="black" points="16,-229.5 16,-365.5 325,-365.5 325,-229.5 16,-229.5"/>
<text text-anchor="start" x="21" y="-354.1" font-family="Verdana" font-size="8.00">+ __construct()</text>
<text text-anchor="start" x="21" y="-341.1" font-family="Verdana" font-size="8.00">+ setIndex(index : int = &#45;1) : void</text>
<text text-anchor="start" x="21" y="-328.1" font-family="Verdana" font-size="8.00">+ setProtocol(protocol : string) : void</text>
<text text-anchor="start" x="21" y="-315.1" font-family="Verdana" font-size="8.00">+ setVersion(version : string) : void</text>
<text text-anchor="start" x="21" y="-302.1" font-family="Verdana" font-size="8.00">+ setTarget(target : string) : void</text>
<text text-anchor="start" x="21" y="-289.1" font-family="Verdana" font-size="8.00">+ setMethod(method : string) : void</text>
<text text-anchor="start" x="21" y="-276.1" font-family="Verdana" font-size="8.00">+ addAdditionalPropertiesHeaders(additionalProperties : array) : void</text>
<text text-anchor="start" x="21" y="-263.1" font-family="Verdana" font-size="8.00">+ addAdditionalProperties(additionalProperties : array) : void</text>
<text text-anchor="start" x="21" y="-250.1" font-family="Verdana" font-size="8.00">+ setBody(body : Bartlett\Sarif\Definition\ArtifactContent) : void</text>
<text text-anchor="start" x="21" y="-237.1" font-family="Verdana" font-size="8.00">+ setProperties(propertyBag : Bartlett\Sarif\Definition\PropertyBag) : void</text>
</g>
<!-- Bartlett\\Sarif\\Internal\\JsonSerializable -->
<g id="node2" class="node">
<title>Bartlett\\Sarif\\Internal\\JsonSerializable</title>
<polygon fill="#fefece" stroke="transparent" points="223.5,-183 116.5,-183 116.5,-110 223.5,-110 223.5,-183"/>
<polygon fill="#eeeeee" stroke="transparent" points="117,-160.5 117,-182.5 224,-182.5 224,-160.5 117,-160.5"/>
<polygon fill="none" stroke="black" points="117,-160.5 117,-182.5 224,-182.5 224,-160.5 117,-160.5"/>
<text text-anchor="start" x="146.5" y="-174.1" font-family="Verdana" font-weight="bold" font-size="8.00">«abstract»</text>
<text text-anchor="start" x="134" y="-166.1" font-family="Verdana" font-weight="bold" font-size="8.00">JsonSerializable</text>
<polygon fill="none" stroke="black" points="117,-128.5 117,-160.5 224,-160.5 224,-128.5 117,-128.5"/>
<text text-anchor="start" x="122" y="-149.1" font-family="Verdana" font-size="8.00"># required : mixed</text>
<text text-anchor="start" x="122" y="-136.1" font-family="Verdana" font-size="8.00"># optional : mixed</text>
<polygon fill="none" stroke="black" points="117,-109.5 117,-128.5 224,-128.5 224,-109.5 117,-109.5"/>
<text text-anchor="start" x="122" y="-117.1" font-family="Verdana" font-size="8.00">+ jsonSerialize() : array</text>
</g>
<!-- Bartlett\\Sarif\\Definition\\WebRequest&#45;&gt;Bartlett\\Sarif\\Internal\\JsonSerializable -->
<g id="edge2" class="edge">
<title>Bartlett\\Sarif\\Definition\\WebRequest&#45;&gt;Bartlett\\Sarif\\Internal\\JsonSerializable</title>
<path fill="none" stroke="black" d="M170,-229.85C170,-216.82 170,-204.35 170,-193.24"/>
<polygon fill="none" stroke="black" points="173.5,-193.02 170,-183.02 166.5,-193.02 173.5,-193.02"/>
</g>
<!-- JsonSerializable -->
<g id="node3" class="node">
<title>JsonSerializable</title>
<polygon fill="#fefece" stroke="transparent" points="232.5,-63 107.5,-63 107.5,-16 232.5,-16 232.5,-63"/>
<polygon fill="#eeeeee" stroke="transparent" points="108,-40.5 108,-62.5 233,-62.5 233,-40.5 108,-40.5"/>
<polygon fill="none" stroke="black" points="108,-40.5 108,-62.5 233,-62.5 233,-40.5 108,-40.5"/>
<text text-anchor="start" x="144.5" y="-54.1" font-family="Verdana" font-weight="bold" font-size="8.00">«interface»</text>
<text text-anchor="start" x="134" y="-46.1" font-family="Verdana" font-weight="bold" font-size="8.00">JsonSerializable</text>
<polygon fill="none" stroke="black" points="108,-34.5 108,-40.5 233,-40.5 233,-34.5 108,-34.5"/>
<polygon fill="none" stroke="black" points="108,-15.5 108,-34.5 233,-34.5 233,-15.5 108,-15.5"/>
<text text-anchor="start" x="113" y="-23.1" font-family="Verdana" font-size="8.00">+ «abstract» jsonSerialize()</text>
</g>
<!-- Bartlett\\Sarif\\Internal\\JsonSerializable&#45;&gt;JsonSerializable -->
<g id="edge1" class="edge">
<title>Bartlett\\Sarif\\Internal\\JsonSerializable&#45;&gt;JsonSerializable</title>
<path fill="none" stroke="black" stroke-dasharray="5,2" d="M170,-109.95C170,-98.11 170,-84.98 170,-73.35"/>
<polygon fill="none" stroke="black" points="173.5,-73.17 170,-63.17 166.5,-73.17 173.5,-73.17"/>
</g>
</g>
</svg>
