<?xml version="1.0" encoding="UTF-8" standalone="no"?>
<!DOCTYPE svg PUBLIC "-//W3C//DTD SVG 1.1//EN"
 "http://www.w3.org/Graphics/SVG/1.1/DTD/svg11.dtd">
<!-- Generated by graphviz version 2.43.0 (0)
 -->
<!-- Title: %3 Pages: 1 -->
<svg width="436pt" height="428pt"
 viewBox="0.00 0.00 436.00 428.00" xmlns="http://www.w3.org/2000/svg" xmlns:xlink="http://www.w3.org/1999/xlink">
<g id="graph0" class="graph" transform="scale(1 1) rotate(0) translate(4 424)">
<title>%3</title>
<g id="clust1" class="cluster">
<title>cluster_0</title>
<polygon fill="BurlyWood" stroke="black" points="8,-222 8,-412 420,-412 420,-222 8,-222"/>
<text text-anchor="middle" x="214" y="-396.8" font-family="Times,serif" font-size="14.00">Bartlett\Sarif\Definition</text>
</g>
<g id="clust2" class="cluster">
<title>cluster_1</title>
<polygon fill="Bisque" stroke="black" points="128,-102 128,-214 301,-214 301,-102 128,-102"/>
<text text-anchor="middle" x="214.5" y="-198.8" font-family="Times,serif" font-size="14.00">Bartlett\Sarif\Internal</text>
</g>
<g id="clust3" class="cluster">
<title>cluster_2</title>
<polygon fill="transparent" stroke="black" points="143,-8 143,-94 285,-94 285,-8 143,-8"/>
<text text-anchor="middle" x="214" y="-78.8" font-family="Times,serif" font-size="14.00">0</text>
</g>
<!-- Bartlett\\Sarif\\Definition\\ArtifactChange -->
<g id="node1" class="node">
<title>Bartlett\\Sarif\\Definition\\ArtifactChange</title>
<polygon fill="#fefece" stroke="transparent" points="411.5,-381 16.5,-381 16.5,-230 411.5,-230 411.5,-381"/>
<polygon fill="#eeeeee" stroke="transparent" points="17,-358.5 17,-380.5 412,-380.5 412,-358.5 17,-358.5"/>
<polygon fill="none" stroke="black" points="17,-358.5 17,-380.5 412,-380.5 412,-358.5 17,-358.5"/>
<text text-anchor="start" x="180" y="-364.1" font-family="Verdana" font-weight="bold" font-size="8.00">ArtifactChange</text>
<polygon fill="none" stroke="black" points="17,-300.5 17,-358.5 412,-358.5 412,-300.5 17,-300.5"/>
<text text-anchor="start" x="22" y="-347.1" font-family="Verdana" font-size="8.00"># location</text>
<text text-anchor="start" x="22" y="-334.1" font-family="Verdana" font-size="8.00"># artifactLocation</text>
<text text-anchor="start" x="22" y="-321.1" font-family="Verdana" font-size="8.00"># replacements : mixed</text>
<text text-anchor="start" x="22" y="-308.1" font-family="Verdana" font-size="8.00"># properties</text>
<polygon fill="none" stroke="black" points="17,-229.5 17,-300.5 412,-300.5 412,-229.5 17,-229.5"/>
<text text-anchor="start" x="22" y="-289.1" font-family="Verdana" font-size="8.00">+ __construct(artifactLocation : Bartlett\Sarif\Definition\ArtifactLocation, replacements : array)</text>
<text text-anchor="start" x="22" y="-276.1" font-family="Verdana" font-size="8.00">+ setLocation(location : Bartlett\Sarif\Definition\ArtifactLocation) : void</text>
<text text-anchor="start" x="22" y="-263.1" font-family="Verdana" font-size="8.00">+ setArtifactLocation(artifactLocation : Bartlett\Sarif\Definition\ArtifactLocation) : void</text>
<text text-anchor="start" x="22" y="-250.1" font-family="Verdana" font-size="8.00">+ addReplacements(replacements : array) : void</text>
<text text-anchor="start" x="22" y="-237.1" font-family="Verdana" font-size="8.00">+ setProperties(propertyBag : Bartlett\Sarif\Definition\PropertyBag) : void</text>
</g>
<!-- Bartlett\\Sarif\\Internal\\JsonSerializable -->
<g id="node2" class="node">
<title>Bartlett\\Sarif\\Internal\\JsonSerializable</title>
<polygon fill="#fefece" stroke="transparent" points="267.5,-183 160.5,-183 160.5,-110 267.5,-110 267.5,-183"/>
<polygon fill="#eeeeee" stroke="transparent" points="161,-160.5 161,-182.5 268,-182.5 268,-160.5 161,-160.5"/>
<polygon fill="none" stroke="black" points="161,-160.5 161,-182.5 268,-182.5 268,-160.5 161,-160.5"/>
<text text-anchor="start" x="190.5" y="-174.1" font-family="Verdana" font-weight="bold" font-size="8.00">«abstract»</text>
<text text-anchor="start" x="178" y="-166.1" font-family="Verdana" font-weight="bold" font-size="8.00">JsonSerializable</text>
<polygon fill="none" stroke="black" points="161,-128.5 161,-160.5 268,-160.5 268,-128.5 161,-128.5"/>
<text text-anchor="start" x="166" y="-149.1" font-family="Verdana" font-size="8.00"># required : mixed</text>
<text text-anchor="start" x="166" y="-136.1" font-family="Verdana" font-size="8.00"># optional : mixed</text>
<polygon fill="none" stroke="black" points="161,-109.5 161,-128.5 268,-128.5 268,-109.5 161,-109.5"/>
<text text-anchor="start" x="166" y="-117.1" font-family="Verdana" font-size="8.00">+ jsonSerialize() : array</text>
</g>
<!-- Bartlett\\Sarif\\Definition\\ArtifactChange&#45;&gt;Bartlett\\Sarif\\Internal\\JsonSerializable -->
<g id="edge2" class="edge">
<title>Bartlett\\Sarif\\Definition\\ArtifactChange&#45;&gt;Bartlett\\Sarif\\Internal\\JsonSerializable</title>
<path fill="none" stroke="black" d="M214,-229.68C214,-217.22 214,-204.64 214,-193.2"/>
<polygon fill="none" stroke="black" points="217.5,-193.04 214,-183.04 210.5,-193.04 217.5,-193.04"/>
</g>
<!-- JsonSerializable -->
<g id="node3" class="node">
<title>JsonSerializable</title>
<polygon fill="#fefece" stroke="transparent" points="276.5,-63 151.5,-63 151.5,-16 276.5,-16 276.5,-63"/>
<polygon fill="#eeeeee" stroke="transparent" points="152,-40.5 152,-62.5 277,-62.5 277,-40.5 152,-40.5"/>
<polygon fill="none" stroke="black" points="152,-40.5 152,-62.5 277,-62.5 277,-40.5 152,-40.5"/>
<text text-anchor="start" x="188.5" y="-54.1" font-family="Verdana" font-weight="bold" font-size="8.00">«interface»</text>
<text text-anchor="start" x="178" y="-46.1" font-family="Verdana" font-weight="bold" font-size="8.00">JsonSerializable</text>
<polygon fill="none" stroke="black" points="152,-34.5 152,-40.5 277,-40.5 277,-34.5 152,-34.5"/>
<polygon fill="none" stroke="black" points="152,-15.5 152,-34.5 277,-34.5 277,-15.5 152,-15.5"/>
<text text-anchor="start" x="157" y="-23.1" font-family="Verdana" font-size="8.00">+ «abstract» jsonSerialize()</text>
</g>
<!-- Bartlett\\Sarif\\Internal\\JsonSerializable&#45;&gt;JsonSerializable -->
<g id="edge1" class="edge">
<title>Bartlett\\Sarif\\Internal\\JsonSerializable&#45;&gt;JsonSerializable</title>
<path fill="none" stroke="black" stroke-dasharray="5,2" d="M214,-109.95C214,-98.11 214,-84.98 214,-73.35"/>
<polygon fill="none" stroke="black" points="217.5,-73.17 214,-63.17 210.5,-73.17 217.5,-73.17"/>
</g>
</g>
</svg>
