<?xml version="1.0" encoding="UTF-8" standalone="no"?>
<!DOCTYPE svg PUBLIC "-//W3C//DTD SVG 1.1//EN"
 "http://www.w3.org/Graphics/SVG/1.1/DTD/svg11.dtd">
<!-- Generated by graphviz version 2.43.0 (0)
 -->
<!-- Title: %3 Pages: 1 -->
<svg width="854pt" height="308pt"
 viewBox="0.00 0.00 854.38 308.00" xmlns="http://www.w3.org/2000/svg" xmlns:xlink="http://www.w3.org/1999/xlink">
<g id="graph0" class="graph" transform="scale(1 1) rotate(0) translate(4 304)">
<title>%3</title>
<polygon fill="white" stroke="transparent" points="-4,4 -4,-304 850.38,-304 850.38,4 -4,4"/>
<g id="clust1" class="cluster">
<title>cluster_0</title>
<polygon fill="none" stroke="black" points="8,-8 8,-292 838.38,-292 838.38,-8 8,-8"/>
<text text-anchor="middle" x="423.19" y="-276.8" font-family="Times,serif" font-size="14.00">0</text>
</g>
<!-- bartlett/sarif&#45;php&#45;sdk -->
<g id="node1" class="node">
<title>bartlett/sarif&#45;php&#45;sdk</title>
<ellipse fill="lightgrey" stroke="black" stroke-width="2" cx="125.19" cy="-135" rx="109.38" ry="18"/>
<text text-anchor="middle" x="125.19" y="-131.3" font-family="Times,serif" font-size="14.00">bartlett/sarif&#45;php&#45;sdk</text>
</g>
<!-- php -->
<g id="node2" class="node">
<title>php</title>
<path fill="#eeeeee" stroke="black" d="M764.88,-130C764.88,-130 734.88,-130 734.88,-130 728.88,-130 722.88,-124 722.88,-118 722.88,-118 722.88,-106 722.88,-106 722.88,-100 728.88,-94 734.88,-94 734.88,-94 764.88,-94 764.88,-94 770.88,-94 776.88,-100 776.88,-106 776.88,-106 776.88,-118 776.88,-118 776.88,-124 770.88,-130 764.88,-130"/>
<text text-anchor="middle" x="749.88" y="-108.3" font-family="Times,serif" font-size="14.00" fill="#314b5f">php</text>
</g>
<!-- bartlett/sarif&#45;php&#45;sdk&#45;&gt;php -->
<g id="edge1" class="edge">
<title>bartlett/sarif&#45;php&#45;sdk&#45;&gt;php</title>
<path fill="none" stroke="#1a2833" d="M149.37,-117.34C180.41,-94.9 238.11,-57.38 294.38,-43 411.07,-13.17 446.88,-21.46 565.38,-43 619.02,-52.75 677.38,-77.32 713.55,-94.34"/>
<polygon fill="#1a2833" stroke="#1a2833" points="712.16,-97.55 722.7,-98.7 715.18,-91.24 712.16,-97.55"/>
<text text-anchor="middle" x="429.88" y="-46" font-family="Times,serif" font-size="10.00" fill="#767676">^7.4 || ^8.0</text>
</g>
<!-- ext&#45;json -->
<g id="node3" class="node">
<title>ext&#45;json</title>
<path fill="#eeeeee" stroke="black" d="M454.38,-99C454.38,-99 405.38,-99 405.38,-99 399.38,-99 393.38,-93 393.38,-87 393.38,-87 393.38,-75 393.38,-75 393.38,-69 399.38,-63 405.38,-63 405.38,-63 454.38,-63 454.38,-63 460.38,-63 466.38,-69 466.38,-75 466.38,-75 466.38,-87 466.38,-87 466.38,-93 460.38,-99 454.38,-99"/>
<text text-anchor="middle" x="429.88" y="-77.3" font-family="Times,serif" font-size="14.00" fill="#314b5f">ext&#45;json</text>
</g>
<!-- bartlett/sarif&#45;php&#45;sdk&#45;&gt;ext&#45;json -->
<g id="edge2" class="edge">
<title>bartlett/sarif&#45;php&#45;sdk&#45;&gt;ext&#45;json</title>
<path fill="none" stroke="#1a2833" d="M199.85,-121.86C257.03,-111.66 334.51,-97.84 383.09,-89.17"/>
<polygon fill="#1a2833" stroke="#1a2833" points="383.77,-92.6 393,-87.4 382.54,-85.71 383.77,-92.6"/>
<text text-anchor="middle" x="264.38" y="-114" font-family="Times,serif" font-size="10.00" fill="#767676">*</text>
</g>
<!-- ext&#45;pcre -->
<g id="node4" class="node">
<title>ext&#45;pcre</title>
<path fill="#eeeeee" stroke="black" d="M455.38,-153C455.38,-153 404.38,-153 404.38,-153 398.38,-153 392.38,-147 392.38,-141 392.38,-141 392.38,-129 392.38,-129 392.38,-123 398.38,-117 404.38,-117 404.38,-117 455.38,-117 455.38,-117 461.38,-117 467.38,-123 467.38,-129 467.38,-129 467.38,-141 467.38,-141 467.38,-147 461.38,-153 455.38,-153"/>
<text text-anchor="middle" x="429.88" y="-131.3" font-family="Times,serif" font-size="14.00" fill="#314b5f">ext&#45;pcre</text>
</g>
<!-- bartlett/sarif&#45;php&#45;sdk&#45;&gt;ext&#45;pcre -->
<g id="edge3" class="edge">
<title>bartlett/sarif&#45;php&#45;sdk&#45;&gt;ext&#45;pcre</title>
<path fill="none" stroke="#1a2833" d="M234.61,-135C285.22,-135 342.81,-135 382.06,-135"/>
<polygon fill="#1a2833" stroke="#1a2833" points="382.13,-138.5 392.13,-135 382.13,-131.5 382.13,-138.5"/>
<text text-anchor="middle" x="264.38" y="-138" font-family="Times,serif" font-size="10.00" fill="#767676">*</text>
</g>
<!-- ext&#45;spl -->
<g id="node5" class="node">
<title>ext&#45;spl</title>
<path fill="#eeeeee" stroke="black" d="M450.38,-207C450.38,-207 409.38,-207 409.38,-207 403.38,-207 397.38,-201 397.38,-195 397.38,-195 397.38,-183 397.38,-183 397.38,-177 403.38,-171 409.38,-171 409.38,-171 450.38,-171 450.38,-171 456.38,-171 462.38,-177 462.38,-183 462.38,-183 462.38,-195 462.38,-195 462.38,-201 456.38,-207 450.38,-207"/>
<text text-anchor="middle" x="429.88" y="-185.3" font-family="Times,serif" font-size="14.00" fill="#314b5f">ext&#45;spl</text>
</g>
<!-- bartlett/sarif&#45;php&#45;sdk&#45;&gt;ext&#45;spl -->
<g id="edge4" class="edge">
<title>bartlett/sarif&#45;php&#45;sdk&#45;&gt;ext&#45;spl</title>
<path fill="none" stroke="#1a2833" d="M199.85,-148.14C258.7,-158.64 339.06,-172.98 387.28,-181.58"/>
<polygon fill="#1a2833" stroke="#1a2833" points="386.89,-185.06 397.35,-183.38 388.12,-178.17 386.89,-185.06"/>
<text text-anchor="middle" x="264.38" y="-163" font-family="Times,serif" font-size="10.00" fill="#767676">*</text>
</g>
<!-- bamarni/composer&#45;bin&#45;plugin -->
<g id="node6" class="node">
<title>bamarni/composer&#45;bin&#45;plugin</title>
<path fill="#eeeeee" stroke="black" d="M553.38,-261C553.38,-261 306.38,-261 306.38,-261 300.38,-261 294.38,-255 294.38,-249 294.38,-249 294.38,-237 294.38,-237 294.38,-231 300.38,-225 306.38,-225 306.38,-225 553.38,-225 553.38,-225 559.38,-225 565.38,-231 565.38,-237 565.38,-237 565.38,-249 565.38,-249 565.38,-255 559.38,-261 553.38,-261"/>
<text text-anchor="middle" x="429.88" y="-239.3" font-family="Times,serif" font-size="14.00" fill="#314b5f">bamarni/composer&#45;bin&#45;plugin: 1.9.1</text>
</g>
<!-- bartlett/sarif&#45;php&#45;sdk&#45;&gt;bamarni/composer&#45;bin&#45;plugin -->
<g id="edge7" class="edge">
<title>bartlett/sarif&#45;php&#45;sdk&#45;&gt;bamarni/composer&#45;bin&#45;plugin</title>
<path fill="none" stroke="#1a2833" stroke-dasharray="5,2" d="M156.22,-152.32C189.13,-170.61 243.99,-199.11 294.38,-216 301.21,-218.29 308.31,-220.42 315.51,-222.38"/>
<polygon fill="#1a2833" stroke="#1a2833" points="314.82,-225.82 325.38,-224.97 316.59,-219.05 314.82,-225.82"/>
<text text-anchor="middle" x="264.38" y="-212" font-family="Times,serif" font-size="10.00" fill="#767676">^1.8</text>
</g>
<!-- bamarni/composer&#45;bin&#45;plugin&#45;&gt;php -->
<g id="edge6" class="edge">
<title>bamarni/composer&#45;bin&#45;plugin&#45;&gt;php</title>
<path fill="none" stroke="#1a2833" d="M537.13,-224.98C546.8,-222.35 556.34,-219.37 565.38,-216 620.58,-195.42 678.86,-159.64 714.56,-135.89"/>
<polygon fill="#1a2833" stroke="#1a2833" points="716.79,-138.61 723.13,-130.12 712.88,-132.8 716.79,-138.61"/>
<text text-anchor="middle" x="617.38" y="-210" font-family="Times,serif" font-size="10.00" fill="#767676">^7.2.5 || ^8.0</text>
</g>
<!-- composer&#45;plugin&#45;api -->
<g id="node7" class="node">
<title>composer&#45;plugin&#45;api</title>
<path fill="#eeeeee" stroke="black" d="M818.38,-261C818.38,-261 681.38,-261 681.38,-261 675.38,-261 669.38,-255 669.38,-249 669.38,-249 669.38,-237 669.38,-237 669.38,-231 675.38,-225 681.38,-225 681.38,-225 818.38,-225 818.38,-225 824.38,-225 830.38,-231 830.38,-237 830.38,-237 830.38,-249 830.38,-249 830.38,-255 824.38,-261 818.38,-261"/>
<text text-anchor="middle" x="749.88" y="-239.3" font-family="Times,serif" font-size="14.00" fill="#314b5f">composer&#45;plugin&#45;api</text>
</g>
<!-- bamarni/composer&#45;bin&#45;plugin&#45;&gt;composer&#45;plugin&#45;api -->
<g id="edge5" class="edge">
<title>bamarni/composer&#45;bin&#45;plugin&#45;&gt;composer&#45;plugin&#45;api</title>
<path fill="none" stroke="#1a2833" d="M565.74,-243C597.24,-243 630.03,-243 659.01,-243"/>
<polygon fill="#1a2833" stroke="#1a2833" points="659.1,-246.5 669.1,-243 659.1,-239.5 659.1,-246.5"/>
<text text-anchor="middle" x="617.38" y="-246" font-family="Times,serif" font-size="10.00" fill="#767676">^2.0</text>
</g>
</g>
</svg>
