<?xml version="1.0" encoding="UTF-8" standalone="no"?>
<!DOCTYPE svg PUBLIC "-//W3C//DTD SVG 1.1//EN"
 "http://www.w3.org/Graphics/SVG/1.1/DTD/svg11.dtd">
<!-- Generated by graphviz version 2.43.0 (0)
 -->
<!-- Title: %3 Pages: 1 -->
<svg width="402pt" height="675pt"
 viewBox="0.00 0.00 402.00 675.00" xmlns="http://www.w3.org/2000/svg" xmlns:xlink="http://www.w3.org/1999/xlink">
<g id="graph0" class="graph" transform="scale(1 1) rotate(0) translate(4 671)">
<title>%3</title>
<g id="clust1" class="cluster">
<title>cluster_0</title>
<polygon fill="BurlyWood" stroke="black" points="8,-235 8,-659 386,-659 386,-235 8,-235"/>
<text text-anchor="middle" x="197" y="-643.8" font-family="Times,serif" font-size="14.00">Bartlett\Sarif\Definition</text>
</g>
<g id="clust2" class="cluster">
<title>cluster_1</title>
<polygon fill="Bisque" stroke="black" points="71,-102 71,-227 323,-227 323,-102 71,-102"/>
<text text-anchor="middle" x="197" y="-211.8" font-family="Times,serif" font-size="14.00">Bartlett\Sarif\Internal</text>
</g>
<g id="clust3" class="cluster">
<title>cluster_2</title>
<polygon fill="transparent" stroke="black" points="126,-8 126,-94 268,-94 268,-8 126,-8"/>
<text text-anchor="middle" x="197" y="-78.8" font-family="Times,serif" font-size="14.00">0</text>
</g>
<!-- Bartlett\\Sarif\\Definition\\Artifact -->
<g id="node1" class="node">
<title>Bartlett\\Sarif\\Definition\\Artifact</title>
<polygon fill="#fefece" stroke="transparent" points="378,-628 16,-628 16,-243 378,-243 378,-628"/>
<polygon fill="#eeeeee" stroke="transparent" points="16,-605.5 16,-627.5 378,-627.5 378,-605.5 16,-605.5"/>
<polygon fill="none" stroke="black" points="16,-605.5 16,-627.5 378,-627.5 378,-605.5 16,-605.5"/>
<text text-anchor="start" x="180" y="-611.1" font-family="Verdana" font-weight="bold" font-size="8.00">Artifact</text>
<polygon fill="none" stroke="black" points="16,-430.5 16,-605.5 378,-605.5 378,-430.5 16,-430.5"/>
<text text-anchor="start" x="21" y="-594.1" font-family="Verdana" font-size="8.00"># description</text>
<text text-anchor="start" x="21" y="-581.1" font-family="Verdana" font-size="8.00"># location</text>
<text text-anchor="start" x="21" y="-568.1" font-family="Verdana" font-size="8.00"># artifactLocation</text>
<text text-anchor="start" x="21" y="-555.1" font-family="Verdana" font-size="8.00"># parentIndex</text>
<text text-anchor="start" x="21" y="-542.1" font-family="Verdana" font-size="8.00"># offset</text>
<text text-anchor="start" x="21" y="-529.1" font-family="Verdana" font-size="8.00"># length</text>
<text text-anchor="start" x="21" y="-516.1" font-family="Verdana" font-size="8.00"># roles : mixed</text>
<text text-anchor="start" x="21" y="-503.1" font-family="Verdana" font-size="8.00"># mimeType</text>
<text text-anchor="start" x="21" y="-490.1" font-family="Verdana" font-size="8.00"># contents</text>
<text text-anchor="start" x="21" y="-477.1" font-family="Verdana" font-size="8.00"># encoding</text>
<text text-anchor="start" x="21" y="-464.1" font-family="Verdana" font-size="8.00"># sourceLanguage</text>
<text text-anchor="start" x="21" y="-451.1" font-family="Verdana" font-size="8.00"># hashes : mixed</text>
<text text-anchor="start" x="21" y="-438.1" font-family="Verdana" font-size="8.00"># properties</text>
<polygon fill="none" stroke="black" points="16,-242.5 16,-430.5 378,-430.5 378,-242.5 16,-242.5"/>
<text text-anchor="start" x="21" y="-419.1" font-family="Verdana" font-size="8.00">+ __construct()</text>
<text text-anchor="start" x="21" y="-406.1" font-family="Verdana" font-size="8.00">+ setDescription(description : Bartlett\Sarif\Definition\Message) : void</text>
<text text-anchor="start" x="21" y="-393.1" font-family="Verdana" font-size="8.00">+ setLocation(location : Bartlett\Sarif\Definition\ArtifactLocation) : void</text>
<text text-anchor="start" x="21" y="-380.1" font-family="Verdana" font-size="8.00">+ setArtifactLocation(artifactLocation : Bartlett\Sarif\Definition\ArtifactLocation) : void</text>
<text text-anchor="start" x="21" y="-367.1" font-family="Verdana" font-size="8.00">+ setParentIndex(parentIndex : int = &#45;1) : void</text>
<text text-anchor="start" x="21" y="-354.1" font-family="Verdana" font-size="8.00">+ setOffset(offset : int) : void</text>
<text text-anchor="start" x="21" y="-341.1" font-family="Verdana" font-size="8.00">+ setLength(length : int = &#45;1) : void</text>
<text text-anchor="start" x="21" y="-328.1" font-family="Verdana" font-size="8.00">+ addRoles(roles : array) : void</text>
<text text-anchor="start" x="21" y="-315.1" font-family="Verdana" font-size="8.00">+ setMimeType(mimeType : string) : void</text>
<text text-anchor="start" x="21" y="-302.1" font-family="Verdana" font-size="8.00">+ setContents(contents : Bartlett\Sarif\Definition\ArtifactContent) : void</text>
<text text-anchor="start" x="21" y="-289.1" font-family="Verdana" font-size="8.00">+ setEncoding(encoding : string) : void</text>
<text text-anchor="start" x="21" y="-276.1" font-family="Verdana" font-size="8.00">+ setSourceLanguage(sourceLanguage : string) : void</text>
<text text-anchor="start" x="21" y="-263.1" font-family="Verdana" font-size="8.00">+ addHashes(hashes : array) : void</text>
<text text-anchor="start" x="21" y="-250.1" font-family="Verdana" font-size="8.00">+ setProperties(propertyBag : Bartlett\Sarif\Definition\PropertyBag) : void</text>
</g>
<!-- Bartlett\\Sarif\\Internal\\JsonSerializable -->
<g id="node2" class="node">
<title>Bartlett\\Sarif\\Internal\\JsonSerializable</title>
<polygon fill="#fefece" stroke="transparent" points="315,-196 79,-196 79,-110 315,-110 315,-196"/>
<polygon fill="#eeeeee" stroke="transparent" points="79,-174 79,-196 315,-196 315,-174 79,-174"/>
<polygon fill="none" stroke="black" points="79,-174 79,-196 315,-196 315,-174 79,-174"/>
<text text-anchor="start" x="173" y="-187.6" font-family="Verdana" font-weight="bold" font-size="8.00">«abstract»</text>
<text text-anchor="start" x="160.5" y="-179.6" font-family="Verdana" font-weight="bold" font-size="8.00">JsonSerializable</text>
<polygon fill="none" stroke="black" points="79,-142 79,-174 315,-174 315,-142 79,-142"/>
<text text-anchor="start" x="84" y="-162.6" font-family="Verdana" font-size="8.00">– required : mixed</text>
<text text-anchor="start" x="84" y="-149.6" font-family="Verdana" font-size="8.00">– optional : mixed</text>
<polygon fill="none" stroke="black" points="79,-110 79,-142 315,-142 315,-110 79,-110"/>
<text text-anchor="start" x="84" y="-130.6" font-family="Verdana" font-size="8.00">+ __construct(required : array = [], optional : array = [])</text>
<text text-anchor="start" x="84" y="-117.6" font-family="Verdana" font-size="8.00">+ jsonSerialize() : array</text>
</g>
<!-- Bartlett\\Sarif\\Definition\\Artifact&#45;&gt;Bartlett\\Sarif\\Internal\\JsonSerializable -->
<g id="edge2" class="edge">
<title>Bartlett\\Sarif\\Definition\\Artifact&#45;&gt;Bartlett\\Sarif\\Internal\\JsonSerializable</title>
<path fill="none" stroke="black" d="M197,-242.75C197,-229.76 197,-217.46 197,-206.38"/>
<polygon fill="none" stroke="black" points="200.5,-206.15 197,-196.15 193.5,-206.15 200.5,-206.15"/>
</g>
<!-- JsonSerializable -->
<g id="node3" class="node">
<title>JsonSerializable</title>
<polygon fill="#fefece" stroke="transparent" points="259.5,-63 134.5,-63 134.5,-16 259.5,-16 259.5,-63"/>
<polygon fill="#eeeeee" stroke="transparent" points="135,-40.5 135,-62.5 260,-62.5 260,-40.5 135,-40.5"/>
<polygon fill="none" stroke="black" points="135,-40.5 135,-62.5 260,-62.5 260,-40.5 135,-40.5"/>
<text text-anchor="start" x="171.5" y="-54.1" font-family="Verdana" font-weight="bold" font-size="8.00">«interface»</text>
<text text-anchor="start" x="161" y="-46.1" font-family="Verdana" font-weight="bold" font-size="8.00">JsonSerializable</text>
<polygon fill="none" stroke="black" points="135,-34.5 135,-40.5 260,-40.5 260,-34.5 135,-34.5"/>
<polygon fill="none" stroke="black" points="135,-15.5 135,-34.5 260,-34.5 260,-15.5 135,-15.5"/>
<text text-anchor="start" x="140" y="-23.1" font-family="Verdana" font-size="8.00">+ «abstract» jsonSerialize()</text>
</g>
<!-- Bartlett\\Sarif\\Internal\\JsonSerializable&#45;&gt;JsonSerializable -->
<g id="edge1" class="edge">
<title>Bartlett\\Sarif\\Internal\\JsonSerializable&#45;&gt;JsonSerializable</title>
<path fill="none" stroke="black" stroke-dasharray="5,2" d="M197,-109.85C197,-97.66 197,-84.56 197,-73.06"/>
<polygon fill="none" stroke="black" points="200.5,-73.02 197,-63.02 193.5,-73.02 200.5,-73.02"/>
</g>
</g>
</svg>
