<?xml version="1.0" encoding="UTF-8" standalone="no"?>
<!DOCTYPE svg PUBLIC "-//W3C//DTD SVG 1.1//EN"
 "http://www.w3.org/Graphics/SVG/1.1/DTD/svg11.dtd">
<!-- Generated by graphviz version 2.43.0 (0)
 -->
<!-- Title: %3 Pages: 1 -->
<svg width="440pt" height="883pt"
 viewBox="0.00 0.00 440.00 883.00" xmlns="http://www.w3.org/2000/svg" xmlns:xlink="http://www.w3.org/1999/xlink">
<g id="graph0" class="graph" transform="scale(1 1) rotate(0) translate(4 879)">
<title>%3</title>
<g id="clust1" class="cluster">
<title>cluster_0</title>
<polygon fill="BurlyWood" stroke="black" points="8,-235 8,-867 424,-867 424,-235 8,-235"/>
<text text-anchor="middle" x="216" y="-851.8" font-family="Times,serif" font-size="14.00">Bartlett\Sarif\Definition</text>
</g>
<g id="clust2" class="cluster">
<title>cluster_1</title>
<polygon fill="Bisque" stroke="black" points="90,-102 90,-227 342,-227 342,-102 90,-102"/>
<text text-anchor="middle" x="216" y="-211.8" font-family="Times,serif" font-size="14.00">Bartlett\Sarif\Internal</text>
</g>
<g id="clust3" class="cluster">
<title>cluster_2</title>
<polygon fill="transparent" stroke="black" points="145,-8 145,-94 287,-94 287,-8 145,-8"/>
<text text-anchor="middle" x="216" y="-78.8" font-family="Times,serif" font-size="14.00">0</text>
</g>
<!-- Bartlett\\Sarif\\Definition\\ExternalProperties -->
<g id="node1" class="node">
<title>Bartlett\\Sarif\\Definition\\ExternalProperties</title>
<polygon fill="#fefece" stroke="transparent" points="416.5,-836 15.5,-836 15.5,-243 416.5,-243 416.5,-836"/>
<polygon fill="#eeeeee" stroke="transparent" points="16,-813.5 16,-835.5 417,-835.5 417,-813.5 16,-813.5"/>
<polygon fill="none" stroke="black" points="16,-813.5 16,-835.5 417,-835.5 417,-813.5 16,-813.5"/>
<text text-anchor="start" x="174" y="-819.1" font-family="Verdana" font-weight="bold" font-size="8.00">ExternalProperties</text>
<polygon fill="none" stroke="black" points="16,-534.5 16,-813.5 417,-813.5 417,-534.5 16,-534.5"/>
<text text-anchor="start" x="21" y="-802.1" font-family="Verdana" font-size="8.00"># schema</text>
<text text-anchor="start" x="21" y="-789.1" font-family="Verdana" font-size="8.00"># version</text>
<text text-anchor="start" x="21" y="-776.1" font-family="Verdana" font-size="8.00"># guid</text>
<text text-anchor="start" x="21" y="-763.1" font-family="Verdana" font-size="8.00"># runGuid</text>
<text text-anchor="start" x="21" y="-750.1" font-family="Verdana" font-size="8.00"># conversion</text>
<text text-anchor="start" x="21" y="-737.1" font-family="Verdana" font-size="8.00"># graphs : mixed</text>
<text text-anchor="start" x="21" y="-724.1" font-family="Verdana" font-size="8.00"># externalizedProperties</text>
<text text-anchor="start" x="21" y="-711.1" font-family="Verdana" font-size="8.00"># artifacts : mixed</text>
<text text-anchor="start" x="21" y="-698.1" font-family="Verdana" font-size="8.00"># invocations : mixed</text>
<text text-anchor="start" x="21" y="-685.1" font-family="Verdana" font-size="8.00"># logicalLocations : mixed</text>
<text text-anchor="start" x="21" y="-672.1" font-family="Verdana" font-size="8.00"># locations : mixed</text>
<text text-anchor="start" x="21" y="-659.1" font-family="Verdana" font-size="8.00"># results : mixed</text>
<text text-anchor="start" x="21" y="-646.1" font-family="Verdana" font-size="8.00"># taxonomies : mixed</text>
<text text-anchor="start" x="21" y="-633.1" font-family="Verdana" font-size="8.00"># driver</text>
<text text-anchor="start" x="21" y="-620.1" font-family="Verdana" font-size="8.00"># extensions : mixed</text>
<text text-anchor="start" x="21" y="-607.1" font-family="Verdana" font-size="8.00"># policies : mixed</text>
<text text-anchor="start" x="21" y="-594.1" font-family="Verdana" font-size="8.00"># translations : mixed</text>
<text text-anchor="start" x="21" y="-581.1" font-family="Verdana" font-size="8.00"># addresses : mixed</text>
<text text-anchor="start" x="21" y="-568.1" font-family="Verdana" font-size="8.00"># webRequests : mixed</text>
<text text-anchor="start" x="21" y="-555.1" font-family="Verdana" font-size="8.00"># webResponses : mixed</text>
<text text-anchor="start" x="21" y="-542.1" font-family="Verdana" font-size="8.00"># properties</text>
<polygon fill="none" stroke="black" points="16,-242.5 16,-534.5 417,-534.5 417,-242.5 16,-242.5"/>
<text text-anchor="start" x="21" y="-523.1" font-family="Verdana" font-size="8.00">+ __construct()</text>
<text text-anchor="start" x="21" y="-510.1" font-family="Verdana" font-size="8.00">+ setSchema(schema : string) : void</text>
<text text-anchor="start" x="21" y="-497.1" font-family="Verdana" font-size="8.00">+ setVersion(version : string) : void</text>
<text text-anchor="start" x="21" y="-484.1" font-family="Verdana" font-size="8.00">+ setGuid(guid : string) : void</text>
<text text-anchor="start" x="21" y="-471.1" font-family="Verdana" font-size="8.00">+ setRunGuid(runGuid : string) : void</text>
<text text-anchor="start" x="21" y="-458.1" font-family="Verdana" font-size="8.00">+ setConversion(conversion : Bartlett\Sarif\Definition\Conversion) : void</text>
<text text-anchor="start" x="21" y="-445.1" font-family="Verdana" font-size="8.00">+ addGraphs(graphs : array) : void</text>
<text text-anchor="start" x="21" y="-432.1" font-family="Verdana" font-size="8.00">+ setExternalizedProperties(externalizedProperties : Bartlett\Sarif\Definition\PropertyBag) : void</text>
<text text-anchor="start" x="21" y="-419.1" font-family="Verdana" font-size="8.00">+ addArtifacts(artifacts : array) : void</text>
<text text-anchor="start" x="21" y="-406.1" font-family="Verdana" font-size="8.00">+ addInvocations(invocations : array) : void</text>
<text text-anchor="start" x="21" y="-393.1" font-family="Verdana" font-size="8.00">+ addLogicalLocations(logicalLocations : array) : void</text>
<text text-anchor="start" x="21" y="-380.1" font-family="Verdana" font-size="8.00">+ addLocations(locations : array) : void</text>
<text text-anchor="start" x="21" y="-367.1" font-family="Verdana" font-size="8.00">+ addResults(results : array) : void</text>
<text text-anchor="start" x="21" y="-354.1" font-family="Verdana" font-size="8.00">+ addTaxonomies(taxonomies : array) : void</text>
<text text-anchor="start" x="21" y="-341.1" font-family="Verdana" font-size="8.00">+ setDriver(driver : Bartlett\Sarif\Definition\ToolComponent) : void</text>
<text text-anchor="start" x="21" y="-328.1" font-family="Verdana" font-size="8.00">+ addExtensions(extensions : array) : void</text>
<text text-anchor="start" x="21" y="-315.1" font-family="Verdana" font-size="8.00">+ setPolicies(policies : array) : void</text>
<text text-anchor="start" x="21" y="-302.1" font-family="Verdana" font-size="8.00">+ addTranslations(translations : array) : void</text>
<text text-anchor="start" x="21" y="-289.1" font-family="Verdana" font-size="8.00">+ addAddresses(addresses : array) : void</text>
<text text-anchor="start" x="21" y="-276.1" font-family="Verdana" font-size="8.00">+ addWebRequests(webRequests : array) : void</text>
<text text-anchor="start" x="21" y="-263.1" font-family="Verdana" font-size="8.00">+ addWebResponses(webResponses : array) : void</text>
<text text-anchor="start" x="21" y="-250.1" font-family="Verdana" font-size="8.00">+ setProperties(propertyBag : Bartlett\Sarif\Definition\PropertyBag) : void</text>
</g>
<!-- Bartlett\\Sarif\\Internal\\JsonSerializable -->
<g id="node2" class="node">
<title>Bartlett\\Sarif\\Internal\\JsonSerializable</title>
<polygon fill="#fefece" stroke="transparent" points="334,-196 98,-196 98,-110 334,-110 334,-196"/>
<polygon fill="#eeeeee" stroke="transparent" points="98,-174 98,-196 334,-196 334,-174 98,-174"/>
<polygon fill="none" stroke="black" points="98,-174 98,-196 334,-196 334,-174 98,-174"/>
<text text-anchor="start" x="192" y="-187.6" font-family="Verdana" font-weight="bold" font-size="8.00">«abstract»</text>
<text text-anchor="start" x="179.5" y="-179.6" font-family="Verdana" font-weight="bold" font-size="8.00">JsonSerializable</text>
<polygon fill="none" stroke="black" points="98,-142 98,-174 334,-174 334,-142 98,-142"/>
<text text-anchor="start" x="103" y="-162.6" font-family="Verdana" font-size="8.00">– required : mixed</text>
<text text-anchor="start" x="103" y="-149.6" font-family="Verdana" font-size="8.00">– optional : mixed</text>
<polygon fill="none" stroke="black" points="98,-110 98,-142 334,-142 334,-110 98,-110"/>
<text text-anchor="start" x="103" y="-130.6" font-family="Verdana" font-size="8.00">+ __construct(required : array = [], optional : array = [])</text>
<text text-anchor="start" x="103" y="-117.6" font-family="Verdana" font-size="8.00">+ jsonSerialize() : array</text>
</g>
<!-- Bartlett\\Sarif\\Definition\\ExternalProperties&#45;&gt;Bartlett\\Sarif\\Internal\\JsonSerializable -->
<g id="edge2" class="edge">
<title>Bartlett\\Sarif\\Definition\\ExternalProperties&#45;&gt;Bartlett\\Sarif\\Internal\\JsonSerializable</title>
<path fill="none" stroke="black" d="M216,-242.69C216,-229.46 216,-217.16 216,-206.19"/>
<polygon fill="none" stroke="black" points="219.5,-206.1 216,-196.1 212.5,-206.1 219.5,-206.1"/>
</g>
<!-- JsonSerializable -->
<g id="node3" class="node">
<title>JsonSerializable</title>
<polygon fill="#fefece" stroke="transparent" points="278.5,-63 153.5,-63 153.5,-16 278.5,-16 278.5,-63"/>
<polygon fill="#eeeeee" stroke="transparent" points="154,-40.5 154,-62.5 279,-62.5 279,-40.5 154,-40.5"/>
<polygon fill="none" stroke="black" points="154,-40.5 154,-62.5 279,-62.5 279,-40.5 154,-40.5"/>
<text text-anchor="start" x="190.5" y="-54.1" font-family="Verdana" font-weight="bold" font-size="8.00">«interface»</text>
<text text-anchor="start" x="180" y="-46.1" font-family="Verdana" font-weight="bold" font-size="8.00">JsonSerializable</text>
<polygon fill="none" stroke="black" points="154,-34.5 154,-40.5 279,-40.5 279,-34.5 154,-34.5"/>
<polygon fill="none" stroke="black" points="154,-15.5 154,-34.5 279,-34.5 279,-15.5 154,-15.5"/>
<text text-anchor="start" x="159" y="-23.1" font-family="Verdana" font-size="8.00">+ «abstract» jsonSerialize()</text>
</g>
<!-- Bartlett\\Sarif\\Internal\\JsonSerializable&#45;&gt;JsonSerializable -->
<g id="edge1" class="edge">
<title>Bartlett\\Sarif\\Internal\\JsonSerializable&#45;&gt;JsonSerializable</title>
<path fill="none" stroke="black" stroke-dasharray="5,2" d="M216,-109.85C216,-97.66 216,-84.56 216,-73.06"/>
<polygon fill="none" stroke="black" points="219.5,-73.02 216,-63.02 212.5,-73.02 219.5,-73.02"/>
</g>
</g>
</svg>
