<?xml version="1.0" encoding="UTF-8" standalone="no"?>
<!DOCTYPE svg PUBLIC "-//W3C//DTD SVG 1.1//EN"
 "http://www.w3.org/Graphics/SVG/1.1/DTD/svg11.dtd">
<!-- Generated by graphviz version 2.43.0 (0)
 -->
<!-- Title: %3 Pages: 1 -->
<svg width="514pt" height="779pt"
 viewBox="0.00 0.00 514.00 779.00" xmlns="http://www.w3.org/2000/svg" xmlns:xlink="http://www.w3.org/1999/xlink">
<g id="graph0" class="graph" transform="scale(1 1) rotate(0) translate(4 775)">
<title>%3</title>
<g id="clust1" class="cluster">
<title>cluster_0</title>
<polygon fill="BurlyWood" stroke="black" points="8,-235 8,-763 498,-763 498,-235 8,-235"/>
<text text-anchor="middle" x="253" y="-747.8" font-family="Times,serif" font-size="14.00">Bartlett\Sarif\Definition</text>
</g>
<g id="clust2" class="cluster">
<title>cluster_1</title>
<polygon fill="Bisque" stroke="black" points="127,-102 127,-227 379,-227 379,-102 127,-102"/>
<text text-anchor="middle" x="253" y="-211.8" font-family="Times,serif" font-size="14.00">Bartlett\Sarif\Internal</text>
</g>
<g id="clust3" class="cluster">
<title>cluster_2</title>
<polygon fill="transparent" stroke="black" points="182,-8 182,-94 324,-94 324,-8 182,-8"/>
<text text-anchor="middle" x="253" y="-78.8" font-family="Times,serif" font-size="14.00">0</text>
</g>
<!-- Bartlett\\Sarif\\Definition\\ExternalPropertyFileReferences -->
<g id="node1" class="node">
<title>Bartlett\\Sarif\\Definition\\ExternalPropertyFileReferences</title>
<polygon fill="#fefece" stroke="transparent" points="490.5,-732 15.5,-732 15.5,-243 490.5,-243 490.5,-732"/>
<polygon fill="#eeeeee" stroke="transparent" points="16,-709.5 16,-731.5 491,-731.5 491,-709.5 16,-709.5"/>
<polygon fill="none" stroke="black" points="16,-709.5 16,-731.5 491,-731.5 491,-709.5 16,-709.5"/>
<text text-anchor="start" x="182" y="-715.1" font-family="Verdana" font-weight="bold" font-size="8.00">ExternalPropertyFileReferences</text>
<polygon fill="none" stroke="black" points="16,-482.5 16,-709.5 491,-709.5 491,-482.5 16,-482.5"/>
<text text-anchor="start" x="21" y="-698.1" font-family="Verdana" font-size="8.00"># conversion</text>
<text text-anchor="start" x="21" y="-685.1" font-family="Verdana" font-size="8.00"># graphs : mixed</text>
<text text-anchor="start" x="21" y="-672.1" font-family="Verdana" font-size="8.00"># externalizedProperties</text>
<text text-anchor="start" x="21" y="-659.1" font-family="Verdana" font-size="8.00"># artifacts</text>
<text text-anchor="start" x="21" y="-646.1" font-family="Verdana" font-size="8.00"># invocations : mixed</text>
<text text-anchor="start" x="21" y="-633.1" font-family="Verdana" font-size="8.00"># logicalLocations : mixed</text>
<text text-anchor="start" x="21" y="-620.1" font-family="Verdana" font-size="8.00"># threadFlowLocations : mixed</text>
<text text-anchor="start" x="21" y="-607.1" font-family="Verdana" font-size="8.00"># results : mixed</text>
<text text-anchor="start" x="21" y="-594.1" font-family="Verdana" font-size="8.00"># taxonomies : mixed</text>
<text text-anchor="start" x="21" y="-581.1" font-family="Verdana" font-size="8.00"># addresses : mixed</text>
<text text-anchor="start" x="21" y="-568.1" font-family="Verdana" font-size="8.00"># driver</text>
<text text-anchor="start" x="21" y="-555.1" font-family="Verdana" font-size="8.00"># extensions : mixed</text>
<text text-anchor="start" x="21" y="-542.1" font-family="Verdana" font-size="8.00"># policies : mixed</text>
<text text-anchor="start" x="21" y="-529.1" font-family="Verdana" font-size="8.00"># translations : mixed</text>
<text text-anchor="start" x="21" y="-516.1" font-family="Verdana" font-size="8.00"># webRequests : mixed</text>
<text text-anchor="start" x="21" y="-503.1" font-family="Verdana" font-size="8.00"># webResponses : mixed</text>
<text text-anchor="start" x="21" y="-490.1" font-family="Verdana" font-size="8.00"># properties</text>
<polygon fill="none" stroke="black" points="16,-242.5 16,-482.5 491,-482.5 491,-242.5 16,-242.5"/>
<text text-anchor="start" x="21" y="-471.1" font-family="Verdana" font-size="8.00">+ __construct()</text>
<text text-anchor="start" x="21" y="-458.1" font-family="Verdana" font-size="8.00">+ setConversion(conversion : Bartlett\Sarif\Definition\ExternalPropertyFileReference) : void</text>
<text text-anchor="start" x="21" y="-445.1" font-family="Verdana" font-size="8.00">+ addGraphs(graphs : array) : void</text>
<text text-anchor="start" x="21" y="-432.1" font-family="Verdana" font-size="8.00">+ setExternalizedProperties(externalizedProperties : Bartlett\Sarif\Definition\ExternalPropertyFileReference) : void</text>
<text text-anchor="start" x="21" y="-419.1" font-family="Verdana" font-size="8.00">+ setArtifacts(artifacts : Bartlett\Sarif\Definition\ExternalPropertyFileReference) : void</text>
<text text-anchor="start" x="21" y="-406.1" font-family="Verdana" font-size="8.00">+ addInvocations(invocations : array) : void</text>
<text text-anchor="start" x="21" y="-393.1" font-family="Verdana" font-size="8.00">+ addLogicalLocations(logicalLocations : array) : void</text>
<text text-anchor="start" x="21" y="-380.1" font-family="Verdana" font-size="8.00">+ addThreadFlowLocations(threadFlowLocations : array) : void</text>
<text text-anchor="start" x="21" y="-367.1" font-family="Verdana" font-size="8.00">+ addResults(results : array) : void</text>
<text text-anchor="start" x="21" y="-354.1" font-family="Verdana" font-size="8.00">+ addTaxonomies(taxonomies : array) : void</text>
<text text-anchor="start" x="21" y="-341.1" font-family="Verdana" font-size="8.00">+ addAddresses(addresses : array) : void</text>
<text text-anchor="start" x="21" y="-328.1" font-family="Verdana" font-size="8.00">+ setDriver(driver : Bartlett\Sarif\Definition\ExternalPropertyFileReference) : void</text>
<text text-anchor="start" x="21" y="-315.1" font-family="Verdana" font-size="8.00">+ addExtensions(extensions : array) : void</text>
<text text-anchor="start" x="21" y="-302.1" font-family="Verdana" font-size="8.00">+ addPolicies(policies : array) : void</text>
<text text-anchor="start" x="21" y="-289.1" font-family="Verdana" font-size="8.00">+ addTranslations(translations : array) : void</text>
<text text-anchor="start" x="21" y="-276.1" font-family="Verdana" font-size="8.00">+ addWebRequests(webRequests : array) : void</text>
<text text-anchor="start" x="21" y="-263.1" font-family="Verdana" font-size="8.00">+ addWebResponses(webResponses : array) : void</text>
<text text-anchor="start" x="21" y="-250.1" font-family="Verdana" font-size="8.00">+ setProperties(propertyBag : Bartlett\Sarif\Definition\PropertyBag) : void</text>
</g>
<!-- Bartlett\\Sarif\\Internal\\JsonSerializable -->
<g id="node2" class="node">
<title>Bartlett\\Sarif\\Internal\\JsonSerializable</title>
<polygon fill="#fefece" stroke="transparent" points="371,-196 135,-196 135,-110 371,-110 371,-196"/>
<polygon fill="#eeeeee" stroke="transparent" points="135,-174 135,-196 371,-196 371,-174 135,-174"/>
<polygon fill="none" stroke="black" points="135,-174 135,-196 371,-196 371,-174 135,-174"/>
<text text-anchor="start" x="229" y="-187.6" font-family="Verdana" font-weight="bold" font-size="8.00">«abstract»</text>
<text text-anchor="start" x="216.5" y="-179.6" font-family="Verdana" font-weight="bold" font-size="8.00">JsonSerializable</text>
<polygon fill="none" stroke="black" points="135,-142 135,-174 371,-174 371,-142 135,-142"/>
<text text-anchor="start" x="140" y="-162.6" font-family="Verdana" font-size="8.00">– required : mixed</text>
<text text-anchor="start" x="140" y="-149.6" font-family="Verdana" font-size="8.00">– optional : mixed</text>
<polygon fill="none" stroke="black" points="135,-110 135,-142 371,-142 371,-110 135,-110"/>
<text text-anchor="start" x="140" y="-130.6" font-family="Verdana" font-size="8.00">+ __construct(required : array = [], optional : array = [])</text>
<text text-anchor="start" x="140" y="-117.6" font-family="Verdana" font-size="8.00">+ jsonSerialize() : array</text>
</g>
<!-- Bartlett\\Sarif\\Definition\\ExternalPropertyFileReferences&#45;&gt;Bartlett\\Sarif\\Internal\\JsonSerializable -->
<g id="edge2" class="edge">
<title>Bartlett\\Sarif\\Definition\\ExternalPropertyFileReferences&#45;&gt;Bartlett\\Sarif\\Internal\\JsonSerializable</title>
<path fill="none" stroke="black" d="M253,-242.67C253,-229.52 253,-217.2 253,-206.18"/>
<polygon fill="none" stroke="black" points="256.5,-206.02 253,-196.02 249.5,-206.02 256.5,-206.02"/>
</g>
<!-- JsonSerializable -->
<g id="node3" class="node">
<title>JsonSerializable</title>
<polygon fill="#fefece" stroke="transparent" points="315.5,-63 190.5,-63 190.5,-16 315.5,-16 315.5,-63"/>
<polygon fill="#eeeeee" stroke="transparent" points="191,-40.5 191,-62.5 316,-62.5 316,-40.5 191,-40.5"/>
<polygon fill="none" stroke="black" points="191,-40.5 191,-62.5 316,-62.5 316,-40.5 191,-40.5"/>
<text text-anchor="start" x="227.5" y="-54.1" font-family="Verdana" font-weight="bold" font-size="8.00">«interface»</text>
<text text-anchor="start" x="217" y="-46.1" font-family="Verdana" font-weight="bold" font-size="8.00">JsonSerializable</text>
<polygon fill="none" stroke="black" points="191,-34.5 191,-40.5 316,-40.5 316,-34.5 191,-34.5"/>
<polygon fill="none" stroke="black" points="191,-15.5 191,-34.5 316,-34.5 316,-15.5 191,-15.5"/>
<text text-anchor="start" x="196" y="-23.1" font-family="Verdana" font-size="8.00">+ «abstract» jsonSerialize()</text>
</g>
<!-- Bartlett\\Sarif\\Internal\\JsonSerializable&#45;&gt;JsonSerializable -->
<g id="edge1" class="edge">
<title>Bartlett\\Sarif\\Internal\\JsonSerializable&#45;&gt;JsonSerializable</title>
<path fill="none" stroke="black" stroke-dasharray="5,2" d="M253,-109.85C253,-97.66 253,-84.56 253,-73.06"/>
<polygon fill="none" stroke="black" points="256.5,-73.02 253,-63.02 249.5,-73.02 256.5,-73.02"/>
</g>
</g>
</svg>
