<?xml version="1.0" encoding="UTF-8" standalone="no"?>
<!DOCTYPE svg PUBLIC "-//W3C//DTD SVG 1.1//EN"
 "http://www.w3.org/Graphics/SVG/1.1/DTD/svg11.dtd">
<!-- Generated by graphviz version 2.43.0 (0)
 -->
<!-- Title: %3 Pages: 1 -->
<svg width="391pt" height="493pt"
 viewBox="0.00 0.00 391.00 493.00" xmlns="http://www.w3.org/2000/svg" xmlns:xlink="http://www.w3.org/1999/xlink">
<g id="graph0" class="graph" transform="scale(1 1) rotate(0) translate(4 489)">
<title>%3</title>
<g id="clust1" class="cluster">
<title>cluster_0</title>
<polygon fill="BurlyWood" stroke="black" points="8,-235 8,-477 332,-477 332,-235 8,-235"/>
<text text-anchor="middle" x="170" y="-461.8" font-family="Times,serif" font-size="14.00">Bartlett\Sarif</text>
</g>
<g id="clust2" class="cluster">
<title>cluster_1</title>
<polygon fill="Bisque" stroke="black" points="19,-102 19,-227 271,-227 271,-102 19,-102"/>
<text text-anchor="middle" x="145" y="-211.8" font-family="Times,serif" font-size="14.00">Bartlett\Sarif\Internal</text>
</g>
<g id="clust3" class="cluster">
<title>cluster_2</title>
<polygon fill="transparent" stroke="black" points="72,-8 72,-94 375,-94 375,-8 72,-8"/>
<text text-anchor="middle" x="223.5" y="-78.8" font-family="Times,serif" font-size="14.00">0</text>
</g>
<!-- Bartlett\\Sarif\\SarifLog -->
<g id="node1" class="node">
<title>Bartlett\\Sarif\\SarifLog</title>
<polygon fill="#fefece" stroke="transparent" points="324.5,-446 15.5,-446 15.5,-243 324.5,-243 324.5,-446"/>
<polygon fill="#eeeeee" stroke="transparent" points="16,-423.5 16,-445.5 325,-445.5 325,-423.5 16,-423.5"/>
<polygon fill="none" stroke="black" points="16,-423.5 16,-445.5 325,-445.5 325,-423.5 16,-423.5"/>
<text text-anchor="start" x="151" y="-429.1" font-family="Verdana" font-weight="bold" font-size="8.00">SarifLog</text>
<polygon fill="none" stroke="black" points="16,-352.5 16,-423.5 325,-423.5 325,-352.5 16,-352.5"/>
<text text-anchor="start" x="21" y="-412.1" font-family="Verdana" font-size="8.00"># schema</text>
<text text-anchor="start" x="21" y="-399.1" font-family="Verdana" font-size="8.00"># version</text>
<text text-anchor="start" x="21" y="-386.1" font-family="Verdana" font-size="8.00"># runs : mixed</text>
<text text-anchor="start" x="21" y="-373.1" font-family="Verdana" font-size="8.00"># inlineExternalProperties : mixed</text>
<text text-anchor="start" x="21" y="-360.1" font-family="Verdana" font-size="8.00"># properties</text>
<polygon fill="none" stroke="black" points="16,-242.5 16,-352.5 325,-352.5 325,-242.5 16,-242.5"/>
<text text-anchor="start" x="21" y="-341.1" font-family="Verdana" font-size="8.00">+ __construct(runs : array = [], version : string = &#39;2\.1\.0&#39;)</text>
<text text-anchor="start" x="21" y="-328.1" font-family="Verdana" font-size="8.00">+ __toString() : string</text>
<text text-anchor="start" x="21" y="-315.1" font-family="Verdana" font-size="8.00">+ jsonSerialize() : array</text>
<text text-anchor="start" x="21" y="-302.1" font-family="Verdana" font-size="8.00">+ setSchema(schema : string) : void</text>
<text text-anchor="start" x="21" y="-289.1" font-family="Verdana" font-size="8.00">+ setVersion(version : string) : void</text>
<text text-anchor="start" x="21" y="-276.1" font-family="Verdana" font-size="8.00">+ addRun(run : Bartlett\Sarif\Definition\Run) : void</text>
<text text-anchor="start" x="21" y="-263.1" font-family="Verdana" font-size="8.00">+ addInlineExternalProperties(items : array) : void</text>
<text text-anchor="start" x="21" y="-250.1" font-family="Verdana" font-size="8.00">+ setProperties(propertyBag : Bartlett\Sarif\Definition\PropertyBag) : void</text>
</g>
<!-- Bartlett\\Sarif\\Internal\\JsonSerializable -->
<g id="node2" class="node">
<title>Bartlett\\Sarif\\Internal\\JsonSerializable</title>
<polygon fill="#fefece" stroke="transparent" points="263,-196 27,-196 27,-110 263,-110 263,-196"/>
<polygon fill="#eeeeee" stroke="transparent" points="27,-174 27,-196 263,-196 263,-174 27,-174"/>
<polygon fill="none" stroke="black" points="27,-174 27,-196 263,-196 263,-174 27,-174"/>
<text text-anchor="start" x="121" y="-187.6" font-family="Verdana" font-weight="bold" font-size="8.00">«abstract»</text>
<text text-anchor="start" x="108.5" y="-179.6" font-family="Verdana" font-weight="bold" font-size="8.00">JsonSerializable</text>
<polygon fill="none" stroke="black" points="27,-142 27,-174 263,-174 263,-142 27,-142"/>
<text text-anchor="start" x="32" y="-162.6" font-family="Verdana" font-size="8.00">– required : mixed</text>
<text text-anchor="start" x="32" y="-149.6" font-family="Verdana" font-size="8.00">– optional : mixed</text>
<polygon fill="none" stroke="black" points="27,-110 27,-142 263,-142 263,-110 27,-110"/>
<text text-anchor="start" x="32" y="-130.6" font-family="Verdana" font-size="8.00">+ __construct(required : array = [], optional : array = [])</text>
<text text-anchor="start" x="32" y="-117.6" font-family="Verdana" font-size="8.00">+ jsonSerialize() : array</text>
</g>
<!-- Bartlett\\Sarif\\SarifLog&#45;&gt;Bartlett\\Sarif\\Internal\\JsonSerializable -->
<g id="edge2" class="edge">
<title>Bartlett\\Sarif\\SarifLog&#45;&gt;Bartlett\\Sarif\\Internal\\JsonSerializable</title>
<path fill="none" stroke="black" d="M156.73,-242.92C155.07,-230.31 153.42,-217.83 151.91,-206.39"/>
<polygon fill="none" stroke="black" points="155.35,-205.66 150.57,-196.2 148.41,-206.58 155.35,-205.66"/>
</g>
<!-- Stringable -->
<g id="node4" class="node">
<title>Stringable</title>
<polygon fill="#fefece" stroke="transparent" points="366.5,-63 223.5,-63 223.5,-16 366.5,-16 366.5,-63"/>
<polygon fill="#eeeeee" stroke="transparent" points="224,-40.5 224,-62.5 367,-62.5 367,-40.5 224,-40.5"/>
<polygon fill="none" stroke="black" points="224,-40.5 224,-62.5 367,-62.5 367,-40.5 224,-40.5"/>
<text text-anchor="start" x="269.5" y="-54.1" font-family="Verdana" font-weight="bold" font-size="8.00">«interface»</text>
<text text-anchor="start" x="271" y="-46.1" font-family="Verdana" font-weight="bold" font-size="8.00">Stringable</text>
<polygon fill="none" stroke="black" points="224,-34.5 224,-40.5 367,-40.5 367,-34.5 224,-34.5"/>
<polygon fill="none" stroke="black" points="224,-15.5 224,-34.5 367,-34.5 367,-15.5 224,-15.5"/>
<text text-anchor="start" x="229" y="-23.1" font-family="Verdana" font-size="8.00">+ «abstract» __toString() : string</text>
</g>
<!-- Bartlett\\Sarif\\SarifLog&#45;&gt;Stringable -->
<g id="edge3" class="edge">
<title>Bartlett\\Sarif\\SarifLog&#45;&gt;Stringable</title>
<path fill="none" stroke="black" stroke-dasharray="5,2" d="M266.89,-242.78C269.88,-237.61 272.61,-232.34 275,-227 297.4,-176.86 298.97,-111.84 297.43,-73.31"/>
<polygon fill="none" stroke="black" points="300.92,-73 296.93,-63.18 293.93,-73.34 300.92,-73"/>
</g>
<!-- JsonSerializable -->
<g id="node3" class="node">
<title>JsonSerializable</title>
<polygon fill="#fefece" stroke="transparent" points="205.5,-63 80.5,-63 80.5,-16 205.5,-16 205.5,-63"/>
<polygon fill="#eeeeee" stroke="transparent" points="81,-40.5 81,-62.5 206,-62.5 206,-40.5 81,-40.5"/>
<polygon fill="none" stroke="black" points="81,-40.5 81,-62.5 206,-62.5 206,-40.5 81,-40.5"/>
<text text-anchor="start" x="117.5" y="-54.1" font-family="Verdana" font-weight="bold" font-size="8.00">«interface»</text>
<text text-anchor="start" x="107" y="-46.1" font-family="Verdana" font-weight="bold" font-size="8.00">JsonSerializable</text>
<polygon fill="none" stroke="black" points="81,-34.5 81,-40.5 206,-40.5 206,-34.5 81,-34.5"/>
<polygon fill="none" stroke="black" points="81,-15.5 81,-34.5 206,-34.5 206,-15.5 81,-15.5"/>
<text text-anchor="start" x="86" y="-23.1" font-family="Verdana" font-size="8.00">+ «abstract» jsonSerialize()</text>
</g>
<!-- Bartlett\\Sarif\\Internal\\JsonSerializable&#45;&gt;JsonSerializable -->
<g id="edge1" class="edge">
<title>Bartlett\\Sarif\\Internal\\JsonSerializable&#45;&gt;JsonSerializable</title>
<path fill="none" stroke="black" stroke-dasharray="5,2" d="M144.24,-109.85C144.03,-97.66 143.79,-84.56 143.58,-73.06"/>
<polygon fill="none" stroke="black" points="147.08,-72.96 143.4,-63.02 140.08,-73.08 147.08,-72.96"/>
</g>
</g>
</svg>
