<?xml version="1.0" encoding="UTF-8" standalone="no"?>
<!DOCTYPE svg PUBLIC "-//W3C//DTD SVG 1.1//EN"
 "http://www.w3.org/Graphics/SVG/1.1/DTD/svg11.dtd">
<!-- Generated by graphviz version 2.43.0 (0)
 -->
<!-- Title: %3 Pages: 1 -->
<svg width="352pt" height="467pt"
 viewBox="0.00 0.00 352.00 467.00" xmlns="http://www.w3.org/2000/svg" xmlns:xlink="http://www.w3.org/1999/xlink">
<g id="graph0" class="graph" transform="scale(1 1) rotate(0) translate(4 463)">
<title>%3</title>
<g id="clust1" class="cluster">
<title>cluster_0</title>
<polygon fill="BurlyWood" stroke="black" points="8,-235 8,-451 336,-451 336,-235 8,-235"/>
<text text-anchor="middle" x="172" y="-435.8" font-family="Times,serif" font-size="14.00">Bartlett\Sarif\Definition</text>
</g>
<g id="clust2" class="cluster">
<title>cluster_1</title>
<polygon fill="Bisque" stroke="black" points="46,-102 46,-227 298,-227 298,-102 46,-102"/>
<text text-anchor="middle" x="172" y="-211.8" font-family="Times,serif" font-size="14.00">Bartlett\Sarif\Internal</text>
</g>
<g id="clust3" class="cluster">
<title>cluster_2</title>
<polygon fill="transparent" stroke="black" points="101,-8 101,-94 243,-94 243,-8 101,-8"/>
<text text-anchor="middle" x="172" y="-78.8" font-family="Times,serif" font-size="14.00">0</text>
</g>
<!-- Bartlett\\Sarif\\Definition\\ReportingConfiguration -->
<g id="node1" class="node">
<title>Bartlett\\Sarif\\Definition\\ReportingConfiguration</title>
<polygon fill="#fefece" stroke="transparent" points="327.5,-420 16.5,-420 16.5,-243 327.5,-243 327.5,-420"/>
<polygon fill="#eeeeee" stroke="transparent" points="17,-397.5 17,-419.5 328,-419.5 328,-397.5 17,-397.5"/>
<polygon fill="none" stroke="black" points="17,-397.5 17,-419.5 328,-419.5 328,-397.5 17,-397.5"/>
<text text-anchor="start" x="118.5" y="-403.1" font-family="Verdana" font-weight="bold" font-size="8.00">ReportingConfiguration</text>
<polygon fill="none" stroke="black" points="17,-326.5 17,-397.5 328,-397.5 328,-326.5 17,-326.5"/>
<text text-anchor="start" x="22" y="-386.1" font-family="Verdana" font-size="8.00"># enabled</text>
<text text-anchor="start" x="22" y="-373.1" font-family="Verdana" font-size="8.00"># level</text>
<text text-anchor="start" x="22" y="-360.1" font-family="Verdana" font-size="8.00"># rank</text>
<text text-anchor="start" x="22" y="-347.1" font-family="Verdana" font-size="8.00"># parameters</text>
<text text-anchor="start" x="22" y="-334.1" font-family="Verdana" font-size="8.00"># properties</text>
<polygon fill="none" stroke="black" points="17,-242.5 17,-326.5 328,-326.5 328,-242.5 17,-242.5"/>
<text text-anchor="start" x="22" y="-315.1" font-family="Verdana" font-size="8.00">+ __construct()</text>
<text text-anchor="start" x="22" y="-302.1" font-family="Verdana" font-size="8.00">+ setEnabled(enabled : bool) : void</text>
<text text-anchor="start" x="22" y="-289.1" font-family="Verdana" font-size="8.00">+ setLevel(level : string = &#39;warning&#39;) : void</text>
<text text-anchor="start" x="22" y="-276.1" font-family="Verdana" font-size="8.00">+ setRank(rank : float = &#45;1) : void</text>
<text text-anchor="start" x="22" y="-263.1" font-family="Verdana" font-size="8.00">+ setParameters(parameters : Bartlett\Sarif\Definition\PropertyBag) : void</text>
<text text-anchor="start" x="22" y="-250.1" font-family="Verdana" font-size="8.00">+ setProperties(propertyBag : Bartlett\Sarif\Definition\PropertyBag) : void</text>
</g>
<!-- Bartlett\\Sarif\\Internal\\JsonSerializable -->
<g id="node2" class="node">
<title>Bartlett\\Sarif\\Internal\\JsonSerializable</title>
<polygon fill="#fefece" stroke="transparent" points="290,-196 54,-196 54,-110 290,-110 290,-196"/>
<polygon fill="#eeeeee" stroke="transparent" points="54,-174 54,-196 290,-196 290,-174 54,-174"/>
<polygon fill="none" stroke="black" points="54,-174 54,-196 290,-196 290,-174 54,-174"/>
<text text-anchor="start" x="148" y="-187.6" font-family="Verdana" font-weight="bold" font-size="8.00">«abstract»</text>
<text text-anchor="start" x="135.5" y="-179.6" font-family="Verdana" font-weight="bold" font-size="8.00">JsonSerializable</text>
<polygon fill="none" stroke="black" points="54,-142 54,-174 290,-174 290,-142 54,-142"/>
<text text-anchor="start" x="59" y="-162.6" font-family="Verdana" font-size="8.00">– required : mixed</text>
<text text-anchor="start" x="59" y="-149.6" font-family="Verdana" font-size="8.00">– optional : mixed</text>
<polygon fill="none" stroke="black" points="54,-110 54,-142 290,-142 290,-110 54,-110"/>
<text text-anchor="start" x="59" y="-130.6" font-family="Verdana" font-size="8.00">+ __construct(required : array = [], optional : array = [])</text>
<text text-anchor="start" x="59" y="-117.6" font-family="Verdana" font-size="8.00">+ jsonSerialize() : array</text>
</g>
<!-- Bartlett\\Sarif\\Definition\\ReportingConfiguration&#45;&gt;Bartlett\\Sarif\\Internal\\JsonSerializable -->
<g id="edge2" class="edge">
<title>Bartlett\\Sarif\\Definition\\ReportingConfiguration&#45;&gt;Bartlett\\Sarif\\Internal\\JsonSerializable</title>
<path fill="none" stroke="black" d="M172,-242.77C172,-230.31 172,-217.85 172,-206.36"/>
<polygon fill="none" stroke="black" points="175.5,-206.11 172,-196.11 168.5,-206.11 175.5,-206.11"/>
</g>
<!-- JsonSerializable -->
<g id="node3" class="node">
<title>JsonSerializable</title>
<polygon fill="#fefece" stroke="transparent" points="234.5,-63 109.5,-63 109.5,-16 234.5,-16 234.5,-63"/>
<polygon fill="#eeeeee" stroke="transparent" points="110,-40.5 110,-62.5 235,-62.5 235,-40.5 110,-40.5"/>
<polygon fill="none" stroke="black" points="110,-40.5 110,-62.5 235,-62.5 235,-40.5 110,-40.5"/>
<text text-anchor="start" x="146.5" y="-54.1" font-family="Verdana" font-weight="bold" font-size="8.00">«interface»</text>
<text text-anchor="start" x="136" y="-46.1" font-family="Verdana" font-weight="bold" font-size="8.00">JsonSerializable</text>
<polygon fill="none" stroke="black" points="110,-34.5 110,-40.5 235,-40.5 235,-34.5 110,-34.5"/>
<polygon fill="none" stroke="black" points="110,-15.5 110,-34.5 235,-34.5 235,-15.5 110,-15.5"/>
<text text-anchor="start" x="115" y="-23.1" font-family="Verdana" font-size="8.00">+ «abstract» jsonSerialize()</text>
</g>
<!-- Bartlett\\Sarif\\Internal\\JsonSerializable&#45;&gt;JsonSerializable -->
<g id="edge1" class="edge">
<title>Bartlett\\Sarif\\Internal\\JsonSerializable&#45;&gt;JsonSerializable</title>
<path fill="none" stroke="black" stroke-dasharray="5,2" d="M172,-109.85C172,-97.66 172,-84.56 172,-73.06"/>
<polygon fill="none" stroke="black" points="175.5,-73.02 172,-63.02 168.5,-73.02 175.5,-73.02"/>
</g>
</g>
</svg>
