<?xml version="1.0" encoding="UTF-8" standalone="no"?>
<!DOCTYPE svg PUBLIC "-//W3C//DTD SVG 1.1//EN"
 "http://www.w3.org/Graphics/SVG/1.1/DTD/svg11.dtd">
<!-- Generated by graphviz version 2.43.0 (0)
 -->
<!-- Title: %3 Pages: 1 -->
<svg width="392pt" height="1117pt"
 viewBox="0.00 0.00 392.00 1117.00" xmlns="http://www.w3.org/2000/svg" xmlns:xlink="http://www.w3.org/1999/xlink">
<g id="graph0" class="graph" transform="scale(1 1) rotate(0) translate(4 1113)">
<title>%3</title>
<g id="clust1" class="cluster">
<title>cluster_0</title>
<polygon fill="BurlyWood" stroke="black" points="8,-235 8,-1101 376,-1101 376,-235 8,-235"/>
<text text-anchor="middle" x="192" y="-1085.8" font-family="Times,serif" font-size="14.00">Bartlett\Sarif\Definition</text>
</g>
<g id="clust2" class="cluster">
<title>cluster_1</title>
<polygon fill="Bisque" stroke="black" points="66,-102 66,-227 318,-227 318,-102 66,-102"/>
<text text-anchor="middle" x="192" y="-211.8" font-family="Times,serif" font-size="14.00">Bartlett\Sarif\Internal</text>
</g>
<g id="clust3" class="cluster">
<title>cluster_2</title>
<polygon fill="transparent" stroke="black" points="121,-8 121,-94 263,-94 263,-8 121,-8"/>
<text text-anchor="middle" x="192" y="-78.8" font-family="Times,serif" font-size="14.00">0</text>
</g>
<!-- Bartlett\\Sarif\\Definition\\Result -->
<g id="node1" class="node">
<title>Bartlett\\Sarif\\Definition\\Result</title>
<polygon fill="#fefece" stroke="transparent" points="367.5,-1070 16.5,-1070 16.5,-243 367.5,-243 367.5,-1070"/>
<polygon fill="#eeeeee" stroke="transparent" points="17,-1047.5 17,-1069.5 368,-1069.5 368,-1047.5 17,-1047.5"/>
<polygon fill="none" stroke="black" points="17,-1047.5 17,-1069.5 368,-1069.5 368,-1047.5 17,-1047.5"/>
<text text-anchor="start" x="178" y="-1053.1" font-family="Verdana" font-weight="bold" font-size="8.00">Result</text>
<polygon fill="none" stroke="black" points="17,-651.5 17,-1047.5 368,-1047.5 368,-651.5 17,-651.5"/>
<text text-anchor="start" x="22" y="-1036.1" font-family="Verdana" font-size="8.00"># ruleId</text>
<text text-anchor="start" x="22" y="-1023.1" font-family="Verdana" font-size="8.00"># ruleIndex</text>
<text text-anchor="start" x="22" y="-1010.1" font-family="Verdana" font-size="8.00"># rule</text>
<text text-anchor="start" x="22" y="-997.1" font-family="Verdana" font-size="8.00"># kind</text>
<text text-anchor="start" x="22" y="-984.1" font-family="Verdana" font-size="8.00"># level</text>
<text text-anchor="start" x="22" y="-971.1" font-family="Verdana" font-size="8.00"># message</text>
<text text-anchor="start" x="22" y="-958.1" font-family="Verdana" font-size="8.00"># analysisTarget</text>
<text text-anchor="start" x="22" y="-945.1" font-family="Verdana" font-size="8.00"># locations : mixed</text>
<text text-anchor="start" x="22" y="-932.1" font-family="Verdana" font-size="8.00"># guid</text>
<text text-anchor="start" x="22" y="-919.1" font-family="Verdana" font-size="8.00"># correlationGuid</text>
<text text-anchor="start" x="22" y="-906.1" font-family="Verdana" font-size="8.00"># occurrenceCount</text>
<text text-anchor="start" x="22" y="-893.1" font-family="Verdana" font-size="8.00"># partialFingerprints : mixed</text>
<text text-anchor="start" x="22" y="-880.1" font-family="Verdana" font-size="8.00"># fingerprints : mixed</text>
<text text-anchor="start" x="22" y="-867.1" font-family="Verdana" font-size="8.00"># stacks : mixed</text>
<text text-anchor="start" x="22" y="-854.1" font-family="Verdana" font-size="8.00"># codeFlows : mixed</text>
<text text-anchor="start" x="22" y="-841.1" font-family="Verdana" font-size="8.00"># graphs : mixed</text>
<text text-anchor="start" x="22" y="-828.1" font-family="Verdana" font-size="8.00"># graphTraversals : mixed</text>
<text text-anchor="start" x="22" y="-815.1" font-family="Verdana" font-size="8.00"># relatedLocations : mixed</text>
<text text-anchor="start" x="22" y="-802.1" font-family="Verdana" font-size="8.00"># suppressions : mixed</text>
<text text-anchor="start" x="22" y="-789.1" font-family="Verdana" font-size="8.00"># baselineState</text>
<text text-anchor="start" x="22" y="-776.1" font-family="Verdana" font-size="8.00"># rank</text>
<text text-anchor="start" x="22" y="-763.1" font-family="Verdana" font-size="8.00"># attachments : mixed</text>
<text text-anchor="start" x="22" y="-750.1" font-family="Verdana" font-size="8.00"># hostedViewerUri</text>
<text text-anchor="start" x="22" y="-737.1" font-family="Verdana" font-size="8.00"># workItemUris : mixed</text>
<text text-anchor="start" x="22" y="-724.1" font-family="Verdana" font-size="8.00"># provenance</text>
<text text-anchor="start" x="22" y="-711.1" font-family="Verdana" font-size="8.00"># fixes : mixed</text>
<text text-anchor="start" x="22" y="-698.1" font-family="Verdana" font-size="8.00"># taxa : mixed</text>
<text text-anchor="start" x="22" y="-685.1" font-family="Verdana" font-size="8.00"># webRequest</text>
<text text-anchor="start" x="22" y="-672.1" font-family="Verdana" font-size="8.00"># webResponse</text>
<text text-anchor="start" x="22" y="-659.1" font-family="Verdana" font-size="8.00"># properties</text>
<polygon fill="none" stroke="black" points="17,-242.5 17,-651.5 368,-651.5 368,-242.5 17,-242.5"/>
<text text-anchor="start" x="22" y="-640.1" font-family="Verdana" font-size="8.00">+ __construct()</text>
<text text-anchor="start" x="22" y="-627.1" font-family="Verdana" font-size="8.00">+ setRuleId(ruleId : string) : void</text>
<text text-anchor="start" x="22" y="-614.1" font-family="Verdana" font-size="8.00">+ setRuleIndex(ruleIndex : int = &#45;1) : void</text>
<text text-anchor="start" x="22" y="-601.1" font-family="Verdana" font-size="8.00">+ setRule(rule : Bartlett\Sarif\Definition\ReportingDescriptorReference) : void</text>
<text text-anchor="start" x="22" y="-588.1" font-family="Verdana" font-size="8.00">+ setKind(kind : string = &#39;fail&#39;) : void</text>
<text text-anchor="start" x="22" y="-575.1" font-family="Verdana" font-size="8.00">+ setLevel(level : string = &#39;warning&#39;) : void</text>
<text text-anchor="start" x="22" y="-562.1" font-family="Verdana" font-size="8.00">+ setMessage(message : Bartlett\Sarif\Definition\Message) : void</text>
<text text-anchor="start" x="22" y="-549.1" font-family="Verdana" font-size="8.00">+ setAnalysisTarget(analysisTarget : Bartlett\Sarif\Definition\ArtifactLocation) : void</text>
<text text-anchor="start" x="22" y="-536.1" font-family="Verdana" font-size="8.00">+ addLocations(locations : array) : void</text>
<text text-anchor="start" x="22" y="-523.1" font-family="Verdana" font-size="8.00">+ setGuid(guid : string) : void</text>
<text text-anchor="start" x="22" y="-510.1" font-family="Verdana" font-size="8.00">+ setCorrelationGuid(correlationGuid : string) : void</text>
<text text-anchor="start" x="22" y="-497.1" font-family="Verdana" font-size="8.00">+ setOccurrenceCount(occurrenceCount : int) : void</text>
<text text-anchor="start" x="22" y="-484.1" font-family="Verdana" font-size="8.00">+ addPartialFingerprints(partialFingerprints : array) : void</text>
<text text-anchor="start" x="22" y="-471.1" font-family="Verdana" font-size="8.00">+ addFingerprints(fingerprints : array) : void</text>
<text text-anchor="start" x="22" y="-458.1" font-family="Verdana" font-size="8.00">+ addStacks(stacks : array) : void</text>
<text text-anchor="start" x="22" y="-445.1" font-family="Verdana" font-size="8.00">+ addCodeFlows(codeFlows : array) : void</text>
<text text-anchor="start" x="22" y="-432.1" font-family="Verdana" font-size="8.00">+ addGraphs(graphs : array) : void</text>
<text text-anchor="start" x="22" y="-419.1" font-family="Verdana" font-size="8.00">+ addGraphTraversals(graphTraversals : array) : void</text>
<text text-anchor="start" x="22" y="-406.1" font-family="Verdana" font-size="8.00">+ addRelatedLocations(relatedLocations : array) : void</text>
<text text-anchor="start" x="22" y="-393.1" font-family="Verdana" font-size="8.00">+ addSuppressions(suppressions : array) : void</text>
<text text-anchor="start" x="22" y="-380.1" font-family="Verdana" font-size="8.00">+ setBaselineState(baselineState : string) : void</text>
<text text-anchor="start" x="22" y="-367.1" font-family="Verdana" font-size="8.00">+ setRank(rank : float = &#45;1) : void</text>
<text text-anchor="start" x="22" y="-354.1" font-family="Verdana" font-size="8.00">+ addAttachments(attachments : array) : void</text>
<text text-anchor="start" x="22" y="-341.1" font-family="Verdana" font-size="8.00">+ setHostedViewerUri(hostedViewerUri : string) : void</text>
<text text-anchor="start" x="22" y="-328.1" font-family="Verdana" font-size="8.00">+ setWorkItemUris(workItemUris : array) : void</text>
<text text-anchor="start" x="22" y="-315.1" font-family="Verdana" font-size="8.00">+ setProvenance(provenance : Bartlett\Sarif\Definition\ResultProvenance) : void</text>
<text text-anchor="start" x="22" y="-302.1" font-family="Verdana" font-size="8.00">+ addFixes(fixes : array) : void</text>
<text text-anchor="start" x="22" y="-289.1" font-family="Verdana" font-size="8.00">+ addTaxa(taxa : array) : void</text>
<text text-anchor="start" x="22" y="-276.1" font-family="Verdana" font-size="8.00">+ setWebRequest(webRequest : Bartlett\Sarif\Definition\WebRequest) : void</text>
<text text-anchor="start" x="22" y="-263.1" font-family="Verdana" font-size="8.00">+ setWebResponse(webResponse : Bartlett\Sarif\Definition\WebResponse) : void</text>
<text text-anchor="start" x="22" y="-250.1" font-family="Verdana" font-size="8.00">+ setProperties(propertyBag : Bartlett\Sarif\Definition\PropertyBag) : void</text>
</g>
<!-- Bartlett\\Sarif\\Internal\\JsonSerializable -->
<g id="node2" class="node">
<title>Bartlett\\Sarif\\Internal\\JsonSerializable</title>
<polygon fill="#fefece" stroke="transparent" points="310,-196 74,-196 74,-110 310,-110 310,-196"/>
<polygon fill="#eeeeee" stroke="transparent" points="74,-174 74,-196 310,-196 310,-174 74,-174"/>
<polygon fill="none" stroke="black" points="74,-174 74,-196 310,-196 310,-174 74,-174"/>
<text text-anchor="start" x="168" y="-187.6" font-family="Verdana" font-weight="bold" font-size="8.00">«abstract»</text>
<text text-anchor="start" x="155.5" y="-179.6" font-family="Verdana" font-weight="bold" font-size="8.00">JsonSerializable</text>
<polygon fill="none" stroke="black" points="74,-142 74,-174 310,-174 310,-142 74,-142"/>
<text text-anchor="start" x="79" y="-162.6" font-family="Verdana" font-size="8.00">– required : mixed</text>
<text text-anchor="start" x="79" y="-149.6" font-family="Verdana" font-size="8.00">– optional : mixed</text>
<polygon fill="none" stroke="black" points="74,-110 74,-142 310,-142 310,-110 74,-110"/>
<text text-anchor="start" x="79" y="-130.6" font-family="Verdana" font-size="8.00">+ __construct(required : array = [], optional : array = [])</text>
<text text-anchor="start" x="79" y="-117.6" font-family="Verdana" font-size="8.00">+ jsonSerialize() : array</text>
</g>
<!-- Bartlett\\Sarif\\Definition\\Result&#45;&gt;Bartlett\\Sarif\\Internal\\JsonSerializable -->
<g id="edge2" class="edge">
<title>Bartlett\\Sarif\\Definition\\Result&#45;&gt;Bartlett\\Sarif\\Internal\\JsonSerializable</title>
<path fill="none" stroke="black" d="M192,-242.79C192,-229.36 192,-217.02 192,-206.07"/>
<polygon fill="none" stroke="black" points="195.5,-206.02 192,-196.02 188.5,-206.02 195.5,-206.02"/>
</g>
<!-- JsonSerializable -->
<g id="node3" class="node">
<title>JsonSerializable</title>
<polygon fill="#fefece" stroke="transparent" points="254.5,-63 129.5,-63 129.5,-16 254.5,-16 254.5,-63"/>
<polygon fill="#eeeeee" stroke="transparent" points="130,-40.5 130,-62.5 255,-62.5 255,-40.5 130,-40.5"/>
<polygon fill="none" stroke="black" points="130,-40.5 130,-62.5 255,-62.5 255,-40.5 130,-40.5"/>
<text text-anchor="start" x="166.5" y="-54.1" font-family="Verdana" font-weight="bold" font-size="8.00">«interface»</text>
<text text-anchor="start" x="156" y="-46.1" font-family="Verdana" font-weight="bold" font-size="8.00">JsonSerializable</text>
<polygon fill="none" stroke="black" points="130,-34.5 130,-40.5 255,-40.5 255,-34.5 130,-34.5"/>
<polygon fill="none" stroke="black" points="130,-15.5 130,-34.5 255,-34.5 255,-15.5 130,-15.5"/>
<text text-anchor="start" x="135" y="-23.1" font-family="Verdana" font-size="8.00">+ «abstract» jsonSerialize()</text>
</g>
<!-- Bartlett\\Sarif\\Internal\\JsonSerializable&#45;&gt;JsonSerializable -->
<g id="edge1" class="edge">
<title>Bartlett\\Sarif\\Internal\\JsonSerializable&#45;&gt;JsonSerializable</title>
<path fill="none" stroke="black" stroke-dasharray="5,2" d="M192,-109.85C192,-97.66 192,-84.56 192,-73.06"/>
<polygon fill="none" stroke="black" points="195.5,-73.02 192,-63.02 188.5,-73.02 195.5,-73.02"/>
</g>
</g>
</svg>
