<?xml version="1.0" encoding="UTF-8" standalone="no"?>
<!DOCTYPE svg PUBLIC "-//W3C//DTD SVG 1.1//EN"
 "http://www.w3.org/Graphics/SVG/1.1/DTD/svg11.dtd">
<!-- Generated by graphviz version 2.43.0 (0)
 -->
<!-- Title: %3 Pages: 1 -->
<svg width="382pt" height="701pt"
 viewBox="0.00 0.00 382.00 701.00" xmlns="http://www.w3.org/2000/svg" xmlns:xlink="http://www.w3.org/1999/xlink">
<g id="graph0" class="graph" transform="scale(1 1) rotate(0) translate(4 697)">
<title>%3</title>
<g id="clust1" class="cluster">
<title>cluster_0</title>
<polygon fill="BurlyWood" stroke="black" points="8,-235 8,-685 366,-685 366,-235 8,-235"/>
<text text-anchor="middle" x="187" y="-669.8" font-family="Times,serif" font-size="14.00">Bartlett\Sarif\Definition</text>
</g>
<g id="clust2" class="cluster">
<title>cluster_1</title>
<polygon fill="Bisque" stroke="black" points="61,-102 61,-227 313,-227 313,-102 61,-102"/>
<text text-anchor="middle" x="187" y="-211.8" font-family="Times,serif" font-size="14.00">Bartlett\Sarif\Internal</text>
</g>
<g id="clust3" class="cluster">
<title>cluster_2</title>
<polygon fill="transparent" stroke="black" points="116,-8 116,-94 258,-94 258,-8 116,-8"/>
<text text-anchor="middle" x="187" y="-78.8" font-family="Times,serif" font-size="14.00">0</text>
</g>
<!-- Bartlett\\Sarif\\Definition\\ThreadFlowLocation -->
<g id="node1" class="node">
<title>Bartlett\\Sarif\\Definition\\ThreadFlowLocation</title>
<polygon fill="#fefece" stroke="transparent" points="358.5,-654 15.5,-654 15.5,-243 358.5,-243 358.5,-654"/>
<polygon fill="#eeeeee" stroke="transparent" points="16,-631.5 16,-653.5 359,-653.5 359,-631.5 16,-631.5"/>
<polygon fill="none" stroke="black" points="16,-631.5 16,-653.5 359,-653.5 359,-631.5 16,-631.5"/>
<text text-anchor="start" x="142" y="-637.1" font-family="Verdana" font-weight="bold" font-size="8.00">ThreadFlowLocation</text>
<polygon fill="none" stroke="black" points="16,-443.5 16,-631.5 359,-631.5 359,-443.5 16,-443.5"/>
<text text-anchor="start" x="21" y="-620.1" font-family="Verdana" font-size="8.00"># index</text>
<text text-anchor="start" x="21" y="-607.1" font-family="Verdana" font-size="8.00"># location</text>
<text text-anchor="start" x="21" y="-594.1" font-family="Verdana" font-size="8.00"># stack</text>
<text text-anchor="start" x="21" y="-581.1" font-family="Verdana" font-size="8.00"># kinds : mixed</text>
<text text-anchor="start" x="21" y="-568.1" font-family="Verdana" font-size="8.00"># taxa : mixed</text>
<text text-anchor="start" x="21" y="-555.1" font-family="Verdana" font-size="8.00"># module</text>
<text text-anchor="start" x="21" y="-542.1" font-family="Verdana" font-size="8.00"># state : mixed</text>
<text text-anchor="start" x="21" y="-529.1" font-family="Verdana" font-size="8.00"># nestingLevel</text>
<text text-anchor="start" x="21" y="-516.1" font-family="Verdana" font-size="8.00"># executionOrder</text>
<text text-anchor="start" x="21" y="-503.1" font-family="Verdana" font-size="8.00"># executionTimeUtc</text>
<text text-anchor="start" x="21" y="-490.1" font-family="Verdana" font-size="8.00"># importance</text>
<text text-anchor="start" x="21" y="-477.1" font-family="Verdana" font-size="8.00"># webRequest</text>
<text text-anchor="start" x="21" y="-464.1" font-family="Verdana" font-size="8.00"># webResponse</text>
<text text-anchor="start" x="21" y="-451.1" font-family="Verdana" font-size="8.00"># properties</text>
<polygon fill="none" stroke="black" points="16,-242.5 16,-443.5 359,-443.5 359,-242.5 16,-242.5"/>
<text text-anchor="start" x="21" y="-432.1" font-family="Verdana" font-size="8.00">+ __construct()</text>
<text text-anchor="start" x="21" y="-419.1" font-family="Verdana" font-size="8.00">+ setIndex(index : int = &#45;1) : void</text>
<text text-anchor="start" x="21" y="-406.1" font-family="Verdana" font-size="8.00">+ setLocation(location : Bartlett\Sarif\Definition\Location) : void</text>
<text text-anchor="start" x="21" y="-393.1" font-family="Verdana" font-size="8.00">+ setStack(stack : Bartlett\Sarif\Definition\Stack) : void</text>
<text text-anchor="start" x="21" y="-380.1" font-family="Verdana" font-size="8.00">+ addKinds(kinds : array) : void</text>
<text text-anchor="start" x="21" y="-367.1" font-family="Verdana" font-size="8.00">+ addTaxa(taxa : array) : void</text>
<text text-anchor="start" x="21" y="-354.1" font-family="Verdana" font-size="8.00">+ setModule(module : string) : void</text>
<text text-anchor="start" x="21" y="-341.1" font-family="Verdana" font-size="8.00">+ addAdditionalProperties(additionalProperties : array) : void</text>
<text text-anchor="start" x="21" y="-328.1" font-family="Verdana" font-size="8.00">+ setNestingLevel(nestingLevel : int) : void</text>
<text text-anchor="start" x="21" y="-315.1" font-family="Verdana" font-size="8.00">+ setExecutionOrder(executionOrder : int = &#45;1) : void</text>
<text text-anchor="start" x="21" y="-302.1" font-family="Verdana" font-size="8.00">+ setExecutionTimeUtc(executionTimeUtc : string) : void</text>
<text text-anchor="start" x="21" y="-289.1" font-family="Verdana" font-size="8.00">+ setImportance(importance : string = &#39;important&#39;) : void</text>
<text text-anchor="start" x="21" y="-276.1" font-family="Verdana" font-size="8.00">+ setWebRequest(webRequest : Bartlett\Sarif\Definition\WebRequest) : void</text>
<text text-anchor="start" x="21" y="-263.1" font-family="Verdana" font-size="8.00">+ setWebResponse(webResponse : Bartlett\Sarif\Definition\WebResponse) : void</text>
<text text-anchor="start" x="21" y="-250.1" font-family="Verdana" font-size="8.00">+ setProperties(propertyBag : Bartlett\Sarif\Definition\PropertyBag) : void</text>
</g>
<!-- Bartlett\\Sarif\\Internal\\JsonSerializable -->
<g id="node2" class="node">
<title>Bartlett\\Sarif\\Internal\\JsonSerializable</title>
<polygon fill="#fefece" stroke="transparent" points="305,-196 69,-196 69,-110 305,-110 305,-196"/>
<polygon fill="#eeeeee" stroke="transparent" points="69,-174 69,-196 305,-196 305,-174 69,-174"/>
<polygon fill="none" stroke="black" points="69,-174 69,-196 305,-196 305,-174 69,-174"/>
<text text-anchor="start" x="163" y="-187.6" font-family="Verdana" font-weight="bold" font-size="8.00">«abstract»</text>
<text text-anchor="start" x="150.5" y="-179.6" font-family="Verdana" font-weight="bold" font-size="8.00">JsonSerializable</text>
<polygon fill="none" stroke="black" points="69,-142 69,-174 305,-174 305,-142 69,-142"/>
<text text-anchor="start" x="74" y="-162.6" font-family="Verdana" font-size="8.00">– required : mixed</text>
<text text-anchor="start" x="74" y="-149.6" font-family="Verdana" font-size="8.00">– optional : mixed</text>
<polygon fill="none" stroke="black" points="69,-110 69,-142 305,-142 305,-110 69,-110"/>
<text text-anchor="start" x="74" y="-130.6" font-family="Verdana" font-size="8.00">+ __construct(required : array = [], optional : array = [])</text>
<text text-anchor="start" x="74" y="-117.6" font-family="Verdana" font-size="8.00">+ jsonSerialize() : array</text>
</g>
<!-- Bartlett\\Sarif\\Definition\\ThreadFlowLocation&#45;&gt;Bartlett\\Sarif\\Internal\\JsonSerializable -->
<g id="edge2" class="edge">
<title>Bartlett\\Sarif\\Definition\\ThreadFlowLocation&#45;&gt;Bartlett\\Sarif\\Internal\\JsonSerializable</title>
<path fill="none" stroke="black" d="M187,-242.86C187,-229.76 187,-217.4 187,-206.29"/>
<polygon fill="none" stroke="black" points="190.5,-206.04 187,-196.04 183.5,-206.04 190.5,-206.04"/>
</g>
<!-- JsonSerializable -->
<g id="node3" class="node">
<title>JsonSerializable</title>
<polygon fill="#fefece" stroke="transparent" points="249.5,-63 124.5,-63 124.5,-16 249.5,-16 249.5,-63"/>
<polygon fill="#eeeeee" stroke="transparent" points="125,-40.5 125,-62.5 250,-62.5 250,-40.5 125,-40.5"/>
<polygon fill="none" stroke="black" points="125,-40.5 125,-62.5 250,-62.5 250,-40.5 125,-40.5"/>
<text text-anchor="start" x="161.5" y="-54.1" font-family="Verdana" font-weight="bold" font-size="8.00">«interface»</text>
<text text-anchor="start" x="151" y="-46.1" font-family="Verdana" font-weight="bold" font-size="8.00">JsonSerializable</text>
<polygon fill="none" stroke="black" points="125,-34.5 125,-40.5 250,-40.5 250,-34.5 125,-34.5"/>
<polygon fill="none" stroke="black" points="125,-15.5 125,-34.5 250,-34.5 250,-15.5 125,-15.5"/>
<text text-anchor="start" x="130" y="-23.1" font-family="Verdana" font-size="8.00">+ «abstract» jsonSerialize()</text>
</g>
<!-- Bartlett\\Sarif\\Internal\\JsonSerializable&#45;&gt;JsonSerializable -->
<g id="edge1" class="edge">
<title>Bartlett\\Sarif\\Internal\\JsonSerializable&#45;&gt;JsonSerializable</title>
<path fill="none" stroke="black" stroke-dasharray="5,2" d="M187,-109.85C187,-97.66 187,-84.56 187,-73.06"/>
<polygon fill="none" stroke="black" points="190.5,-73.02 187,-63.02 183.5,-73.02 190.5,-73.02"/>
</g>
</g>
</svg>
