<?xml version="1.0" encoding="UTF-8" standalone="no"?>
<!DOCTYPE svg PUBLIC "-//W3C//DTD SVG 1.1//EN"
 "http://www.w3.org/Graphics/SVG/1.1/DTD/svg11.dtd">
<!-- Generated by graphviz version 2.43.0 (0)
 -->
<!-- Title: %3 Pages: 1 -->
<svg width="452pt" height="519pt"
 viewBox="0.00 0.00 452.00 519.00" xmlns="http://www.w3.org/2000/svg" xmlns:xlink="http://www.w3.org/1999/xlink">
<g id="graph0" class="graph" transform="scale(1 1) rotate(0) translate(4 515)">
<title>%3</title>
<g id="clust1" class="cluster">
<title>cluster_0</title>
<polygon fill="BurlyWood" stroke="black" points="8,-235 8,-503 436,-503 436,-235 8,-235"/>
<text text-anchor="middle" x="222" y="-487.8" font-family="Times,serif" font-size="14.00">Bartlett\Sarif\Definition</text>
</g>
<g id="clust2" class="cluster">
<title>cluster_1</title>
<polygon fill="Bisque" stroke="black" points="96,-102 96,-227 348,-227 348,-102 96,-102"/>
<text text-anchor="middle" x="222" y="-211.8" font-family="Times,serif" font-size="14.00">Bartlett\Sarif\Internal</text>
</g>
<g id="clust3" class="cluster">
<title>cluster_2</title>
<polygon fill="transparent" stroke="black" points="151,-8 151,-94 293,-94 293,-8 151,-8"/>
<text text-anchor="middle" x="222" y="-78.8" font-family="Times,serif" font-size="14.00">0</text>
</g>
<!-- Bartlett\\Sarif\\Definition\\TranslationMetadata -->
<g id="node1" class="node">
<title>Bartlett\\Sarif\\Definition\\TranslationMetadata</title>
<polygon fill="#fefece" stroke="transparent" points="427.5,-472 16.5,-472 16.5,-243 427.5,-243 427.5,-472"/>
<polygon fill="#eeeeee" stroke="transparent" points="17,-449.5 17,-471.5 428,-471.5 428,-449.5 17,-449.5"/>
<polygon fill="none" stroke="black" points="17,-449.5 17,-471.5 428,-471.5 428,-449.5 17,-449.5"/>
<text text-anchor="start" x="175.5" y="-455.1" font-family="Verdana" font-weight="bold" font-size="8.00">TranslationMetadata</text>
<polygon fill="none" stroke="black" points="17,-352.5 17,-449.5 428,-449.5 428,-352.5 17,-352.5"/>
<text text-anchor="start" x="22" y="-438.1" font-family="Verdana" font-size="8.00"># name</text>
<text text-anchor="start" x="22" y="-425.1" font-family="Verdana" font-size="8.00"># fullName</text>
<text text-anchor="start" x="22" y="-412.1" font-family="Verdana" font-size="8.00"># shortDescription</text>
<text text-anchor="start" x="22" y="-399.1" font-family="Verdana" font-size="8.00"># fullDescription</text>
<text text-anchor="start" x="22" y="-386.1" font-family="Verdana" font-size="8.00"># downloadUri</text>
<text text-anchor="start" x="22" y="-373.1" font-family="Verdana" font-size="8.00"># informationUri</text>
<text text-anchor="start" x="22" y="-360.1" font-family="Verdana" font-size="8.00"># properties</text>
<polygon fill="none" stroke="black" points="17,-242.5 17,-352.5 428,-352.5 428,-242.5 17,-242.5"/>
<text text-anchor="start" x="22" y="-341.1" font-family="Verdana" font-size="8.00">+ __construct()</text>
<text text-anchor="start" x="22" y="-328.1" font-family="Verdana" font-size="8.00">+ setName(name : string) : void</text>
<text text-anchor="start" x="22" y="-315.1" font-family="Verdana" font-size="8.00">+ setFullName(fullName : string) : void</text>
<text text-anchor="start" x="22" y="-302.1" font-family="Verdana" font-size="8.00">+ setShortDescription(shortDescription : Bartlett\Sarif\Definition\MultiformatMessageString) : void</text>
<text text-anchor="start" x="22" y="-289.1" font-family="Verdana" font-size="8.00">+ setFullDescription(fullDescription : Bartlett\Sarif\Definition\MultiformatMessageString) : void</text>
<text text-anchor="start" x="22" y="-276.1" font-family="Verdana" font-size="8.00">+ setDownloadUri(downloadUri : string) : void</text>
<text text-anchor="start" x="22" y="-263.1" font-family="Verdana" font-size="8.00">+ setInformationUri(informationUri : string) : void</text>
<text text-anchor="start" x="22" y="-250.1" font-family="Verdana" font-size="8.00">+ setProperties(propertyBag : Bartlett\Sarif\Definition\PropertyBag) : void</text>
</g>
<!-- Bartlett\\Sarif\\Internal\\JsonSerializable -->
<g id="node2" class="node">
<title>Bartlett\\Sarif\\Internal\\JsonSerializable</title>
<polygon fill="#fefece" stroke="transparent" points="340,-196 104,-196 104,-110 340,-110 340,-196"/>
<polygon fill="#eeeeee" stroke="transparent" points="104,-174 104,-196 340,-196 340,-174 104,-174"/>
<polygon fill="none" stroke="black" points="104,-174 104,-196 340,-196 340,-174 104,-174"/>
<text text-anchor="start" x="198" y="-187.6" font-family="Verdana" font-weight="bold" font-size="8.00">«abstract»</text>
<text text-anchor="start" x="185.5" y="-179.6" font-family="Verdana" font-weight="bold" font-size="8.00">JsonSerializable</text>
<polygon fill="none" stroke="black" points="104,-142 104,-174 340,-174 340,-142 104,-142"/>
<text text-anchor="start" x="109" y="-162.6" font-family="Verdana" font-size="8.00">– required : mixed</text>
<text text-anchor="start" x="109" y="-149.6" font-family="Verdana" font-size="8.00">– optional : mixed</text>
<polygon fill="none" stroke="black" points="104,-110 104,-142 340,-142 340,-110 104,-110"/>
<text text-anchor="start" x="109" y="-130.6" font-family="Verdana" font-size="8.00">+ __construct(required : array = [], optional : array = [])</text>
<text text-anchor="start" x="109" y="-117.6" font-family="Verdana" font-size="8.00">+ jsonSerialize() : array</text>
</g>
<!-- Bartlett\\Sarif\\Definition\\TranslationMetadata&#45;&gt;Bartlett\\Sarif\\Internal\\JsonSerializable -->
<g id="edge2" class="edge">
<title>Bartlett\\Sarif\\Definition\\TranslationMetadata&#45;&gt;Bartlett\\Sarif\\Internal\\JsonSerializable</title>
<path fill="none" stroke="black" d="M222,-242.82C222,-230.12 222,-217.68 222,-206.33"/>
<polygon fill="none" stroke="black" points="225.5,-206.23 222,-196.23 218.5,-206.23 225.5,-206.23"/>
</g>
<!-- JsonSerializable -->
<g id="node3" class="node">
<title>JsonSerializable</title>
<polygon fill="#fefece" stroke="transparent" points="284.5,-63 159.5,-63 159.5,-16 284.5,-16 284.5,-63"/>
<polygon fill="#eeeeee" stroke="transparent" points="160,-40.5 160,-62.5 285,-62.5 285,-40.5 160,-40.5"/>
<polygon fill="none" stroke="black" points="160,-40.5 160,-62.5 285,-62.5 285,-40.5 160,-40.5"/>
<text text-anchor="start" x="196.5" y="-54.1" font-family="Verdana" font-weight="bold" font-size="8.00">«interface»</text>
<text text-anchor="start" x="186" y="-46.1" font-family="Verdana" font-weight="bold" font-size="8.00">JsonSerializable</text>
<polygon fill="none" stroke="black" points="160,-34.5 160,-40.5 285,-40.5 285,-34.5 160,-34.5"/>
<polygon fill="none" stroke="black" points="160,-15.5 160,-34.5 285,-34.5 285,-15.5 160,-15.5"/>
<text text-anchor="start" x="165" y="-23.1" font-family="Verdana" font-size="8.00">+ «abstract» jsonSerialize()</text>
</g>
<!-- Bartlett\\Sarif\\Internal\\JsonSerializable&#45;&gt;JsonSerializable -->
<g id="edge1" class="edge">
<title>Bartlett\\Sarif\\Internal\\JsonSerializable&#45;&gt;JsonSerializable</title>
<path fill="none" stroke="black" stroke-dasharray="5,2" d="M222,-109.85C222,-97.66 222,-84.56 222,-73.06"/>
<polygon fill="none" stroke="black" points="225.5,-73.02 222,-63.02 218.5,-73.02 225.5,-73.02"/>
</g>
</g>
</svg>
