<?xml version="1.0" encoding="UTF-8" standalone="no"?>
<!DOCTYPE svg PUBLIC "-//W3C//DTD SVG 1.1//EN"
 "http://www.w3.org/Graphics/SVG/1.1/DTD/svg11.dtd">
<!-- Generated by graphviz version 2.43.0 (0)
 -->
<!-- Title: %3 Pages: 1 -->
<svg width="348pt" height="493pt"
 viewBox="0.00 0.00 348.00 493.00" xmlns="http://www.w3.org/2000/svg" xmlns:xlink="http://www.w3.org/1999/xlink">
<g id="graph0" class="graph" transform="scale(1 1) rotate(0) translate(4 489)">
<title>%3</title>
<g id="clust1" class="cluster">
<title>cluster_0</title>
<polygon fill="BurlyWood" stroke="black" points="8,-235 8,-477 332,-477 332,-235 8,-235"/>
<text text-anchor="middle" x="170" y="-461.8" font-family="Times,serif" font-size="14.00">Bartlett\Sarif\Definition</text>
</g>
<g id="clust2" class="cluster">
<title>cluster_1</title>
<polygon fill="Bisque" stroke="black" points="44,-102 44,-227 296,-227 296,-102 44,-102"/>
<text text-anchor="middle" x="170" y="-211.8" font-family="Times,serif" font-size="14.00">Bartlett\Sarif\Internal</text>
</g>
<g id="clust3" class="cluster">
<title>cluster_2</title>
<polygon fill="transparent" stroke="black" points="99,-8 99,-94 241,-94 241,-8 99,-8"/>
<text text-anchor="middle" x="170" y="-78.8" font-family="Times,serif" font-size="14.00">0</text>
</g>
<!-- Bartlett\\Sarif\\Definition\\ThreadFlow -->
<g id="node1" class="node">
<title>Bartlett\\Sarif\\Definition\\ThreadFlow</title>
<polygon fill="#fefece" stroke="transparent" points="324.5,-446 15.5,-446 15.5,-243 324.5,-243 324.5,-446"/>
<polygon fill="#eeeeee" stroke="transparent" points="16,-423.5 16,-445.5 325,-445.5 325,-423.5 16,-423.5"/>
<polygon fill="none" stroke="black" points="16,-423.5 16,-445.5 325,-445.5 325,-423.5 16,-423.5"/>
<text text-anchor="start" x="144" y="-429.1" font-family="Verdana" font-weight="bold" font-size="8.00">ThreadFlow</text>
<polygon fill="none" stroke="black" points="16,-339.5 16,-423.5 325,-423.5 325,-339.5 16,-339.5"/>
<text text-anchor="start" x="21" y="-412.1" font-family="Verdana" font-size="8.00"># id</text>
<text text-anchor="start" x="21" y="-399.1" font-family="Verdana" font-size="8.00"># message</text>
<text text-anchor="start" x="21" y="-386.1" font-family="Verdana" font-size="8.00"># initialState : mixed</text>
<text text-anchor="start" x="21" y="-373.1" font-family="Verdana" font-size="8.00"># immutableState : mixed</text>
<text text-anchor="start" x="21" y="-360.1" font-family="Verdana" font-size="8.00"># locations : mixed</text>
<text text-anchor="start" x="21" y="-347.1" font-family="Verdana" font-size="8.00"># properties</text>
<polygon fill="none" stroke="black" points="16,-242.5 16,-339.5 325,-339.5 325,-242.5 16,-242.5"/>
<text text-anchor="start" x="21" y="-328.1" font-family="Verdana" font-size="8.00">+ __construct()</text>
<text text-anchor="start" x="21" y="-315.1" font-family="Verdana" font-size="8.00">+ setId(id : string) : void</text>
<text text-anchor="start" x="21" y="-302.1" font-family="Verdana" font-size="8.00">+ setMessage(message : Bartlett\Sarif\Definition\Message) : void</text>
<text text-anchor="start" x="21" y="-289.1" font-family="Verdana" font-size="8.00">+ addAdditionalPropertiesInitialState(additionalProperties : array) : void</text>
<text text-anchor="start" x="21" y="-276.1" font-family="Verdana" font-size="8.00">+ addAdditionalProperties(additionalProperties : array) : void</text>
<text text-anchor="start" x="21" y="-263.1" font-family="Verdana" font-size="8.00">+ addLocations(locations : array) : void</text>
<text text-anchor="start" x="21" y="-250.1" font-family="Verdana" font-size="8.00">+ setProperties(propertyBag : Bartlett\Sarif\Definition\PropertyBag) : void</text>
</g>
<!-- Bartlett\\Sarif\\Internal\\JsonSerializable -->
<g id="node2" class="node">
<title>Bartlett\\Sarif\\Internal\\JsonSerializable</title>
<polygon fill="#fefece" stroke="transparent" points="288,-196 52,-196 52,-110 288,-110 288,-196"/>
<polygon fill="#eeeeee" stroke="transparent" points="52,-174 52,-196 288,-196 288,-174 52,-174"/>
<polygon fill="none" stroke="black" points="52,-174 52,-196 288,-196 288,-174 52,-174"/>
<text text-anchor="start" x="146" y="-187.6" font-family="Verdana" font-weight="bold" font-size="8.00">«abstract»</text>
<text text-anchor="start" x="133.5" y="-179.6" font-family="Verdana" font-weight="bold" font-size="8.00">JsonSerializable</text>
<polygon fill="none" stroke="black" points="52,-142 52,-174 288,-174 288,-142 52,-142"/>
<text text-anchor="start" x="57" y="-162.6" font-family="Verdana" font-size="8.00">– required : mixed</text>
<text text-anchor="start" x="57" y="-149.6" font-family="Verdana" font-size="8.00">– optional : mixed</text>
<polygon fill="none" stroke="black" points="52,-110 52,-142 288,-142 288,-110 52,-110"/>
<text text-anchor="start" x="57" y="-130.6" font-family="Verdana" font-size="8.00">+ __construct(required : array = [], optional : array = [])</text>
<text text-anchor="start" x="57" y="-117.6" font-family="Verdana" font-size="8.00">+ jsonSerialize() : array</text>
</g>
<!-- Bartlett\\Sarif\\Definition\\ThreadFlow&#45;&gt;Bartlett\\Sarif\\Internal\\JsonSerializable -->
<g id="edge2" class="edge">
<title>Bartlett\\Sarif\\Definition\\ThreadFlow&#45;&gt;Bartlett\\Sarif\\Internal\\JsonSerializable</title>
<path fill="none" stroke="black" d="M170,-242.92C170,-230.31 170,-217.83 170,-206.39"/>
<polygon fill="none" stroke="black" points="173.5,-206.2 170,-196.2 166.5,-206.2 173.5,-206.2"/>
</g>
<!-- JsonSerializable -->
<g id="node3" class="node">
<title>JsonSerializable</title>
<polygon fill="#fefece" stroke="transparent" points="232.5,-63 107.5,-63 107.5,-16 232.5,-16 232.5,-63"/>
<polygon fill="#eeeeee" stroke="transparent" points="108,-40.5 108,-62.5 233,-62.5 233,-40.5 108,-40.5"/>
<polygon fill="none" stroke="black" points="108,-40.5 108,-62.5 233,-62.5 233,-40.5 108,-40.5"/>
<text text-anchor="start" x="144.5" y="-54.1" font-family="Verdana" font-weight="bold" font-size="8.00">«interface»</text>
<text text-anchor="start" x="134" y="-46.1" font-family="Verdana" font-weight="bold" font-size="8.00">JsonSerializable</text>
<polygon fill="none" stroke="black" points="108,-34.5 108,-40.5 233,-40.5 233,-34.5 108,-34.5"/>
<polygon fill="none" stroke="black" points="108,-15.5 108,-34.5 233,-34.5 233,-15.5 108,-15.5"/>
<text text-anchor="start" x="113" y="-23.1" font-family="Verdana" font-size="8.00">+ «abstract» jsonSerialize()</text>
</g>
<!-- Bartlett\\Sarif\\Internal\\JsonSerializable&#45;&gt;JsonSerializable -->
<g id="edge1" class="edge">
<title>Bartlett\\Sarif\\Internal\\JsonSerializable&#45;&gt;JsonSerializable</title>
<path fill="none" stroke="black" stroke-dasharray="5,2" d="M170,-109.85C170,-97.66 170,-84.56 170,-73.06"/>
<polygon fill="none" stroke="black" points="173.5,-73.02 170,-63.02 166.5,-73.02 173.5,-73.02"/>
</g>
</g>
</svg>
