<?xml version="1.0" encoding="UTF-8" standalone="no"?>
<!DOCTYPE svg PUBLIC "-//W3C//DTD SVG 1.1//EN"
 "http://www.w3.org/Graphics/SVG/1.1/DTD/svg11.dtd">
<!-- Generated by graphviz version 2.43.0 (0)
 -->
<!-- Title: %3 Pages: 1 -->
<svg width="802pt" height="763pt"
 viewBox="0.00 0.00 802.00 763.00" xmlns="http://www.w3.org/2000/svg" xmlns:xlink="http://www.w3.org/1999/xlink">
<g id="graph0" class="graph" transform="scale(1 1) rotate(0) translate(4 759)">
<title>%3</title>
<g id="clust1" class="cluster">
<title>cluster_0</title>
<polygon fill="BurlyWood" stroke="black" points="8,-8 8,-747 786,-747 786,-8 8,-8"/>
<text text-anchor="middle" x="397" y="-731.8" font-family="Times,serif" font-size="14.00">Bartlett\Sarif\Converter</text>
</g>
<!-- Bartlett\\Sarif\\Converter\\PhpMdConverter -->
<g id="node1" class="node">
<title>Bartlett\\Sarif\\Converter\\PhpMdConverter</title>
<polygon fill="#fefece" stroke="transparent" points="778,-716 16,-716 16,-559 778,-559 778,-716"/>
<polygon fill="#eeeeee" stroke="transparent" points="16,-693.5 16,-715.5 778,-715.5 778,-693.5 16,-693.5"/>
<polygon fill="none" stroke="black" points="16,-693.5 16,-715.5 778,-715.5 778,-693.5 16,-693.5"/>
<text text-anchor="start" x="358.5" y="-699.1" font-family="Verdana" font-weight="bold" font-size="8.00">PhpMdConverter</text>
<polygon fill="none" stroke="black" points="16,-622.5 16,-693.5 778,-693.5 778,-622.5 16,-622.5"/>
<text text-anchor="start" x="21" y="-682.1" font-family="Verdana" font-size="8.00">+ «static» TOOL_NAME : string = &quot;PHPMD&quot; {readOnly}</text>
<text text-anchor="start" x="21" y="-669.1" font-family="Verdana" font-size="8.00">+ «static» TOOL_SHORT_DESCRIPTION : string = &quot;Tool\ with\ aims\ to\ be\ a\ PHP\ equivalent\ of\ the\ well\ known\ Java\ tool\ PMD&quot; {readOnly}</text>
<text text-anchor="start" x="21" y="-656.1" font-family="Verdana" font-size="8.00">+ «static» TOOL_FULL_DESCRIPTION : string = &quot;PHPMD\ is\ a\ spin\&#45;off\ project\ of\ PHP\ Depend\ and\ aims\ to\ be\ a\ PHP\ equivalent\ of\ the\ well\ known\ Java\ tool\ PMD\.&quot; {readOnly}</text>
<text text-anchor="start" x="21" y="-643.1" font-family="Verdana" font-size="8.00">+ «static» TOOL_INFO_URI : string = &quot;https\:\/\/github\.com\/phpmd\/phpmd&quot; {readOnly}</text>
<text text-anchor="start" x="21" y="-630.1" font-family="Verdana" font-size="8.00">+ «static» TOOL_COMPOSER_PACKAGE : string = &quot;phpmd\/phpmd&quot; {readOnly}</text>
<polygon fill="none" stroke="black" points="16,-616.5 16,-622.5 778,-622.5 778,-616.5 16,-616.5"/>
<polygon fill="none" stroke="black" points="16,-558.5 16,-616.5 778,-616.5 778,-558.5 16,-558.5"/>
<text text-anchor="start" x="21" y="-605.1" font-family="Verdana" font-size="8.00">+ rules() : array</text>
<text text-anchor="start" x="21" y="-592.1" font-family="Verdana" font-size="8.00">+ generateReport(report : PHPMD\Report) : ?string</text>
<text text-anchor="start" x="21" y="-579.1" font-family="Verdana" font-size="8.00"># addViolations(violations : iterable) : void</text>
<text text-anchor="start" x="21" y="-566.1" font-family="Verdana" font-size="8.00"># addErrors(errors : iterable) : void</text>
</g>
<!-- Bartlett\\Sarif\\Converter\\AbstractConverter -->
<g id="node2" class="node">
<title>Bartlett\\Sarif\\Converter\\AbstractConverter</title>
<polygon fill="#fefece" stroke="transparent" points="716.5,-523 77.5,-523 77.5,-177 716.5,-177 716.5,-523"/>
<polygon fill="#eeeeee" stroke="transparent" points="78,-501 78,-523 717,-523 717,-501 78,-501"/>
<polygon fill="none" stroke="black" points="78,-501 78,-523 717,-523 717,-501 78,-501"/>
<text text-anchor="start" x="373.5" y="-514.6" font-family="Verdana" font-weight="bold" font-size="8.00">«abstract»</text>
<text text-anchor="start" x="356.5" y="-506.6" font-family="Verdana" font-weight="bold" font-size="8.00">AbstractConverter</text>
<polygon fill="none" stroke="black" points="78,-352 78,-501 717,-501 717,-352 78,-352"/>
<text text-anchor="start" x="83" y="-489.6" font-family="Verdana" font-size="8.00"># toolName</text>
<text text-anchor="start" x="83" y="-476.6" font-family="Verdana" font-size="8.00"># toolFullName</text>
<text text-anchor="start" x="83" y="-463.6" font-family="Verdana" font-size="8.00"># toolShortDescription</text>
<text text-anchor="start" x="83" y="-450.6" font-family="Verdana" font-size="8.00"># toolFullDescription</text>
<text text-anchor="start" x="83" y="-437.6" font-family="Verdana" font-size="8.00"># toolInformationUri</text>
<text text-anchor="start" x="83" y="-424.6" font-family="Verdana" font-size="8.00"># toolSemanticVersion</text>
<text text-anchor="start" x="83" y="-411.6" font-family="Verdana" font-size="8.00"># rules : mixed = []</text>
<text text-anchor="start" x="83" y="-398.6" font-family="Verdana" font-size="8.00"># results : mixed = []</text>
<text text-anchor="start" x="83" y="-385.6" font-family="Verdana" font-size="8.00"># serializer</text>
<text text-anchor="start" x="83" y="-372.6" font-family="Verdana" font-size="8.00"># startTime</text>
<text text-anchor="start" x="83" y="-359.6" font-family="Verdana" font-size="8.00"># endTime</text>
<polygon fill="none" stroke="black" points="78,-177 78,-352 717,-352 717,-177 78,-177"/>
<text text-anchor="start" x="83" y="-340.6" font-family="Verdana" font-size="8.00">+ __construct(factory : Bartlett\Sarif\Factory\SerializerFactory = «unknown»)</text>
<text text-anchor="start" x="83" y="-327.6" font-family="Verdana" font-size="8.00">+ toolDriver() : Bartlett\Sarif\Definition\ToolComponent</text>
<text text-anchor="start" x="83" y="-314.6" font-family="Verdana" font-size="8.00">+ toolExtensions() : array</text>
<text text-anchor="start" x="83" y="-301.6" font-family="Verdana" font-size="8.00">+ rules() : array</text>
<text text-anchor="start" x="83" y="-288.6" font-family="Verdana" font-size="8.00">+ sarifLog(runs : array = [], version : string = &#39;2\.1\.0&#39;) : ?string</text>
<text text-anchor="start" x="83" y="-275.6" font-family="Verdana" font-size="8.00">+ invocations(properties : Bartlett\Sarif\Definition\PropertyBag = «unknown») : array</text>
<text text-anchor="start" x="83" y="-262.6" font-family="Verdana" font-size="8.00">+ automationDetails() : Bartlett\Sarif\Definition\RunAutomationDetails</text>
<text text-anchor="start" x="83" y="-249.6" font-family="Verdana" font-size="8.00">+ run(invocations : array) : Bartlett\Sarif\Definition\Run</text>
<text text-anchor="start" x="83" y="-236.6" font-family="Verdana" font-size="8.00"># getToolVersion(package : string) : string</text>
<text text-anchor="start" x="83" y="-223.6" font-family="Verdana" font-size="8.00"># pathToArtifactLocation(path : string) : string</text>
<text text-anchor="start" x="83" y="-210.6" font-family="Verdana" font-size="8.00"># pathToUri(path : string) : string</text>
<text text-anchor="start" x="83" y="-197.6" font-family="Verdana" font-size="8.00"># getCodeSnippet(filePath : string, lineNumber : int, linesBefore : int, linesAfter : int) : ?string</text>
<text text-anchor="start" x="83" y="-184.6" font-family="Verdana" font-size="8.00"># getSnippetRegion(filePath : string, lineNumber : int, column : int = «unknown», linesBefore : int = 2, linesAfter : int = 2) : Bartlett\Sarif\Definition\Region</text>
</g>
<!-- Bartlett\\Sarif\\Converter\\PhpMdConverter&#45;&gt;Bartlett\\Sarif\\Converter\\AbstractConverter -->
<g id="edge2" class="edge">
<title>Bartlett\\Sarif\\Converter\\PhpMdConverter&#45;&gt;Bartlett\\Sarif\\Converter\\AbstractConverter</title>
<path fill="none" stroke="black" d="M397,-558.86C397,-550.64 397,-542.06 397,-533.26"/>
<polygon fill="none" stroke="black" points="400.5,-533.24 397,-523.24 393.5,-533.24 400.5,-533.24"/>
</g>
<!-- Bartlett\\Sarif\\Converter\\ConverterInterface -->
<g id="node3" class="node">
<title>Bartlett\\Sarif\\Converter\\ConverterInterface</title>
<polygon fill="#fefece" stroke="transparent" points="599,-141 195,-141 195,-16 599,-16 599,-141"/>
<polygon fill="#eeeeee" stroke="transparent" points="195,-118.5 195,-140.5 599,-140.5 599,-118.5 195,-118.5"/>
<polygon fill="none" stroke="black" points="195,-118.5 195,-140.5 599,-140.5 599,-118.5 195,-118.5"/>
<text text-anchor="start" x="371" y="-132.1" font-family="Verdana" font-weight="bold" font-size="8.00">«interface»</text>
<text text-anchor="start" x="354.5" y="-124.1" font-family="Verdana" font-weight="bold" font-size="8.00">ConverterInterface</text>
<polygon fill="none" stroke="black" points="195,-112.5 195,-118.5 599,-118.5 599,-112.5 195,-112.5"/>
<polygon fill="none" stroke="black" points="195,-15.5 195,-112.5 599,-112.5 599,-15.5 195,-15.5"/>
<text text-anchor="start" x="200" y="-101.1" font-family="Verdana" font-size="8.00">+ «abstract» toolDriver() : Bartlett\Sarif\Definition\ToolComponent</text>
<text text-anchor="start" x="200" y="-88.1" font-family="Verdana" font-size="8.00">+ «abstract» toolExtensions() : array</text>
<text text-anchor="start" x="200" y="-75.1" font-family="Verdana" font-size="8.00">+ «abstract» rules() : array</text>
<text text-anchor="start" x="200" y="-62.1" font-family="Verdana" font-size="8.00">+ «abstract» invocations(properties : Bartlett\Sarif\Definition\PropertyBag = «unknown») : array</text>
<text text-anchor="start" x="200" y="-49.1" font-family="Verdana" font-size="8.00">+ «abstract» automationDetails() : Bartlett\Sarif\Definition\RunAutomationDetails</text>
<text text-anchor="start" x="200" y="-36.1" font-family="Verdana" font-size="8.00">+ «abstract» run(invocations : array) : Bartlett\Sarif\Definition\Run</text>
<text text-anchor="start" x="200" y="-23.1" font-family="Verdana" font-size="8.00">+ «abstract» sarifLog(runs : array = [], version : string = &#39;2\.1\.0&#39;) : ?string</text>
</g>
<!-- Bartlett\\Sarif\\Converter\\AbstractConverter&#45;&gt;Bartlett\\Sarif\\Converter\\ConverterInterface -->
<g id="edge1" class="edge">
<title>Bartlett\\Sarif\\Converter\\AbstractConverter&#45;&gt;Bartlett\\Sarif\\Converter\\ConverterInterface</title>
<path fill="none" stroke="black" stroke-dasharray="5,2" d="M397,-176.8C397,-168.02 397,-159.47 397,-151.32"/>
<polygon fill="none" stroke="black" points="400.5,-151.22 397,-141.22 393.5,-151.22 400.5,-151.22"/>
</g>
</g>
</svg>
