<?xml version="1.0" encoding="UTF-8" standalone="no"?>
<!DOCTYPE svg PUBLIC "-//W3C//DTD SVG 1.1//EN"
 "http://www.w3.org/Graphics/SVG/1.1/DTD/svg11.dtd">
<!-- Generated by graphviz version 2.43.0 (0)
 -->
<!-- Title: %3 Pages: 1 -->
<svg width="1200pt" height="763pt"
 viewBox="0.00 0.00 1200.00 763.00" xmlns="http://www.w3.org/2000/svg" xmlns:xlink="http://www.w3.org/1999/xlink">
<g id="graph0" class="graph" transform="scale(1 1) rotate(0) translate(4 759)">
<title>%3</title>
<g id="clust1" class="cluster">
<title>cluster_0</title>
<polygon fill="BurlyWood" stroke="black" points="8,-8 8,-747 664,-747 664,-8 8,-8"/>
<text text-anchor="middle" x="336" y="-731.8" font-family="Times,serif" font-size="14.00">Bartlett\Sarif\Converter</text>
</g>
<g id="clust2" class="cluster">
<title>cluster_1</title>
<polygon fill="transparent" stroke="black" points="672,-318.5 672,-404.5 1184,-404.5 1184,-318.5 672,-318.5"/>
<text text-anchor="middle" x="928" y="-389.3" font-family="Times,serif" font-size="14.00">PHPStan\Command\ErrorFormatter</text>
</g>
<!-- Bartlett\\Sarif\\Converter\\PhpStanConverter -->
<g id="node1" class="node">
<title>Bartlett\\Sarif\\Converter\\PhpStanConverter</title>
<polygon fill="#fefece" stroke="transparent" points="614.5,-716 141.5,-716 141.5,-559 614.5,-559 614.5,-716"/>
<polygon fill="#eeeeee" stroke="transparent" points="142,-693.5 142,-715.5 615,-715.5 615,-693.5 142,-693.5"/>
<polygon fill="none" stroke="black" points="142,-693.5 142,-715.5 615,-715.5 615,-693.5 142,-693.5"/>
<text text-anchor="start" x="336.5" y="-699.1" font-family="Verdana" font-weight="bold" font-size="8.00">PhpStanConverter</text>
<polygon fill="none" stroke="black" points="142,-609.5 142,-693.5 615,-693.5 615,-609.5 142,-609.5"/>
<text text-anchor="start" x="147" y="-682.1" font-family="Verdana" font-size="8.00">+ «static» TOOL_NAME : string = &quot;PHPStan&quot; {readOnly}</text>
<text text-anchor="start" x="147" y="-669.1" font-family="Verdana" font-size="8.00">+ «static» TOOL_SHORT_DESCRIPTION : string = &quot;PHP\ Static\ Analysis\ Tool&quot; {readOnly}</text>
<text text-anchor="start" x="147" y="-656.1" font-family="Verdana" font-size="8.00">+ «static» TOOL_FULL_DESCRIPTION : string = &quot;PHPStan\ \&#45;\ PHP\ Static\ Analysis\ Tool&quot; {readOnly}</text>
<text text-anchor="start" x="147" y="-643.1" font-family="Verdana" font-size="8.00">+ «static» TOOL_INFO_URI : string = &quot;https\:\/\/phpstan\.org&quot; {readOnly}</text>
<text text-anchor="start" x="147" y="-630.1" font-family="Verdana" font-size="8.00">+ «static» TOOL_COMPOSER_PACKAGE : string = &quot;phpstan\/phpstan\&#45;src&quot; {readOnly}</text>
<text text-anchor="start" x="147" y="-617.1" font-family="Verdana" font-size="8.00">+ «static» DEFAULT_HELP_URI : string = &quot;https\:\/\/phpstan\.org\/user\&#45;guide\/command\&#45;line\&#45;usage&quot; {readOnly}</text>
<polygon fill="none" stroke="black" points="142,-603.5 142,-609.5 615,-609.5 615,-603.5 142,-603.5"/>
<polygon fill="none" stroke="black" points="142,-558.5 142,-603.5 615,-603.5 615,-558.5 142,-558.5"/>
<text text-anchor="start" x="147" y="-592.1" font-family="Verdana" font-size="8.00">+ toolDriver() : Bartlett\Sarif\Definition\ToolComponent</text>
<text text-anchor="start" x="147" y="-579.1" font-family="Verdana" font-size="8.00">+ rules() : array</text>
<text text-anchor="start" x="147" y="-566.1" font-family="Verdana" font-size="8.00">+ formatErrors(analysisResult : PHPStan\Command\AnalysisResult, output : PHPStan\Command\Output) : int</text>
</g>
<!-- Bartlett\\Sarif\\Converter\\AbstractConverter -->
<g id="node2" class="node">
<title>Bartlett\\Sarif\\Converter\\AbstractConverter</title>
<polygon fill="#fefece" stroke="transparent" points="655.5,-523 16.5,-523 16.5,-177 655.5,-177 655.5,-523"/>
<polygon fill="#eeeeee" stroke="transparent" points="17,-501 17,-523 656,-523 656,-501 17,-501"/>
<polygon fill="none" stroke="black" points="17,-501 17,-523 656,-523 656,-501 17,-501"/>
<text text-anchor="start" x="312.5" y="-514.6" font-family="Verdana" font-weight="bold" font-size="8.00">«abstract»</text>
<text text-anchor="start" x="295.5" y="-506.6" font-family="Verdana" font-weight="bold" font-size="8.00">AbstractConverter</text>
<polygon fill="none" stroke="black" points="17,-352 17,-501 656,-501 656,-352 17,-352"/>
<text text-anchor="start" x="22" y="-489.6" font-family="Verdana" font-size="8.00"># toolName</text>
<text text-anchor="start" x="22" y="-476.6" font-family="Verdana" font-size="8.00"># toolFullName</text>
<text text-anchor="start" x="22" y="-463.6" font-family="Verdana" font-size="8.00"># toolShortDescription</text>
<text text-anchor="start" x="22" y="-450.6" font-family="Verdana" font-size="8.00"># toolFullDescription</text>
<text text-anchor="start" x="22" y="-437.6" font-family="Verdana" font-size="8.00"># toolInformationUri</text>
<text text-anchor="start" x="22" y="-424.6" font-family="Verdana" font-size="8.00"># toolSemanticVersion</text>
<text text-anchor="start" x="22" y="-411.6" font-family="Verdana" font-size="8.00"># rules : mixed = []</text>
<text text-anchor="start" x="22" y="-398.6" font-family="Verdana" font-size="8.00"># results : mixed = []</text>
<text text-anchor="start" x="22" y="-385.6" font-family="Verdana" font-size="8.00"># serializer</text>
<text text-anchor="start" x="22" y="-372.6" font-family="Verdana" font-size="8.00"># startTime</text>
<text text-anchor="start" x="22" y="-359.6" font-family="Verdana" font-size="8.00"># endTime</text>
<polygon fill="none" stroke="black" points="17,-177 17,-352 656,-352 656,-177 17,-177"/>
<text text-anchor="start" x="22" y="-340.6" font-family="Verdana" font-size="8.00">+ __construct(factory : Bartlett\Sarif\Factory\SerializerFactory = «unknown»)</text>
<text text-anchor="start" x="22" y="-327.6" font-family="Verdana" font-size="8.00">+ toolDriver() : Bartlett\Sarif\Definition\ToolComponent</text>
<text text-anchor="start" x="22" y="-314.6" font-family="Verdana" font-size="8.00">+ toolExtensions() : array</text>
<text text-anchor="start" x="22" y="-301.6" font-family="Verdana" font-size="8.00">+ rules() : array</text>
<text text-anchor="start" x="22" y="-288.6" font-family="Verdana" font-size="8.00">+ sarifLog(runs : array = [], version : string = &#39;2\.1\.0&#39;) : ?string</text>
<text text-anchor="start" x="22" y="-275.6" font-family="Verdana" font-size="8.00">+ invocations(properties : Bartlett\Sarif\Definition\PropertyBag = «unknown») : array</text>
<text text-anchor="start" x="22" y="-262.6" font-family="Verdana" font-size="8.00">+ automationDetails() : Bartlett\Sarif\Definition\RunAutomationDetails</text>
<text text-anchor="start" x="22" y="-249.6" font-family="Verdana" font-size="8.00">+ run(invocations : array) : Bartlett\Sarif\Definition\Run</text>
<text text-anchor="start" x="22" y="-236.6" font-family="Verdana" font-size="8.00"># getToolVersion(package : string) : string</text>
<text text-anchor="start" x="22" y="-223.6" font-family="Verdana" font-size="8.00"># pathToArtifactLocation(path : string) : string</text>
<text text-anchor="start" x="22" y="-210.6" font-family="Verdana" font-size="8.00"># pathToUri(path : string) : string</text>
<text text-anchor="start" x="22" y="-197.6" font-family="Verdana" font-size="8.00"># getCodeSnippet(filePath : string, lineNumber : int, linesBefore : int, linesAfter : int) : ?string</text>
<text text-anchor="start" x="22" y="-184.6" font-family="Verdana" font-size="8.00"># getSnippetRegion(filePath : string, lineNumber : int, column : int = «unknown», linesBefore : int = 2, linesAfter : int = 2) : Bartlett\Sarif\Definition\Region</text>
</g>
<!-- Bartlett\\Sarif\\Converter\\PhpStanConverter&#45;&gt;Bartlett\\Sarif\\Converter\\AbstractConverter -->
<g id="edge2" class="edge">
<title>Bartlett\\Sarif\\Converter\\PhpStanConverter&#45;&gt;Bartlett\\Sarif\\Converter\\AbstractConverter</title>
<path fill="none" stroke="black" d="M366.58,-558.86C365.37,-550.64 364.11,-542.06 362.81,-533.26"/>
<polygon fill="none" stroke="black" points="366.26,-532.62 361.34,-523.24 359.33,-533.64 366.26,-532.62"/>
</g>
<!-- PHPStan\\Command\\ErrorFormatter\\ErrorFormatter -->
<g id="node4" class="node">
<title>PHPStan\\Command\\ErrorFormatter\\ErrorFormatter</title>
<polygon fill="#fefece" stroke="transparent" points="1176,-373.5 680,-373.5 680,-326.5 1176,-326.5 1176,-373.5"/>
<polygon fill="#eeeeee" stroke="transparent" points="680,-351 680,-373 1176,-373 1176,-351 680,-351"/>
<polygon fill="none" stroke="black" points="680,-351 680,-373 1176,-373 1176,-351 680,-351"/>
<text text-anchor="start" x="902" y="-364.6" font-family="Verdana" font-weight="bold" font-size="8.00">«interface»</text>
<text text-anchor="start" x="894.5" y="-356.6" font-family="Verdana" font-weight="bold" font-size="8.00">ErrorFormatter</text>
<polygon fill="none" stroke="black" points="680,-345 680,-351 1176,-351 1176,-345 680,-345"/>
<polygon fill="none" stroke="black" points="680,-326 680,-345 1176,-345 1176,-326 680,-326"/>
<text text-anchor="start" x="685" y="-333.6" font-family="Verdana" font-size="8.00">+ «abstract» formatErrors(analysisResult : PHPStan\Command\AnalysisResult, output : PHPStan\Command\Output) : int</text>
</g>
<!-- Bartlett\\Sarif\\Converter\\PhpStanConverter&#45;&gt;PHPStan\\Command\\ErrorFormatter\\ErrorFormatter -->
<g id="edge3" class="edge">
<title>Bartlett\\Sarif\\Converter\\PhpStanConverter&#45;&gt;PHPStan\\Command\\ErrorFormatter\\ErrorFormatter</title>
<path fill="none" stroke="black" stroke-dasharray="5,2" d="M591.36,-558.99C617.55,-547.73 643.65,-535.64 668,-523 751.33,-479.75 841.11,-416.14 890.33,-379.62"/>
<polygon fill="none" stroke="black" points="892.54,-382.35 898.46,-373.56 888.35,-376.73 892.54,-382.35"/>
</g>
<!-- Bartlett\\Sarif\\Converter\\ConverterInterface -->
<g id="node3" class="node">
<title>Bartlett\\Sarif\\Converter\\ConverterInterface</title>
<polygon fill="#fefece" stroke="transparent" points="538,-141 134,-141 134,-16 538,-16 538,-141"/>
<polygon fill="#eeeeee" stroke="transparent" points="134,-118.5 134,-140.5 538,-140.5 538,-118.5 134,-118.5"/>
<polygon fill="none" stroke="black" points="134,-118.5 134,-140.5 538,-140.5 538,-118.5 134,-118.5"/>
<text text-anchor="start" x="310" y="-132.1" font-family="Verdana" font-weight="bold" font-size="8.00">«interface»</text>
<text text-anchor="start" x="293.5" y="-124.1" font-family="Verdana" font-weight="bold" font-size="8.00">ConverterInterface</text>
<polygon fill="none" stroke="black" points="134,-112.5 134,-118.5 538,-118.5 538,-112.5 134,-112.5"/>
<polygon fill="none" stroke="black" points="134,-15.5 134,-112.5 538,-112.5 538,-15.5 134,-15.5"/>
<text text-anchor="start" x="139" y="-101.1" font-family="Verdana" font-size="8.00">+ «abstract» toolDriver() : Bartlett\Sarif\Definition\ToolComponent</text>
<text text-anchor="start" x="139" y="-88.1" font-family="Verdana" font-size="8.00">+ «abstract» toolExtensions() : array</text>
<text text-anchor="start" x="139" y="-75.1" font-family="Verdana" font-size="8.00">+ «abstract» rules() : array</text>
<text text-anchor="start" x="139" y="-62.1" font-family="Verdana" font-size="8.00">+ «abstract» invocations(properties : Bartlett\Sarif\Definition\PropertyBag = «unknown») : array</text>
<text text-anchor="start" x="139" y="-49.1" font-family="Verdana" font-size="8.00">+ «abstract» automationDetails() : Bartlett\Sarif\Definition\RunAutomationDetails</text>
<text text-anchor="start" x="139" y="-36.1" font-family="Verdana" font-size="8.00">+ «abstract» run(invocations : array) : Bartlett\Sarif\Definition\Run</text>
<text text-anchor="start" x="139" y="-23.1" font-family="Verdana" font-size="8.00">+ «abstract» sarifLog(runs : array = [], version : string = &#39;2\.1\.0&#39;) : ?string</text>
</g>
<!-- Bartlett\\Sarif\\Converter\\AbstractConverter&#45;&gt;Bartlett\\Sarif\\Converter\\ConverterInterface -->
<g id="edge1" class="edge">
<title>Bartlett\\Sarif\\Converter\\AbstractConverter&#45;&gt;Bartlett\\Sarif\\Converter\\ConverterInterface</title>
<path fill="none" stroke="black" stroke-dasharray="5,2" d="M336,-176.8C336,-168.02 336,-159.47 336,-151.32"/>
<polygon fill="none" stroke="black" points="339.5,-151.22 336,-141.22 332.5,-151.22 339.5,-151.22"/>
</g>
</g>
</svg>
