<?xml version="1.0" encoding="UTF-8" standalone="no"?>
<!DOCTYPE svg PUBLIC "-//W3C//DTD SVG 1.1//EN"
 "http://www.w3.org/Graphics/SVG/1.1/DTD/svg11.dtd">
<!-- Generated by graphviz version 2.43.0 (0)
 -->
<!-- Title: %3 Pages: 1 -->
<svg width="358pt" height="519pt"
 viewBox="0.00 0.00 358.00 519.00" xmlns="http://www.w3.org/2000/svg" xmlns:xlink="http://www.w3.org/1999/xlink">
<g id="graph0" class="graph" transform="scale(1 1) rotate(0) translate(4 515)">
<title>%3</title>
<g id="clust1" class="cluster">
<title>cluster_0</title>
<polygon fill="BurlyWood" stroke="black" points="8,-235 8,-503 342,-503 342,-235 8,-235"/>
<text text-anchor="middle" x="175" y="-487.8" font-family="Times,serif" font-size="14.00">Bartlett\Sarif\Definition</text>
</g>
<g id="clust2" class="cluster">
<title>cluster_1</title>
<polygon fill="Bisque" stroke="black" points="49,-102 49,-227 301,-227 301,-102 49,-102"/>
<text text-anchor="middle" x="175" y="-211.8" font-family="Times,serif" font-size="14.00">Bartlett\Sarif\Internal</text>
</g>
<g id="clust3" class="cluster">
<title>cluster_2</title>
<polygon fill="transparent" stroke="black" points="104,-8 104,-94 246,-94 246,-8 104,-8"/>
<text text-anchor="middle" x="175" y="-78.8" font-family="Times,serif" font-size="14.00">0</text>
</g>
<!-- Bartlett\\Sarif\\Definition\\VersionControlDetails -->
<g id="node1" class="node">
<title>Bartlett\\Sarif\\Definition\\VersionControlDetails</title>
<polygon fill="#fefece" stroke="transparent" points="333.5,-472 16.5,-472 16.5,-243 333.5,-243 333.5,-472"/>
<polygon fill="#eeeeee" stroke="transparent" points="17,-449.5 17,-471.5 334,-471.5 334,-449.5 17,-449.5"/>
<polygon fill="none" stroke="black" points="17,-449.5 17,-471.5 334,-471.5 334,-449.5 17,-449.5"/>
<text text-anchor="start" x="126" y="-455.1" font-family="Verdana" font-weight="bold" font-size="8.00">VersionControlDetails</text>
<polygon fill="none" stroke="black" points="17,-352.5 17,-449.5 334,-449.5 334,-352.5 17,-352.5"/>
<text text-anchor="start" x="22" y="-438.1" font-family="Verdana" font-size="8.00"># repositoryUri</text>
<text text-anchor="start" x="22" y="-425.1" font-family="Verdana" font-size="8.00"># revisionId</text>
<text text-anchor="start" x="22" y="-412.1" font-family="Verdana" font-size="8.00"># branch</text>
<text text-anchor="start" x="22" y="-399.1" font-family="Verdana" font-size="8.00"># revisionTag</text>
<text text-anchor="start" x="22" y="-386.1" font-family="Verdana" font-size="8.00"># asOfTimeUtc</text>
<text text-anchor="start" x="22" y="-373.1" font-family="Verdana" font-size="8.00"># mappedTo</text>
<text text-anchor="start" x="22" y="-360.1" font-family="Verdana" font-size="8.00"># properties</text>
<polygon fill="none" stroke="black" points="17,-242.5 17,-352.5 334,-352.5 334,-242.5 17,-242.5"/>
<text text-anchor="start" x="22" y="-341.1" font-family="Verdana" font-size="8.00">+ __construct(repositoryUri : string)</text>
<text text-anchor="start" x="22" y="-328.1" font-family="Verdana" font-size="8.00">+ setRepositoryUri(repositoryUri : string) : void</text>
<text text-anchor="start" x="22" y="-315.1" font-family="Verdana" font-size="8.00">+ setRevisionId(revisionId : string) : void</text>
<text text-anchor="start" x="22" y="-302.1" font-family="Verdana" font-size="8.00">+ setBranch(branch : string) : void</text>
<text text-anchor="start" x="22" y="-289.1" font-family="Verdana" font-size="8.00">+ setRevisionTag(revisionTag : string) : void</text>
<text text-anchor="start" x="22" y="-276.1" font-family="Verdana" font-size="8.00">+ setAsOfTimeUtc(asOfTimeUtc : string) : void</text>
<text text-anchor="start" x="22" y="-263.1" font-family="Verdana" font-size="8.00">+ setMappedTo(mappedTo : Bartlett\Sarif\Definition\ArtifactLocation) : void</text>
<text text-anchor="start" x="22" y="-250.1" font-family="Verdana" font-size="8.00">+ setProperties(propertyBag : Bartlett\Sarif\Definition\PropertyBag) : void</text>
</g>
<!-- Bartlett\\Sarif\\Internal\\JsonSerializable -->
<g id="node2" class="node">
<title>Bartlett\\Sarif\\Internal\\JsonSerializable</title>
<polygon fill="#fefece" stroke="transparent" points="293,-196 57,-196 57,-110 293,-110 293,-196"/>
<polygon fill="#eeeeee" stroke="transparent" points="57,-174 57,-196 293,-196 293,-174 57,-174"/>
<polygon fill="none" stroke="black" points="57,-174 57,-196 293,-196 293,-174 57,-174"/>
<text text-anchor="start" x="151" y="-187.6" font-family="Verdana" font-weight="bold" font-size="8.00">«abstract»</text>
<text text-anchor="start" x="138.5" y="-179.6" font-family="Verdana" font-weight="bold" font-size="8.00">JsonSerializable</text>
<polygon fill="none" stroke="black" points="57,-142 57,-174 293,-174 293,-142 57,-142"/>
<text text-anchor="start" x="62" y="-162.6" font-family="Verdana" font-size="8.00">– required : mixed</text>
<text text-anchor="start" x="62" y="-149.6" font-family="Verdana" font-size="8.00">– optional : mixed</text>
<polygon fill="none" stroke="black" points="57,-110 57,-142 293,-142 293,-110 57,-110"/>
<text text-anchor="start" x="62" y="-130.6" font-family="Verdana" font-size="8.00">+ __construct(required : array = [], optional : array = [])</text>
<text text-anchor="start" x="62" y="-117.6" font-family="Verdana" font-size="8.00">+ jsonSerialize() : array</text>
</g>
<!-- Bartlett\\Sarif\\Definition\\VersionControlDetails&#45;&gt;Bartlett\\Sarif\\Internal\\JsonSerializable -->
<g id="edge2" class="edge">
<title>Bartlett\\Sarif\\Definition\\VersionControlDetails&#45;&gt;Bartlett\\Sarif\\Internal\\JsonSerializable</title>
<path fill="none" stroke="black" d="M175,-242.82C175,-230.12 175,-217.68 175,-206.33"/>
<polygon fill="none" stroke="black" points="178.5,-206.23 175,-196.23 171.5,-206.23 178.5,-206.23"/>
</g>
<!-- JsonSerializable -->
<g id="node3" class="node">
<title>JsonSerializable</title>
<polygon fill="#fefece" stroke="transparent" points="237.5,-63 112.5,-63 112.5,-16 237.5,-16 237.5,-63"/>
<polygon fill="#eeeeee" stroke="transparent" points="113,-40.5 113,-62.5 238,-62.5 238,-40.5 113,-40.5"/>
<polygon fill="none" stroke="black" points="113,-40.5 113,-62.5 238,-62.5 238,-40.5 113,-40.5"/>
<text text-anchor="start" x="149.5" y="-54.1" font-family="Verdana" font-weight="bold" font-size="8.00">«interface»</text>
<text text-anchor="start" x="139" y="-46.1" font-family="Verdana" font-weight="bold" font-size="8.00">JsonSerializable</text>
<polygon fill="none" stroke="black" points="113,-34.5 113,-40.5 238,-40.5 238,-34.5 113,-34.5"/>
<polygon fill="none" stroke="black" points="113,-15.5 113,-34.5 238,-34.5 238,-15.5 113,-15.5"/>
<text text-anchor="start" x="118" y="-23.1" font-family="Verdana" font-size="8.00">+ «abstract» jsonSerialize()</text>
</g>
<!-- Bartlett\\Sarif\\Internal\\JsonSerializable&#45;&gt;JsonSerializable -->
<g id="edge1" class="edge">
<title>Bartlett\\Sarif\\Internal\\JsonSerializable&#45;&gt;JsonSerializable</title>
<path fill="none" stroke="black" stroke-dasharray="5,2" d="M175,-109.85C175,-97.66 175,-84.56 175,-73.06"/>
<polygon fill="none" stroke="black" points="178.5,-73.02 175,-63.02 171.5,-73.02 178.5,-73.02"/>
</g>
</g>
</svg>
