<?xml version="1.0" encoding="UTF-8" standalone="no"?>
<!DOCTYPE svg PUBLIC "-//W3C//DTD SVG 1.1//EN"
 "http://www.w3.org/Graphics/SVG/1.1/DTD/svg11.dtd">
<!-- Generated by graphviz version 2.43.0 (0)
 -->
<!-- Title: %3 Pages: 1 -->
<svg width="416pt" height="415pt"
 viewBox="0.00 0.00 416.00 415.00" xmlns="http://www.w3.org/2000/svg" xmlns:xlink="http://www.w3.org/1999/xlink">
<g id="graph0" class="graph" transform="scale(1 1) rotate(0) translate(4 411)">
<title>%3</title>
<g id="clust1" class="cluster">
<title>cluster_0</title>
<polygon fill="BurlyWood" stroke="black" points="8,-235 8,-399 400,-399 400,-235 8,-235"/>
<text text-anchor="middle" x="204" y="-383.8" font-family="Times,serif" font-size="14.00">Bartlett\Sarif\Definition</text>
</g>
<g id="clust2" class="cluster">
<title>cluster_1</title>
<polygon fill="Bisque" stroke="black" points="78,-102 78,-227 330,-227 330,-102 78,-102"/>
<text text-anchor="middle" x="204" y="-211.8" font-family="Times,serif" font-size="14.00">Bartlett\Sarif\Internal</text>
</g>
<g id="clust3" class="cluster">
<title>cluster_2</title>
<polygon fill="transparent" stroke="black" points="133,-8 133,-94 275,-94 275,-8 133,-8"/>
<text text-anchor="middle" x="204" y="-78.8" font-family="Times,serif" font-size="14.00">0</text>
</g>
<!-- Bartlett\\Sarif\\Definition\\ConfigurationOverride -->
<g id="node1" class="node">
<title>Bartlett\\Sarif\\Definition\\ConfigurationOverride</title>
<polygon fill="#fefece" stroke="transparent" points="391.5,-368 16.5,-368 16.5,-243 391.5,-243 391.5,-368"/>
<polygon fill="#eeeeee" stroke="transparent" points="17,-345.5 17,-367.5 392,-367.5 392,-345.5 17,-345.5"/>
<polygon fill="none" stroke="black" points="17,-345.5 17,-367.5 392,-367.5 392,-345.5 17,-345.5"/>
<text text-anchor="start" x="153.5" y="-351.1" font-family="Verdana" font-weight="bold" font-size="8.00">ConfigurationOverride</text>
<polygon fill="none" stroke="black" points="17,-300.5 17,-345.5 392,-345.5 392,-300.5 17,-300.5"/>
<text text-anchor="start" x="22" y="-334.1" font-family="Verdana" font-size="8.00"># configuration</text>
<text text-anchor="start" x="22" y="-321.1" font-family="Verdana" font-size="8.00"># descriptor</text>
<text text-anchor="start" x="22" y="-308.1" font-family="Verdana" font-size="8.00"># properties</text>
<polygon fill="none" stroke="black" points="17,-242.5 17,-300.5 392,-300.5 392,-242.5 17,-242.5"/>
<text text-anchor="start" x="22" y="-289.1" font-family="Verdana" font-size="8.00">+ __construct()</text>
<text text-anchor="start" x="22" y="-276.1" font-family="Verdana" font-size="8.00">+ setConfiguration(configuration : Bartlett\Sarif\Definition\ReportingConfiguration) : void</text>
<text text-anchor="start" x="22" y="-263.1" font-family="Verdana" font-size="8.00">+ setDescriptor(descriptor : Bartlett\Sarif\Definition\ReportingDescriptorReference) : void</text>
<text text-anchor="start" x="22" y="-250.1" font-family="Verdana" font-size="8.00">+ setProperties(propertyBag : Bartlett\Sarif\Definition\PropertyBag) : void</text>
</g>
<!-- Bartlett\\Sarif\\Internal\\JsonSerializable -->
<g id="node2" class="node">
<title>Bartlett\\Sarif\\Internal\\JsonSerializable</title>
<polygon fill="#fefece" stroke="transparent" points="322,-196 86,-196 86,-110 322,-110 322,-196"/>
<polygon fill="#eeeeee" stroke="transparent" points="86,-174 86,-196 322,-196 322,-174 86,-174"/>
<polygon fill="none" stroke="black" points="86,-174 86,-196 322,-196 322,-174 86,-174"/>
<text text-anchor="start" x="180" y="-187.6" font-family="Verdana" font-weight="bold" font-size="8.00">«abstract»</text>
<text text-anchor="start" x="167.5" y="-179.6" font-family="Verdana" font-weight="bold" font-size="8.00">JsonSerializable</text>
<polygon fill="none" stroke="black" points="86,-142 86,-174 322,-174 322,-142 86,-142"/>
<text text-anchor="start" x="91" y="-162.6" font-family="Verdana" font-size="8.00">– required : mixed</text>
<text text-anchor="start" x="91" y="-149.6" font-family="Verdana" font-size="8.00">– optional : mixed</text>
<polygon fill="none" stroke="black" points="86,-110 86,-142 322,-142 322,-110 86,-110"/>
<text text-anchor="start" x="91" y="-130.6" font-family="Verdana" font-size="8.00">+ __construct(required : array = [], optional : array = [])</text>
<text text-anchor="start" x="91" y="-117.6" font-family="Verdana" font-size="8.00">+ jsonSerialize() : array</text>
</g>
<!-- Bartlett\\Sarif\\Definition\\ConfigurationOverride&#45;&gt;Bartlett\\Sarif\\Internal\\JsonSerializable -->
<g id="edge2" class="edge">
<title>Bartlett\\Sarif\\Definition\\ConfigurationOverride&#45;&gt;Bartlett\\Sarif\\Internal\\JsonSerializable</title>
<path fill="none" stroke="black" d="M204,-242.85C204,-230.67 204,-218 204,-206.17"/>
<polygon fill="none" stroke="black" points="207.5,-206.02 204,-196.02 200.5,-206.02 207.5,-206.02"/>
</g>
<!-- JsonSerializable -->
<g id="node3" class="node">
<title>JsonSerializable</title>
<polygon fill="#fefece" stroke="transparent" points="266.5,-63 141.5,-63 141.5,-16 266.5,-16 266.5,-63"/>
<polygon fill="#eeeeee" stroke="transparent" points="142,-40.5 142,-62.5 267,-62.5 267,-40.5 142,-40.5"/>
<polygon fill="none" stroke="black" points="142,-40.5 142,-62.5 267,-62.5 267,-40.5 142,-40.5"/>
<text text-anchor="start" x="178.5" y="-54.1" font-family="Verdana" font-weight="bold" font-size="8.00">«interface»</text>
<text text-anchor="start" x="168" y="-46.1" font-family="Verdana" font-weight="bold" font-size="8.00">JsonSerializable</text>
<polygon fill="none" stroke="black" points="142,-34.5 142,-40.5 267,-40.5 267,-34.5 142,-34.5"/>
<polygon fill="none" stroke="black" points="142,-15.5 142,-34.5 267,-34.5 267,-15.5 142,-15.5"/>
<text text-anchor="start" x="147" y="-23.1" font-family="Verdana" font-size="8.00">+ «abstract» jsonSerialize()</text>
</g>
<!-- Bartlett\\Sarif\\Internal\\JsonSerializable&#45;&gt;JsonSerializable -->
<g id="edge1" class="edge">
<title>Bartlett\\Sarif\\Internal\\JsonSerializable&#45;&gt;JsonSerializable</title>
<path fill="none" stroke="black" stroke-dasharray="5,2" d="M204,-109.85C204,-97.66 204,-84.56 204,-73.06"/>
<polygon fill="none" stroke="black" points="207.5,-73.02 204,-63.02 200.5,-73.02 207.5,-73.02"/>
</g>
</g>
</svg>
