<?xml version="1.0" encoding="UTF-8" standalone="no"?>
<!DOCTYPE svg PUBLIC "-//W3C//DTD SVG 1.1//EN"
 "http://www.w3.org/Graphics/SVG/1.1/DTD/svg11.dtd">
<!-- Generated by graphviz version 2.43.0 (0)
 -->
<!-- Title: %3 Pages: 1 -->
<svg width="402pt" height="493pt"
 viewBox="0.00 0.00 402.00 493.00" xmlns="http://www.w3.org/2000/svg" xmlns:xlink="http://www.w3.org/1999/xlink">
<g id="graph0" class="graph" transform="scale(1 1) rotate(0) translate(4 489)">
<title>%3</title>
<g id="clust1" class="cluster">
<title>cluster_0</title>
<polygon fill="BurlyWood" stroke="black" points="8,-235 8,-477 386,-477 386,-235 8,-235"/>
<text text-anchor="middle" x="197" y="-461.8" font-family="Times,serif" font-size="14.00">Bartlett\Sarif\Definition</text>
</g>
<g id="clust2" class="cluster">
<title>cluster_1</title>
<polygon fill="Bisque" stroke="black" points="71,-102 71,-227 323,-227 323,-102 71,-102"/>
<text text-anchor="middle" x="197" y="-211.8" font-family="Times,serif" font-size="14.00">Bartlett\Sarif\Internal</text>
</g>
<g id="clust3" class="cluster">
<title>cluster_2</title>
<polygon fill="transparent" stroke="black" points="126,-8 126,-94 268,-94 268,-8 126,-8"/>
<text text-anchor="middle" x="197" y="-78.8" font-family="Times,serif" font-size="14.00">0</text>
</g>
<!-- Bartlett\\Sarif\\Definition\\PhysicalLocation -->
<g id="node1" class="node">
<title>Bartlett\\Sarif\\Definition\\PhysicalLocation</title>
<polygon fill="#fefece" stroke="transparent" points="378,-446 16,-446 16,-243 378,-243 378,-446"/>
<polygon fill="#eeeeee" stroke="transparent" points="16,-423.5 16,-445.5 378,-445.5 378,-423.5 16,-423.5"/>
<polygon fill="none" stroke="black" points="16,-423.5 16,-445.5 378,-445.5 378,-423.5 16,-423.5"/>
<text text-anchor="start" x="159" y="-429.1" font-family="Verdana" font-weight="bold" font-size="8.00">PhysicalLocation</text>
<polygon fill="none" stroke="black" points="16,-339.5 16,-423.5 378,-423.5 378,-339.5 16,-339.5"/>
<text text-anchor="start" x="21" y="-412.1" font-family="Verdana" font-size="8.00"># address</text>
<text text-anchor="start" x="21" y="-399.1" font-family="Verdana" font-size="8.00"># location</text>
<text text-anchor="start" x="21" y="-386.1" font-family="Verdana" font-size="8.00"># artifactLocation</text>
<text text-anchor="start" x="21" y="-373.1" font-family="Verdana" font-size="8.00"># region</text>
<text text-anchor="start" x="21" y="-360.1" font-family="Verdana" font-size="8.00"># contextRegion</text>
<text text-anchor="start" x="21" y="-347.1" font-family="Verdana" font-size="8.00"># properties</text>
<polygon fill="none" stroke="black" points="16,-242.5 16,-339.5 378,-339.5 378,-242.5 16,-242.5"/>
<text text-anchor="start" x="21" y="-328.1" font-family="Verdana" font-size="8.00">+ __construct()</text>
<text text-anchor="start" x="21" y="-315.1" font-family="Verdana" font-size="8.00">+ setAddress(address : Bartlett\Sarif\Definition\Address) : void</text>
<text text-anchor="start" x="21" y="-302.1" font-family="Verdana" font-size="8.00">+ setLocation(location : Bartlett\Sarif\Definition\ArtifactLocation) : void</text>
<text text-anchor="start" x="21" y="-289.1" font-family="Verdana" font-size="8.00">+ setArtifactLocation(artifactLocation : Bartlett\Sarif\Definition\ArtifactLocation) : void</text>
<text text-anchor="start" x="21" y="-276.1" font-family="Verdana" font-size="8.00">+ setRegion(region : Bartlett\Sarif\Definition\Region) : void</text>
<text text-anchor="start" x="21" y="-263.1" font-family="Verdana" font-size="8.00">+ setContextRegion(contextRegion : Bartlett\Sarif\Definition\Region) : void</text>
<text text-anchor="start" x="21" y="-250.1" font-family="Verdana" font-size="8.00">+ setProperties(propertyBag : Bartlett\Sarif\Definition\PropertyBag) : void</text>
</g>
<!-- Bartlett\\Sarif\\Internal\\JsonSerializable -->
<g id="node2" class="node">
<title>Bartlett\\Sarif\\Internal\\JsonSerializable</title>
<polygon fill="#fefece" stroke="transparent" points="315,-196 79,-196 79,-110 315,-110 315,-196"/>
<polygon fill="#eeeeee" stroke="transparent" points="79,-174 79,-196 315,-196 315,-174 79,-174"/>
<polygon fill="none" stroke="black" points="79,-174 79,-196 315,-196 315,-174 79,-174"/>
<text text-anchor="start" x="173" y="-187.6" font-family="Verdana" font-weight="bold" font-size="8.00">«abstract»</text>
<text text-anchor="start" x="160.5" y="-179.6" font-family="Verdana" font-weight="bold" font-size="8.00">JsonSerializable</text>
<polygon fill="none" stroke="black" points="79,-142 79,-174 315,-174 315,-142 79,-142"/>
<text text-anchor="start" x="84" y="-162.6" font-family="Verdana" font-size="8.00">– required : mixed</text>
<text text-anchor="start" x="84" y="-149.6" font-family="Verdana" font-size="8.00">– optional : mixed</text>
<polygon fill="none" stroke="black" points="79,-110 79,-142 315,-142 315,-110 79,-110"/>
<text text-anchor="start" x="84" y="-130.6" font-family="Verdana" font-size="8.00">+ __construct(required : array = [], optional : array = [])</text>
<text text-anchor="start" x="84" y="-117.6" font-family="Verdana" font-size="8.00">+ jsonSerialize() : array</text>
</g>
<!-- Bartlett\\Sarif\\Definition\\PhysicalLocation&#45;&gt;Bartlett\\Sarif\\Internal\\JsonSerializable -->
<g id="edge2" class="edge">
<title>Bartlett\\Sarif\\Definition\\PhysicalLocation&#45;&gt;Bartlett\\Sarif\\Internal\\JsonSerializable</title>
<path fill="none" stroke="black" d="M197,-242.92C197,-230.31 197,-217.83 197,-206.39"/>
<polygon fill="none" stroke="black" points="200.5,-206.2 197,-196.2 193.5,-206.2 200.5,-206.2"/>
</g>
<!-- JsonSerializable -->
<g id="node3" class="node">
<title>JsonSerializable</title>
<polygon fill="#fefece" stroke="transparent" points="259.5,-63 134.5,-63 134.5,-16 259.5,-16 259.5,-63"/>
<polygon fill="#eeeeee" stroke="transparent" points="135,-40.5 135,-62.5 260,-62.5 260,-40.5 135,-40.5"/>
<polygon fill="none" stroke="black" points="135,-40.5 135,-62.5 260,-62.5 260,-40.5 135,-40.5"/>
<text text-anchor="start" x="171.5" y="-54.1" font-family="Verdana" font-weight="bold" font-size="8.00">«interface»</text>
<text text-anchor="start" x="161" y="-46.1" font-family="Verdana" font-weight="bold" font-size="8.00">JsonSerializable</text>
<polygon fill="none" stroke="black" points="135,-34.5 135,-40.5 260,-40.5 260,-34.5 135,-34.5"/>
<polygon fill="none" stroke="black" points="135,-15.5 135,-34.5 260,-34.5 260,-15.5 135,-15.5"/>
<text text-anchor="start" x="140" y="-23.1" font-family="Verdana" font-size="8.00">+ «abstract» jsonSerialize()</text>
</g>
<!-- Bartlett\\Sarif\\Internal\\JsonSerializable&#45;&gt;JsonSerializable -->
<g id="edge1" class="edge">
<title>Bartlett\\Sarif\\Internal\\JsonSerializable&#45;&gt;JsonSerializable</title>
<path fill="none" stroke="black" stroke-dasharray="5,2" d="M197,-109.85C197,-97.66 197,-84.56 197,-73.06"/>
<polygon fill="none" stroke="black" points="200.5,-73.02 197,-63.02 193.5,-73.02 200.5,-73.02"/>
</g>
</g>
</svg>
