<?xml version="1.0" encoding="UTF-8" standalone="no"?>
<!DOCTYPE svg PUBLIC "-//W3C//DTD SVG 1.1//EN"
 "http://www.w3.org/Graphics/SVG/1.1/DTD/svg11.dtd">
<!-- Generated by graphviz version 2.43.0 (0)
 -->
<!-- Title: %3 Pages: 1 -->
<svg width="474pt" height="701pt"
 viewBox="0.00 0.00 474.00 701.00" xmlns="http://www.w3.org/2000/svg" xmlns:xlink="http://www.w3.org/1999/xlink">
<g id="graph0" class="graph" transform="scale(1 1) rotate(0) translate(4 697)">
<title>%3</title>
<g id="clust1" class="cluster">
<title>cluster_0</title>
<polygon fill="BurlyWood" stroke="black" points="8,-235 8,-685 458,-685 458,-235 8,-235"/>
<text text-anchor="middle" x="233" y="-669.8" font-family="Times,serif" font-size="14.00">Bartlett\Sarif\Definition</text>
</g>
<g id="clust2" class="cluster">
<title>cluster_1</title>
<polygon fill="Bisque" stroke="black" points="107,-102 107,-227 359,-227 359,-102 107,-102"/>
<text text-anchor="middle" x="233" y="-211.8" font-family="Times,serif" font-size="14.00">Bartlett\Sarif\Internal</text>
</g>
<g id="clust3" class="cluster">
<title>cluster_2</title>
<polygon fill="transparent" stroke="black" points="162,-8 162,-94 304,-94 304,-8 162,-8"/>
<text text-anchor="middle" x="233" y="-78.8" font-family="Times,serif" font-size="14.00">0</text>
</g>
<!-- Bartlett\\Sarif\\Definition\\ReportingDescriptor -->
<g id="node1" class="node">
<title>Bartlett\\Sarif\\Definition\\ReportingDescriptor</title>
<polygon fill="#fefece" stroke="transparent" points="450,-654 16,-654 16,-243 450,-243 450,-654"/>
<polygon fill="#eeeeee" stroke="transparent" points="16,-631.5 16,-653.5 450,-653.5 450,-631.5 16,-631.5"/>
<polygon fill="none" stroke="black" points="16,-631.5 16,-653.5 450,-653.5 450,-631.5 16,-631.5"/>
<text text-anchor="start" x="187" y="-637.1" font-family="Verdana" font-weight="bold" font-size="8.00">ReportingDescriptor</text>
<polygon fill="none" stroke="black" points="16,-443.5 16,-631.5 450,-631.5 450,-443.5 16,-443.5"/>
<text text-anchor="start" x="21" y="-620.1" font-family="Verdana" font-size="8.00"># id</text>
<text text-anchor="start" x="21" y="-607.1" font-family="Verdana" font-size="8.00"># deprecatedIds : mixed</text>
<text text-anchor="start" x="21" y="-594.1" font-family="Verdana" font-size="8.00"># guid</text>
<text text-anchor="start" x="21" y="-581.1" font-family="Verdana" font-size="8.00"># deprecatedGuids : mixed</text>
<text text-anchor="start" x="21" y="-568.1" font-family="Verdana" font-size="8.00"># name</text>
<text text-anchor="start" x="21" y="-555.1" font-family="Verdana" font-size="8.00"># deprecatedNames : mixed</text>
<text text-anchor="start" x="21" y="-542.1" font-family="Verdana" font-size="8.00"># shortDescription</text>
<text text-anchor="start" x="21" y="-529.1" font-family="Verdana" font-size="8.00"># fullDescription</text>
<text text-anchor="start" x="21" y="-516.1" font-family="Verdana" font-size="8.00"># messageStrings : mixed</text>
<text text-anchor="start" x="21" y="-503.1" font-family="Verdana" font-size="8.00"># defaultConfiguration</text>
<text text-anchor="start" x="21" y="-490.1" font-family="Verdana" font-size="8.00"># helpUri</text>
<text text-anchor="start" x="21" y="-477.1" font-family="Verdana" font-size="8.00"># help</text>
<text text-anchor="start" x="21" y="-464.1" font-family="Verdana" font-size="8.00"># relationships : mixed</text>
<text text-anchor="start" x="21" y="-451.1" font-family="Verdana" font-size="8.00"># properties</text>
<polygon fill="none" stroke="black" points="16,-242.5 16,-443.5 450,-443.5 450,-242.5 16,-242.5"/>
<text text-anchor="start" x="21" y="-432.1" font-family="Verdana" font-size="8.00">+ __construct()</text>
<text text-anchor="start" x="21" y="-419.1" font-family="Verdana" font-size="8.00">+ setId(id : string) : void</text>
<text text-anchor="start" x="21" y="-406.1" font-family="Verdana" font-size="8.00">+ addDeprecatedIds(deprecatedIds : array) : void</text>
<text text-anchor="start" x="21" y="-393.1" font-family="Verdana" font-size="8.00">+ setGuid(guid : string) : void</text>
<text text-anchor="start" x="21" y="-380.1" font-family="Verdana" font-size="8.00">+ addDeprecatedGuids(deprecatedGuids : array) : void</text>
<text text-anchor="start" x="21" y="-367.1" font-family="Verdana" font-size="8.00">+ setName(name : string) : void</text>
<text text-anchor="start" x="21" y="-354.1" font-family="Verdana" font-size="8.00">+ addDeprecatedNames(deprecatedNames : array) : void</text>
<text text-anchor="start" x="21" y="-341.1" font-family="Verdana" font-size="8.00">+ setShortDescription(shortDescription : Bartlett\Sarif\Definition\MultiformatMessageString) : void</text>
<text text-anchor="start" x="21" y="-328.1" font-family="Verdana" font-size="8.00">+ setFullDescription(fullDescription : Bartlett\Sarif\Definition\MultiformatMessageString) : void</text>
<text text-anchor="start" x="21" y="-315.1" font-family="Verdana" font-size="8.00">+ addMessageStrings(messageStrings : array) : void</text>
<text text-anchor="start" x="21" y="-302.1" font-family="Verdana" font-size="8.00">+ setDefaultConfiguration(defaultConfiguration : Bartlett\Sarif\Definition\ReportingConfiguration) : void</text>
<text text-anchor="start" x="21" y="-289.1" font-family="Verdana" font-size="8.00">+ setHelpUri(helpUri : string) : void</text>
<text text-anchor="start" x="21" y="-276.1" font-family="Verdana" font-size="8.00">+ setHelp(help : Bartlett\Sarif\Definition\MultiformatMessageString) : void</text>
<text text-anchor="start" x="21" y="-263.1" font-family="Verdana" font-size="8.00">+ addRelationships(relationships : array) : void</text>
<text text-anchor="start" x="21" y="-250.1" font-family="Verdana" font-size="8.00">+ setProperties(propertyBag : Bartlett\Sarif\Definition\PropertyBag) : void</text>
</g>
<!-- Bartlett\\Sarif\\Internal\\JsonSerializable -->
<g id="node2" class="node">
<title>Bartlett\\Sarif\\Internal\\JsonSerializable</title>
<polygon fill="#fefece" stroke="transparent" points="351,-196 115,-196 115,-110 351,-110 351,-196"/>
<polygon fill="#eeeeee" stroke="transparent" points="115,-174 115,-196 351,-196 351,-174 115,-174"/>
<polygon fill="none" stroke="black" points="115,-174 115,-196 351,-196 351,-174 115,-174"/>
<text text-anchor="start" x="209" y="-187.6" font-family="Verdana" font-weight="bold" font-size="8.00">«abstract»</text>
<text text-anchor="start" x="196.5" y="-179.6" font-family="Verdana" font-weight="bold" font-size="8.00">JsonSerializable</text>
<polygon fill="none" stroke="black" points="115,-142 115,-174 351,-174 351,-142 115,-142"/>
<text text-anchor="start" x="120" y="-162.6" font-family="Verdana" font-size="8.00">– required : mixed</text>
<text text-anchor="start" x="120" y="-149.6" font-family="Verdana" font-size="8.00">– optional : mixed</text>
<polygon fill="none" stroke="black" points="115,-110 115,-142 351,-142 351,-110 115,-110"/>
<text text-anchor="start" x="120" y="-130.6" font-family="Verdana" font-size="8.00">+ __construct(required : array = [], optional : array = [])</text>
<text text-anchor="start" x="120" y="-117.6" font-family="Verdana" font-size="8.00">+ jsonSerialize() : array</text>
</g>
<!-- Bartlett\\Sarif\\Definition\\ReportingDescriptor&#45;&gt;Bartlett\\Sarif\\Internal\\JsonSerializable -->
<g id="edge2" class="edge">
<title>Bartlett\\Sarif\\Definition\\ReportingDescriptor&#45;&gt;Bartlett\\Sarif\\Internal\\JsonSerializable</title>
<path fill="none" stroke="black" d="M233,-242.86C233,-229.76 233,-217.4 233,-206.29"/>
<polygon fill="none" stroke="black" points="236.5,-206.04 233,-196.04 229.5,-206.04 236.5,-206.04"/>
</g>
<!-- JsonSerializable -->
<g id="node3" class="node">
<title>JsonSerializable</title>
<polygon fill="#fefece" stroke="transparent" points="295.5,-63 170.5,-63 170.5,-16 295.5,-16 295.5,-63"/>
<polygon fill="#eeeeee" stroke="transparent" points="171,-40.5 171,-62.5 296,-62.5 296,-40.5 171,-40.5"/>
<polygon fill="none" stroke="black" points="171,-40.5 171,-62.5 296,-62.5 296,-40.5 171,-40.5"/>
<text text-anchor="start" x="207.5" y="-54.1" font-family="Verdana" font-weight="bold" font-size="8.00">«interface»</text>
<text text-anchor="start" x="197" y="-46.1" font-family="Verdana" font-weight="bold" font-size="8.00">JsonSerializable</text>
<polygon fill="none" stroke="black" points="171,-34.5 171,-40.5 296,-40.5 296,-34.5 171,-34.5"/>
<polygon fill="none" stroke="black" points="171,-15.5 171,-34.5 296,-34.5 296,-15.5 171,-15.5"/>
<text text-anchor="start" x="176" y="-23.1" font-family="Verdana" font-size="8.00">+ «abstract» jsonSerialize()</text>
</g>
<!-- Bartlett\\Sarif\\Internal\\JsonSerializable&#45;&gt;JsonSerializable -->
<g id="edge1" class="edge">
<title>Bartlett\\Sarif\\Internal\\JsonSerializable&#45;&gt;JsonSerializable</title>
<path fill="none" stroke="black" stroke-dasharray="5,2" d="M233,-109.85C233,-97.66 233,-84.56 233,-73.06"/>
<polygon fill="none" stroke="black" points="236.5,-73.02 233,-63.02 229.5,-73.02 236.5,-73.02"/>
</g>
</g>
</svg>
