<?xml version="1.0" encoding="UTF-8" standalone="no"?>
<!DOCTYPE svg PUBLIC "-//W3C//DTD SVG 1.1//EN"
 "http://www.w3.org/Graphics/SVG/1.1/DTD/svg11.dtd">
<!-- Generated by graphviz version 2.43.0 (0)
 -->
<!-- Title: %3 Pages: 1 -->
<svg width="1692pt" height="659pt"
 viewBox="0.00 0.00 1692.00 659.00" xmlns="http://www.w3.org/2000/svg" xmlns:xlink="http://www.w3.org/1999/xlink">
<g id="graph0" class="graph" transform="scale(1 1) rotate(0) translate(4 655)">
<title>%3</title>
<g id="clust1" class="cluster">
<title>cluster_0</title>
<polygon fill="BurlyWood" stroke="black" points="8,-8 8,-643 806,-643 806,-8 8,-8"/>
<text text-anchor="middle" x="407" y="-627.8" font-family="Times,serif" font-size="14.00">Bartlett\Sarif\Converter</text>
</g>
<g id="clust2" class="cluster">
<title>cluster_1</title>
<polygon fill="transparent" stroke="black" points="814,-260 814,-359 1676,-359 1676,-260 814,-260"/>
<text text-anchor="middle" x="1245" y="-343.8" font-family="Times,serif" font-size="14.00">PHP_CodeSniffer\Reports</text>
</g>
<!-- Bartlett\\Sarif\\Converter\\PhpCsConverter -->
<g id="node1" class="node">
<title>Bartlett\\Sarif\\Converter\\PhpCsConverter</title>
<polygon fill="#fefece" stroke="transparent" points="798,-612 16,-612 16,-468 798,-468 798,-612"/>
<polygon fill="#eeeeee" stroke="transparent" points="16,-590 16,-612 798,-612 798,-590 16,-590"/>
<polygon fill="none" stroke="black" points="16,-590 16,-612 798,-612 798,-590 16,-590"/>
<text text-anchor="start" x="370.5" y="-595.6" font-family="Verdana" font-weight="bold" font-size="8.00">PhpCsConverter</text>
<polygon fill="none" stroke="black" points="16,-519 16,-590 798,-590 798,-519 16,-519"/>
<text text-anchor="start" x="21" y="-578.6" font-family="Verdana" font-size="8.00">+ «static» TOOL_NAME : string = &quot;PHP_CodeSniffer&quot; {readOnly}</text>
<text text-anchor="start" x="21" y="-565.6" font-family="Verdana" font-size="8.00">+ «static» TOOL_SHORT_DESCRIPTION : string = &quot;Detects\ violations\ of\ a\ defined\ set\ of\ coding\ standards\.&quot; {readOnly}</text>
<text text-anchor="start" x="21" y="-552.6" font-family="Verdana" font-size="8.00">+ «static» TOOL_FULL_DESCRIPTION : string = &quot;PHP_CodeSniffer\ tokenizes\ PHP\,\ JavaScript\ and\ CSS\ files\ and\ detects\ violations\ of\ a\ defined\ set\ of\ coding\ standards\.&quot; {readOnly}</text>
<text text-anchor="start" x="21" y="-539.6" font-family="Verdana" font-size="8.00">+ «static» TOOL_INFO_URI : string = &quot;https\:\/\/github\.com\/PHPCSStandards\/PHP_CodeSniffer&quot; {readOnly}</text>
<text text-anchor="start" x="21" y="-526.6" font-family="Verdana" font-size="8.00">+ «static» TOOL_COMPOSER_PACKAGE : string = &quot;squizlabs\/php_codesniffer&quot; {readOnly}</text>
<polygon fill="none" stroke="black" points="16,-513 16,-519 798,-519 798,-513 16,-513"/>
<polygon fill="none" stroke="black" points="16,-468 16,-513 798,-513 798,-468 16,-468"/>
<text text-anchor="start" x="21" y="-501.6" font-family="Verdana" font-size="8.00">+ rules() : array</text>
<text text-anchor="start" x="21" y="-488.6" font-family="Verdana" font-size="8.00">+ generateFileReport(report, phpcsFile : PHP_CodeSniffer\Files\File, showSources = false, width = 80)</text>
<text text-anchor="start" x="21" y="-475.6" font-family="Verdana" font-size="8.00">+ generate(cachedData, totalFiles, totalErrors, totalWarnings, totalFixable, showSources = false, width = 80, interactive = false, toScreen = true)</text>
</g>
<!-- Bartlett\\Sarif\\Converter\\AbstractConverter -->
<g id="node2" class="node">
<title>Bartlett\\Sarif\\Converter\\AbstractConverter</title>
<polygon fill="#fefece" stroke="transparent" points="585.5,-432 228.5,-432 228.5,-164 585.5,-164 585.5,-432"/>
<polygon fill="#eeeeee" stroke="transparent" points="229,-410 229,-432 586,-432 586,-410 229,-410"/>
<polygon fill="none" stroke="black" points="229,-410 229,-432 586,-432 586,-410 229,-410"/>
<text text-anchor="start" x="383.5" y="-423.6" font-family="Verdana" font-weight="bold" font-size="8.00">«abstract»</text>
<text text-anchor="start" x="366.5" y="-415.6" font-family="Verdana" font-weight="bold" font-size="8.00">AbstractConverter</text>
<polygon fill="none" stroke="black" points="229,-300 229,-410 586,-410 586,-300 229,-300"/>
<text text-anchor="start" x="234" y="-398.6" font-family="Verdana" font-size="8.00"># toolName</text>
<text text-anchor="start" x="234" y="-385.6" font-family="Verdana" font-size="8.00"># toolShortDescription</text>
<text text-anchor="start" x="234" y="-372.6" font-family="Verdana" font-size="8.00"># toolFullDescription</text>
<text text-anchor="start" x="234" y="-359.6" font-family="Verdana" font-size="8.00"># toolInformationUri</text>
<text text-anchor="start" x="234" y="-346.6" font-family="Verdana" font-size="8.00"># toolSemanticVersion</text>
<text text-anchor="start" x="234" y="-333.6" font-family="Verdana" font-size="8.00"># rules : mixed = []</text>
<text text-anchor="start" x="234" y="-320.6" font-family="Verdana" font-size="8.00"># results : mixed = []</text>
<text text-anchor="start" x="234" y="-307.6" font-family="Verdana" font-size="8.00"># serializer</text>
<polygon fill="none" stroke="black" points="229,-164 229,-300 586,-300 586,-164 229,-164"/>
<text text-anchor="start" x="234" y="-288.6" font-family="Verdana" font-size="8.00">+ __construct(factory : Bartlett\Sarif\Factory\SerializerFactory = «unknown»)</text>
<text text-anchor="start" x="234" y="-275.6" font-family="Verdana" font-size="8.00">+ toolDriver() : Bartlett\Sarif\Definition\ToolComponent</text>
<text text-anchor="start" x="234" y="-262.6" font-family="Verdana" font-size="8.00">+ toolExtensions() : array</text>
<text text-anchor="start" x="234" y="-249.6" font-family="Verdana" font-size="8.00">+ rules() : array</text>
<text text-anchor="start" x="234" y="-236.6" font-family="Verdana" font-size="8.00">+ sarifLog(runs : array = [], version : string = &#39;2\.1\.0&#39;) : ?string</text>
<text text-anchor="start" x="234" y="-223.6" font-family="Verdana" font-size="8.00">+ invocations(properties : Bartlett\Sarif\Definition\PropertyBag = «unknown») : array</text>
<text text-anchor="start" x="234" y="-210.6" font-family="Verdana" font-size="8.00">+ run(invocations : array) : Bartlett\Sarif\Definition\Run</text>
<text text-anchor="start" x="234" y="-197.6" font-family="Verdana" font-size="8.00"># getToolVersion(package : string) : string</text>
<text text-anchor="start" x="234" y="-184.6" font-family="Verdana" font-size="8.00"># pathToArtifactLocation(path : string) : string</text>
<text text-anchor="start" x="234" y="-171.6" font-family="Verdana" font-size="8.00"># pathToUri(path : string) : string</text>
</g>
<!-- Bartlett\\Sarif\\Converter\\PhpCsConverter&#45;&gt;Bartlett\\Sarif\\Converter\\AbstractConverter -->
<g id="edge2" class="edge">
<title>Bartlett\\Sarif\\Converter\\PhpCsConverter&#45;&gt;Bartlett\\Sarif\\Converter\\AbstractConverter</title>
<path fill="none" stroke="black" d="M407,-467.97C407,-459.82 407,-451.31 407,-442.63"/>
<polygon fill="none" stroke="black" points="410.5,-442.37 407,-432.37 403.5,-442.37 410.5,-442.37"/>
</g>
<!-- PHP_CodeSniffer\\Reports\\Report -->
<g id="node4" class="node">
<title>PHP_CodeSniffer\\Reports\\Report</title>
<polygon fill="#fefece" stroke="transparent" points="1668,-328 822,-328 822,-268 1668,-268 1668,-328"/>
<polygon fill="#eeeeee" stroke="transparent" points="822,-306 822,-328 1668,-328 1668,-306 822,-306"/>
<polygon fill="none" stroke="black" points="822,-306 822,-328 1668,-328 1668,-306 822,-306"/>
<text text-anchor="start" x="1219" y="-319.6" font-family="Verdana" font-weight="bold" font-size="8.00">«interface»</text>
<text text-anchor="start" x="1229.5" y="-311.6" font-family="Verdana" font-weight="bold" font-size="8.00">Report</text>
<polygon fill="none" stroke="black" points="822,-300 822,-306 1668,-306 1668,-300 822,-300"/>
<polygon fill="none" stroke="black" points="822,-268 822,-300 1668,-300 1668,-268 822,-268"/>
<text text-anchor="start" x="827" y="-288.6" font-family="Verdana" font-size="8.00">+ «abstract» generateFileReport(report : array, phpcsFile : PHP_CodeSniffer\Files\File, showSources : bool = false, width : int = 80)</text>
<text text-anchor="start" x="827" y="-275.6" font-family="Verdana" font-size="8.00">+ «abstract» generate(cachedData : string, totalFiles : int, totalErrors : int, totalWarnings : int, totalFixable : int, showSources : bool = false, width : int = 80, interactive : bool = false, toScreen : bool = true)</text>
</g>
<!-- Bartlett\\Sarif\\Converter\\PhpCsConverter&#45;&gt;PHP_CodeSniffer\\Reports\\Report -->
<g id="edge3" class="edge">
<title>Bartlett\\Sarif\\Converter\\PhpCsConverter&#45;&gt;PHP_CodeSniffer\\Reports\\Report</title>
<path fill="none" stroke="black" stroke-dasharray="5,2" d="M679.98,-467.99C723.54,-456.24 768.06,-443.97 810,-432 924.91,-399.19 1055.97,-358.7 1143.93,-331.07"/>
<polygon fill="none" stroke="black" points="1145.15,-334.35 1153.64,-328.01 1143.05,-327.68 1145.15,-334.35"/>
</g>
<!-- Bartlett\\Sarif\\Converter\\ConverterInterface -->
<g id="node3" class="node">
<title>Bartlett\\Sarif\\Converter\\ConverterInterface</title>
<polygon fill="#fefece" stroke="transparent" points="609,-128 205,-128 205,-16 609,-16 609,-128"/>
<polygon fill="#eeeeee" stroke="transparent" points="205,-106 205,-128 609,-128 609,-106 205,-106"/>
<polygon fill="none" stroke="black" points="205,-106 205,-128 609,-128 609,-106 205,-106"/>
<text text-anchor="start" x="381" y="-119.6" font-family="Verdana" font-weight="bold" font-size="8.00">«interface»</text>
<text text-anchor="start" x="364.5" y="-111.6" font-family="Verdana" font-weight="bold" font-size="8.00">ConverterInterface</text>
<polygon fill="none" stroke="black" points="205,-100 205,-106 609,-106 609,-100 205,-100"/>
<polygon fill="none" stroke="black" points="205,-16 205,-100 609,-100 609,-16 205,-16"/>
<text text-anchor="start" x="210" y="-88.6" font-family="Verdana" font-size="8.00">+ «abstract» toolDriver() : Bartlett\Sarif\Definition\ToolComponent</text>
<text text-anchor="start" x="210" y="-75.6" font-family="Verdana" font-size="8.00">+ «abstract» toolExtensions() : array</text>
<text text-anchor="start" x="210" y="-62.6" font-family="Verdana" font-size="8.00">+ «abstract» rules() : array</text>
<text text-anchor="start" x="210" y="-49.6" font-family="Verdana" font-size="8.00">+ «abstract» invocations(properties : Bartlett\Sarif\Definition\PropertyBag = «unknown») : array</text>
<text text-anchor="start" x="210" y="-36.6" font-family="Verdana" font-size="8.00">+ «abstract» run(invocations : array) : Bartlett\Sarif\Definition\Run</text>
<text text-anchor="start" x="210" y="-23.6" font-family="Verdana" font-size="8.00">+ «abstract» sarifLog(runs : array = [], version : string = &#39;2\.1\.0&#39;) : ?string</text>
</g>
<!-- Bartlett\\Sarif\\Converter\\AbstractConverter&#45;&gt;Bartlett\\Sarif\\Converter\\ConverterInterface -->
<g id="edge1" class="edge">
<title>Bartlett\\Sarif\\Converter\\AbstractConverter&#45;&gt;Bartlett\\Sarif\\Converter\\ConverterInterface</title>
<path fill="none" stroke="black" stroke-dasharray="5,2" d="M407,-163.79C407,-155 407,-146.4 407,-138.2"/>
<polygon fill="none" stroke="black" points="410.5,-138.05 407,-128.05 403.5,-138.05 410.5,-138.05"/>
</g>
</g>
</svg>
