<?xml version="1.0" encoding="UTF-8" standalone="no"?>
<!DOCTYPE svg PUBLIC "-//W3C//DTD SVG 1.1//EN"
 "http://www.w3.org/Graphics/SVG/1.1/DTD/svg11.dtd">
<!-- Generated by graphviz version 2.43.0 (0)
 -->
<!-- Title: %3 Pages: 1 -->
<svg width="1010pt" height="633pt"
 viewBox="0.00 0.00 1010.00 633.00" xmlns="http://www.w3.org/2000/svg" xmlns:xlink="http://www.w3.org/1999/xlink">
<g id="graph0" class="graph" transform="scale(1 1) rotate(0) translate(4 629)">
<title>%3</title>
<g id="clust1" class="cluster">
<title>cluster_0</title>
<polygon fill="BurlyWood" stroke="black" points="8,-8 8,-617 474,-617 474,-8 8,-8"/>
<text text-anchor="middle" x="241" y="-601.8" font-family="Times,serif" font-size="14.00">Bartlett\Sarif\Converter</text>
</g>
<g id="clust2" class="cluster">
<title>cluster_1</title>
<polygon fill="transparent" stroke="black" points="482,-266.5 482,-352.5 994,-352.5 994,-266.5 482,-266.5"/>
<text text-anchor="middle" x="738" y="-337.3" font-family="Times,serif" font-size="14.00">PHPStan\Command\ErrorFormatter</text>
</g>
<!-- Bartlett\\Sarif\\Converter\\PhpStanConverter -->
<g id="node1" class="node">
<title>Bartlett\\Sarif\\Converter\\PhpStanConverter</title>
<polygon fill="#fefece" stroke="transparent" points="465.5,-586 16.5,-586 16.5,-468 465.5,-468 465.5,-586"/>
<polygon fill="#eeeeee" stroke="transparent" points="17,-564 17,-586 466,-586 466,-564 17,-564"/>
<polygon fill="none" stroke="black" points="17,-564 17,-586 466,-586 466,-564 17,-564"/>
<text text-anchor="start" x="199.5" y="-569.6" font-family="Verdana" font-weight="bold" font-size="8.00">PhpStanConverter</text>
<polygon fill="none" stroke="black" points="17,-493 17,-564 466,-564 466,-493 17,-493"/>
<text text-anchor="start" x="22" y="-552.6" font-family="Verdana" font-size="8.00">+ «static» TOOL_NAME : string = &quot;PHPStan&quot; {readOnly}</text>
<text text-anchor="start" x="22" y="-539.6" font-family="Verdana" font-size="8.00">+ «static» TOOL_SHORT_DESCRIPTION : string = &quot;PHP\ Static\ Analysis\ Tool&quot; {readOnly}</text>
<text text-anchor="start" x="22" y="-526.6" font-family="Verdana" font-size="8.00">+ «static» TOOL_FULL_DESCRIPTION : string = &quot;PHPStan\ \&#45;\ PHP\ Static\ Analysis\ Tool&quot; {readOnly}</text>
<text text-anchor="start" x="22" y="-513.6" font-family="Verdana" font-size="8.00">+ «static» TOOL_INFO_URI : string = &quot;https\:\/\/phpstan\.org&quot; {readOnly}</text>
<text text-anchor="start" x="22" y="-500.6" font-family="Verdana" font-size="8.00">+ «static» TOOL_COMPOSER_PACKAGE : string = &quot;phpstan\/phpstan\&#45;src&quot; {readOnly}</text>
<polygon fill="none" stroke="black" points="17,-487 17,-493 466,-493 466,-487 17,-487"/>
<polygon fill="none" stroke="black" points="17,-468 17,-487 466,-487 466,-468 17,-468"/>
<text text-anchor="start" x="22" y="-475.6" font-family="Verdana" font-size="8.00">+ formatErrors(analysisResult : PHPStan\Command\AnalysisResult, output : PHPStan\Command\Output) : int</text>
</g>
<!-- Bartlett\\Sarif\\Converter\\AbstractConverter -->
<g id="node2" class="node">
<title>Bartlett\\Sarif\\Converter\\AbstractConverter</title>
<polygon fill="#fefece" stroke="transparent" points="419.5,-432 62.5,-432 62.5,-164 419.5,-164 419.5,-432"/>
<polygon fill="#eeeeee" stroke="transparent" points="63,-410 63,-432 420,-432 420,-410 63,-410"/>
<polygon fill="none" stroke="black" points="63,-410 63,-432 420,-432 420,-410 63,-410"/>
<text text-anchor="start" x="217.5" y="-423.6" font-family="Verdana" font-weight="bold" font-size="8.00">«abstract»</text>
<text text-anchor="start" x="200.5" y="-415.6" font-family="Verdana" font-weight="bold" font-size="8.00">AbstractConverter</text>
<polygon fill="none" stroke="black" points="63,-300 63,-410 420,-410 420,-300 63,-300"/>
<text text-anchor="start" x="68" y="-398.6" font-family="Verdana" font-size="8.00"># toolName</text>
<text text-anchor="start" x="68" y="-385.6" font-family="Verdana" font-size="8.00"># toolShortDescription</text>
<text text-anchor="start" x="68" y="-372.6" font-family="Verdana" font-size="8.00"># toolFullDescription</text>
<text text-anchor="start" x="68" y="-359.6" font-family="Verdana" font-size="8.00"># toolInformationUri</text>
<text text-anchor="start" x="68" y="-346.6" font-family="Verdana" font-size="8.00"># toolSemanticVersion</text>
<text text-anchor="start" x="68" y="-333.6" font-family="Verdana" font-size="8.00"># rules : mixed = []</text>
<text text-anchor="start" x="68" y="-320.6" font-family="Verdana" font-size="8.00"># results : mixed = []</text>
<text text-anchor="start" x="68" y="-307.6" font-family="Verdana" font-size="8.00"># serializer</text>
<polygon fill="none" stroke="black" points="63,-164 63,-300 420,-300 420,-164 63,-164"/>
<text text-anchor="start" x="68" y="-288.6" font-family="Verdana" font-size="8.00">+ __construct(factory : Bartlett\Sarif\Factory\SerializerFactory = «unknown»)</text>
<text text-anchor="start" x="68" y="-275.6" font-family="Verdana" font-size="8.00">+ toolDriver() : Bartlett\Sarif\Definition\ToolComponent</text>
<text text-anchor="start" x="68" y="-262.6" font-family="Verdana" font-size="8.00">+ toolExtensions() : array</text>
<text text-anchor="start" x="68" y="-249.6" font-family="Verdana" font-size="8.00">+ rules() : array</text>
<text text-anchor="start" x="68" y="-236.6" font-family="Verdana" font-size="8.00">+ sarifLog(runs : array = [], version : string = &#39;2\.1\.0&#39;) : ?string</text>
<text text-anchor="start" x="68" y="-223.6" font-family="Verdana" font-size="8.00">+ invocations(properties : Bartlett\Sarif\Definition\PropertyBag = «unknown») : array</text>
<text text-anchor="start" x="68" y="-210.6" font-family="Verdana" font-size="8.00">+ run(invocations : array) : Bartlett\Sarif\Definition\Run</text>
<text text-anchor="start" x="68" y="-197.6" font-family="Verdana" font-size="8.00"># getToolVersion(package : string) : string</text>
<text text-anchor="start" x="68" y="-184.6" font-family="Verdana" font-size="8.00"># pathToArtifactLocation(path : string) : string</text>
<text text-anchor="start" x="68" y="-171.6" font-family="Verdana" font-size="8.00"># pathToUri(path : string) : string</text>
</g>
<!-- Bartlett\\Sarif\\Converter\\PhpStanConverter&#45;&gt;Bartlett\\Sarif\\Converter\\AbstractConverter -->
<g id="edge2" class="edge">
<title>Bartlett\\Sarif\\Converter\\PhpStanConverter&#45;&gt;Bartlett\\Sarif\\Converter\\AbstractConverter</title>
<path fill="none" stroke="black" d="M241,-467.84C241,-459.72 241,-451.11 241,-442.24"/>
<polygon fill="none" stroke="black" points="244.5,-442.12 241,-432.12 237.5,-442.12 244.5,-442.12"/>
</g>
<!-- PHPStan\\Command\\ErrorFormatter\\ErrorFormatter -->
<g id="node4" class="node">
<title>PHPStan\\Command\\ErrorFormatter\\ErrorFormatter</title>
<polygon fill="#fefece" stroke="transparent" points="986,-321.5 490,-321.5 490,-274.5 986,-274.5 986,-321.5"/>
<polygon fill="#eeeeee" stroke="transparent" points="490,-299 490,-321 986,-321 986,-299 490,-299"/>
<polygon fill="none" stroke="black" points="490,-299 490,-321 986,-321 986,-299 490,-299"/>
<text text-anchor="start" x="712" y="-312.6" font-family="Verdana" font-weight="bold" font-size="8.00">«interface»</text>
<text text-anchor="start" x="704.5" y="-304.6" font-family="Verdana" font-weight="bold" font-size="8.00">ErrorFormatter</text>
<polygon fill="none" stroke="black" points="490,-293 490,-299 986,-299 986,-293 490,-293"/>
<polygon fill="none" stroke="black" points="490,-274 490,-293 986,-293 986,-274 490,-274"/>
<text text-anchor="start" x="495" y="-281.6" font-family="Verdana" font-size="8.00">+ «abstract» formatErrors(analysisResult : PHPStan\Command\AnalysisResult, output : PHPStan\Command\Output) : int</text>
</g>
<!-- Bartlett\\Sarif\\Converter\\PhpStanConverter&#45;&gt;PHPStan\\Command\\ErrorFormatter\\ErrorFormatter -->
<g id="edge3" class="edge">
<title>Bartlett\\Sarif\\Converter\\PhpStanConverter&#45;&gt;PHPStan\\Command\\ErrorFormatter\\ErrorFormatter</title>
<path fill="none" stroke="black" stroke-dasharray="5,2" d="M393.62,-467.95C421.88,-456.5 450.98,-444.23 478,-432 552.29,-398.36 635.86,-354.49 687.73,-326.52"/>
<polygon fill="none" stroke="black" points="689.59,-329.5 696.72,-321.66 686.26,-323.34 689.59,-329.5"/>
</g>
<!-- Bartlett\\Sarif\\Converter\\ConverterInterface -->
<g id="node3" class="node">
<title>Bartlett\\Sarif\\Converter\\ConverterInterface</title>
<polygon fill="#fefece" stroke="transparent" points="443,-128 39,-128 39,-16 443,-16 443,-128"/>
<polygon fill="#eeeeee" stroke="transparent" points="39,-106 39,-128 443,-128 443,-106 39,-106"/>
<polygon fill="none" stroke="black" points="39,-106 39,-128 443,-128 443,-106 39,-106"/>
<text text-anchor="start" x="215" y="-119.6" font-family="Verdana" font-weight="bold" font-size="8.00">«interface»</text>
<text text-anchor="start" x="198.5" y="-111.6" font-family="Verdana" font-weight="bold" font-size="8.00">ConverterInterface</text>
<polygon fill="none" stroke="black" points="39,-100 39,-106 443,-106 443,-100 39,-100"/>
<polygon fill="none" stroke="black" points="39,-16 39,-100 443,-100 443,-16 39,-16"/>
<text text-anchor="start" x="44" y="-88.6" font-family="Verdana" font-size="8.00">+ «abstract» toolDriver() : Bartlett\Sarif\Definition\ToolComponent</text>
<text text-anchor="start" x="44" y="-75.6" font-family="Verdana" font-size="8.00">+ «abstract» toolExtensions() : array</text>
<text text-anchor="start" x="44" y="-62.6" font-family="Verdana" font-size="8.00">+ «abstract» rules() : array</text>
<text text-anchor="start" x="44" y="-49.6" font-family="Verdana" font-size="8.00">+ «abstract» invocations(properties : Bartlett\Sarif\Definition\PropertyBag = «unknown») : array</text>
<text text-anchor="start" x="44" y="-36.6" font-family="Verdana" font-size="8.00">+ «abstract» run(invocations : array) : Bartlett\Sarif\Definition\Run</text>
<text text-anchor="start" x="44" y="-23.6" font-family="Verdana" font-size="8.00">+ «abstract» sarifLog(runs : array = [], version : string = &#39;2\.1\.0&#39;) : ?string</text>
</g>
<!-- Bartlett\\Sarif\\Converter\\AbstractConverter&#45;&gt;Bartlett\\Sarif\\Converter\\ConverterInterface -->
<g id="edge1" class="edge">
<title>Bartlett\\Sarif\\Converter\\AbstractConverter&#45;&gt;Bartlett\\Sarif\\Converter\\ConverterInterface</title>
<path fill="none" stroke="black" stroke-dasharray="5,2" d="M241,-163.79C241,-155 241,-146.4 241,-138.2"/>
<polygon fill="none" stroke="black" points="244.5,-138.05 241,-128.05 237.5,-138.05 244.5,-138.05"/>
</g>
</g>
</svg>
