<?xml version="1.0" encoding="UTF-8" standalone="no"?>
<!DOCTYPE svg PUBLIC "-//W3C//DTD SVG 1.1//EN"
 "http://www.w3.org/Graphics/SVG/1.1/DTD/svg11.dtd">
<!-- Generated by graphviz version 2.43.0 (0)
 -->
<!-- Title: %3 Pages: 1 -->
<svg width="742pt" height="633pt"
 viewBox="0.00 0.00 742.00 633.00" xmlns="http://www.w3.org/2000/svg" xmlns:xlink="http://www.w3.org/1999/xlink">
<g id="graph0" class="graph" transform="scale(1 1) rotate(0) translate(4 629)">
<title>%3</title>
<g id="clust1" class="cluster">
<title>cluster_0</title>
<polygon fill="BurlyWood" stroke="black" points="8,-8 8,-617 726,-617 726,-8 8,-8"/>
<text text-anchor="middle" x="367" y="-601.8" font-family="Times,serif" font-size="14.00">Bartlett\Sarif\Converter</text>
</g>
<!-- Bartlett\\Sarif\\Converter\\PhpLintConverter -->
<g id="node1" class="node">
<title>Bartlett\\Sarif\\Converter\\PhpLintConverter</title>
<polygon fill="#fefece" stroke="transparent" points="718,-586 16,-586 16,-468 718,-468 718,-586"/>
<polygon fill="#eeeeee" stroke="transparent" points="16,-564 16,-586 718,-586 718,-564 16,-564"/>
<polygon fill="none" stroke="black" points="16,-564 16,-586 718,-586 718,-564 16,-564"/>
<text text-anchor="start" x="326.5" y="-569.6" font-family="Verdana" font-weight="bold" font-size="8.00">PhpLintConverter</text>
<polygon fill="none" stroke="black" points="16,-493 16,-564 718,-564 718,-493 16,-493"/>
<text text-anchor="start" x="21" y="-552.6" font-family="Verdana" font-size="8.00">+ «static» TOOL_NAME : string = &quot;PHPLint&quot; {readOnly}</text>
<text text-anchor="start" x="21" y="-539.6" font-family="Verdana" font-size="8.00">+ «static» TOOL_SHORT_DESCRIPTION : string = &quot;Syntax\ check\ only\ \(lint\)\ of\ PHP\ files&quot; {readOnly}</text>
<text text-anchor="start" x="21" y="-526.6" font-family="Verdana" font-size="8.00">+ «static» TOOL_FULL_DESCRIPTION : string = &quot;PHPLint\ is\ a\ tool\ that\ can\ speed\ up\ linting\ of\ php\ files\ by\ running\ several\ lint\ processes\ at\ once\.&quot; {readOnly}</text>
<text text-anchor="start" x="21" y="-513.6" font-family="Verdana" font-size="8.00">+ «static» TOOL_INFO_URI : string = &quot;https\:\/\/github\.com\/overtrue\/phplint&quot; {readOnly}</text>
<text text-anchor="start" x="21" y="-500.6" font-family="Verdana" font-size="8.00">+ «static» TOOL_COMPOSER_PACKAGE : string = &quot;overtrue\/phplint&quot; {readOnly}</text>
<polygon fill="none" stroke="black" points="16,-487 16,-493 718,-493 718,-487 16,-487"/>
<polygon fill="none" stroke="black" points="16,-468 16,-487 718,-487 718,-468 16,-468"/>
<text text-anchor="start" x="21" y="-475.6" font-family="Verdana" font-size="8.00">+ format(results : Overtrue\PHPLint\Output\LinterOutput) : string</text>
</g>
<!-- Bartlett\\Sarif\\Converter\\AbstractConverter -->
<g id="node2" class="node">
<title>Bartlett\\Sarif\\Converter\\AbstractConverter</title>
<polygon fill="#fefece" stroke="transparent" points="545.5,-432 188.5,-432 188.5,-164 545.5,-164 545.5,-432"/>
<polygon fill="#eeeeee" stroke="transparent" points="189,-410 189,-432 546,-432 546,-410 189,-410"/>
<polygon fill="none" stroke="black" points="189,-410 189,-432 546,-432 546,-410 189,-410"/>
<text text-anchor="start" x="343.5" y="-423.6" font-family="Verdana" font-weight="bold" font-size="8.00">«abstract»</text>
<text text-anchor="start" x="326.5" y="-415.6" font-family="Verdana" font-weight="bold" font-size="8.00">AbstractConverter</text>
<polygon fill="none" stroke="black" points="189,-300 189,-410 546,-410 546,-300 189,-300"/>
<text text-anchor="start" x="194" y="-398.6" font-family="Verdana" font-size="8.00"># toolName</text>
<text text-anchor="start" x="194" y="-385.6" font-family="Verdana" font-size="8.00"># toolShortDescription</text>
<text text-anchor="start" x="194" y="-372.6" font-family="Verdana" font-size="8.00"># toolFullDescription</text>
<text text-anchor="start" x="194" y="-359.6" font-family="Verdana" font-size="8.00"># toolInformationUri</text>
<text text-anchor="start" x="194" y="-346.6" font-family="Verdana" font-size="8.00"># toolSemanticVersion</text>
<text text-anchor="start" x="194" y="-333.6" font-family="Verdana" font-size="8.00"># rules : mixed = []</text>
<text text-anchor="start" x="194" y="-320.6" font-family="Verdana" font-size="8.00"># results : mixed = []</text>
<text text-anchor="start" x="194" y="-307.6" font-family="Verdana" font-size="8.00"># serializer</text>
<polygon fill="none" stroke="black" points="189,-164 189,-300 546,-300 546,-164 189,-164"/>
<text text-anchor="start" x="194" y="-288.6" font-family="Verdana" font-size="8.00">+ __construct(factory : Bartlett\Sarif\Factory\SerializerFactory = «unknown»)</text>
<text text-anchor="start" x="194" y="-275.6" font-family="Verdana" font-size="8.00">+ toolDriver() : Bartlett\Sarif\Definition\ToolComponent</text>
<text text-anchor="start" x="194" y="-262.6" font-family="Verdana" font-size="8.00">+ toolExtensions() : array</text>
<text text-anchor="start" x="194" y="-249.6" font-family="Verdana" font-size="8.00">+ rules() : array</text>
<text text-anchor="start" x="194" y="-236.6" font-family="Verdana" font-size="8.00">+ sarifLog(runs : array = [], version : string = &#39;2\.1\.0&#39;) : ?string</text>
<text text-anchor="start" x="194" y="-223.6" font-family="Verdana" font-size="8.00">+ invocations(properties : Bartlett\Sarif\Definition\PropertyBag = «unknown») : array</text>
<text text-anchor="start" x="194" y="-210.6" font-family="Verdana" font-size="8.00">+ run(invocations : array) : Bartlett\Sarif\Definition\Run</text>
<text text-anchor="start" x="194" y="-197.6" font-family="Verdana" font-size="8.00"># getToolVersion(package : string) : string</text>
<text text-anchor="start" x="194" y="-184.6" font-family="Verdana" font-size="8.00"># pathToArtifactLocation(path : string) : string</text>
<text text-anchor="start" x="194" y="-171.6" font-family="Verdana" font-size="8.00"># pathToUri(path : string) : string</text>
</g>
<!-- Bartlett\\Sarif\\Converter\\PhpLintConverter&#45;&gt;Bartlett\\Sarif\\Converter\\AbstractConverter -->
<g id="edge2" class="edge">
<title>Bartlett\\Sarif\\Converter\\PhpLintConverter&#45;&gt;Bartlett\\Sarif\\Converter\\AbstractConverter</title>
<path fill="none" stroke="black" d="M367,-467.84C367,-459.72 367,-451.11 367,-442.24"/>
<polygon fill="none" stroke="black" points="370.5,-442.12 367,-432.12 363.5,-442.12 370.5,-442.12"/>
</g>
<!-- Bartlett\\Sarif\\Converter\\ConverterInterface -->
<g id="node3" class="node">
<title>Bartlett\\Sarif\\Converter\\ConverterInterface</title>
<polygon fill="#fefece" stroke="transparent" points="569,-128 165,-128 165,-16 569,-16 569,-128"/>
<polygon fill="#eeeeee" stroke="transparent" points="165,-106 165,-128 569,-128 569,-106 165,-106"/>
<polygon fill="none" stroke="black" points="165,-106 165,-128 569,-128 569,-106 165,-106"/>
<text text-anchor="start" x="341" y="-119.6" font-family="Verdana" font-weight="bold" font-size="8.00">«interface»</text>
<text text-anchor="start" x="324.5" y="-111.6" font-family="Verdana" font-weight="bold" font-size="8.00">ConverterInterface</text>
<polygon fill="none" stroke="black" points="165,-100 165,-106 569,-106 569,-100 165,-100"/>
<polygon fill="none" stroke="black" points="165,-16 165,-100 569,-100 569,-16 165,-16"/>
<text text-anchor="start" x="170" y="-88.6" font-family="Verdana" font-size="8.00">+ «abstract» toolDriver() : Bartlett\Sarif\Definition\ToolComponent</text>
<text text-anchor="start" x="170" y="-75.6" font-family="Verdana" font-size="8.00">+ «abstract» toolExtensions() : array</text>
<text text-anchor="start" x="170" y="-62.6" font-family="Verdana" font-size="8.00">+ «abstract» rules() : array</text>
<text text-anchor="start" x="170" y="-49.6" font-family="Verdana" font-size="8.00">+ «abstract» invocations(properties : Bartlett\Sarif\Definition\PropertyBag = «unknown») : array</text>
<text text-anchor="start" x="170" y="-36.6" font-family="Verdana" font-size="8.00">+ «abstract» run(invocations : array) : Bartlett\Sarif\Definition\Run</text>
<text text-anchor="start" x="170" y="-23.6" font-family="Verdana" font-size="8.00">+ «abstract» sarifLog(runs : array = [], version : string = &#39;2\.1\.0&#39;) : ?string</text>
</g>
<!-- Bartlett\\Sarif\\Converter\\AbstractConverter&#45;&gt;Bartlett\\Sarif\\Converter\\ConverterInterface -->
<g id="edge1" class="edge">
<title>Bartlett\\Sarif\\Converter\\AbstractConverter&#45;&gt;Bartlett\\Sarif\\Converter\\ConverterInterface</title>
<path fill="none" stroke="black" stroke-dasharray="5,2" d="M367,-163.79C367,-155 367,-146.4 367,-138.2"/>
<polygon fill="none" stroke="black" points="370.5,-138.05 367,-128.05 363.5,-138.05 370.5,-138.05"/>
</g>
</g>
</svg>
