<?xml version="1.0" encoding="UTF-8" standalone="no"?>
<!DOCTYPE svg PUBLIC "-//W3C//DTD SVG 1.1//EN"
 "http://www.w3.org/Graphics/SVG/1.1/DTD/svg11.dtd">
<!-- Generated by graphviz version 2.43.0 (0)
 -->
<!-- Title: %3 Pages: 1 -->
<svg width="822pt" height="243pt"
 viewBox="0.00 0.00 822.38 243.00" xmlns="http://www.w3.org/2000/svg" xmlns:xlink="http://www.w3.org/1999/xlink">
<g id="graph0" class="graph" transform="scale(1 1) rotate(0) translate(4 239)">
<title>%3</title>
<polygon fill="white" stroke="transparent" points="-4,4 -4,-239 818.38,-239 818.38,4 -4,4"/>
<!-- bartlett/sarif&#45;php&#45;sdk -->
<g id="node1" class="node">
<title>bartlett/sarif&#45;php&#45;sdk</title>
<ellipse fill="lightgrey" stroke="black" stroke-width="2" cx="109.19" cy="-126" rx="109.38" ry="18"/>
<text text-anchor="middle" x="109.19" y="-122.3" font-family="Times,serif" font-size="14.00">bartlett/sarif&#45;php&#45;sdk</text>
</g>
<!-- php -->
<g id="node2" class="node">
<title>php</title>
<path fill="#eeeeee" stroke="black" d="M748.88,-165C748.88,-165 718.88,-165 718.88,-165 712.88,-165 706.88,-159 706.88,-153 706.88,-153 706.88,-141 706.88,-141 706.88,-135 712.88,-129 718.88,-129 718.88,-129 748.88,-129 748.88,-129 754.88,-129 760.88,-135 760.88,-141 760.88,-141 760.88,-153 760.88,-153 760.88,-159 754.88,-165 748.88,-165"/>
<text text-anchor="middle" x="733.88" y="-143.3" font-family="Times,serif" font-size="14.00" fill="#314b5f">php</text>
</g>
<!-- bartlett/sarif&#45;php&#45;sdk&#45;&gt;php -->
<g id="edge1" class="edge">
<title>bartlett/sarif&#45;php&#45;sdk&#45;&gt;php</title>
<path fill="none" stroke="#1a2833" d="M136.76,-143.48C168.79,-163.42 224.98,-194.81 278.38,-207 395.81,-233.8 430.44,-225.95 549.38,-207 602.33,-198.56 660.75,-177.24 697.14,-162.44"/>
<polygon fill="#1a2833" stroke="#1a2833" points="698.88,-165.5 706.79,-158.45 696.21,-159.03 698.88,-165.5"/>
<text text-anchor="middle" x="413.88" y="-227" font-family="Times,serif" font-size="10.00" fill="#767676">^7.4 || ^8.0</text>
</g>
<!-- ext&#45;json -->
<g id="node3" class="node">
<title>ext&#45;json</title>
<path fill="#eeeeee" stroke="black" d="M438.38,-198C438.38,-198 389.38,-198 389.38,-198 383.38,-198 377.38,-192 377.38,-186 377.38,-186 377.38,-174 377.38,-174 377.38,-168 383.38,-162 389.38,-162 389.38,-162 438.38,-162 438.38,-162 444.38,-162 450.38,-168 450.38,-174 450.38,-174 450.38,-186 450.38,-186 450.38,-192 444.38,-198 438.38,-198"/>
<text text-anchor="middle" x="413.88" y="-176.3" font-family="Times,serif" font-size="14.00" fill="#314b5f">ext&#45;json</text>
</g>
<!-- bartlett/sarif&#45;php&#45;sdk&#45;&gt;ext&#45;json -->
<g id="edge2" class="edge">
<title>bartlett/sarif&#45;php&#45;sdk&#45;&gt;ext&#45;json</title>
<path fill="none" stroke="#1a2833" d="M183.85,-139.14C241.03,-149.34 318.51,-163.16 367.09,-171.83"/>
<polygon fill="#1a2833" stroke="#1a2833" points="366.54,-175.29 377,-173.6 367.77,-168.4 366.54,-175.29"/>
<text text-anchor="middle" x="248.38" y="-154" font-family="Times,serif" font-size="10.00" fill="#767676">*</text>
</g>
<!-- ext&#45;pcre -->
<g id="node4" class="node">
<title>ext&#45;pcre</title>
<path fill="#eeeeee" stroke="black" d="M439.38,-144C439.38,-144 388.38,-144 388.38,-144 382.38,-144 376.38,-138 376.38,-132 376.38,-132 376.38,-120 376.38,-120 376.38,-114 382.38,-108 388.38,-108 388.38,-108 439.38,-108 439.38,-108 445.38,-108 451.38,-114 451.38,-120 451.38,-120 451.38,-132 451.38,-132 451.38,-138 445.38,-144 439.38,-144"/>
<text text-anchor="middle" x="413.88" y="-122.3" font-family="Times,serif" font-size="14.00" fill="#314b5f">ext&#45;pcre</text>
</g>
<!-- bartlett/sarif&#45;php&#45;sdk&#45;&gt;ext&#45;pcre -->
<g id="edge3" class="edge">
<title>bartlett/sarif&#45;php&#45;sdk&#45;&gt;ext&#45;pcre</title>
<path fill="none" stroke="#1a2833" d="M218.61,-126C269.22,-126 326.81,-126 366.06,-126"/>
<polygon fill="#1a2833" stroke="#1a2833" points="366.13,-129.5 376.13,-126 366.13,-122.5 366.13,-129.5"/>
<text text-anchor="middle" x="248.38" y="-129" font-family="Times,serif" font-size="10.00" fill="#767676">*</text>
</g>
<!-- ext&#45;spl -->
<g id="node5" class="node">
<title>ext&#45;spl</title>
<path fill="#eeeeee" stroke="black" d="M434.38,-90C434.38,-90 393.38,-90 393.38,-90 387.38,-90 381.38,-84 381.38,-78 381.38,-78 381.38,-66 381.38,-66 381.38,-60 387.38,-54 393.38,-54 393.38,-54 434.38,-54 434.38,-54 440.38,-54 446.38,-60 446.38,-66 446.38,-66 446.38,-78 446.38,-78 446.38,-84 440.38,-90 434.38,-90"/>
<text text-anchor="middle" x="413.88" y="-68.3" font-family="Times,serif" font-size="14.00" fill="#314b5f">ext&#45;spl</text>
</g>
<!-- bartlett/sarif&#45;php&#45;sdk&#45;&gt;ext&#45;spl -->
<g id="edge4" class="edge">
<title>bartlett/sarif&#45;php&#45;sdk&#45;&gt;ext&#45;spl</title>
<path fill="none" stroke="#1a2833" d="M183.85,-112.86C242.7,-102.36 323.06,-88.02 371.28,-79.42"/>
<polygon fill="#1a2833" stroke="#1a2833" points="372.12,-82.83 381.35,-77.62 370.89,-75.94 372.12,-82.83"/>
<text text-anchor="middle" x="248.38" y="-105" font-family="Times,serif" font-size="10.00" fill="#767676">*</text>
</g>
<!-- bamarni/composer&#45;bin&#45;plugin -->
<g id="node6" class="node">
<title>bamarni/composer&#45;bin&#45;plugin</title>
<path fill="#eeeeee" stroke="black" d="M537.38,-36C537.38,-36 290.38,-36 290.38,-36 284.38,-36 278.38,-30 278.38,-24 278.38,-24 278.38,-12 278.38,-12 278.38,-6 284.38,0 290.38,0 290.38,0 537.38,0 537.38,0 543.38,0 549.38,-6 549.38,-12 549.38,-12 549.38,-24 549.38,-24 549.38,-30 543.38,-36 537.38,-36"/>
<text text-anchor="middle" x="413.88" y="-14.3" font-family="Times,serif" font-size="14.00" fill="#314b5f">bamarni/composer&#45;bin&#45;plugin: 1.8.2</text>
</g>
<!-- bartlett/sarif&#45;php&#45;sdk&#45;&gt;bamarni/composer&#45;bin&#45;plugin -->
<g id="edge7" class="edge">
<title>bartlett/sarif&#45;php&#45;sdk&#45;&gt;bamarni/composer&#45;bin&#45;plugin</title>
<path fill="none" stroke="#1a2833" stroke-dasharray="5,2" d="M140.22,-108.68C173.13,-90.39 227.99,-61.89 278.38,-45 285.21,-42.71 292.31,-40.58 299.51,-38.62"/>
<polygon fill="#1a2833" stroke="#1a2833" points="300.59,-41.95 309.38,-36.03 298.82,-35.18 300.59,-41.95"/>
<text text-anchor="middle" x="248.38" y="-62" font-family="Times,serif" font-size="10.00" fill="#767676">^1.8</text>
</g>
<!-- bamarni/composer&#45;bin&#45;plugin&#45;&gt;php -->
<g id="edge6" class="edge">
<title>bamarni/composer&#45;bin&#45;plugin&#45;&gt;php</title>
<path fill="none" stroke="#1a2833" d="M520.75,-36.01C530.54,-38.64 540.22,-41.63 549.38,-45 604.25,-65.2 662.4,-100.13 698.18,-123.4"/>
<polygon fill="#1a2833" stroke="#1a2833" points="696.5,-126.49 706.78,-129.05 700.34,-120.64 696.5,-126.49"/>
<text text-anchor="middle" x="601.38" y="-86" font-family="Times,serif" font-size="10.00" fill="#767676">^7.2.5 || ^8.0</text>
</g>
<!-- composer&#45;plugin&#45;api -->
<g id="node7" class="node">
<title>composer&#45;plugin&#45;api</title>
<path fill="#eeeeee" stroke="black" d="M802.38,-36C802.38,-36 665.38,-36 665.38,-36 659.38,-36 653.38,-30 653.38,-24 653.38,-24 653.38,-12 653.38,-12 653.38,-6 659.38,0 665.38,0 665.38,0 802.38,0 802.38,0 808.38,0 814.38,-6 814.38,-12 814.38,-12 814.38,-24 814.38,-24 814.38,-30 808.38,-36 802.38,-36"/>
<text text-anchor="middle" x="733.88" y="-14.3" font-family="Times,serif" font-size="14.00" fill="#314b5f">composer&#45;plugin&#45;api</text>
</g>
<!-- bamarni/composer&#45;bin&#45;plugin&#45;&gt;composer&#45;plugin&#45;api -->
<g id="edge5" class="edge">
<title>bamarni/composer&#45;bin&#45;plugin&#45;&gt;composer&#45;plugin&#45;api</title>
<path fill="none" stroke="#1a2833" d="M549.74,-18C581.24,-18 614.03,-18 643.01,-18"/>
<polygon fill="#1a2833" stroke="#1a2833" points="643.1,-21.5 653.1,-18 643.1,-14.5 643.1,-21.5"/>
<text text-anchor="middle" x="601.38" y="-21" font-family="Times,serif" font-size="10.00" fill="#767676">^2.0</text>
</g>
</g>
</svg>
