<?xml version="1.0" encoding="UTF-8" standalone="no"?>
<!DOCTYPE svg PUBLIC "-//W3C//DTD SVG 1.1//EN"
 "http://www.w3.org/Graphics/SVG/1.1/DTD/svg11.dtd">
<!-- Generated by graphviz version 2.43.0 (0)
 -->
<!-- Title: %3 Pages: 1 -->
<svg width="400pt" height="519pt"
 viewBox="0.00 0.00 400.00 519.00" xmlns="http://www.w3.org/2000/svg" xmlns:xlink="http://www.w3.org/1999/xlink">
<g id="graph0" class="graph" transform="scale(1 1) rotate(0) translate(4 515)">
<title>%3</title>
<g id="clust1" class="cluster">
<title>cluster_0</title>
<polygon fill="BurlyWood" stroke="black" points="8,-235 8,-503 384,-503 384,-235 8,-235"/>
<text text-anchor="middle" x="196" y="-487.8" font-family="Times,serif" font-size="14.00">Bartlett\Sarif\Definition</text>
</g>
<g id="clust2" class="cluster">
<title>cluster_1</title>
<polygon fill="Bisque" stroke="black" points="70,-102 70,-227 322,-227 322,-102 70,-102"/>
<text text-anchor="middle" x="196" y="-211.8" font-family="Times,serif" font-size="14.00">Bartlett\Sarif\Internal</text>
</g>
<g id="clust3" class="cluster">
<title>cluster_2</title>
<polygon fill="transparent" stroke="black" points="125,-8 125,-94 267,-94 267,-8 125,-8"/>
<text text-anchor="middle" x="196" y="-78.8" font-family="Times,serif" font-size="14.00">0</text>
</g>
<!-- Bartlett\\Sarif\\Definition\\GraphTraversal -->
<g id="node1" class="node">
<title>Bartlett\\Sarif\\Definition\\GraphTraversal</title>
<polygon fill="#fefece" stroke="transparent" points="376,-472 16,-472 16,-243 376,-243 376,-472"/>
<polygon fill="#eeeeee" stroke="transparent" points="16,-449.5 16,-471.5 376,-471.5 376,-449.5 16,-449.5"/>
<polygon fill="none" stroke="black" points="16,-449.5 16,-471.5 376,-471.5 376,-449.5 16,-449.5"/>
<text text-anchor="start" x="161.5" y="-455.1" font-family="Verdana" font-weight="bold" font-size="8.00">GraphTraversal</text>
<polygon fill="none" stroke="black" points="16,-352.5 16,-449.5 376,-449.5 376,-352.5 16,-352.5"/>
<text text-anchor="start" x="21" y="-438.1" font-family="Verdana" font-size="8.00"># runGraphIndex</text>
<text text-anchor="start" x="21" y="-425.1" font-family="Verdana" font-size="8.00"># resultGraphIndex</text>
<text text-anchor="start" x="21" y="-412.1" font-family="Verdana" font-size="8.00"># description</text>
<text text-anchor="start" x="21" y="-399.1" font-family="Verdana" font-size="8.00"># initialState : mixed</text>
<text text-anchor="start" x="21" y="-386.1" font-family="Verdana" font-size="8.00"># immutableState : mixed</text>
<text text-anchor="start" x="21" y="-373.1" font-family="Verdana" font-size="8.00"># edgeTraversals : mixed</text>
<text text-anchor="start" x="21" y="-360.1" font-family="Verdana" font-size="8.00"># properties</text>
<polygon fill="none" stroke="black" points="16,-242.5 16,-352.5 376,-352.5 376,-242.5 16,-242.5"/>
<text text-anchor="start" x="21" y="-341.1" font-family="Verdana" font-size="8.00">+ __construct(runGraphIndex : int = «unknown», resultGraphIndex : int = «unknown»)</text>
<text text-anchor="start" x="21" y="-328.1" font-family="Verdana" font-size="8.00">+ setRunGraphIndex(runGraphIndex : int = &#45;1) : void</text>
<text text-anchor="start" x="21" y="-315.1" font-family="Verdana" font-size="8.00">+ setResultGraphIndex(resultGraphIndex : int = &#45;1) : void</text>
<text text-anchor="start" x="21" y="-302.1" font-family="Verdana" font-size="8.00">+ setDescription(description : Bartlett\Sarif\Definition\Message) : void</text>
<text text-anchor="start" x="21" y="-289.1" font-family="Verdana" font-size="8.00">+ addAdditionalPropertiesInitialState(additionalProperties : array) : void</text>
<text text-anchor="start" x="21" y="-276.1" font-family="Verdana" font-size="8.00">+ addAdditionalProperties(additionalProperties : array) : void</text>
<text text-anchor="start" x="21" y="-263.1" font-family="Verdana" font-size="8.00">+ addEdgeTraversals(edgeTraversals : array) : void</text>
<text text-anchor="start" x="21" y="-250.1" font-family="Verdana" font-size="8.00">+ setProperties(propertyBag : Bartlett\Sarif\Definition\PropertyBag) : void</text>
</g>
<!-- Bartlett\\Sarif\\Internal\\JsonSerializable -->
<g id="node2" class="node">
<title>Bartlett\\Sarif\\Internal\\JsonSerializable</title>
<polygon fill="#fefece" stroke="transparent" points="314,-196 78,-196 78,-110 314,-110 314,-196"/>
<polygon fill="#eeeeee" stroke="transparent" points="78,-174 78,-196 314,-196 314,-174 78,-174"/>
<polygon fill="none" stroke="black" points="78,-174 78,-196 314,-196 314,-174 78,-174"/>
<text text-anchor="start" x="172" y="-187.6" font-family="Verdana" font-weight="bold" font-size="8.00">«abstract»</text>
<text text-anchor="start" x="159.5" y="-179.6" font-family="Verdana" font-weight="bold" font-size="8.00">JsonSerializable</text>
<polygon fill="none" stroke="black" points="78,-142 78,-174 314,-174 314,-142 78,-142"/>
<text text-anchor="start" x="83" y="-162.6" font-family="Verdana" font-size="8.00">– required : mixed</text>
<text text-anchor="start" x="83" y="-149.6" font-family="Verdana" font-size="8.00">– optional : mixed</text>
<polygon fill="none" stroke="black" points="78,-110 78,-142 314,-142 314,-110 78,-110"/>
<text text-anchor="start" x="83" y="-130.6" font-family="Verdana" font-size="8.00">+ __construct(required : array = [], optional : array = [])</text>
<text text-anchor="start" x="83" y="-117.6" font-family="Verdana" font-size="8.00">+ jsonSerialize() : array</text>
</g>
<!-- Bartlett\\Sarif\\Definition\\GraphTraversal&#45;&gt;Bartlett\\Sarif\\Internal\\JsonSerializable -->
<g id="edge2" class="edge">
<title>Bartlett\\Sarif\\Definition\\GraphTraversal&#45;&gt;Bartlett\\Sarif\\Internal\\JsonSerializable</title>
<path fill="none" stroke="black" d="M196,-242.82C196,-230.12 196,-217.68 196,-206.33"/>
<polygon fill="none" stroke="black" points="199.5,-206.23 196,-196.23 192.5,-206.23 199.5,-206.23"/>
</g>
<!-- JsonSerializable -->
<g id="node3" class="node">
<title>JsonSerializable</title>
<polygon fill="#fefece" stroke="transparent" points="258.5,-63 133.5,-63 133.5,-16 258.5,-16 258.5,-63"/>
<polygon fill="#eeeeee" stroke="transparent" points="134,-40.5 134,-62.5 259,-62.5 259,-40.5 134,-40.5"/>
<polygon fill="none" stroke="black" points="134,-40.5 134,-62.5 259,-62.5 259,-40.5 134,-40.5"/>
<text text-anchor="start" x="170.5" y="-54.1" font-family="Verdana" font-weight="bold" font-size="8.00">«interface»</text>
<text text-anchor="start" x="160" y="-46.1" font-family="Verdana" font-weight="bold" font-size="8.00">JsonSerializable</text>
<polygon fill="none" stroke="black" points="134,-34.5 134,-40.5 259,-40.5 259,-34.5 134,-34.5"/>
<polygon fill="none" stroke="black" points="134,-15.5 134,-34.5 259,-34.5 259,-15.5 134,-15.5"/>
<text text-anchor="start" x="139" y="-23.1" font-family="Verdana" font-size="8.00">+ «abstract» jsonSerialize()</text>
</g>
<!-- Bartlett\\Sarif\\Internal\\JsonSerializable&#45;&gt;JsonSerializable -->
<g id="edge1" class="edge">
<title>Bartlett\\Sarif\\Internal\\JsonSerializable&#45;&gt;JsonSerializable</title>
<path fill="none" stroke="black" stroke-dasharray="5,2" d="M196,-109.85C196,-97.66 196,-84.56 196,-73.06"/>
<polygon fill="none" stroke="black" points="199.5,-73.02 196,-63.02 192.5,-73.02 199.5,-73.02"/>
</g>
</g>
</svg>
