<?xml version="1.0" encoding="UTF-8" standalone="no"?>
<!DOCTYPE svg PUBLIC "-//W3C//DTD SVG 1.1//EN"
 "http://www.w3.org/Graphics/SVG/1.1/DTD/svg11.dtd">
<!-- Generated by graphviz version 2.43.0 (0)
 -->
<!-- Title: %3 Pages: 1 -->
<svg width="640pt" height="493pt"
 viewBox="0.00 0.00 640.00 493.00" xmlns="http://www.w3.org/2000/svg" xmlns:xlink="http://www.w3.org/1999/xlink">
<g id="graph0" class="graph" transform="scale(1 1) rotate(0) translate(4 489)">
<title>%3</title>
<g id="clust1" class="cluster">
<title>cluster_0</title>
<polygon fill="BurlyWood" stroke="black" points="8,-235 8,-477 624,-477 624,-235 8,-235"/>
<text text-anchor="middle" x="316" y="-461.8" font-family="Times,serif" font-size="14.00">Bartlett\Sarif\Definition</text>
</g>
<g id="clust2" class="cluster">
<title>cluster_1</title>
<polygon fill="Bisque" stroke="black" points="190,-102 190,-227 442,-227 442,-102 190,-102"/>
<text text-anchor="middle" x="316" y="-211.8" font-family="Times,serif" font-size="14.00">Bartlett\Sarif\Internal</text>
</g>
<g id="clust3" class="cluster">
<title>cluster_2</title>
<polygon fill="transparent" stroke="black" points="245,-8 245,-94 387,-94 387,-8 245,-8"/>
<text text-anchor="middle" x="316" y="-78.8" font-family="Times,serif" font-size="14.00">0</text>
</g>
<!-- Bartlett\\Sarif\\Definition\\PhysicalLocation -->
<g id="node1" class="node">
<title>Bartlett\\Sarif\\Definition\\PhysicalLocation</title>
<polygon fill="#fefece" stroke="transparent" points="615.5,-446 16.5,-446 16.5,-243 615.5,-243 615.5,-446"/>
<polygon fill="#eeeeee" stroke="transparent" points="17,-423.5 17,-445.5 616,-445.5 616,-423.5 17,-423.5"/>
<polygon fill="none" stroke="black" points="17,-423.5 17,-445.5 616,-445.5 616,-423.5 17,-423.5"/>
<text text-anchor="start" x="278.5" y="-429.1" font-family="Verdana" font-weight="bold" font-size="8.00">PhysicalLocation</text>
<polygon fill="none" stroke="black" points="17,-339.5 17,-423.5 616,-423.5 616,-339.5 17,-339.5"/>
<text text-anchor="start" x="22" y="-412.1" font-family="Verdana" font-size="8.00"># address</text>
<text text-anchor="start" x="22" y="-399.1" font-family="Verdana" font-size="8.00"># location</text>
<text text-anchor="start" x="22" y="-386.1" font-family="Verdana" font-size="8.00"># artifactLocation</text>
<text text-anchor="start" x="22" y="-373.1" font-family="Verdana" font-size="8.00"># region</text>
<text text-anchor="start" x="22" y="-360.1" font-family="Verdana" font-size="8.00"># contextRegion</text>
<text text-anchor="start" x="22" y="-347.1" font-family="Verdana" font-size="8.00"># properties</text>
<polygon fill="none" stroke="black" points="17,-242.5 17,-339.5 616,-339.5 616,-242.5 17,-242.5"/>
<text text-anchor="start" x="22" y="-328.1" font-family="Verdana" font-size="8.00">+ __construct(artifactLocation : Bartlett\Sarif\Definition\ArtifactLocation = «unknown», address : Bartlett\Sarif\Definition\Address = «unknown»)</text>
<text text-anchor="start" x="22" y="-315.1" font-family="Verdana" font-size="8.00">+ setAddress(address : Bartlett\Sarif\Definition\Address) : void</text>
<text text-anchor="start" x="22" y="-302.1" font-family="Verdana" font-size="8.00">+ setLocation(location : Bartlett\Sarif\Definition\ArtifactLocation) : void</text>
<text text-anchor="start" x="22" y="-289.1" font-family="Verdana" font-size="8.00">+ setArtifactLocation(artifactLocation : Bartlett\Sarif\Definition\ArtifactLocation) : void</text>
<text text-anchor="start" x="22" y="-276.1" font-family="Verdana" font-size="8.00">+ setRegion(region : Bartlett\Sarif\Definition\Region) : void</text>
<text text-anchor="start" x="22" y="-263.1" font-family="Verdana" font-size="8.00">+ setContextRegion(contextRegion : Bartlett\Sarif\Definition\Region) : void</text>
<text text-anchor="start" x="22" y="-250.1" font-family="Verdana" font-size="8.00">+ setProperties(propertyBag : Bartlett\Sarif\Definition\PropertyBag) : void</text>
</g>
<!-- Bartlett\\Sarif\\Internal\\JsonSerializable -->
<g id="node2" class="node">
<title>Bartlett\\Sarif\\Internal\\JsonSerializable</title>
<polygon fill="#fefece" stroke="transparent" points="434,-196 198,-196 198,-110 434,-110 434,-196"/>
<polygon fill="#eeeeee" stroke="transparent" points="198,-174 198,-196 434,-196 434,-174 198,-174"/>
<polygon fill="none" stroke="black" points="198,-174 198,-196 434,-196 434,-174 198,-174"/>
<text text-anchor="start" x="292" y="-187.6" font-family="Verdana" font-weight="bold" font-size="8.00">«abstract»</text>
<text text-anchor="start" x="279.5" y="-179.6" font-family="Verdana" font-weight="bold" font-size="8.00">JsonSerializable</text>
<polygon fill="none" stroke="black" points="198,-142 198,-174 434,-174 434,-142 198,-142"/>
<text text-anchor="start" x="203" y="-162.6" font-family="Verdana" font-size="8.00">– required : mixed</text>
<text text-anchor="start" x="203" y="-149.6" font-family="Verdana" font-size="8.00">– optional : mixed</text>
<polygon fill="none" stroke="black" points="198,-110 198,-142 434,-142 434,-110 198,-110"/>
<text text-anchor="start" x="203" y="-130.6" font-family="Verdana" font-size="8.00">+ __construct(required : array = [], optional : array = [])</text>
<text text-anchor="start" x="203" y="-117.6" font-family="Verdana" font-size="8.00">+ jsonSerialize() : array</text>
</g>
<!-- Bartlett\\Sarif\\Definition\\PhysicalLocation&#45;&gt;Bartlett\\Sarif\\Internal\\JsonSerializable -->
<g id="edge2" class="edge">
<title>Bartlett\\Sarif\\Definition\\PhysicalLocation&#45;&gt;Bartlett\\Sarif\\Internal\\JsonSerializable</title>
<path fill="none" stroke="black" d="M316,-242.92C316,-230.31 316,-217.83 316,-206.39"/>
<polygon fill="none" stroke="black" points="319.5,-206.2 316,-196.2 312.5,-206.2 319.5,-206.2"/>
</g>
<!-- JsonSerializable -->
<g id="node3" class="node">
<title>JsonSerializable</title>
<polygon fill="#fefece" stroke="transparent" points="378.5,-63 253.5,-63 253.5,-16 378.5,-16 378.5,-63"/>
<polygon fill="#eeeeee" stroke="transparent" points="254,-40.5 254,-62.5 379,-62.5 379,-40.5 254,-40.5"/>
<polygon fill="none" stroke="black" points="254,-40.5 254,-62.5 379,-62.5 379,-40.5 254,-40.5"/>
<text text-anchor="start" x="290.5" y="-54.1" font-family="Verdana" font-weight="bold" font-size="8.00">«interface»</text>
<text text-anchor="start" x="280" y="-46.1" font-family="Verdana" font-weight="bold" font-size="8.00">JsonSerializable</text>
<polygon fill="none" stroke="black" points="254,-34.5 254,-40.5 379,-40.5 379,-34.5 254,-34.5"/>
<polygon fill="none" stroke="black" points="254,-15.5 254,-34.5 379,-34.5 379,-15.5 254,-15.5"/>
<text text-anchor="start" x="259" y="-23.1" font-family="Verdana" font-size="8.00">+ «abstract» jsonSerialize()</text>
</g>
<!-- Bartlett\\Sarif\\Internal\\JsonSerializable&#45;&gt;JsonSerializable -->
<g id="edge1" class="edge">
<title>Bartlett\\Sarif\\Internal\\JsonSerializable&#45;&gt;JsonSerializable</title>
<path fill="none" stroke="black" stroke-dasharray="5,2" d="M316,-109.85C316,-97.66 316,-84.56 316,-73.06"/>
<polygon fill="none" stroke="black" points="319.5,-73.02 316,-63.02 312.5,-73.02 319.5,-73.02"/>
</g>
</g>
</svg>
