<?xml version="1.0" encoding="UTF-8" standalone="no"?>
<!DOCTYPE svg PUBLIC "-//W3C//DTD SVG 1.1//EN"
 "http://www.w3.org/Graphics/SVG/1.1/DTD/svg11.dtd">
<!-- Generated by graphviz version 2.43.0 (0)
 -->
<!-- Title: %3 Pages: 1 -->
<svg width="440pt" height="467pt"
 viewBox="0.00 0.00 440.00 467.00" xmlns="http://www.w3.org/2000/svg" xmlns:xlink="http://www.w3.org/1999/xlink">
<g id="graph0" class="graph" transform="scale(1 1) rotate(0) translate(4 463)">
<title>%3</title>
<g id="clust1" class="cluster">
<title>cluster_0</title>
<polygon fill="BurlyWood" stroke="black" points="8,-235 8,-451 424,-451 424,-235 8,-235"/>
<text text-anchor="middle" x="216" y="-435.8" font-family="Times,serif" font-size="14.00">Bartlett\Sarif\Definition</text>
</g>
<g id="clust2" class="cluster">
<title>cluster_1</title>
<polygon fill="Bisque" stroke="black" points="90,-102 90,-227 342,-227 342,-102 90,-102"/>
<text text-anchor="middle" x="216" y="-211.8" font-family="Times,serif" font-size="14.00">Bartlett\Sarif\Internal</text>
</g>
<g id="clust3" class="cluster">
<title>cluster_2</title>
<polygon fill="transparent" stroke="black" points="145,-8 145,-94 287,-94 287,-8 145,-8"/>
<text text-anchor="middle" x="216" y="-78.8" font-family="Times,serif" font-size="14.00">0</text>
</g>
<!-- Bartlett\\Sarif\\Definition\\ReportingDescriptorReference -->
<g id="node1" class="node">
<title>Bartlett\\Sarif\\Definition\\ReportingDescriptorReference</title>
<polygon fill="#fefece" stroke="transparent" points="416.5,-420 15.5,-420 15.5,-243 416.5,-243 416.5,-420"/>
<polygon fill="#eeeeee" stroke="transparent" points="16,-397.5 16,-419.5 417,-419.5 417,-397.5 16,-397.5"/>
<polygon fill="none" stroke="black" points="16,-397.5 16,-419.5 417,-419.5 417,-397.5 16,-397.5"/>
<text text-anchor="start" x="148" y="-403.1" font-family="Verdana" font-weight="bold" font-size="8.00">ReportingDescriptorReference</text>
<polygon fill="none" stroke="black" points="16,-326.5 16,-397.5 417,-397.5 417,-326.5 16,-326.5"/>
<text text-anchor="start" x="21" y="-386.1" font-family="Verdana" font-size="8.00"># id</text>
<text text-anchor="start" x="21" y="-373.1" font-family="Verdana" font-size="8.00"># index</text>
<text text-anchor="start" x="21" y="-360.1" font-family="Verdana" font-size="8.00"># guid</text>
<text text-anchor="start" x="21" y="-347.1" font-family="Verdana" font-size="8.00"># toolComponent</text>
<text text-anchor="start" x="21" y="-334.1" font-family="Verdana" font-size="8.00"># properties</text>
<polygon fill="none" stroke="black" points="16,-242.5 16,-326.5 417,-326.5 417,-242.5 16,-242.5"/>
<text text-anchor="start" x="21" y="-315.1" font-family="Verdana" font-size="8.00">+ __construct(index : int = &#45;1, id : string = &#39;&#39;, guid : string = &#39;&#39;)</text>
<text text-anchor="start" x="21" y="-302.1" font-family="Verdana" font-size="8.00">+ setId(id : string) : void</text>
<text text-anchor="start" x="21" y="-289.1" font-family="Verdana" font-size="8.00">+ setIndex(index : int = &#45;1) : void</text>
<text text-anchor="start" x="21" y="-276.1" font-family="Verdana" font-size="8.00">+ setGuid(guid : string) : void</text>
<text text-anchor="start" x="21" y="-263.1" font-family="Verdana" font-size="8.00">+ setToolComponent(toolComponent : Bartlett\Sarif\Definition\ToolComponentReference) : void</text>
<text text-anchor="start" x="21" y="-250.1" font-family="Verdana" font-size="8.00">+ setProperties(propertyBag : Bartlett\Sarif\Definition\PropertyBag) : void</text>
</g>
<!-- Bartlett\\Sarif\\Internal\\JsonSerializable -->
<g id="node2" class="node">
<title>Bartlett\\Sarif\\Internal\\JsonSerializable</title>
<polygon fill="#fefece" stroke="transparent" points="334,-196 98,-196 98,-110 334,-110 334,-196"/>
<polygon fill="#eeeeee" stroke="transparent" points="98,-174 98,-196 334,-196 334,-174 98,-174"/>
<polygon fill="none" stroke="black" points="98,-174 98,-196 334,-196 334,-174 98,-174"/>
<text text-anchor="start" x="192" y="-187.6" font-family="Verdana" font-weight="bold" font-size="8.00">«abstract»</text>
<text text-anchor="start" x="179.5" y="-179.6" font-family="Verdana" font-weight="bold" font-size="8.00">JsonSerializable</text>
<polygon fill="none" stroke="black" points="98,-142 98,-174 334,-174 334,-142 98,-142"/>
<text text-anchor="start" x="103" y="-162.6" font-family="Verdana" font-size="8.00">– required : mixed</text>
<text text-anchor="start" x="103" y="-149.6" font-family="Verdana" font-size="8.00">– optional : mixed</text>
<polygon fill="none" stroke="black" points="98,-110 98,-142 334,-142 334,-110 98,-110"/>
<text text-anchor="start" x="103" y="-130.6" font-family="Verdana" font-size="8.00">+ __construct(required : array = [], optional : array = [])</text>
<text text-anchor="start" x="103" y="-117.6" font-family="Verdana" font-size="8.00">+ jsonSerialize() : array</text>
</g>
<!-- Bartlett\\Sarif\\Definition\\ReportingDescriptorReference&#45;&gt;Bartlett\\Sarif\\Internal\\JsonSerializable -->
<g id="edge2" class="edge">
<title>Bartlett\\Sarif\\Definition\\ReportingDescriptorReference&#45;&gt;Bartlett\\Sarif\\Internal\\JsonSerializable</title>
<path fill="none" stroke="black" d="M216,-242.77C216,-230.31 216,-217.85 216,-206.36"/>
<polygon fill="none" stroke="black" points="219.5,-206.11 216,-196.11 212.5,-206.11 219.5,-206.11"/>
</g>
<!-- JsonSerializable -->
<g id="node3" class="node">
<title>JsonSerializable</title>
<polygon fill="#fefece" stroke="transparent" points="278.5,-63 153.5,-63 153.5,-16 278.5,-16 278.5,-63"/>
<polygon fill="#eeeeee" stroke="transparent" points="154,-40.5 154,-62.5 279,-62.5 279,-40.5 154,-40.5"/>
<polygon fill="none" stroke="black" points="154,-40.5 154,-62.5 279,-62.5 279,-40.5 154,-40.5"/>
<text text-anchor="start" x="190.5" y="-54.1" font-family="Verdana" font-weight="bold" font-size="8.00">«interface»</text>
<text text-anchor="start" x="180" y="-46.1" font-family="Verdana" font-weight="bold" font-size="8.00">JsonSerializable</text>
<polygon fill="none" stroke="black" points="154,-34.5 154,-40.5 279,-40.5 279,-34.5 154,-34.5"/>
<polygon fill="none" stroke="black" points="154,-15.5 154,-34.5 279,-34.5 279,-15.5 154,-15.5"/>
<text text-anchor="start" x="159" y="-23.1" font-family="Verdana" font-size="8.00">+ «abstract» jsonSerialize()</text>
</g>
<!-- Bartlett\\Sarif\\Internal\\JsonSerializable&#45;&gt;JsonSerializable -->
<g id="edge1" class="edge">
<title>Bartlett\\Sarif\\Internal\\JsonSerializable&#45;&gt;JsonSerializable</title>
<path fill="none" stroke="black" stroke-dasharray="5,2" d="M216,-109.85C216,-97.66 216,-84.56 216,-73.06"/>
<polygon fill="none" stroke="black" points="219.5,-73.02 216,-63.02 212.5,-73.02 219.5,-73.02"/>
</g>
</g>
</svg>
