<?xml version="1.0" encoding="UTF-8" standalone="no"?>
<!DOCTYPE svg PUBLIC "-//W3C//DTD SVG 1.1//EN"
 "http://www.w3.org/Graphics/SVG/1.1/DTD/svg11.dtd">
<!-- Generated by graphviz version 2.43.0 (0)
 -->
<!-- Title: %3 Pages: 1 -->
<svg width="436pt" height="441pt"
 viewBox="0.00 0.00 436.00 441.00" xmlns="http://www.w3.org/2000/svg" xmlns:xlink="http://www.w3.org/1999/xlink">
<g id="graph0" class="graph" transform="scale(1 1) rotate(0) translate(4 437)">
<title>%3</title>
<g id="clust1" class="cluster">
<title>cluster_0</title>
<polygon fill="BurlyWood" stroke="black" points="8,-235 8,-425 420,-425 420,-235 8,-235"/>
<text text-anchor="middle" x="214" y="-409.8" font-family="Times,serif" font-size="14.00">Bartlett\Sarif\Definition</text>
</g>
<g id="clust2" class="cluster">
<title>cluster_1</title>
<polygon fill="Bisque" stroke="black" points="88,-102 88,-227 340,-227 340,-102 88,-102"/>
<text text-anchor="middle" x="214" y="-211.8" font-family="Times,serif" font-size="14.00">Bartlett\Sarif\Internal</text>
</g>
<g id="clust3" class="cluster">
<title>cluster_2</title>
<polygon fill="transparent" stroke="black" points="143,-8 143,-94 285,-94 285,-8 143,-8"/>
<text text-anchor="middle" x="214" y="-78.8" font-family="Times,serif" font-size="14.00">0</text>
</g>
<!-- Bartlett\\Sarif\\Definition\\ArtifactChange -->
<g id="node1" class="node">
<title>Bartlett\\Sarif\\Definition\\ArtifactChange</title>
<polygon fill="#fefece" stroke="transparent" points="411.5,-394 16.5,-394 16.5,-243 411.5,-243 411.5,-394"/>
<polygon fill="#eeeeee" stroke="transparent" points="17,-371.5 17,-393.5 412,-393.5 412,-371.5 17,-371.5"/>
<polygon fill="none" stroke="black" points="17,-371.5 17,-393.5 412,-393.5 412,-371.5 17,-371.5"/>
<text text-anchor="start" x="180" y="-377.1" font-family="Verdana" font-weight="bold" font-size="8.00">ArtifactChange</text>
<polygon fill="none" stroke="black" points="17,-313.5 17,-371.5 412,-371.5 412,-313.5 17,-313.5"/>
<text text-anchor="start" x="22" y="-360.1" font-family="Verdana" font-size="8.00"># location</text>
<text text-anchor="start" x="22" y="-347.1" font-family="Verdana" font-size="8.00"># artifactLocation</text>
<text text-anchor="start" x="22" y="-334.1" font-family="Verdana" font-size="8.00"># replacements : mixed</text>
<text text-anchor="start" x="22" y="-321.1" font-family="Verdana" font-size="8.00"># properties</text>
<polygon fill="none" stroke="black" points="17,-242.5 17,-313.5 412,-313.5 412,-242.5 17,-242.5"/>
<text text-anchor="start" x="22" y="-302.1" font-family="Verdana" font-size="8.00">+ __construct(artifactLocation : Bartlett\Sarif\Definition\ArtifactLocation, replacements : array)</text>
<text text-anchor="start" x="22" y="-289.1" font-family="Verdana" font-size="8.00">+ setLocation(location : Bartlett\Sarif\Definition\ArtifactLocation) : void</text>
<text text-anchor="start" x="22" y="-276.1" font-family="Verdana" font-size="8.00">+ setArtifactLocation(artifactLocation : Bartlett\Sarif\Definition\ArtifactLocation) : void</text>
<text text-anchor="start" x="22" y="-263.1" font-family="Verdana" font-size="8.00">+ addReplacements(replacements : array) : void</text>
<text text-anchor="start" x="22" y="-250.1" font-family="Verdana" font-size="8.00">+ setProperties(propertyBag : Bartlett\Sarif\Definition\PropertyBag) : void</text>
</g>
<!-- Bartlett\\Sarif\\Internal\\JsonSerializable -->
<g id="node2" class="node">
<title>Bartlett\\Sarif\\Internal\\JsonSerializable</title>
<polygon fill="#fefece" stroke="transparent" points="332,-196 96,-196 96,-110 332,-110 332,-196"/>
<polygon fill="#eeeeee" stroke="transparent" points="96,-174 96,-196 332,-196 332,-174 96,-174"/>
<polygon fill="none" stroke="black" points="96,-174 96,-196 332,-196 332,-174 96,-174"/>
<text text-anchor="start" x="190" y="-187.6" font-family="Verdana" font-weight="bold" font-size="8.00">«abstract»</text>
<text text-anchor="start" x="177.5" y="-179.6" font-family="Verdana" font-weight="bold" font-size="8.00">JsonSerializable</text>
<polygon fill="none" stroke="black" points="96,-142 96,-174 332,-174 332,-142 96,-142"/>
<text text-anchor="start" x="101" y="-162.6" font-family="Verdana" font-size="8.00">– required : mixed</text>
<text text-anchor="start" x="101" y="-149.6" font-family="Verdana" font-size="8.00">– optional : mixed</text>
<polygon fill="none" stroke="black" points="96,-110 96,-142 332,-142 332,-110 96,-110"/>
<text text-anchor="start" x="101" y="-130.6" font-family="Verdana" font-size="8.00">+ __construct(required : array = [], optional : array = [])</text>
<text text-anchor="start" x="101" y="-117.6" font-family="Verdana" font-size="8.00">+ jsonSerialize() : array</text>
</g>
<!-- Bartlett\\Sarif\\Definition\\ArtifactChange&#45;&gt;Bartlett\\Sarif\\Internal\\JsonSerializable -->
<g id="edge2" class="edge">
<title>Bartlett\\Sarif\\Definition\\ArtifactChange&#45;&gt;Bartlett\\Sarif\\Internal\\JsonSerializable</title>
<path fill="none" stroke="black" d="M214,-242.93C214,-230.68 214,-218.21 214,-206.63"/>
<polygon fill="none" stroke="black" points="217.5,-206.29 214,-196.29 210.5,-206.29 217.5,-206.29"/>
</g>
<!-- JsonSerializable -->
<g id="node3" class="node">
<title>JsonSerializable</title>
<polygon fill="#fefece" stroke="transparent" points="276.5,-63 151.5,-63 151.5,-16 276.5,-16 276.5,-63"/>
<polygon fill="#eeeeee" stroke="transparent" points="152,-40.5 152,-62.5 277,-62.5 277,-40.5 152,-40.5"/>
<polygon fill="none" stroke="black" points="152,-40.5 152,-62.5 277,-62.5 277,-40.5 152,-40.5"/>
<text text-anchor="start" x="188.5" y="-54.1" font-family="Verdana" font-weight="bold" font-size="8.00">«interface»</text>
<text text-anchor="start" x="178" y="-46.1" font-family="Verdana" font-weight="bold" font-size="8.00">JsonSerializable</text>
<polygon fill="none" stroke="black" points="152,-34.5 152,-40.5 277,-40.5 277,-34.5 152,-34.5"/>
<polygon fill="none" stroke="black" points="152,-15.5 152,-34.5 277,-34.5 277,-15.5 152,-15.5"/>
<text text-anchor="start" x="157" y="-23.1" font-family="Verdana" font-size="8.00">+ «abstract» jsonSerialize()</text>
</g>
<!-- Bartlett\\Sarif\\Internal\\JsonSerializable&#45;&gt;JsonSerializable -->
<g id="edge1" class="edge">
<title>Bartlett\\Sarif\\Internal\\JsonSerializable&#45;&gt;JsonSerializable</title>
<path fill="none" stroke="black" stroke-dasharray="5,2" d="M214,-109.85C214,-97.66 214,-84.56 214,-73.06"/>
<polygon fill="none" stroke="black" points="217.5,-73.02 214,-63.02 210.5,-73.02 217.5,-73.02"/>
</g>
</g>
</svg>
