<?xml version="1.0" encoding="UTF-8" standalone="no"?>
<!DOCTYPE svg PUBLIC "-//W3C//DTD SVG 1.1//EN"
 "http://www.w3.org/Graphics/SVG/1.1/DTD/svg11.dtd">
<!-- Generated by graphviz version 2.43.0 (0)
 -->
<!-- Title: %3 Pages: 1 -->
<svg width="348pt" height="597pt"
 viewBox="0.00 0.00 348.00 597.00" xmlns="http://www.w3.org/2000/svg" xmlns:xlink="http://www.w3.org/1999/xlink">
<g id="graph0" class="graph" transform="scale(1 1) rotate(0) translate(4 593)">
<title>%3</title>
<g id="clust1" class="cluster">
<title>cluster_0</title>
<polygon fill="BurlyWood" stroke="black" points="8,-235 8,-581 332,-581 332,-235 8,-235"/>
<text text-anchor="middle" x="170" y="-565.8" font-family="Times,serif" font-size="14.00">Bartlett\Sarif\Definition</text>
</g>
<g id="clust2" class="cluster">
<title>cluster_1</title>
<polygon fill="Bisque" stroke="black" points="44,-102 44,-227 296,-227 296,-102 44,-102"/>
<text text-anchor="middle" x="170" y="-211.8" font-family="Times,serif" font-size="14.00">Bartlett\Sarif\Internal</text>
</g>
<g id="clust3" class="cluster">
<title>cluster_2</title>
<polygon fill="transparent" stroke="black" points="99,-8 99,-94 241,-94 241,-8 99,-8"/>
<text text-anchor="middle" x="170" y="-78.8" font-family="Times,serif" font-size="14.00">0</text>
</g>
<!-- Bartlett\\Sarif\\Definition\\Address -->
<g id="node1" class="node">
<title>Bartlett\\Sarif\\Definition\\Address</title>
<polygon fill="#fefece" stroke="transparent" points="324.5,-550 15.5,-550 15.5,-243 324.5,-243 324.5,-550"/>
<polygon fill="#eeeeee" stroke="transparent" points="16,-527.5 16,-549.5 325,-549.5 325,-527.5 16,-527.5"/>
<polygon fill="none" stroke="black" points="16,-527.5 16,-549.5 325,-549.5 325,-527.5 16,-527.5"/>
<text text-anchor="start" x="152" y="-533.1" font-family="Verdana" font-weight="bold" font-size="8.00">Address</text>
<polygon fill="none" stroke="black" points="16,-391.5 16,-527.5 325,-527.5 325,-391.5 16,-391.5"/>
<text text-anchor="start" x="21" y="-516.1" font-family="Verdana" font-size="8.00"># absoluteAddress</text>
<text text-anchor="start" x="21" y="-503.1" font-family="Verdana" font-size="8.00"># relativeAddress</text>
<text text-anchor="start" x="21" y="-490.1" font-family="Verdana" font-size="8.00"># length</text>
<text text-anchor="start" x="21" y="-477.1" font-family="Verdana" font-size="8.00"># kind</text>
<text text-anchor="start" x="21" y="-464.1" font-family="Verdana" font-size="8.00"># name</text>
<text text-anchor="start" x="21" y="-451.1" font-family="Verdana" font-size="8.00"># fullyQualifiedName</text>
<text text-anchor="start" x="21" y="-438.1" font-family="Verdana" font-size="8.00"># offsetFromParent</text>
<text text-anchor="start" x="21" y="-425.1" font-family="Verdana" font-size="8.00"># index</text>
<text text-anchor="start" x="21" y="-412.1" font-family="Verdana" font-size="8.00"># parentIndex</text>
<text text-anchor="start" x="21" y="-399.1" font-family="Verdana" font-size="8.00"># properties</text>
<polygon fill="none" stroke="black" points="16,-242.5 16,-391.5 325,-391.5 325,-242.5 16,-242.5"/>
<text text-anchor="start" x="21" y="-380.1" font-family="Verdana" font-size="8.00">+ __construct()</text>
<text text-anchor="start" x="21" y="-367.1" font-family="Verdana" font-size="8.00">+ setAbsoluteAddress(absoluteAddress : int = &#45;1) : void</text>
<text text-anchor="start" x="21" y="-354.1" font-family="Verdana" font-size="8.00">+ setRelativeAddress(relativeAddress : int) : void</text>
<text text-anchor="start" x="21" y="-341.1" font-family="Verdana" font-size="8.00">+ setLength(length : int = &#45;1) : void</text>
<text text-anchor="start" x="21" y="-328.1" font-family="Verdana" font-size="8.00">+ setKind(kind : string) : void</text>
<text text-anchor="start" x="21" y="-315.1" font-family="Verdana" font-size="8.00">+ setName(name : string) : void</text>
<text text-anchor="start" x="21" y="-302.1" font-family="Verdana" font-size="8.00">+ setFullyQualifiedName(fullyQualifiedName : string) : void</text>
<text text-anchor="start" x="21" y="-289.1" font-family="Verdana" font-size="8.00">+ setOffsetFromParent(offsetFromParent : int) : void</text>
<text text-anchor="start" x="21" y="-276.1" font-family="Verdana" font-size="8.00">+ setIndex(index : int = &#45;1) : void</text>
<text text-anchor="start" x="21" y="-263.1" font-family="Verdana" font-size="8.00">+ setParentIndex(parentIndex : int = &#45;1) : void</text>
<text text-anchor="start" x="21" y="-250.1" font-family="Verdana" font-size="8.00">+ setProperties(propertyBag : Bartlett\Sarif\Definition\PropertyBag) : void</text>
</g>
<!-- Bartlett\\Sarif\\Internal\\JsonSerializable -->
<g id="node2" class="node">
<title>Bartlett\\Sarif\\Internal\\JsonSerializable</title>
<polygon fill="#fefece" stroke="transparent" points="288,-196 52,-196 52,-110 288,-110 288,-196"/>
<polygon fill="#eeeeee" stroke="transparent" points="52,-174 52,-196 288,-196 288,-174 52,-174"/>
<polygon fill="none" stroke="black" points="52,-174 52,-196 288,-196 288,-174 52,-174"/>
<text text-anchor="start" x="146" y="-187.6" font-family="Verdana" font-weight="bold" font-size="8.00">«abstract»</text>
<text text-anchor="start" x="133.5" y="-179.6" font-family="Verdana" font-weight="bold" font-size="8.00">JsonSerializable</text>
<polygon fill="none" stroke="black" points="52,-142 52,-174 288,-174 288,-142 52,-142"/>
<text text-anchor="start" x="57" y="-162.6" font-family="Verdana" font-size="8.00">– required : mixed</text>
<text text-anchor="start" x="57" y="-149.6" font-family="Verdana" font-size="8.00">– optional : mixed</text>
<polygon fill="none" stroke="black" points="52,-110 52,-142 288,-142 288,-110 52,-110"/>
<text text-anchor="start" x="57" y="-130.6" font-family="Verdana" font-size="8.00">+ __construct(required : array = [], optional : array = [])</text>
<text text-anchor="start" x="57" y="-117.6" font-family="Verdana" font-size="8.00">+ jsonSerialize() : array</text>
</g>
<!-- Bartlett\\Sarif\\Definition\\Address&#45;&gt;Bartlett\\Sarif\\Internal\\JsonSerializable -->
<g id="edge2" class="edge">
<title>Bartlett\\Sarif\\Definition\\Address&#45;&gt;Bartlett\\Sarif\\Internal\\JsonSerializable</title>
<path fill="none" stroke="black" d="M170,-242.9C170,-230.09 170,-217.8 170,-206.65"/>
<polygon fill="none" stroke="black" points="173.5,-206.34 170,-196.34 166.5,-206.34 173.5,-206.34"/>
</g>
<!-- JsonSerializable -->
<g id="node3" class="node">
<title>JsonSerializable</title>
<polygon fill="#fefece" stroke="transparent" points="232.5,-63 107.5,-63 107.5,-16 232.5,-16 232.5,-63"/>
<polygon fill="#eeeeee" stroke="transparent" points="108,-40.5 108,-62.5 233,-62.5 233,-40.5 108,-40.5"/>
<polygon fill="none" stroke="black" points="108,-40.5 108,-62.5 233,-62.5 233,-40.5 108,-40.5"/>
<text text-anchor="start" x="144.5" y="-54.1" font-family="Verdana" font-weight="bold" font-size="8.00">«interface»</text>
<text text-anchor="start" x="134" y="-46.1" font-family="Verdana" font-weight="bold" font-size="8.00">JsonSerializable</text>
<polygon fill="none" stroke="black" points="108,-34.5 108,-40.5 233,-40.5 233,-34.5 108,-34.5"/>
<polygon fill="none" stroke="black" points="108,-15.5 108,-34.5 233,-34.5 233,-15.5 108,-15.5"/>
<text text-anchor="start" x="113" y="-23.1" font-family="Verdana" font-size="8.00">+ «abstract» jsonSerialize()</text>
</g>
<!-- Bartlett\\Sarif\\Internal\\JsonSerializable&#45;&gt;JsonSerializable -->
<g id="edge1" class="edge">
<title>Bartlett\\Sarif\\Internal\\JsonSerializable&#45;&gt;JsonSerializable</title>
<path fill="none" stroke="black" stroke-dasharray="5,2" d="M170,-109.85C170,-97.66 170,-84.56 170,-73.06"/>
<polygon fill="none" stroke="black" points="173.5,-73.02 170,-63.02 166.5,-73.02 173.5,-73.02"/>
</g>
</g>
</svg>
