<?xml version="1.0" encoding="UTF-8" standalone="no"?>
<!DOCTYPE svg PUBLIC "-//W3C//DTD SVG 1.1//EN"
 "http://www.w3.org/Graphics/SVG/1.1/DTD/svg11.dtd">
<!-- Generated by graphviz version 2.40.1 (20161225.0304)
 -->
<!-- Title: %3 Pages: 1 -->
<svg width="292pt" height="127pt"
 viewBox="0.00 0.00 292.00 127.00" xmlns="http://www.w3.org/2000/svg" xmlns:xlink="http://www.w3.org/1999/xlink">
<g id="graph0" class="graph" transform="scale(1 1) rotate(0) translate(4 123)">
<title>%3</title>
<polygon fill="#ffffff" stroke="transparent" points="-4,4 -4,-123 288,-123 288,4 -4,4"/>
<!-- bartlett/sarif&#45;php&#45;sdk -->
<g id="node1" class="node">
<title>bartlett/sarif&#45;php&#45;sdk</title>
<path fill="#eeeeee" stroke="#000000" stroke-width="2" d="M194.5,-119C194.5,-119 87.5,-119 87.5,-119 81.5,-119 75.5,-113 75.5,-107 75.5,-107 75.5,-95 75.5,-95 75.5,-89 81.5,-83 87.5,-83 87.5,-83 194.5,-83 194.5,-83 200.5,-83 206.5,-89 206.5,-95 206.5,-95 206.5,-107 206.5,-107 206.5,-113 200.5,-119 194.5,-119"/>
<text text-anchor="middle" x="141" y="-97.3" font-family="Times,serif" font-size="14.00" fill="#314b5f">bartlett/sarif&#45;php&#45;sdk</text>
</g>
<!-- php -->
<g id="node2" class="node">
<title>php</title>
<path fill="#eeeeee" stroke="#000000" d="M42,-36C42,-36 12,-36 12,-36 6,-36 0,-30 0,-24 0,-24 0,-12 0,-12 0,-6 6,0 12,0 12,0 42,0 42,0 48,0 54,-6 54,-12 54,-12 54,-24 54,-24 54,-30 48,-36 42,-36"/>
<text text-anchor="middle" x="27" y="-14.3" font-family="Times,serif" font-size="14.00" fill="#314b5f">php</text>
</g>
<!-- bartlett/sarif&#45;php&#45;sdk&#45;&gt;php -->
<g id="edge1" class="edge">
<title>bartlett/sarif&#45;php&#45;sdk&#45;&gt;php</title>
<path fill="none" stroke="#1a2833" d="M107.0505,-82.994C97.709,-77.5868 87.7467,-71.3841 79,-65 70.1537,-58.5433 61.1005,-50.8174 53.0792,-43.5128"/>
<polygon fill="#1a2833" stroke="#1a2833" points="55.1527,-40.6613 45.4477,-36.4112 50.384,-45.7858 55.1527,-40.6613"/>
<text text-anchor="middle" x="97.5" y="-57" font-family="Times,serif" font-size="10.00" fill="#767676">^7.1|^8.0</text>
</g>
<!-- ext&#45;json -->
<g id="node3" class="node">
<title>ext&#45;json</title>
<path fill="#eeeeee" stroke="#000000" d="M120,-36C120,-36 84,-36 84,-36 78,-36 72,-30 72,-24 72,-24 72,-12 72,-12 72,-6 78,0 84,0 84,0 120,0 120,0 126,0 132,-6 132,-12 132,-12 132,-24 132,-24 132,-30 126,-36 120,-36"/>
<text text-anchor="middle" x="102" y="-14.3" font-family="Times,serif" font-size="14.00" fill="#314b5f">ext&#45;json</text>
</g>
<!-- bartlett/sarif&#45;php&#45;sdk&#45;&gt;ext&#45;json -->
<g id="edge2" class="edge">
<title>bartlett/sarif&#45;php&#45;sdk&#45;&gt;ext&#45;json</title>
<path fill="none" stroke="#1a2833" d="M132.5376,-82.9902C127.4112,-72.0802 120.7673,-57.9407 114.9863,-45.6376"/>
<polygon fill="#1a2833" stroke="#1a2833" points="118.0011,-43.8234 110.5806,-36.2612 111.6656,-46.8004 118.0011,-43.8234"/>
<text text-anchor="middle" x="127" y="-57" font-family="Times,serif" font-size="10.00" fill="#767676">*</text>
</g>
<!-- ext&#45;pcre -->
<g id="node4" class="node">
<title>ext&#45;pcre</title>
<path fill="#eeeeee" stroke="#000000" d="M199.5,-36C199.5,-36 162.5,-36 162.5,-36 156.5,-36 150.5,-30 150.5,-24 150.5,-24 150.5,-12 150.5,-12 150.5,-6 156.5,0 162.5,0 162.5,0 199.5,0 199.5,0 205.5,0 211.5,-6 211.5,-12 211.5,-12 211.5,-24 211.5,-24 211.5,-30 205.5,-36 199.5,-36"/>
<text text-anchor="middle" x="181" y="-14.3" font-family="Times,serif" font-size="14.00" fill="#314b5f">ext&#45;pcre</text>
</g>
<!-- bartlett/sarif&#45;php&#45;sdk&#45;&gt;ext&#45;pcre -->
<g id="edge3" class="edge">
<title>bartlett/sarif&#45;php&#45;sdk&#45;&gt;ext&#45;pcre</title>
<path fill="none" stroke="#1a2833" d="M149.6794,-82.9902C154.9893,-71.9722 161.8866,-57.6604 167.8565,-45.2727"/>
<polygon fill="#1a2833" stroke="#1a2833" points="171.0109,-46.7892 172.1994,-36.2612 164.705,-43.7502 171.0109,-46.7892"/>
<text text-anchor="middle" x="167" y="-57" font-family="Times,serif" font-size="10.00" fill="#767676">*</text>
</g>
<!-- ext&#45;spl -->
<g id="node5" class="node">
<title>ext&#45;spl</title>
<path fill="#eeeeee" stroke="#000000" d="M272,-36C272,-36 242,-36 242,-36 236,-36 230,-30 230,-24 230,-24 230,-12 230,-12 230,-6 236,0 242,0 242,0 272,0 272,0 278,0 284,-6 284,-12 284,-12 284,-24 284,-24 284,-30 278,-36 272,-36"/>
<text text-anchor="middle" x="257" y="-14.3" font-family="Times,serif" font-size="14.00" fill="#314b5f">ext&#45;spl</text>
</g>
<!-- bartlett/sarif&#45;php&#45;sdk&#45;&gt;ext&#45;spl -->
<g id="edge4" class="edge">
<title>bartlett/sarif&#45;php&#45;sdk&#45;&gt;ext&#45;spl</title>
<path fill="none" stroke="#1a2833" d="M166.1703,-82.9902C182.7767,-71.1081 204.7369,-55.3951 222.9044,-42.396"/>
<polygon fill="#1a2833" stroke="#1a2833" points="225.3823,-44.9267 231.4783,-36.2612 221.309,-39.2339 225.3823,-44.9267"/>
<text text-anchor="middle" x="209" y="-57" font-family="Times,serif" font-size="10.00" fill="#767676">*</text>
</g>
</g>
</svg>
