<?xml version="1.0" encoding="UTF-8" standalone="no"?>
<!DOCTYPE svg PUBLIC "-//W3C//DTD SVG 1.1//EN"
 "http://www.w3.org/Graphics/SVG/1.1/DTD/svg11.dtd">
<!-- Generated by graphviz version 2.43.0 (0)
 -->
<!-- Title: %3 Pages: 1 -->
<svg width="1692pt" height="776pt"
 viewBox="0.00 0.00 1692.00 776.00" xmlns="http://www.w3.org/2000/svg" xmlns:xlink="http://www.w3.org/1999/xlink">
<g id="graph0" class="graph" transform="scale(1 1) rotate(0) translate(4 772)">
<title>%3</title>
<g id="clust1" class="cluster">
<title>cluster_0</title>
<polygon fill="BurlyWood" stroke="black" points="8,-8 8,-760 806,-760 806,-8 8,-8"/>
<text text-anchor="middle" x="407" y="-744.8" font-family="Times,serif" font-size="14.00">Bartlett\Sarif\Converter</text>
</g>
<g id="clust2" class="cluster">
<title>cluster_1</title>
<polygon fill="transparent" stroke="black" points="814,-312 814,-411 1676,-411 1676,-312 814,-312"/>
<text text-anchor="middle" x="1245" y="-395.8" font-family="Times,serif" font-size="14.00">PHP_CodeSniffer\Reports</text>
</g>
<!-- Bartlett\\Sarif\\Converter\\PhpCsConverter -->
<g id="node1" class="node">
<title>Bartlett\\Sarif\\Converter\\PhpCsConverter</title>
<polygon fill="#fefece" stroke="transparent" points="798,-729 16,-729 16,-559 798,-559 798,-729"/>
<polygon fill="#eeeeee" stroke="transparent" points="16,-707 16,-729 798,-729 798,-707 16,-707"/>
<polygon fill="none" stroke="black" points="16,-707 16,-729 798,-729 798,-707 16,-707"/>
<text text-anchor="start" x="370.5" y="-712.6" font-family="Verdana" font-weight="bold" font-size="8.00">PhpCsConverter</text>
<polygon fill="none" stroke="black" points="16,-636 16,-707 798,-707 798,-636 16,-636"/>
<text text-anchor="start" x="21" y="-695.6" font-family="Verdana" font-size="8.00">+ «static» TOOL_NAME : string = &quot;PHP_CodeSniffer&quot; {readOnly}</text>
<text text-anchor="start" x="21" y="-682.6" font-family="Verdana" font-size="8.00">+ «static» TOOL_SHORT_DESCRIPTION : string = &quot;Detects\ violations\ of\ a\ defined\ set\ of\ coding\ standards\.&quot; {readOnly}</text>
<text text-anchor="start" x="21" y="-669.6" font-family="Verdana" font-size="8.00">+ «static» TOOL_FULL_DESCRIPTION : string = &quot;PHP_CodeSniffer\ tokenizes\ PHP\,\ JavaScript\ and\ CSS\ files\ and\ detects\ violations\ of\ a\ defined\ set\ of\ coding\ standards\.&quot; {readOnly}</text>
<text text-anchor="start" x="21" y="-656.6" font-family="Verdana" font-size="8.00">+ «static» TOOL_INFO_URI : string = &quot;https\:\/\/github\.com\/PHPCSStandards\/PHP_CodeSniffer&quot; {readOnly}</text>
<text text-anchor="start" x="21" y="-643.6" font-family="Verdana" font-size="8.00">+ «static» TOOL_COMPOSER_PACKAGE : string = &quot;squizlabs\/php_codesniffer&quot; {readOnly}</text>
<polygon fill="none" stroke="black" points="16,-630 16,-636 798,-636 798,-630 16,-630"/>
<polygon fill="none" stroke="black" points="16,-559 16,-630 798,-630 798,-559 16,-559"/>
<text text-anchor="start" x="21" y="-618.6" font-family="Verdana" font-size="8.00">+ toolDriver() : Bartlett\Sarif\Definition\ToolComponent</text>
<text text-anchor="start" x="21" y="-605.6" font-family="Verdana" font-size="8.00">+ rules() : array</text>
<text text-anchor="start" x="21" y="-592.6" font-family="Verdana" font-size="8.00">+ invocations(properties : Bartlett\Sarif\Definition\PropertyBag = «unknown») : array</text>
<text text-anchor="start" x="21" y="-579.6" font-family="Verdana" font-size="8.00">+ generateFileReport(report, phpcsFile : PHP_CodeSniffer\Files\File, showSources = false, width = 80) : bool</text>
<text text-anchor="start" x="21" y="-566.6" font-family="Verdana" font-size="8.00">+ generate(cachedData, totalFiles, totalErrors, totalWarnings, totalFixable, showSources = false, width = 80, interactive = false, toScreen = true)</text>
</g>
<!-- Bartlett\\Sarif\\Converter\\AbstractConverter -->
<g id="node2" class="node">
<title>Bartlett\\Sarif\\Converter\\AbstractConverter</title>
<polygon fill="#fefece" stroke="transparent" points="726.5,-523 87.5,-523 87.5,-177 726.5,-177 726.5,-523"/>
<polygon fill="#eeeeee" stroke="transparent" points="88,-501 88,-523 727,-523 727,-501 88,-501"/>
<polygon fill="none" stroke="black" points="88,-501 88,-523 727,-523 727,-501 88,-501"/>
<text text-anchor="start" x="383.5" y="-514.6" font-family="Verdana" font-weight="bold" font-size="8.00">«abstract»</text>
<text text-anchor="start" x="366.5" y="-506.6" font-family="Verdana" font-weight="bold" font-size="8.00">AbstractConverter</text>
<polygon fill="none" stroke="black" points="88,-352 88,-501 727,-501 727,-352 88,-352"/>
<text text-anchor="start" x="93" y="-489.6" font-family="Verdana" font-size="8.00"># toolName</text>
<text text-anchor="start" x="93" y="-476.6" font-family="Verdana" font-size="8.00"># toolFullName</text>
<text text-anchor="start" x="93" y="-463.6" font-family="Verdana" font-size="8.00"># toolShortDescription</text>
<text text-anchor="start" x="93" y="-450.6" font-family="Verdana" font-size="8.00"># toolFullDescription</text>
<text text-anchor="start" x="93" y="-437.6" font-family="Verdana" font-size="8.00"># toolInformationUri</text>
<text text-anchor="start" x="93" y="-424.6" font-family="Verdana" font-size="8.00"># toolSemanticVersion</text>
<text text-anchor="start" x="93" y="-411.6" font-family="Verdana" font-size="8.00"># rules : mixed = []</text>
<text text-anchor="start" x="93" y="-398.6" font-family="Verdana" font-size="8.00"># results : mixed = []</text>
<text text-anchor="start" x="93" y="-385.6" font-family="Verdana" font-size="8.00"># serializer</text>
<text text-anchor="start" x="93" y="-372.6" font-family="Verdana" font-size="8.00"># startTime</text>
<text text-anchor="start" x="93" y="-359.6" font-family="Verdana" font-size="8.00"># endTime</text>
<polygon fill="none" stroke="black" points="88,-177 88,-352 727,-352 727,-177 88,-177"/>
<text text-anchor="start" x="93" y="-340.6" font-family="Verdana" font-size="8.00">+ __construct(factory : Bartlett\Sarif\Factory\SerializerFactory = «unknown»)</text>
<text text-anchor="start" x="93" y="-327.6" font-family="Verdana" font-size="8.00">+ toolDriver() : Bartlett\Sarif\Definition\ToolComponent</text>
<text text-anchor="start" x="93" y="-314.6" font-family="Verdana" font-size="8.00">+ toolExtensions() : array</text>
<text text-anchor="start" x="93" y="-301.6" font-family="Verdana" font-size="8.00">+ rules() : array</text>
<text text-anchor="start" x="93" y="-288.6" font-family="Verdana" font-size="8.00">+ sarifLog(runs : array = [], version : string = &#39;2\.1\.0&#39;) : ?string</text>
<text text-anchor="start" x="93" y="-275.6" font-family="Verdana" font-size="8.00">+ invocations(properties : Bartlett\Sarif\Definition\PropertyBag = «unknown») : array</text>
<text text-anchor="start" x="93" y="-262.6" font-family="Verdana" font-size="8.00">+ automationDetails() : Bartlett\Sarif\Definition\RunAutomationDetails</text>
<text text-anchor="start" x="93" y="-249.6" font-family="Verdana" font-size="8.00">+ run(invocations : array) : Bartlett\Sarif\Definition\Run</text>
<text text-anchor="start" x="93" y="-236.6" font-family="Verdana" font-size="8.00"># getToolVersion(package : string) : string</text>
<text text-anchor="start" x="93" y="-223.6" font-family="Verdana" font-size="8.00"># pathToArtifactLocation(path : string) : string</text>
<text text-anchor="start" x="93" y="-210.6" font-family="Verdana" font-size="8.00"># pathToUri(path : string) : string</text>
<text text-anchor="start" x="93" y="-197.6" font-family="Verdana" font-size="8.00"># getCodeSnippet(filePath : string, lineNumber : int, linesBefore : int, linesAfter : int) : ?string</text>
<text text-anchor="start" x="93" y="-184.6" font-family="Verdana" font-size="8.00"># getSnippetRegion(filePath : string, lineNumber : int, column : int = «unknown», linesBefore : int = 2, linesAfter : int = 2) : Bartlett\Sarif\Definition\Region</text>
</g>
<!-- Bartlett\\Sarif\\Converter\\PhpCsConverter&#45;&gt;Bartlett\\Sarif\\Converter\\AbstractConverter -->
<g id="edge2" class="edge">
<title>Bartlett\\Sarif\\Converter\\PhpCsConverter&#45;&gt;Bartlett\\Sarif\\Converter\\AbstractConverter</title>
<path fill="none" stroke="black" d="M407,-558.93C407,-550.61 407,-541.96 407,-533.11"/>
<polygon fill="none" stroke="black" points="410.5,-533.06 407,-523.06 403.5,-533.06 410.5,-533.06"/>
</g>
<!-- PHP_CodeSniffer\\Reports\\Report -->
<g id="node4" class="node">
<title>PHP_CodeSniffer\\Reports\\Report</title>
<polygon fill="#fefece" stroke="transparent" points="1668,-380 822,-380 822,-320 1668,-320 1668,-380"/>
<polygon fill="#eeeeee" stroke="transparent" points="822,-358 822,-380 1668,-380 1668,-358 822,-358"/>
<polygon fill="none" stroke="black" points="822,-358 822,-380 1668,-380 1668,-358 822,-358"/>
<text text-anchor="start" x="1219" y="-371.6" font-family="Verdana" font-weight="bold" font-size="8.00">«interface»</text>
<text text-anchor="start" x="1229.5" y="-363.6" font-family="Verdana" font-weight="bold" font-size="8.00">Report</text>
<polygon fill="none" stroke="black" points="822,-352 822,-358 1668,-358 1668,-352 822,-352"/>
<polygon fill="none" stroke="black" points="822,-320 822,-352 1668,-352 1668,-320 822,-320"/>
<text text-anchor="start" x="827" y="-340.6" font-family="Verdana" font-size="8.00">+ «abstract» generateFileReport(report : array, phpcsFile : PHP_CodeSniffer\Files\File, showSources : bool = false, width : int = 80)</text>
<text text-anchor="start" x="827" y="-327.6" font-family="Verdana" font-size="8.00">+ «abstract» generate(cachedData : string, totalFiles : int, totalErrors : int, totalWarnings : int, totalFixable : int, showSources : bool = false, width : int = 80, interactive : bool = false, toScreen : bool = true)</text>
</g>
<!-- Bartlett\\Sarif\\Converter\\PhpCsConverter&#45;&gt;PHP_CodeSniffer\\Reports\\Report -->
<g id="edge3" class="edge">
<title>Bartlett\\Sarif\\Converter\\PhpCsConverter&#45;&gt;PHP_CodeSniffer\\Reports\\Report</title>
<path fill="none" stroke="black" stroke-dasharray="5,2" d="M700.16,-558.97C737.29,-547.37 774.64,-535.23 810,-523 936.68,-479.19 1080.85,-420.37 1167.28,-384.11"/>
<polygon fill="none" stroke="black" points="1168.89,-387.23 1176.76,-380.13 1166.18,-380.77 1168.89,-387.23"/>
</g>
<!-- Bartlett\\Sarif\\Converter\\ConverterInterface -->
<g id="node3" class="node">
<title>Bartlett\\Sarif\\Converter\\ConverterInterface</title>
<polygon fill="#fefece" stroke="transparent" points="609,-141 205,-141 205,-16 609,-16 609,-141"/>
<polygon fill="#eeeeee" stroke="transparent" points="205,-118.5 205,-140.5 609,-140.5 609,-118.5 205,-118.5"/>
<polygon fill="none" stroke="black" points="205,-118.5 205,-140.5 609,-140.5 609,-118.5 205,-118.5"/>
<text text-anchor="start" x="381" y="-132.1" font-family="Verdana" font-weight="bold" font-size="8.00">«interface»</text>
<text text-anchor="start" x="364.5" y="-124.1" font-family="Verdana" font-weight="bold" font-size="8.00">ConverterInterface</text>
<polygon fill="none" stroke="black" points="205,-112.5 205,-118.5 609,-118.5 609,-112.5 205,-112.5"/>
<polygon fill="none" stroke="black" points="205,-15.5 205,-112.5 609,-112.5 609,-15.5 205,-15.5"/>
<text text-anchor="start" x="210" y="-101.1" font-family="Verdana" font-size="8.00">+ «abstract» toolDriver() : Bartlett\Sarif\Definition\ToolComponent</text>
<text text-anchor="start" x="210" y="-88.1" font-family="Verdana" font-size="8.00">+ «abstract» toolExtensions() : array</text>
<text text-anchor="start" x="210" y="-75.1" font-family="Verdana" font-size="8.00">+ «abstract» rules() : array</text>
<text text-anchor="start" x="210" y="-62.1" font-family="Verdana" font-size="8.00">+ «abstract» invocations(properties : Bartlett\Sarif\Definition\PropertyBag = «unknown») : array</text>
<text text-anchor="start" x="210" y="-49.1" font-family="Verdana" font-size="8.00">+ «abstract» automationDetails() : Bartlett\Sarif\Definition\RunAutomationDetails</text>
<text text-anchor="start" x="210" y="-36.1" font-family="Verdana" font-size="8.00">+ «abstract» run(invocations : array) : Bartlett\Sarif\Definition\Run</text>
<text text-anchor="start" x="210" y="-23.1" font-family="Verdana" font-size="8.00">+ «abstract» sarifLog(runs : array = [], version : string = &#39;2\.1\.0&#39;) : ?string</text>
</g>
<!-- Bartlett\\Sarif\\Converter\\AbstractConverter&#45;&gt;Bartlett\\Sarif\\Converter\\ConverterInterface -->
<g id="edge1" class="edge">
<title>Bartlett\\Sarif\\Converter\\AbstractConverter&#45;&gt;Bartlett\\Sarif\\Converter\\ConverterInterface</title>
<path fill="none" stroke="black" stroke-dasharray="5,2" d="M407,-176.8C407,-168.02 407,-159.47 407,-151.32"/>
<polygon fill="none" stroke="black" points="410.5,-151.22 407,-141.22 403.5,-151.22 410.5,-151.22"/>
</g>
</g>
</svg>
