<?xml version="1.0" encoding="UTF-8" standalone="no"?>
<!DOCTYPE svg PUBLIC "-//W3C//DTD SVG 1.1//EN"
 "http://www.w3.org/Graphics/SVG/1.1/DTD/svg11.dtd">
<!-- Generated by graphviz version 2.43.0 (0)
 -->
<!-- Title: %3 Pages: 1 -->
<svg width="742pt" height="776pt"
 viewBox="0.00 0.00 742.00 776.00" xmlns="http://www.w3.org/2000/svg" xmlns:xlink="http://www.w3.org/1999/xlink">
<g id="graph0" class="graph" transform="scale(1 1) rotate(0) translate(4 772)">
<title>%3</title>
<g id="clust1" class="cluster">
<title>cluster_0</title>
<polygon fill="BurlyWood" stroke="black" points="8,-8 8,-760 726,-760 726,-8 8,-8"/>
<text text-anchor="middle" x="367" y="-744.8" font-family="Times,serif" font-size="14.00">Bartlett\Sarif\Converter</text>
</g>
<!-- Bartlett\\Sarif\\Converter\\PhpLintConverter -->
<g id="node1" class="node">
<title>Bartlett\\Sarif\\Converter\\PhpLintConverter</title>
<polygon fill="#fefece" stroke="transparent" points="718,-729 16,-729 16,-559 718,-559 718,-729"/>
<polygon fill="#eeeeee" stroke="transparent" points="16,-707 16,-729 718,-729 718,-707 16,-707"/>
<polygon fill="none" stroke="black" points="16,-707 16,-729 718,-729 718,-707 16,-707"/>
<text text-anchor="start" x="326.5" y="-712.6" font-family="Verdana" font-weight="bold" font-size="8.00">PhpLintConverter</text>
<polygon fill="none" stroke="black" points="16,-623 16,-707 718,-707 718,-623 16,-623"/>
<text text-anchor="start" x="21" y="-695.6" font-family="Verdana" font-size="8.00">+ «static» TOOL_NAME : string = &quot;PHPLint&quot; {readOnly}</text>
<text text-anchor="start" x="21" y="-682.6" font-family="Verdana" font-size="8.00">+ «static» TOOL_SHORT_DESCRIPTION : string = &quot;Syntax\ check\ only\ \(lint\)\ of\ PHP\ files&quot; {readOnly}</text>
<text text-anchor="start" x="21" y="-669.6" font-family="Verdana" font-size="8.00">+ «static» TOOL_FULL_DESCRIPTION : string = &quot;PHPLint\ is\ a\ tool\ that\ can\ speed\ up\ linting\ of\ php\ files\ by\ running\ several\ lint\ processes\ at\ once\.&quot; {readOnly}</text>
<text text-anchor="start" x="21" y="-656.6" font-family="Verdana" font-size="8.00">+ «static» TOOL_INFO_URI : string = &quot;https\:\/\/github\.com\/overtrue\/phplint&quot; {readOnly}</text>
<text text-anchor="start" x="21" y="-643.6" font-family="Verdana" font-size="8.00">+ «static» TOOL_COMPOSER_PACKAGE : string = &quot;overtrue\/phplint&quot; {readOnly}</text>
<text text-anchor="start" x="21" y="-630.6" font-family="Verdana" font-size="8.00">+ «static» DEFAULT_HELP_URI : string = &quot;https\:\/\/www\.php\.net\/manual\/en\/features\.commandline\.options\.php&quot; {readOnly}</text>
<polygon fill="none" stroke="black" points="16,-617 16,-623 718,-623 718,-617 16,-617"/>
<polygon fill="none" stroke="black" points="16,-559 16,-617 718,-617 718,-559 16,-559"/>
<text text-anchor="start" x="21" y="-605.6" font-family="Verdana" font-size="8.00">+ toolDriver() : Bartlett\Sarif\Definition\ToolComponent</text>
<text text-anchor="start" x="21" y="-592.6" font-family="Verdana" font-size="8.00">+ rules() : array</text>
<text text-anchor="start" x="21" y="-579.6" font-family="Verdana" font-size="8.00">+ invocations(properties : Bartlett\Sarif\Definition\PropertyBag = «unknown») : array</text>
<text text-anchor="start" x="21" y="-566.6" font-family="Verdana" font-size="8.00">+ format(results : Overtrue\PHPLint\Output\LinterOutput) : string</text>
</g>
<!-- Bartlett\\Sarif\\Converter\\AbstractConverter -->
<g id="node2" class="node">
<title>Bartlett\\Sarif\\Converter\\AbstractConverter</title>
<polygon fill="#fefece" stroke="transparent" points="686.5,-523 47.5,-523 47.5,-177 686.5,-177 686.5,-523"/>
<polygon fill="#eeeeee" stroke="transparent" points="48,-501 48,-523 687,-523 687,-501 48,-501"/>
<polygon fill="none" stroke="black" points="48,-501 48,-523 687,-523 687,-501 48,-501"/>
<text text-anchor="start" x="343.5" y="-514.6" font-family="Verdana" font-weight="bold" font-size="8.00">«abstract»</text>
<text text-anchor="start" x="326.5" y="-506.6" font-family="Verdana" font-weight="bold" font-size="8.00">AbstractConverter</text>
<polygon fill="none" stroke="black" points="48,-352 48,-501 687,-501 687,-352 48,-352"/>
<text text-anchor="start" x="53" y="-489.6" font-family="Verdana" font-size="8.00"># toolName</text>
<text text-anchor="start" x="53" y="-476.6" font-family="Verdana" font-size="8.00"># toolFullName</text>
<text text-anchor="start" x="53" y="-463.6" font-family="Verdana" font-size="8.00"># toolShortDescription</text>
<text text-anchor="start" x="53" y="-450.6" font-family="Verdana" font-size="8.00"># toolFullDescription</text>
<text text-anchor="start" x="53" y="-437.6" font-family="Verdana" font-size="8.00"># toolInformationUri</text>
<text text-anchor="start" x="53" y="-424.6" font-family="Verdana" font-size="8.00"># toolSemanticVersion</text>
<text text-anchor="start" x="53" y="-411.6" font-family="Verdana" font-size="8.00"># rules : mixed = []</text>
<text text-anchor="start" x="53" y="-398.6" font-family="Verdana" font-size="8.00"># results : mixed = []</text>
<text text-anchor="start" x="53" y="-385.6" font-family="Verdana" font-size="8.00"># serializer</text>
<text text-anchor="start" x="53" y="-372.6" font-family="Verdana" font-size="8.00"># startTime</text>
<text text-anchor="start" x="53" y="-359.6" font-family="Verdana" font-size="8.00"># endTime</text>
<polygon fill="none" stroke="black" points="48,-177 48,-352 687,-352 687,-177 48,-177"/>
<text text-anchor="start" x="53" y="-340.6" font-family="Verdana" font-size="8.00">+ __construct(factory : Bartlett\Sarif\Factory\SerializerFactory = «unknown»)</text>
<text text-anchor="start" x="53" y="-327.6" font-family="Verdana" font-size="8.00">+ toolDriver() : Bartlett\Sarif\Definition\ToolComponent</text>
<text text-anchor="start" x="53" y="-314.6" font-family="Verdana" font-size="8.00">+ toolExtensions() : array</text>
<text text-anchor="start" x="53" y="-301.6" font-family="Verdana" font-size="8.00">+ rules() : array</text>
<text text-anchor="start" x="53" y="-288.6" font-family="Verdana" font-size="8.00">+ sarifLog(runs : array = [], version : string = &#39;2\.1\.0&#39;) : ?string</text>
<text text-anchor="start" x="53" y="-275.6" font-family="Verdana" font-size="8.00">+ invocations(properties : Bartlett\Sarif\Definition\PropertyBag = «unknown») : array</text>
<text text-anchor="start" x="53" y="-262.6" font-family="Verdana" font-size="8.00">+ automationDetails() : Bartlett\Sarif\Definition\RunAutomationDetails</text>
<text text-anchor="start" x="53" y="-249.6" font-family="Verdana" font-size="8.00">+ run(invocations : array) : Bartlett\Sarif\Definition\Run</text>
<text text-anchor="start" x="53" y="-236.6" font-family="Verdana" font-size="8.00"># getToolVersion(package : string) : string</text>
<text text-anchor="start" x="53" y="-223.6" font-family="Verdana" font-size="8.00"># pathToArtifactLocation(path : string) : string</text>
<text text-anchor="start" x="53" y="-210.6" font-family="Verdana" font-size="8.00"># pathToUri(path : string) : string</text>
<text text-anchor="start" x="53" y="-197.6" font-family="Verdana" font-size="8.00"># getCodeSnippet(filePath : string, lineNumber : int, linesBefore : int, linesAfter : int) : ?string</text>
<text text-anchor="start" x="53" y="-184.6" font-family="Verdana" font-size="8.00"># getSnippetRegion(filePath : string, lineNumber : int, column : int = «unknown», linesBefore : int = 2, linesAfter : int = 2) : Bartlett\Sarif\Definition\Region</text>
</g>
<!-- Bartlett\\Sarif\\Converter\\PhpLintConverter&#45;&gt;Bartlett\\Sarif\\Converter\\AbstractConverter -->
<g id="edge2" class="edge">
<title>Bartlett\\Sarif\\Converter\\PhpLintConverter&#45;&gt;Bartlett\\Sarif\\Converter\\AbstractConverter</title>
<path fill="none" stroke="black" d="M367,-558.93C367,-550.61 367,-541.96 367,-533.11"/>
<polygon fill="none" stroke="black" points="370.5,-533.06 367,-523.06 363.5,-533.06 370.5,-533.06"/>
</g>
<!-- Bartlett\\Sarif\\Converter\\ConverterInterface -->
<g id="node3" class="node">
<title>Bartlett\\Sarif\\Converter\\ConverterInterface</title>
<polygon fill="#fefece" stroke="transparent" points="569,-141 165,-141 165,-16 569,-16 569,-141"/>
<polygon fill="#eeeeee" stroke="transparent" points="165,-118.5 165,-140.5 569,-140.5 569,-118.5 165,-118.5"/>
<polygon fill="none" stroke="black" points="165,-118.5 165,-140.5 569,-140.5 569,-118.5 165,-118.5"/>
<text text-anchor="start" x="341" y="-132.1" font-family="Verdana" font-weight="bold" font-size="8.00">«interface»</text>
<text text-anchor="start" x="324.5" y="-124.1" font-family="Verdana" font-weight="bold" font-size="8.00">ConverterInterface</text>
<polygon fill="none" stroke="black" points="165,-112.5 165,-118.5 569,-118.5 569,-112.5 165,-112.5"/>
<polygon fill="none" stroke="black" points="165,-15.5 165,-112.5 569,-112.5 569,-15.5 165,-15.5"/>
<text text-anchor="start" x="170" y="-101.1" font-family="Verdana" font-size="8.00">+ «abstract» toolDriver() : Bartlett\Sarif\Definition\ToolComponent</text>
<text text-anchor="start" x="170" y="-88.1" font-family="Verdana" font-size="8.00">+ «abstract» toolExtensions() : array</text>
<text text-anchor="start" x="170" y="-75.1" font-family="Verdana" font-size="8.00">+ «abstract» rules() : array</text>
<text text-anchor="start" x="170" y="-62.1" font-family="Verdana" font-size="8.00">+ «abstract» invocations(properties : Bartlett\Sarif\Definition\PropertyBag = «unknown») : array</text>
<text text-anchor="start" x="170" y="-49.1" font-family="Verdana" font-size="8.00">+ «abstract» automationDetails() : Bartlett\Sarif\Definition\RunAutomationDetails</text>
<text text-anchor="start" x="170" y="-36.1" font-family="Verdana" font-size="8.00">+ «abstract» run(invocations : array) : Bartlett\Sarif\Definition\Run</text>
<text text-anchor="start" x="170" y="-23.1" font-family="Verdana" font-size="8.00">+ «abstract» sarifLog(runs : array = [], version : string = &#39;2\.1\.0&#39;) : ?string</text>
</g>
<!-- Bartlett\\Sarif\\Converter\\AbstractConverter&#45;&gt;Bartlett\\Sarif\\Converter\\ConverterInterface -->
<g id="edge1" class="edge">
<title>Bartlett\\Sarif\\Converter\\AbstractConverter&#45;&gt;Bartlett\\Sarif\\Converter\\ConverterInterface</title>
<path fill="none" stroke="black" stroke-dasharray="5,2" d="M367,-176.8C367,-168.02 367,-159.47 367,-151.32"/>
<polygon fill="none" stroke="black" points="370.5,-151.22 367,-141.22 363.5,-151.22 370.5,-151.22"/>
</g>
</g>
</svg>
