<?xml version="1.0" encoding="UTF-8" standalone="no"?>
<!DOCTYPE svg PUBLIC "-//W3C//DTD SVG 1.1//EN"
 "http://www.w3.org/Graphics/SVG/1.1/DTD/svg11.dtd">
<!-- Generated by graphviz version 2.43.0 (0)
 -->
<!-- Title: %3 Pages: 1 -->
<svg width="382pt" height="441pt"
 viewBox="0.00 0.00 382.00 441.00" xmlns="http://www.w3.org/2000/svg" xmlns:xlink="http://www.w3.org/1999/xlink">
<g id="graph0" class="graph" transform="scale(1 1) rotate(0) translate(4 437)">
<title>%3</title>
<g id="clust1" class="cluster">
<title>cluster_0</title>
<polygon fill="BurlyWood" stroke="black" points="8,-235 8,-425 366,-425 366,-235 8,-235"/>
<text text-anchor="middle" x="187" y="-409.8" font-family="Times,serif" font-size="14.00">Bartlett\Sarif\Definition</text>
</g>
<g id="clust2" class="cluster">
<title>cluster_1</title>
<polygon fill="Bisque" stroke="black" points="61,-102 61,-227 313,-227 313,-102 61,-102"/>
<text text-anchor="middle" x="187" y="-211.8" font-family="Times,serif" font-size="14.00">Bartlett\Sarif\Internal</text>
</g>
<g id="clust3" class="cluster">
<title>cluster_2</title>
<polygon fill="transparent" stroke="black" points="116,-8 116,-94 258,-94 258,-8 116,-8"/>
<text text-anchor="middle" x="187" y="-78.8" font-family="Times,serif" font-size="14.00">0</text>
</g>
<!-- Bartlett\\Sarif\\Definition\\ReportingDescriptorRelationship -->
<g id="node1" class="node">
<title>Bartlett\\Sarif\\Definition\\ReportingDescriptorRelationship</title>
<polygon fill="#fefece" stroke="transparent" points="358,-394 16,-394 16,-243 358,-243 358,-394"/>
<polygon fill="#eeeeee" stroke="transparent" points="16,-371.5 16,-393.5 358,-393.5 358,-371.5 16,-371.5"/>
<polygon fill="none" stroke="black" points="16,-371.5 16,-393.5 358,-393.5 358,-371.5 16,-371.5"/>
<text text-anchor="start" x="112.5" y="-377.1" font-family="Verdana" font-weight="bold" font-size="8.00">ReportingDescriptorRelationship</text>
<polygon fill="none" stroke="black" points="16,-313.5 16,-371.5 358,-371.5 358,-313.5 16,-313.5"/>
<text text-anchor="start" x="21" y="-360.1" font-family="Verdana" font-size="8.00"># target</text>
<text text-anchor="start" x="21" y="-347.1" font-family="Verdana" font-size="8.00"># kinds : mixed</text>
<text text-anchor="start" x="21" y="-334.1" font-family="Verdana" font-size="8.00"># description</text>
<text text-anchor="start" x="21" y="-321.1" font-family="Verdana" font-size="8.00"># properties</text>
<polygon fill="none" stroke="black" points="16,-242.5 16,-313.5 358,-313.5 358,-242.5 16,-242.5"/>
<text text-anchor="start" x="21" y="-302.1" font-family="Verdana" font-size="8.00">+ __construct(target : Bartlett\Sarif\Definition\ReportingDescriptorReference)</text>
<text text-anchor="start" x="21" y="-289.1" font-family="Verdana" font-size="8.00">+ setTarget(target : Bartlett\Sarif\Definition\ReportingDescriptorReference) : void</text>
<text text-anchor="start" x="21" y="-276.1" font-family="Verdana" font-size="8.00">+ addKinds(kinds : array = […]) : void</text>
<text text-anchor="start" x="21" y="-263.1" font-family="Verdana" font-size="8.00">+ setDescription(description : Bartlett\Sarif\Definition\Message) : void</text>
<text text-anchor="start" x="21" y="-250.1" font-family="Verdana" font-size="8.00">+ setProperties(propertyBag : Bartlett\Sarif\Definition\PropertyBag) : void</text>
</g>
<!-- Bartlett\\Sarif\\Internal\\JsonSerializable -->
<g id="node2" class="node">
<title>Bartlett\\Sarif\\Internal\\JsonSerializable</title>
<polygon fill="#fefece" stroke="transparent" points="305,-196 69,-196 69,-110 305,-110 305,-196"/>
<polygon fill="#eeeeee" stroke="transparent" points="69,-174 69,-196 305,-196 305,-174 69,-174"/>
<polygon fill="none" stroke="black" points="69,-174 69,-196 305,-196 305,-174 69,-174"/>
<text text-anchor="start" x="163" y="-187.6" font-family="Verdana" font-weight="bold" font-size="8.00">«abstract»</text>
<text text-anchor="start" x="150.5" y="-179.6" font-family="Verdana" font-weight="bold" font-size="8.00">JsonSerializable</text>
<polygon fill="none" stroke="black" points="69,-142 69,-174 305,-174 305,-142 69,-142"/>
<text text-anchor="start" x="74" y="-162.6" font-family="Verdana" font-size="8.00">– required : mixed</text>
<text text-anchor="start" x="74" y="-149.6" font-family="Verdana" font-size="8.00">– optional : mixed</text>
<polygon fill="none" stroke="black" points="69,-110 69,-142 305,-142 305,-110 69,-110"/>
<text text-anchor="start" x="74" y="-130.6" font-family="Verdana" font-size="8.00">+ __construct(required : array = [], optional : array = [])</text>
<text text-anchor="start" x="74" y="-117.6" font-family="Verdana" font-size="8.00">+ jsonSerialize() : array</text>
</g>
<!-- Bartlett\\Sarif\\Definition\\ReportingDescriptorRelationship&#45;&gt;Bartlett\\Sarif\\Internal\\JsonSerializable -->
<g id="edge2" class="edge">
<title>Bartlett\\Sarif\\Definition\\ReportingDescriptorRelationship&#45;&gt;Bartlett\\Sarif\\Internal\\JsonSerializable</title>
<path fill="none" stroke="black" d="M187,-242.93C187,-230.68 187,-218.21 187,-206.63"/>
<polygon fill="none" stroke="black" points="190.5,-206.29 187,-196.29 183.5,-206.29 190.5,-206.29"/>
</g>
<!-- JsonSerializable -->
<g id="node3" class="node">
<title>JsonSerializable</title>
<polygon fill="#fefece" stroke="transparent" points="249.5,-63 124.5,-63 124.5,-16 249.5,-16 249.5,-63"/>
<polygon fill="#eeeeee" stroke="transparent" points="125,-40.5 125,-62.5 250,-62.5 250,-40.5 125,-40.5"/>
<polygon fill="none" stroke="black" points="125,-40.5 125,-62.5 250,-62.5 250,-40.5 125,-40.5"/>
<text text-anchor="start" x="161.5" y="-54.1" font-family="Verdana" font-weight="bold" font-size="8.00">«interface»</text>
<text text-anchor="start" x="151" y="-46.1" font-family="Verdana" font-weight="bold" font-size="8.00">JsonSerializable</text>
<polygon fill="none" stroke="black" points="125,-34.5 125,-40.5 250,-40.5 250,-34.5 125,-34.5"/>
<polygon fill="none" stroke="black" points="125,-15.5 125,-34.5 250,-34.5 250,-15.5 125,-15.5"/>
<text text-anchor="start" x="130" y="-23.1" font-family="Verdana" font-size="8.00">+ «abstract» jsonSerialize()</text>
</g>
<!-- Bartlett\\Sarif\\Internal\\JsonSerializable&#45;&gt;JsonSerializable -->
<g id="edge1" class="edge">
<title>Bartlett\\Sarif\\Internal\\JsonSerializable&#45;&gt;JsonSerializable</title>
<path fill="none" stroke="black" stroke-dasharray="5,2" d="M187,-109.85C187,-97.66 187,-84.56 187,-73.06"/>
<polygon fill="none" stroke="black" points="190.5,-73.02 187,-63.02 183.5,-73.02 190.5,-73.02"/>
</g>
</g>
</svg>
