<?xml version="1.0" encoding="UTF-8" standalone="no"?>
<!DOCTYPE svg PUBLIC "-//W3C//DTD SVG 1.1//EN"
 "http://www.w3.org/Graphics/SVG/1.1/DTD/svg11.dtd">
<!-- Generated by graphviz version 2.43.0 (0)
 -->
<!-- Title: %3 Pages: 1 -->
<svg width="1060pt" height="324pt"
 viewBox="0.00 0.00 1060.38 324.00" xmlns="http://www.w3.org/2000/svg" xmlns:xlink="http://www.w3.org/1999/xlink">
<g id="graph0" class="graph" transform="scale(1 1) rotate(0) translate(4 320)">
<title>%3</title>
<polygon fill="white" stroke="transparent" points="-4,4 -4,-320 1056.38,-320 1056.38,4 -4,4"/>
<!-- bartlett/sarif&#45;php&#45;sdk -->
<g id="node1" class="node">
<title>bartlett/sarif&#45;php&#45;sdk</title>
<ellipse fill="lightgrey" stroke="black" stroke-width="2" cx="109.19" cy="-153" rx="109.38" ry="18"/>
<text text-anchor="middle" x="109.19" y="-149.3" font-family="Times,serif" font-size="14.00">bartlett/sarif&#45;php&#45;sdk</text>
</g>
<!-- php -->
<g id="node2" class="node">
<title>php</title>
<path fill="#eeeeee" stroke="black" d="M910.88,-303C910.88,-303 880.88,-303 880.88,-303 874.88,-303 868.88,-297 868.88,-291 868.88,-291 868.88,-279 868.88,-279 868.88,-273 874.88,-267 880.88,-267 880.88,-267 910.88,-267 910.88,-267 916.88,-267 922.88,-273 922.88,-279 922.88,-279 922.88,-291 922.88,-291 922.88,-297 916.88,-303 910.88,-303"/>
<text text-anchor="middle" x="895.88" y="-281.3" font-family="Times,serif" font-size="14.00" fill="#314b5f">php</text>
</g>
<!-- bartlett/sarif&#45;php&#45;sdk&#45;&gt;php -->
<g id="edge1" class="edge">
<title>bartlett/sarif&#45;php&#45;sdk&#45;&gt;php</title>
<path fill="none" stroke="#1a2833" d="M130.11,-170.92C159.87,-196.41 218.83,-242.14 278.38,-261 489.5,-327.87 761.72,-302.38 858.65,-290.1"/>
<polygon fill="#1a2833" stroke="#1a2833" points="859.33,-293.54 868.8,-288.78 858.43,-286.6 859.33,-293.54"/>
<text text-anchor="middle" x="456.88" y="-308" font-family="Times,serif" font-size="10.00" fill="#767676">^8.2</text>
</g>
<!-- ext&#45;json -->
<g id="node3" class="node">
<title>ext&#45;json</title>
<path fill="#eeeeee" stroke="black" d="M481.38,-144C481.38,-144 432.38,-144 432.38,-144 426.38,-144 420.38,-138 420.38,-132 420.38,-132 420.38,-120 420.38,-120 420.38,-114 426.38,-108 432.38,-108 432.38,-108 481.38,-108 481.38,-108 487.38,-108 493.38,-114 493.38,-120 493.38,-120 493.38,-132 493.38,-132 493.38,-138 487.38,-144 481.38,-144"/>
<text text-anchor="middle" x="456.88" y="-122.3" font-family="Times,serif" font-size="14.00" fill="#314b5f">ext&#45;json</text>
</g>
<!-- bartlett/sarif&#45;php&#45;sdk&#45;&gt;ext&#45;json -->
<g id="edge2" class="edge">
<title>bartlett/sarif&#45;php&#45;sdk&#45;&gt;ext&#45;json</title>
<path fill="none" stroke="#1a2833" d="M193.58,-141.52C207.84,-139.81 222.52,-138.22 236.38,-137 296.2,-131.72 365.43,-128.77 409.89,-127.29"/>
<polygon fill="#1a2833" stroke="#1a2833" points="410.2,-130.78 420.09,-126.96 409.98,-123.78 410.2,-130.78"/>
<text text-anchor="middle" x="248.38" y="-140" font-family="Times,serif" font-size="10.00" fill="#767676">*</text>
</g>
<!-- ext&#45;pcre -->
<g id="node4" class="node">
<title>ext&#45;pcre</title>
<path fill="#eeeeee" stroke="black" d="M482.38,-90C482.38,-90 431.38,-90 431.38,-90 425.38,-90 419.38,-84 419.38,-78 419.38,-78 419.38,-66 419.38,-66 419.38,-60 425.38,-54 431.38,-54 431.38,-54 482.38,-54 482.38,-54 488.38,-54 494.38,-60 494.38,-66 494.38,-66 494.38,-78 494.38,-78 494.38,-84 488.38,-90 482.38,-90"/>
<text text-anchor="middle" x="456.88" y="-68.3" font-family="Times,serif" font-size="14.00" fill="#314b5f">ext&#45;pcre</text>
</g>
<!-- bartlett/sarif&#45;php&#45;sdk&#45;&gt;ext&#45;pcre -->
<g id="edge3" class="edge">
<title>bartlett/sarif&#45;php&#45;sdk&#45;&gt;ext&#45;pcre</title>
<path fill="none" stroke="#1a2833" d="M154.62,-136.59C188.21,-124.71 235.69,-109.03 278.38,-99 322.15,-88.71 372.96,-81.45 408.97,-77.06"/>
<polygon fill="#1a2833" stroke="#1a2833" points="409.66,-80.5 419.18,-75.85 408.84,-73.55 409.66,-80.5"/>
<text text-anchor="middle" x="248.38" y="-111" font-family="Times,serif" font-size="10.00" fill="#767676">*</text>
</g>
<!-- ext&#45;spl -->
<g id="node5" class="node">
<title>ext&#45;spl</title>
<path fill="#eeeeee" stroke="black" d="M477.38,-36C477.38,-36 436.38,-36 436.38,-36 430.38,-36 424.38,-30 424.38,-24 424.38,-24 424.38,-12 424.38,-12 424.38,-6 430.38,0 436.38,0 436.38,0 477.38,0 477.38,0 483.38,0 489.38,-6 489.38,-12 489.38,-12 489.38,-24 489.38,-24 489.38,-30 483.38,-36 477.38,-36"/>
<text text-anchor="middle" x="456.88" y="-14.3" font-family="Times,serif" font-size="14.00" fill="#314b5f">ext&#45;spl</text>
</g>
<!-- bartlett/sarif&#45;php&#45;sdk&#45;&gt;ext&#45;spl -->
<g id="edge4" class="edge">
<title>bartlett/sarif&#45;php&#45;sdk&#45;&gt;ext&#45;spl</title>
<path fill="none" stroke="#1a2833" d="M131.17,-135.31C161.52,-110.75 220.43,-66.87 278.38,-45 322.71,-28.27 376.97,-21.89 413.74,-19.46"/>
<polygon fill="#1a2833" stroke="#1a2833" points="414.32,-22.94 424.1,-18.86 413.91,-15.95 414.32,-22.94"/>
<text text-anchor="middle" x="248.38" y="-67" font-family="Times,serif" font-size="10.00" fill="#767676">*</text>
</g>
<!-- bamarni/composer&#45;bin&#45;plugin -->
<g id="node6" class="node">
<title>bamarni/composer&#45;bin&#45;plugin</title>
<path fill="#eeeeee" stroke="black" d="M580.38,-252C580.38,-252 333.38,-252 333.38,-252 327.38,-252 321.38,-246 321.38,-240 321.38,-240 321.38,-228 321.38,-228 321.38,-222 327.38,-216 333.38,-216 333.38,-216 580.38,-216 580.38,-216 586.38,-216 592.38,-222 592.38,-228 592.38,-228 592.38,-240 592.38,-240 592.38,-246 586.38,-252 580.38,-252"/>
<text text-anchor="middle" x="456.88" y="-230.3" font-family="Times,serif" font-size="14.00" fill="#314b5f">bamarni/composer&#45;bin&#45;plugin: 1.8.2</text>
</g>
<!-- bartlett/sarif&#45;php&#45;sdk&#45;&gt;bamarni/composer&#45;bin&#45;plugin -->
<g id="edge7" class="edge">
<title>bartlett/sarif&#45;php&#45;sdk&#45;&gt;bamarni/composer&#45;bin&#45;plugin</title>
<path fill="none" stroke="#1a2833" stroke-dasharray="5,2" d="M154.62,-169.41C188.21,-181.29 235.69,-196.97 278.38,-207 289.18,-209.54 300.4,-211.89 311.72,-214.06"/>
<polygon fill="#1a2833" stroke="#1a2833" points="311.22,-217.53 321.69,-215.92 312.5,-210.65 311.22,-217.53"/>
<text text-anchor="middle" x="248.38" y="-205" font-family="Times,serif" font-size="10.00" fill="#767676">^1.8</text>
</g>
<!-- php&#45;parallel&#45;lint/php&#45;console&#45;highlighter -->
<g id="node8" class="node">
<title>php&#45;parallel&#45;lint/php&#45;console&#45;highlighter</title>
<path fill="#eeeeee" stroke="black" d="M623.38,-198C623.38,-198 290.38,-198 290.38,-198 284.38,-198 278.38,-192 278.38,-186 278.38,-186 278.38,-174 278.38,-174 278.38,-168 284.38,-162 290.38,-162 290.38,-162 623.38,-162 623.38,-162 629.38,-162 635.38,-168 635.38,-174 635.38,-174 635.38,-186 635.38,-186 635.38,-192 629.38,-198 623.38,-198"/>
<text text-anchor="middle" x="456.88" y="-176.3" font-family="Times,serif" font-size="14.00" fill="#314b5f">php&#45;parallel&#45;lint/php&#45;console&#45;highlighter: v1.0.0</text>
</g>
<!-- bartlett/sarif&#45;php&#45;sdk&#45;&gt;php&#45;parallel&#45;lint/php&#45;console&#45;highlighter -->
<g id="edge11" class="edge">
<title>bartlett/sarif&#45;php&#45;sdk&#45;&gt;php&#45;parallel&#45;lint/php&#45;console&#45;highlighter</title>
<path fill="none" stroke="#1a2833" stroke-dasharray="5,2" d="M208.33,-160.66C227.2,-162.14 247.54,-163.73 268.16,-165.34"/>
<polygon fill="#1a2833" stroke="#1a2833" points="268.06,-168.84 278.3,-166.13 268.61,-161.86 268.06,-168.84"/>
<text text-anchor="middle" x="248.38" y="-167" font-family="Times,serif" font-size="10.00" fill="#767676">^1.0</text>
</g>
<!-- bamarni/composer&#45;bin&#45;plugin&#45;&gt;php -->
<g id="edge6" class="edge">
<title>bamarni/composer&#45;bin&#45;plugin&#45;&gt;php</title>
<path fill="none" stroke="#1a2833" d="M592.56,-249.72C684.87,-260.49 800.71,-274.01 858.53,-280.76"/>
<polygon fill="#1a2833" stroke="#1a2833" points="858.3,-284.25 868.64,-281.94 859.11,-277.3 858.3,-284.25"/>
<text text-anchor="middle" x="687.38" y="-267" font-family="Times,serif" font-size="10.00" fill="#767676">^7.2.5 || ^8.0</text>
</g>
<!-- composer&#45;plugin&#45;api -->
<g id="node7" class="node">
<title>composer&#45;plugin&#45;api</title>
<path fill="#eeeeee" stroke="black" d="M964.38,-249C964.38,-249 827.38,-249 827.38,-249 821.38,-249 815.38,-243 815.38,-237 815.38,-237 815.38,-225 815.38,-225 815.38,-219 821.38,-213 827.38,-213 827.38,-213 964.38,-213 964.38,-213 970.38,-213 976.38,-219 976.38,-225 976.38,-225 976.38,-237 976.38,-237 976.38,-243 970.38,-249 964.38,-249"/>
<text text-anchor="middle" x="895.88" y="-227.3" font-family="Times,serif" font-size="14.00" fill="#314b5f">composer&#45;plugin&#45;api</text>
</g>
<!-- bamarni/composer&#45;bin&#45;plugin&#45;&gt;composer&#45;plugin&#45;api -->
<g id="edge5" class="edge">
<title>bamarni/composer&#45;bin&#45;plugin&#45;&gt;composer&#45;plugin&#45;api</title>
<path fill="none" stroke="#1a2833" d="M592.49,-232.52C612.89,-232.32 633.69,-232.14 653.38,-232 703.57,-231.64 759.62,-231.4 805.08,-231.24"/>
<polygon fill="#1a2833" stroke="#1a2833" points="805.22,-234.74 815.2,-231.21 805.19,-227.74 805.22,-234.74"/>
<text text-anchor="middle" x="687.38" y="-235" font-family="Times,serif" font-size="10.00" fill="#767676">^2.0</text>
</g>
<!-- php&#45;parallel&#45;lint/php&#45;console&#45;highlighter&#45;&gt;php -->
<g id="edge9" class="edge">
<title>php&#45;parallel&#45;lint/php&#45;console&#45;highlighter&#45;&gt;php</title>
<path fill="none" stroke="#1a2833" d="M635.41,-179.03C666.32,-185.61 696.49,-197.05 721.38,-216 737.54,-228.3 723.45,-245.41 739.38,-258 773.28,-284.79 824.41,-288.82 858.69,-287.97"/>
<polygon fill="#1a2833" stroke="#1a2833" points="858.9,-291.46 868.75,-287.56 858.62,-284.47 858.9,-291.46"/>
<text text-anchor="middle" x="687.38" y="-219" font-family="Times,serif" font-size="10.00" fill="#767676">&gt;=5.3.2</text>
</g>
<!-- ext&#45;tokenizer -->
<g id="node9" class="node">
<title>ext&#45;tokenizer</title>
<path fill="#eeeeee" stroke="black" d="M938.88,-127C938.88,-127 852.88,-127 852.88,-127 846.88,-127 840.88,-121 840.88,-115 840.88,-115 840.88,-103 840.88,-103 840.88,-97 846.88,-91 852.88,-91 852.88,-91 938.88,-91 938.88,-91 944.88,-91 950.88,-97 950.88,-103 950.88,-103 950.88,-115 950.88,-115 950.88,-121 944.88,-127 938.88,-127"/>
<text text-anchor="middle" x="895.88" y="-105.3" font-family="Times,serif" font-size="14.00" fill="#314b5f">ext&#45;tokenizer</text>
</g>
<!-- php&#45;parallel&#45;lint/php&#45;console&#45;highlighter&#45;&gt;ext&#45;tokenizer -->
<g id="edge8" class="edge">
<title>php&#45;parallel&#45;lint/php&#45;console&#45;highlighter&#45;&gt;ext&#45;tokenizer</title>
<path fill="none" stroke="#1a2833" d="M592.58,-161.99C607.1,-159.31 621.59,-156.32 635.38,-153 643.58,-151.03 645.19,-149 653.38,-147 712.67,-132.56 781.53,-122.35 830.52,-116.18"/>
<polygon fill="#1a2833" stroke="#1a2833" points="831.17,-119.63 840.66,-114.92 830.31,-112.68 831.17,-119.63"/>
<text text-anchor="middle" x="687.38" y="-150" font-family="Times,serif" font-size="10.00" fill="#767676">*</text>
</g>
<!-- php&#45;parallel&#45;lint/php&#45;console&#45;color -->
<g id="node10" class="node">
<title>php&#45;parallel&#45;lint/php&#45;console&#45;color</title>
<path fill="#eeeeee" stroke="black" d="M1040.38,-181C1040.38,-181 751.38,-181 751.38,-181 745.38,-181 739.38,-175 739.38,-169 739.38,-169 739.38,-157 739.38,-157 739.38,-151 745.38,-145 751.38,-145 751.38,-145 1040.38,-145 1040.38,-145 1046.38,-145 1052.38,-151 1052.38,-157 1052.38,-157 1052.38,-169 1052.38,-169 1052.38,-175 1046.38,-181 1040.38,-181"/>
<text text-anchor="middle" x="895.88" y="-159.3" font-family="Times,serif" font-size="14.00" fill="#314b5f">php&#45;parallel&#45;lint/php&#45;console&#45;color: v1.0.1</text>
</g>
<!-- php&#45;parallel&#45;lint/php&#45;console&#45;highlighter&#45;&gt;php&#45;parallel&#45;lint/php&#45;console&#45;color -->
<g id="edge10" class="edge">
<title>php&#45;parallel&#45;lint/php&#45;console&#45;highlighter&#45;&gt;php&#45;parallel&#45;lint/php&#45;console&#45;color</title>
<path fill="none" stroke="#1a2833" d="M635.52,-164.87C641.55,-164.54 647.51,-164.25 653.38,-164 677.88,-162.95 703.79,-162.33 729.19,-161.99"/>
<polygon fill="#1a2833" stroke="#1a2833" points="729.31,-165.49 739.27,-161.87 729.23,-158.49 729.31,-165.49"/>
<text text-anchor="middle" x="687.38" y="-167" font-family="Times,serif" font-size="10.00" fill="#767676">^1.0.1</text>
</g>
</g>
</svg>
