<?xml version="1.0" encoding="UTF-8" standalone="no"?>
<!DOCTYPE svg PUBLIC "-//W3C//DTD SVG 1.1//EN"
 "http://www.w3.org/Graphics/SVG/1.1/DTD/svg11.dtd">
<!-- Generated by graphviz version 2.43.0 (0)
 -->
<!-- Title: %3 Pages: 1 -->
<svg width="372pt" height="389pt"
 viewBox="0.00 0.00 372.00 389.00" xmlns="http://www.w3.org/2000/svg" xmlns:xlink="http://www.w3.org/1999/xlink">
<g id="graph0" class="graph" transform="scale(1 1) rotate(0) translate(4 385)">
<title>%3</title>
<g id="clust1" class="cluster">
<title>cluster_0</title>
<polygon fill="BurlyWood" stroke="black" points="8,-235 8,-373 356,-373 356,-235 8,-235"/>
<text text-anchor="middle" x="182" y="-357.8" font-family="Times,serif" font-size="14.00">Bartlett\Sarif\Definition</text>
</g>
<g id="clust2" class="cluster">
<title>cluster_1</title>
<polygon fill="Bisque" stroke="black" points="56,-102 56,-227 308,-227 308,-102 56,-102"/>
<text text-anchor="middle" x="182" y="-211.8" font-family="Times,serif" font-size="14.00">Bartlett\Sarif\Internal</text>
</g>
<g id="clust3" class="cluster">
<title>cluster_2</title>
<polygon fill="transparent" stroke="black" points="111,-8 111,-94 253,-94 253,-8 111,-8"/>
<text text-anchor="middle" x="182" y="-78.8" font-family="Times,serif" font-size="14.00">0</text>
</g>
<!-- Bartlett\\Sarif\\Definition\\SpecialLocations -->
<g id="node1" class="node">
<title>Bartlett\\Sarif\\Definition\\SpecialLocations</title>
<polygon fill="#fefece" stroke="transparent" points="348,-342 16,-342 16,-243 348,-243 348,-342"/>
<polygon fill="#eeeeee" stroke="transparent" points="16,-319.5 16,-341.5 348,-341.5 348,-319.5 16,-319.5"/>
<polygon fill="none" stroke="black" points="16,-319.5 16,-341.5 348,-341.5 348,-319.5 16,-319.5"/>
<text text-anchor="start" x="144" y="-325.1" font-family="Verdana" font-weight="bold" font-size="8.00">SpecialLocations</text>
<polygon fill="none" stroke="black" points="16,-287.5 16,-319.5 348,-319.5 348,-287.5 16,-287.5"/>
<text text-anchor="start" x="21" y="-308.1" font-family="Verdana" font-size="8.00"># displayBase</text>
<text text-anchor="start" x="21" y="-295.1" font-family="Verdana" font-size="8.00"># properties</text>
<polygon fill="none" stroke="black" points="16,-242.5 16,-287.5 348,-287.5 348,-242.5 16,-242.5"/>
<text text-anchor="start" x="21" y="-276.1" font-family="Verdana" font-size="8.00">+ __construct()</text>
<text text-anchor="start" x="21" y="-263.1" font-family="Verdana" font-size="8.00">+ setDisplayBase(displayBase : Bartlett\Sarif\Definition\ArtifactLocation) : void</text>
<text text-anchor="start" x="21" y="-250.1" font-family="Verdana" font-size="8.00">+ setProperties(propertyBag : Bartlett\Sarif\Definition\PropertyBag) : void</text>
</g>
<!-- Bartlett\\Sarif\\Internal\\JsonSerializable -->
<g id="node2" class="node">
<title>Bartlett\\Sarif\\Internal\\JsonSerializable</title>
<polygon fill="#fefece" stroke="transparent" points="300,-196 64,-196 64,-110 300,-110 300,-196"/>
<polygon fill="#eeeeee" stroke="transparent" points="64,-174 64,-196 300,-196 300,-174 64,-174"/>
<polygon fill="none" stroke="black" points="64,-174 64,-196 300,-196 300,-174 64,-174"/>
<text text-anchor="start" x="158" y="-187.6" font-family="Verdana" font-weight="bold" font-size="8.00">«abstract»</text>
<text text-anchor="start" x="145.5" y="-179.6" font-family="Verdana" font-weight="bold" font-size="8.00">JsonSerializable</text>
<polygon fill="none" stroke="black" points="64,-142 64,-174 300,-174 300,-142 64,-142"/>
<text text-anchor="start" x="69" y="-162.6" font-family="Verdana" font-size="8.00">– required : mixed</text>
<text text-anchor="start" x="69" y="-149.6" font-family="Verdana" font-size="8.00">– optional : mixed</text>
<polygon fill="none" stroke="black" points="64,-110 64,-142 300,-142 300,-110 64,-110"/>
<text text-anchor="start" x="69" y="-130.6" font-family="Verdana" font-size="8.00">+ __construct(required : array = [], optional : array = [])</text>
<text text-anchor="start" x="69" y="-117.6" font-family="Verdana" font-size="8.00">+ jsonSerialize() : array</text>
</g>
<!-- Bartlett\\Sarif\\Definition\\SpecialLocations&#45;&gt;Bartlett\\Sarif\\Internal\\JsonSerializable -->
<g id="edge2" class="edge">
<title>Bartlett\\Sarif\\Definition\\SpecialLocations&#45;&gt;Bartlett\\Sarif\\Internal\\JsonSerializable</title>
<path fill="none" stroke="black" d="M182,-242.64C182,-230.93 182,-218.39 182,-206.53"/>
<polygon fill="none" stroke="black" points="185.5,-206.32 182,-196.32 178.5,-206.32 185.5,-206.32"/>
</g>
<!-- JsonSerializable -->
<g id="node3" class="node">
<title>JsonSerializable</title>
<polygon fill="#fefece" stroke="transparent" points="244.5,-63 119.5,-63 119.5,-16 244.5,-16 244.5,-63"/>
<polygon fill="#eeeeee" stroke="transparent" points="120,-40.5 120,-62.5 245,-62.5 245,-40.5 120,-40.5"/>
<polygon fill="none" stroke="black" points="120,-40.5 120,-62.5 245,-62.5 245,-40.5 120,-40.5"/>
<text text-anchor="start" x="156.5" y="-54.1" font-family="Verdana" font-weight="bold" font-size="8.00">«interface»</text>
<text text-anchor="start" x="146" y="-46.1" font-family="Verdana" font-weight="bold" font-size="8.00">JsonSerializable</text>
<polygon fill="none" stroke="black" points="120,-34.5 120,-40.5 245,-40.5 245,-34.5 120,-34.5"/>
<polygon fill="none" stroke="black" points="120,-15.5 120,-34.5 245,-34.5 245,-15.5 120,-15.5"/>
<text text-anchor="start" x="125" y="-23.1" font-family="Verdana" font-size="8.00">+ «abstract» jsonSerialize()</text>
</g>
<!-- Bartlett\\Sarif\\Internal\\JsonSerializable&#45;&gt;JsonSerializable -->
<g id="edge1" class="edge">
<title>Bartlett\\Sarif\\Internal\\JsonSerializable&#45;&gt;JsonSerializable</title>
<path fill="none" stroke="black" stroke-dasharray="5,2" d="M182,-109.85C182,-97.66 182,-84.56 182,-73.06"/>
<polygon fill="none" stroke="black" points="185.5,-73.02 182,-63.02 178.5,-73.02 185.5,-73.02"/>
</g>
</g>
</svg>
