<?xml version="1.0" encoding="UTF-8" standalone="no"?>
<!DOCTYPE svg PUBLIC "-//W3C//DTD SVG 1.1//EN"
 "http://www.w3.org/Graphics/SVG/1.1/DTD/svg11.dtd">
<!-- Generated by graphviz version 2.43.0 (0)
 -->
<!-- Title: %3 Pages: 1 -->
<svg width="394pt" height="441pt"
 viewBox="0.00 0.00 394.00 441.00" xmlns="http://www.w3.org/2000/svg" xmlns:xlink="http://www.w3.org/1999/xlink">
<g id="graph0" class="graph" transform="scale(1 1) rotate(0) translate(4 437)">
<title>%3</title>
<g id="clust1" class="cluster">
<title>cluster_0</title>
<polygon fill="BurlyWood" stroke="black" points="8,-235 8,-425 378,-425 378,-235 8,-235"/>
<text text-anchor="middle" x="193" y="-409.8" font-family="Times,serif" font-size="14.00">Bartlett\Sarif\Definition</text>
</g>
<g id="clust2" class="cluster">
<title>cluster_1</title>
<polygon fill="Bisque" stroke="black" points="67,-102 67,-227 319,-227 319,-102 67,-102"/>
<text text-anchor="middle" x="193" y="-211.8" font-family="Times,serif" font-size="14.00">Bartlett\Sarif\Internal</text>
</g>
<g id="clust3" class="cluster">
<title>cluster_2</title>
<polygon fill="transparent" stroke="black" points="122,-8 122,-94 264,-94 264,-8 122,-8"/>
<text text-anchor="middle" x="193" y="-78.8" font-family="Times,serif" font-size="14.00">0</text>
</g>
<!-- Bartlett\\Sarif\\Definition\\ArtifactContent -->
<g id="node1" class="node">
<title>Bartlett\\Sarif\\Definition\\ArtifactContent</title>
<polygon fill="#fefece" stroke="transparent" points="369.5,-394 16.5,-394 16.5,-243 369.5,-243 369.5,-394"/>
<polygon fill="#eeeeee" stroke="transparent" points="17,-371.5 17,-393.5 370,-393.5 370,-371.5 17,-371.5"/>
<polygon fill="none" stroke="black" points="17,-371.5 17,-393.5 370,-393.5 370,-371.5 17,-371.5"/>
<text text-anchor="start" x="158.5" y="-377.1" font-family="Verdana" font-weight="bold" font-size="8.00">ArtifactContent</text>
<polygon fill="none" stroke="black" points="17,-313.5 17,-371.5 370,-371.5 370,-313.5 17,-313.5"/>
<text text-anchor="start" x="22" y="-360.1" font-family="Verdana" font-size="8.00"># text</text>
<text text-anchor="start" x="22" y="-347.1" font-family="Verdana" font-size="8.00"># binary</text>
<text text-anchor="start" x="22" y="-334.1" font-family="Verdana" font-size="8.00"># rendered</text>
<text text-anchor="start" x="22" y="-321.1" font-family="Verdana" font-size="8.00"># properties</text>
<polygon fill="none" stroke="black" points="17,-242.5 17,-313.5 370,-313.5 370,-242.5 17,-242.5"/>
<text text-anchor="start" x="22" y="-302.1" font-family="Verdana" font-size="8.00">+ __construct()</text>
<text text-anchor="start" x="22" y="-289.1" font-family="Verdana" font-size="8.00">+ setText(text : string) : void</text>
<text text-anchor="start" x="22" y="-276.1" font-family="Verdana" font-size="8.00">+ setBinary(binary : string) : void</text>
<text text-anchor="start" x="22" y="-263.1" font-family="Verdana" font-size="8.00">+ setRendered(rendered : Bartlett\Sarif\Definition\MultiformatMessageString) : void</text>
<text text-anchor="start" x="22" y="-250.1" font-family="Verdana" font-size="8.00">+ setProperties(propertyBag : Bartlett\Sarif\Definition\PropertyBag) : void</text>
</g>
<!-- Bartlett\\Sarif\\Internal\\JsonSerializable -->
<g id="node2" class="node">
<title>Bartlett\\Sarif\\Internal\\JsonSerializable</title>
<polygon fill="#fefece" stroke="transparent" points="311,-196 75,-196 75,-110 311,-110 311,-196"/>
<polygon fill="#eeeeee" stroke="transparent" points="75,-174 75,-196 311,-196 311,-174 75,-174"/>
<polygon fill="none" stroke="black" points="75,-174 75,-196 311,-196 311,-174 75,-174"/>
<text text-anchor="start" x="169" y="-187.6" font-family="Verdana" font-weight="bold" font-size="8.00">«abstract»</text>
<text text-anchor="start" x="156.5" y="-179.6" font-family="Verdana" font-weight="bold" font-size="8.00">JsonSerializable</text>
<polygon fill="none" stroke="black" points="75,-142 75,-174 311,-174 311,-142 75,-142"/>
<text text-anchor="start" x="80" y="-162.6" font-family="Verdana" font-size="8.00">– required : mixed</text>
<text text-anchor="start" x="80" y="-149.6" font-family="Verdana" font-size="8.00">– optional : mixed</text>
<polygon fill="none" stroke="black" points="75,-110 75,-142 311,-142 311,-110 75,-110"/>
<text text-anchor="start" x="80" y="-130.6" font-family="Verdana" font-size="8.00">+ __construct(required : array = [], optional : array = [])</text>
<text text-anchor="start" x="80" y="-117.6" font-family="Verdana" font-size="8.00">+ jsonSerialize() : array</text>
</g>
<!-- Bartlett\\Sarif\\Definition\\ArtifactContent&#45;&gt;Bartlett\\Sarif\\Internal\\JsonSerializable -->
<g id="edge2" class="edge">
<title>Bartlett\\Sarif\\Definition\\ArtifactContent&#45;&gt;Bartlett\\Sarif\\Internal\\JsonSerializable</title>
<path fill="none" stroke="black" d="M193,-242.93C193,-230.68 193,-218.21 193,-206.63"/>
<polygon fill="none" stroke="black" points="196.5,-206.29 193,-196.29 189.5,-206.29 196.5,-206.29"/>
</g>
<!-- JsonSerializable -->
<g id="node3" class="node">
<title>JsonSerializable</title>
<polygon fill="#fefece" stroke="transparent" points="255.5,-63 130.5,-63 130.5,-16 255.5,-16 255.5,-63"/>
<polygon fill="#eeeeee" stroke="transparent" points="131,-40.5 131,-62.5 256,-62.5 256,-40.5 131,-40.5"/>
<polygon fill="none" stroke="black" points="131,-40.5 131,-62.5 256,-62.5 256,-40.5 131,-40.5"/>
<text text-anchor="start" x="167.5" y="-54.1" font-family="Verdana" font-weight="bold" font-size="8.00">«interface»</text>
<text text-anchor="start" x="157" y="-46.1" font-family="Verdana" font-weight="bold" font-size="8.00">JsonSerializable</text>
<polygon fill="none" stroke="black" points="131,-34.5 131,-40.5 256,-40.5 256,-34.5 131,-34.5"/>
<polygon fill="none" stroke="black" points="131,-15.5 131,-34.5 256,-34.5 256,-15.5 131,-15.5"/>
<text text-anchor="start" x="136" y="-23.1" font-family="Verdana" font-size="8.00">+ «abstract» jsonSerialize()</text>
</g>
<!-- Bartlett\\Sarif\\Internal\\JsonSerializable&#45;&gt;JsonSerializable -->
<g id="edge1" class="edge">
<title>Bartlett\\Sarif\\Internal\\JsonSerializable&#45;&gt;JsonSerializable</title>
<path fill="none" stroke="black" stroke-dasharray="5,2" d="M193,-109.85C193,-97.66 193,-84.56 193,-73.06"/>
<polygon fill="none" stroke="black" points="196.5,-73.02 193,-63.02 189.5,-73.02 196.5,-73.02"/>
</g>
</g>
</svg>
